<?xml version="1.0" encoding="utf-8" standalone="no"?>
<!DOCTYPE svg PUBLIC "-//W3C//DTD SVG 1.1//EN"
  "http://www.w3.org/Graphics/SVG/1.1/DTD/svg11.dtd">
<svg xmlns:xlink="http://www.w3.org/1999/xlink" width="1233.6pt" height="2613.6pt" viewBox="0 0 1233.6 2613.6" xmlns="http://www.w3.org/2000/svg" version="1.1">
 <metadata>
  <rdf:RDF xmlns:dc="http://purl.org/dc/elements/1.1/" xmlns:cc="http://creativecommons.org/ns#" xmlns:rdf="http://www.w3.org/1999/02/22-rdf-syntax-ns#">
   <cc:Work>
    <dc:type rdf:resource="http://purl.org/dc/dcmitype/StillImage"/>
    <dc:date>2026-01-03T06:48:25.023231</dc:date>
    <dc:format>image/svg+xml</dc:format>
    <dc:creator>
     <cc:Agent>
      <dc:title>Matplotlib v3.10.7, https://matplotlib.org/</dc:title>
     </cc:Agent>
    </dc:creator>
   </cc:Work>
  </rdf:RDF>
 </metadata>
 <defs>
  <style type="text/css">*{stroke-linejoin: round; stroke-linecap: butt}</style>
 </defs>
 <g id="figure_1">
  <g id="patch_1">
   <path d="M 0 2613.6 
L 1233.6 2613.6 
L 1233.6 0 
L 0 0 
z
" style="fill: #ffffff"/>
  </g>
  <g id="axes_1">
   <g id="patch_2">
    <path d="M 0 2613.6 
L 1233.6 2613.6 
L 1233.6 0 
L 0 0 
z
" clip-path="url(#p14625a277b)" style="fill: #ffffff; stroke: #ffffff; stroke-linejoin: miter"/>
   </g>
   <g id="patch_3">
    <path d="M 448.581818 0 
Q 448.581818 14.204348 448.581818 14.204348 
" clip-path="url(#p14625a277b)" style="fill: none; stroke: #000000; stroke-linejoin: miter"/>
   </g>
   <g id="patch_4">
    <path d="M 448.581818 42.613043 
Q 448.581818 56.817391 448.581818 56.817391 
" clip-path="url(#p14625a277b)" style="fill: none; stroke: #000000; stroke-linejoin: miter"/>
   </g>
   <g id="patch_5">
    <path d="M 448.581818 85.226087 
Q 168.218182 85.226087 168.218182 113.634783 
" clip-path="url(#p14625a277b)" style="fill: none; stroke: #000000; stroke-linejoin: miter"/>
   </g>
   <g id="patch_6">
    <path d="M 448.581818 85.226087 
Q 1177.527273 85.226087 1177.527273 113.634783 
" clip-path="url(#p14625a277b)" style="fill: none; stroke: #000000; stroke-linejoin: miter"/>
   </g>
   <g id="patch_7">
    <path d="M 448.581818 56.817391 
Q 448.581818 113.634783 448.581818 113.634783 
" clip-path="url(#p14625a277b)" style="fill: none; stroke: #000000; stroke-linejoin: miter"/>
   </g>
   <g id="patch_8">
    <path d="M 168.218182 113.634783 
Q 168.218182 624.991304 168.218182 624.991304 
" clip-path="url(#p14625a277b)" style="fill: none; stroke: #000000; stroke-linejoin: miter"/>
   </g>
   <g id="patch_9">
    <path d="M 448.581818 113.634783 
Q 448.581818 127.83913 448.581818 127.83913 
" clip-path="url(#p14625a277b)" style="fill: none; stroke: #000000; stroke-linejoin: miter"/>
   </g>
   <g id="patch_10">
    <path d="M 1177.527273 113.634783 
Q 1177.527273 624.991304 1177.527273 624.991304 
" clip-path="url(#p14625a277b)" style="fill: none; stroke: #000000; stroke-linejoin: miter"/>
   </g>
   <g id="patch_11">
    <path d="M 336.436364 156.247826 
Q 336.436364 184.656522 336.436364 184.656522 
" clip-path="url(#p14625a277b)" style="fill: none; stroke: #000000; stroke-linejoin: miter"/>
   </g>
   <g id="patch_12">
    <path d="M 672.872727 156.247826 
Q 672.872727 284.086957 672.872727 284.086957 
" clip-path="url(#p14625a277b)" style="fill: none; stroke: #000000; stroke-linejoin: miter"/>
   </g>
   <g id="patch_13">
    <path d="M 336.436364 269.882609 
Q 336.436364 525.56087 336.436364 525.56087 
" clip-path="url(#p14625a277b)" style="fill: none; stroke: #000000; stroke-linejoin: miter"/>
   </g>
   <g id="patch_14">
    <path d="M 672.872727 312.495652 
Q 504.654545 312.495652 504.654545 340.904348 
" clip-path="url(#p14625a277b)" style="fill: none; stroke: #000000; stroke-linejoin: miter"/>
   </g>
   <g id="patch_15">
    <path d="M 672.872727 312.495652 
Q 1065.381818 312.495652 1065.381818 340.904348 
" clip-path="url(#p14625a277b)" style="fill: none; stroke: #000000; stroke-linejoin: miter"/>
   </g>
   <g id="patch_16">
    <path d="M 672.872727 284.086957 
Q 672.872727 340.904348 672.872727 340.904348 
" clip-path="url(#p14625a277b)" style="fill: none; stroke: #000000; stroke-linejoin: miter"/>
   </g>
   <g id="patch_17">
    <path d="M 504.654545 340.904348 
Q 504.654545 454.53913 504.654545 454.53913 
" clip-path="url(#p14625a277b)" style="fill: none; stroke: #000000; stroke-linejoin: miter"/>
   </g>
   <g id="patch_18">
    <path d="M 672.872727 340.904348 
Q 672.872727 355.108696 672.872727 355.108696 
" clip-path="url(#p14625a277b)" style="fill: none; stroke: #000000; stroke-linejoin: miter"/>
   </g>
   <g id="patch_19">
    <path d="M 1065.381818 340.904348 
Q 1065.381818 454.53913 1065.381818 454.53913 
" clip-path="url(#p14625a277b)" style="fill: none; stroke: #000000; stroke-linejoin: miter"/>
   </g>
   <g id="patch_20">
    <path d="M 672.872727 383.517391 
Q 672.872727 454.53913 672.872727 454.53913 
" clip-path="url(#p14625a277b)" style="fill: none; stroke: #000000; stroke-linejoin: miter"/>
   </g>
   <g id="patch_21">
    <path d="M 504.654545 454.53913 
Q 504.654545 482.947826 672.872727 482.947826 
" clip-path="url(#p14625a277b)" style="fill: none; stroke: #000000; stroke-linejoin: miter"/>
   </g>
   <g id="patch_22">
    <path d="M 672.872727 454.53913 
Q 672.872727 511.356522 672.872727 511.356522 
" clip-path="url(#p14625a277b)" style="fill: none; stroke: #000000; stroke-linejoin: miter"/>
   </g>
   <g id="patch_23">
    <path d="M 1065.381818 454.53913 
Q 1065.381818 482.947826 672.872727 482.947826 
" clip-path="url(#p14625a277b)" style="fill: none; stroke: #000000; stroke-linejoin: miter"/>
   </g>
   <g id="patch_24">
    <path d="M 672.872727 511.356522 
Q 672.872727 525.56087 672.872727 525.56087 
" clip-path="url(#p14625a277b)" style="fill: none; stroke: #000000; stroke-linejoin: miter"/>
   </g>
   <g id="patch_25">
    <path d="M 504.654545 553.969565 
Q 504.654545 624.991304 504.654545 624.991304 
" clip-path="url(#p14625a277b)" style="fill: none; stroke: #000000; stroke-linejoin: miter"/>
   </g>
   <g id="patch_26">
    <path d="M 168.218182 624.991304 
Q 168.218182 653.4 504.654545 653.4 
" clip-path="url(#p14625a277b)" style="fill: none; stroke: #000000; stroke-linejoin: miter"/>
   </g>
   <g id="patch_27">
    <path d="M 504.654545 624.991304 
Q 504.654545 681.808696 504.654545 681.808696 
" clip-path="url(#p14625a277b)" style="fill: none; stroke: #000000; stroke-linejoin: miter"/>
   </g>
   <g id="patch_28">
    <path d="M 1177.527273 624.991304 
Q 1177.527273 653.4 504.654545 653.4 
" clip-path="url(#p14625a277b)" style="fill: none; stroke: #000000; stroke-linejoin: miter"/>
   </g>
   <g id="patch_29">
    <path d="M 504.654545 681.808696 
Q 504.654545 696.013043 504.654545 696.013043 
" clip-path="url(#p14625a277b)" style="fill: none; stroke: #000000; stroke-linejoin: miter"/>
   </g>
   <g id="patch_30">
    <path d="M 224.290909 781.23913 
Q 224.290909 809.647826 224.290909 809.647826 
" clip-path="url(#p14625a277b)" style="fill: none; stroke: #000000; stroke-linejoin: miter"/>
   </g>
   <g id="patch_31">
    <path d="M 224.290909 838.056522 
Q 224.290909 866.465217 224.290909 866.465217 
" clip-path="url(#p14625a277b)" style="fill: none; stroke: #000000; stroke-linejoin: miter"/>
   </g>
   <g id="patch_32">
    <path d="M 224.290909 894.873913 
Q 224.290909 923.282609 224.290909 923.282609 
" clip-path="url(#p14625a277b)" style="fill: none; stroke: #000000; stroke-linejoin: miter"/>
   </g>
   <g id="patch_33">
    <path d="M 224.290909 951.691304 
Q 224.290909 980.1 224.290909 980.1 
" clip-path="url(#p14625a277b)" style="fill: none; stroke: #000000; stroke-linejoin: miter"/>
   </g>
   <g id="patch_34">
    <path d="M 224.290909 1122.143478 
Q 224.290909 1207.369565 224.290909 1207.369565 
" clip-path="url(#p14625a277b)" style="fill: none; stroke: #000000; stroke-linejoin: miter"/>
   </g>
   <g id="patch_35">
    <path d="M 448.581818 1178.96087 
Q 448.581818 1207.369565 448.581818 1207.369565 
" clip-path="url(#p14625a277b)" style="fill: none; stroke: #000000; stroke-linejoin: miter"/>
   </g>
   <g id="patch_36">
    <path d="M 336.436364 1235.778261 
Q 336.436364 1264.186957 336.436364 1264.186957 
" clip-path="url(#p14625a277b)" style="fill: none; stroke: #000000; stroke-linejoin: miter"/>
   </g>
   <g id="patch_37">
    <path d="M 336.436364 1292.595652 
Q 336.436364 1321.004348 336.436364 1321.004348 
" clip-path="url(#p14625a277b)" style="fill: none; stroke: #000000; stroke-linejoin: miter"/>
   </g>
   <g id="patch_38">
    <path d="M 336.436364 1349.413043 
Q 336.436364 1363.617391 336.436364 1363.617391 
" clip-path="url(#p14625a277b)" style="fill: none; stroke: #000000; stroke-linejoin: miter"/>
   </g>
   <g id="patch_39">
    <path d="M 336.436364 1392.026087 
Q 168.218182 1392.026087 168.218182 1420.434783 
" clip-path="url(#p14625a277b)" style="fill: none; stroke: #000000; stroke-linejoin: miter"/>
   </g>
   <g id="patch_40">
    <path d="M 336.436364 1392.026087 
Q 841.090909 1392.026087 841.090909 1420.434783 
" clip-path="url(#p14625a277b)" style="fill: none; stroke: #000000; stroke-linejoin: miter"/>
   </g>
   <g id="patch_41">
    <path d="M 336.436364 1363.617391 
Q 336.436364 1420.434783 336.436364 1420.434783 
" clip-path="url(#p14625a277b)" style="fill: none; stroke: #000000; stroke-linejoin: miter"/>
   </g>
   <g id="patch_42">
    <path d="M 168.218182 1420.434783 
Q 168.218182 1761.33913 168.218182 1761.33913 
" clip-path="url(#p14625a277b)" style="fill: none; stroke: #000000; stroke-linejoin: miter"/>
   </g>
   <g id="patch_43">
    <path d="M 336.436364 1420.434783 
Q 336.436364 1434.63913 336.436364 1434.63913 
" clip-path="url(#p14625a277b)" style="fill: none; stroke: #000000; stroke-linejoin: miter"/>
   </g>
   <g id="patch_44">
    <path d="M 841.090909 1420.434783 
Q 841.090909 1761.33913 841.090909 1761.33913 
" clip-path="url(#p14625a277b)" style="fill: none; stroke: #000000; stroke-linejoin: miter"/>
   </g>
   <g id="patch_45">
    <path d="M 336.436364 1576.682609 
Q 336.436364 1661.908696 336.436364 1661.908696 
" clip-path="url(#p14625a277b)" style="fill: none; stroke: #000000; stroke-linejoin: miter"/>
   </g>
   <g id="patch_46">
    <path d="M 560.727273 1633.5 
Q 560.727273 1661.908696 560.727273 1661.908696 
" clip-path="url(#p14625a277b)" style="fill: none; stroke: #000000; stroke-linejoin: miter"/>
   </g>
   <g id="patch_47">
    <path d="M 448.581818 1690.317391 
Q 448.581818 1761.33913 448.581818 1761.33913 
" clip-path="url(#p14625a277b)" style="fill: none; stroke: #000000; stroke-linejoin: miter"/>
   </g>
   <g id="patch_48">
    <path d="M 168.218182 1761.33913 
Q 168.218182 1789.747826 448.581818 1789.747826 
" clip-path="url(#p14625a277b)" style="fill: none; stroke: #000000; stroke-linejoin: miter"/>
   </g>
   <g id="patch_49">
    <path d="M 448.581818 1761.33913 
Q 448.581818 1818.156522 448.581818 1818.156522 
" clip-path="url(#p14625a277b)" style="fill: none; stroke: #000000; stroke-linejoin: miter"/>
   </g>
   <g id="patch_50">
    <path d="M 841.090909 1761.33913 
Q 841.090909 1789.747826 448.581818 1789.747826 
" clip-path="url(#p14625a277b)" style="fill: none; stroke: #000000; stroke-linejoin: miter"/>
   </g>
   <g id="patch_51">
    <path d="M 448.581818 1818.156522 
Q 448.581818 1832.36087 448.581818 1832.36087 
" clip-path="url(#p14625a277b)" style="fill: none; stroke: #000000; stroke-linejoin: miter"/>
   </g>
   <g id="patch_52">
    <path d="M 224.290909 1917.586957 
Q 224.290909 1945.995652 224.290909 1945.995652 
" clip-path="url(#p14625a277b)" style="fill: none; stroke: #000000; stroke-linejoin: miter"/>
   </g>
   <g id="patch_53">
    <path d="M 224.290909 1974.404348 
Q 224.290909 2002.813043 224.290909 2002.813043 
" clip-path="url(#p14625a277b)" style="fill: none; stroke: #000000; stroke-linejoin: miter"/>
   </g>
   <g id="patch_54">
    <path d="M 224.290909 2031.221739 
Q 224.290909 2045.426087 224.290909 2045.426087 
" clip-path="url(#p14625a277b)" style="fill: none; stroke: #000000; stroke-linejoin: miter"/>
   </g>
   <g id="patch_55">
    <path d="M 224.290909 2073.834783 
Q 56.072727 2073.834783 56.072727 2102.243478 
" clip-path="url(#p14625a277b)" style="fill: none; stroke: #000000; stroke-linejoin: miter"/>
   </g>
   <g id="patch_56">
    <path d="M 224.290909 2073.834783 
Q 728.945455 2073.834783 728.945455 2102.243478 
" clip-path="url(#p14625a277b)" style="fill: none; stroke: #000000; stroke-linejoin: miter"/>
   </g>
   <g id="patch_57">
    <path d="M 224.290909 2045.426087 
Q 224.290909 2102.243478 224.290909 2102.243478 
" clip-path="url(#p14625a277b)" style="fill: none; stroke: #000000; stroke-linejoin: miter"/>
   </g>
   <g id="patch_58">
    <path d="M 56.072727 2102.243478 
Q 56.072727 2443.147826 56.072727 2443.147826 
" clip-path="url(#p14625a277b)" style="fill: none; stroke: #000000; stroke-linejoin: miter"/>
   </g>
   <g id="patch_59">
    <path d="M 224.290909 2102.243478 
Q 224.290909 2116.447826 224.290909 2116.447826 
" clip-path="url(#p14625a277b)" style="fill: none; stroke: #000000; stroke-linejoin: miter"/>
   </g>
   <g id="patch_60">
    <path d="M 728.945455 2102.243478 
Q 728.945455 2443.147826 728.945455 2443.147826 
" clip-path="url(#p14625a277b)" style="fill: none; stroke: #000000; stroke-linejoin: miter"/>
   </g>
   <g id="patch_61">
    <path d="M 224.290909 2258.491304 
Q 224.290909 2343.717391 224.290909 2343.717391 
" clip-path="url(#p14625a277b)" style="fill: none; stroke: #000000; stroke-linejoin: miter"/>
   </g>
   <g id="patch_62">
    <path d="M 448.581818 2315.308696 
Q 448.581818 2343.717391 448.581818 2343.717391 
" clip-path="url(#p14625a277b)" style="fill: none; stroke: #000000; stroke-linejoin: miter"/>
   </g>
   <g id="patch_63">
    <path d="M 336.436364 2372.126087 
Q 336.436364 2443.147826 336.436364 2443.147826 
" clip-path="url(#p14625a277b)" style="fill: none; stroke: #000000; stroke-linejoin: miter"/>
   </g>
   <g id="patch_64">
    <path d="M 56.072727 2443.147826 
Q 56.072727 2471.556522 336.436364 2471.556522 
" clip-path="url(#p14625a277b)" style="fill: none; stroke: #000000; stroke-linejoin: miter"/>
   </g>
   <g id="patch_65">
    <path d="M 336.436364 2443.147826 
Q 336.436364 2499.965217 336.436364 2499.965217 
" clip-path="url(#p14625a277b)" style="fill: none; stroke: #000000; stroke-linejoin: miter"/>
   </g>
   <g id="patch_66">
    <path d="M 728.945455 2443.147826 
Q 728.945455 2471.556522 336.436364 2471.556522 
" clip-path="url(#p14625a277b)" style="fill: none; stroke: #000000; stroke-linejoin: miter"/>
   </g>
   <g id="patch_67">
    <path d="M 336.436364 2499.965217 
Q 336.436364 2514.169565 336.436364 2514.169565 
" clip-path="url(#p14625a277b)" style="fill: none; stroke: #000000; stroke-linejoin: miter"/>
   </g>
   <g id="patch_68">
    <path d="M 336.436364 2542.578261 
Q 336.436364 2570.986957 336.436364 2570.986957 
" clip-path="url(#p14625a277b)" style="fill: none; stroke: #000000; stroke-linejoin: miter"/>
   </g>
   <g id="patch_69">
    <path d="M 336.436364 2599.395652 
Q 336.436364 2613.6 336.436364 2613.6 
" clip-path="url(#p14625a277b)" style="fill: none; stroke: #000000; stroke-linejoin: miter"/>
   </g>
   <g id="patch_70">
    <path d="M 392.509091 42.613043 
L 392.509091 14.204348 
L 504.654545 14.204348 
L 504.654545 42.613043 
z
" clip-path="url(#p14625a277b)" style="fill: #ffffff; stroke: #000000; stroke-linejoin: miter"/>
   </g>
   <g id="patch_71">
    <path d="M 280.363636 156.247826 
L 280.363636 127.83913 
L 728.945455 127.83913 
L 728.945455 156.247826 
z
" clip-path="url(#p14625a277b)" style="fill: #ffffff; stroke: #000000; stroke-linejoin: miter"/>
   </g>
   <g id="patch_72">
    <path d="M 280.363636 213.065217 
L 280.363636 184.656522 
L 392.509091 184.656522 
L 392.509091 213.065217 
z
" clip-path="url(#p14625a277b)" style="fill: #ffffff; stroke: #000000; stroke-linejoin: miter"/>
   </g>
   <g id="patch_73">
    <path d="M 280.363636 269.882609 
L 280.363636 241.473913 
L 392.509091 241.473913 
L 392.509091 269.882609 
z
" clip-path="url(#p14625a277b)" style="fill: #ffffff; stroke: #000000; stroke-linejoin: miter"/>
   </g>
   <g id="patch_74">
    <path d="M 616.8 383.517391 
L 616.8 355.108696 
L 728.945455 355.108696 
L 728.945455 383.517391 
z
" clip-path="url(#p14625a277b)" style="fill: #ffffff; stroke: #000000; stroke-linejoin: miter"/>
   </g>
   <g id="patch_75">
    <path d="M 841.090909 440.334783 
L 841.090909 411.926087 
L 953.236364 411.926087 
L 953.236364 440.334783 
z
" clip-path="url(#p14625a277b)" style="fill: #ffffff; stroke: #000000; stroke-linejoin: miter"/>
   </g>
   <g id="patch_76">
    <path d="M 280.363636 553.969565 
L 280.363636 525.56087 
L 728.945455 525.56087 
L 728.945455 553.969565 
z
" clip-path="url(#p14625a277b)" style="fill: #ffffff; stroke: #000000; stroke-linejoin: miter"/>
   </g>
   <g id="patch_77">
    <path d="M 672.872727 610.786957 
L 672.872727 582.378261 
L 785.018182 582.378261 
L 785.018182 610.786957 
z
" clip-path="url(#p14625a277b)" style="fill: #ffffff; stroke: #000000; stroke-linejoin: miter"/>
   </g>
   <g id="patch_78">
    <path d="M 448.581818 724.421739 
L 448.581818 696.013043 
L 560.727273 696.013043 
L 560.727273 724.421739 
z
" clip-path="url(#p14625a277b)" style="fill: #ffffff; stroke: #000000; stroke-linejoin: miter"/>
   </g>
   <g id="patch_79">
    <path d="M 168.218182 781.23913 
L 168.218182 752.830435 
L 280.363636 752.830435 
L 280.363636 781.23913 
z
" clip-path="url(#p14625a277b)" style="fill: #ffffff; stroke: #000000; stroke-linejoin: miter"/>
   </g>
   <g id="patch_80">
    <path d="M 168.218182 838.056522 
L 168.218182 809.647826 
L 280.363636 809.647826 
L 280.363636 838.056522 
z
" clip-path="url(#p14625a277b)" style="fill: #ffffff; stroke: #000000; stroke-linejoin: miter"/>
   </g>
   <g id="patch_81">
    <path d="M 168.218182 894.873913 
L 168.218182 866.465217 
L 280.363636 866.465217 
L 280.363636 894.873913 
z
" clip-path="url(#p14625a277b)" style="fill: #ffffff; stroke: #000000; stroke-linejoin: miter"/>
   </g>
   <g id="patch_82">
    <path d="M 168.218182 951.691304 
L 168.218182 923.282609 
L 280.363636 923.282609 
L 280.363636 951.691304 
z
" clip-path="url(#p14625a277b)" style="fill: #ffffff; stroke: #000000; stroke-linejoin: miter"/>
   </g>
   <g id="patch_83">
    <path d="M 168.218182 1008.508696 
L 168.218182 980.1 
L 280.363636 980.1 
L 280.363636 1008.508696 
z
" clip-path="url(#p14625a277b)" style="fill: #ffffff; stroke: #000000; stroke-linejoin: miter"/>
   </g>
   <g id="patch_84">
    <path d="M 168.218182 1065.326087 
L 168.218182 1036.917391 
L 280.363636 1036.917391 
L 280.363636 1065.326087 
z
" clip-path="url(#p14625a277b)" style="fill: #ffffff; stroke: #000000; stroke-linejoin: miter"/>
   </g>
   <g id="patch_85">
    <path d="M 168.218182 1122.143478 
L 168.218182 1093.734783 
L 280.363636 1093.734783 
L 280.363636 1122.143478 
z
" clip-path="url(#p14625a277b)" style="fill: #ffffff; stroke: #000000; stroke-linejoin: miter"/>
   </g>
   <g id="patch_86">
    <path d="M 392.509091 1178.96087 
L 392.509091 1150.552174 
L 504.654545 1150.552174 
L 504.654545 1178.96087 
z
" clip-path="url(#p14625a277b)" style="fill: #ffffff; stroke: #000000; stroke-linejoin: miter"/>
   </g>
   <g id="patch_87">
    <path d="M 168.218182 1235.778261 
L 168.218182 1207.369565 
L 504.654545 1207.369565 
L 504.654545 1235.778261 
z
" clip-path="url(#p14625a277b)" style="fill: #ffffff; stroke: #000000; stroke-linejoin: miter"/>
   </g>
   <g id="patch_88">
    <path d="M 280.363636 1292.595652 
L 280.363636 1264.186957 
L 392.509091 1264.186957 
L 392.509091 1292.595652 
z
" clip-path="url(#p14625a277b)" style="fill: #ffffff; stroke: #000000; stroke-linejoin: miter"/>
   </g>
   <g id="patch_89">
    <path d="M 280.363636 1349.413043 
L 280.363636 1321.004348 
L 392.509091 1321.004348 
L 392.509091 1349.413043 
z
" clip-path="url(#p14625a277b)" style="fill: #ffffff; stroke: #000000; stroke-linejoin: miter"/>
   </g>
   <g id="patch_90">
    <path d="M 280.363636 1463.047826 
L 280.363636 1434.63913 
L 392.509091 1434.63913 
L 392.509091 1463.047826 
z
" clip-path="url(#p14625a277b)" style="fill: #ffffff; stroke: #000000; stroke-linejoin: miter"/>
   </g>
   <g id="patch_91">
    <path d="M 280.363636 1519.865217 
L 280.363636 1491.456522 
L 392.509091 1491.456522 
L 392.509091 1519.865217 
z
" clip-path="url(#p14625a277b)" style="fill: #ffffff; stroke: #000000; stroke-linejoin: miter"/>
   </g>
   <g id="patch_92">
    <path d="M 280.363636 1576.682609 
L 280.363636 1548.273913 
L 392.509091 1548.273913 
L 392.509091 1576.682609 
z
" clip-path="url(#p14625a277b)" style="fill: #ffffff; stroke: #000000; stroke-linejoin: miter"/>
   </g>
   <g id="patch_93">
    <path d="M 504.654545 1633.5 
L 504.654545 1605.091304 
L 616.8 1605.091304 
L 616.8 1633.5 
z
" clip-path="url(#p14625a277b)" style="fill: #ffffff; stroke: #000000; stroke-linejoin: miter"/>
   </g>
   <g id="patch_94">
    <path d="M 280.363636 1690.317391 
L 280.363636 1661.908696 
L 616.8 1661.908696 
L 616.8 1690.317391 
z
" clip-path="url(#p14625a277b)" style="fill: #ffffff; stroke: #000000; stroke-linejoin: miter"/>
   </g>
   <g id="patch_95">
    <path d="M 616.8 1747.134783 
L 616.8 1718.726087 
L 728.945455 1718.726087 
L 728.945455 1747.134783 
z
" clip-path="url(#p14625a277b)" style="fill: #ffffff; stroke: #000000; stroke-linejoin: miter"/>
   </g>
   <g id="patch_96">
    <path d="M 392.509091 1860.769565 
L 392.509091 1832.36087 
L 504.654545 1832.36087 
L 504.654545 1860.769565 
z
" clip-path="url(#p14625a277b)" style="fill: #ffffff; stroke: #000000; stroke-linejoin: miter"/>
   </g>
   <g id="patch_97">
    <path d="M 168.218182 1917.586957 
L 168.218182 1889.178261 
L 280.363636 1889.178261 
L 280.363636 1917.586957 
z
" clip-path="url(#p14625a277b)" style="fill: #ffffff; stroke: #000000; stroke-linejoin: miter"/>
   </g>
   <g id="patch_98">
    <path d="M 168.218182 1974.404348 
L 168.218182 1945.995652 
L 280.363636 1945.995652 
L 280.363636 1974.404348 
z
" clip-path="url(#p14625a277b)" style="fill: #ffffff; stroke: #000000; stroke-linejoin: miter"/>
   </g>
   <g id="patch_99">
    <path d="M 168.218182 2031.221739 
L 168.218182 2002.813043 
L 280.363636 2002.813043 
L 280.363636 2031.221739 
z
" clip-path="url(#p14625a277b)" style="fill: #ffffff; stroke: #000000; stroke-linejoin: miter"/>
   </g>
   <g id="patch_100">
    <path d="M 168.218182 2144.856522 
L 168.218182 2116.447826 
L 280.363636 2116.447826 
L 280.363636 2144.856522 
z
" clip-path="url(#p14625a277b)" style="fill: #ffffff; stroke: #000000; stroke-linejoin: miter"/>
   </g>
   <g id="patch_101">
    <path d="M 168.218182 2201.673913 
L 168.218182 2173.265217 
L 280.363636 2173.265217 
L 280.363636 2201.673913 
z
" clip-path="url(#p14625a277b)" style="fill: #ffffff; stroke: #000000; stroke-linejoin: miter"/>
   </g>
   <g id="patch_102">
    <path d="M 168.218182 2258.491304 
L 168.218182 2230.082609 
L 280.363636 2230.082609 
L 280.363636 2258.491304 
z
" clip-path="url(#p14625a277b)" style="fill: #ffffff; stroke: #000000; stroke-linejoin: miter"/>
   </g>
   <g id="patch_103">
    <path d="M 392.509091 2315.308696 
L 392.509091 2286.9 
L 504.654545 2286.9 
L 504.654545 2315.308696 
z
" clip-path="url(#p14625a277b)" style="fill: #ffffff; stroke: #000000; stroke-linejoin: miter"/>
   </g>
   <g id="patch_104">
    <path d="M 168.218182 2372.126087 
L 168.218182 2343.717391 
L 504.654545 2343.717391 
L 504.654545 2372.126087 
z
" clip-path="url(#p14625a277b)" style="fill: #ffffff; stroke: #000000; stroke-linejoin: miter"/>
   </g>
   <g id="patch_105">
    <path d="M 504.654545 2428.943478 
L 504.654545 2400.534783 
L 616.8 2400.534783 
L 616.8 2428.943478 
z
" clip-path="url(#p14625a277b)" style="fill: #ffffff; stroke: #000000; stroke-linejoin: miter"/>
   </g>
   <g id="patch_106">
    <path d="M 280.363636 2542.578261 
L 280.363636 2514.169565 
L 392.509091 2514.169565 
L 392.509091 2542.578261 
z
" clip-path="url(#p14625a277b)" style="fill: #ffffff; stroke: #000000; stroke-linejoin: miter"/>
   </g>
   <g id="patch_107">
    <path d="M 280.363636 2599.395652 
L 280.363636 2570.986957 
L 392.509091 2570.986957 
L 392.509091 2599.395652 
z
" clip-path="url(#p14625a277b)" style="fill: #ffffff; stroke: #000000; stroke-linejoin: miter"/>
   </g>
   <g id="text_1">
    <!-- Copy(Ty(), 1) -->
    <g transform="translate(256.108381 44.964946) scale(0.6 -0.6)">
     <defs>
      <path id="DejaVuSans-43" d="M 4122 4306 
L 4122 3641 
Q 3803 3938 3442 4084 
Q 3081 4231 2675 4231 
Q 1875 4231 1450 3742 
Q 1025 3253 1025 2328 
Q 1025 1406 1450 917 
Q 1875 428 2675 428 
Q 3081 428 3442 575 
Q 3803 722 4122 1019 
L 4122 359 
Q 3791 134 3420 21 
Q 3050 -91 2638 -91 
Q 1578 -91 968 557 
Q 359 1206 359 2328 
Q 359 3453 968 4101 
Q 1578 4750 2638 4750 
Q 3056 4750 3426 4639 
Q 3797 4528 4122 4306 
z
" transform="scale(0.015625)"/>
      <path id="DejaVuSans-6f" d="M 1959 3097 
Q 1497 3097 1228 2736 
Q 959 2375 959 1747 
Q 959 1119 1226 758 
Q 1494 397 1959 397 
Q 2419 397 2687 759 
Q 2956 1122 2956 1747 
Q 2956 2369 2687 2733 
Q 2419 3097 1959 3097 
z
M 1959 3584 
Q 2709 3584 3137 3096 
Q 3566 2609 3566 1747 
Q 3566 888 3137 398 
Q 2709 -91 1959 -91 
Q 1206 -91 779 398 
Q 353 888 353 1747 
Q 353 2609 779 3096 
Q 1206 3584 1959 3584 
z
" transform="scale(0.015625)"/>
      <path id="DejaVuSans-70" d="M 1159 525 
L 1159 -1331 
L 581 -1331 
L 581 3500 
L 1159 3500 
L 1159 2969 
Q 1341 3281 1617 3432 
Q 1894 3584 2278 3584 
Q 2916 3584 3314 3078 
Q 3713 2572 3713 1747 
Q 3713 922 3314 415 
Q 2916 -91 2278 -91 
Q 1894 -91 1617 61 
Q 1341 213 1159 525 
z
M 3116 1747 
Q 3116 2381 2855 2742 
Q 2594 3103 2138 3103 
Q 1681 3103 1420 2742 
Q 1159 2381 1159 1747 
Q 1159 1113 1420 752 
Q 1681 391 2138 391 
Q 2594 391 2855 752 
Q 3116 1113 3116 1747 
z
" transform="scale(0.015625)"/>
      <path id="DejaVuSans-79" d="M 2059 -325 
Q 1816 -950 1584 -1140 
Q 1353 -1331 966 -1331 
L 506 -1331 
L 506 -850 
L 844 -850 
Q 1081 -850 1212 -737 
Q 1344 -625 1503 -206 
L 1606 56 
L 191 3500 
L 800 3500 
L 1894 763 
L 2988 3500 
L 3597 3500 
L 2059 -325 
z
" transform="scale(0.015625)"/>
      <path id="DejaVuSans-28" d="M 1984 4856 
Q 1566 4138 1362 3434 
Q 1159 2731 1159 2009 
Q 1159 1288 1364 580 
Q 1569 -128 1984 -844 
L 1484 -844 
Q 1016 -109 783 600 
Q 550 1309 550 2009 
Q 550 2706 781 3412 
Q 1013 4119 1484 4856 
L 1984 4856 
z
" transform="scale(0.015625)"/>
      <path id="DejaVuSans-54" d="M -19 4666 
L 3928 4666 
L 3928 4134 
L 2272 4134 
L 2272 0 
L 1638 0 
L 1638 4134 
L -19 4134 
L -19 4666 
z
" transform="scale(0.015625)"/>
      <path id="DejaVuSans-29" d="M 513 4856 
L 1013 4856 
Q 1481 4119 1714 3412 
Q 1947 2706 1947 2009 
Q 1947 1309 1714 600 
Q 1481 -109 1013 -844 
L 513 -844 
Q 928 -128 1133 580 
Q 1338 1288 1338 2009 
Q 1338 2731 1133 3434 
Q 928 4138 513 4856 
z
" transform="scale(0.015625)"/>
      <path id="DejaVuSans-2c" d="M 750 794 
L 1409 794 
L 1409 256 
L 897 -744 
L 494 -744 
L 750 256 
L 750 794 
z
" transform="scale(0.015625)"/>
      <path id="DejaVuSans-20" transform="scale(0.015625)"/>
      <path id="DejaVuSans-31" d="M 794 531 
L 1825 531 
L 1825 4091 
L 703 3866 
L 703 4441 
L 1819 4666 
L 2450 4666 
L 2450 531 
L 3481 531 
L 3481 0 
L 794 0 
L 794 531 
z
" transform="scale(0.015625)"/>
     </defs>
     <use xlink:href="#DejaVuSans-43"/>
     <use xlink:href="#DejaVuSans-6f" transform="translate(69.824219 0)"/>
     <use xlink:href="#DejaVuSans-70" transform="translate(131.005859 0)"/>
     <use xlink:href="#DejaVuSans-79" transform="translate(194.482422 0)"/>
     <use xlink:href="#DejaVuSans-28" transform="translate(253.662109 0)"/>
     <use xlink:href="#DejaVuSans-54" transform="translate(292.675781 0)"/>
     <use xlink:href="#DejaVuSans-79" transform="translate(338.134766 0)"/>
     <use xlink:href="#DejaVuSans-28" transform="translate(397.314453 0)"/>
     <use xlink:href="#DejaVuSans-29" transform="translate(436.328125 0)"/>
     <use xlink:href="#DejaVuSans-2c" transform="translate(475.341797 0)"/>
     <use xlink:href="#DejaVuSans-20" transform="translate(507.128906 0)"/>
     <use xlink:href="#DejaVuSans-31" transform="translate(538.916016 0)"/>
     <use xlink:href="#DejaVuSans-29" transform="translate(602.539062 0)"/>
    </g>
   </g>
   <g id="text_2">
    <!-- Copy(Ty(), 2) -->
    <g transform="translate(312.181108 158.599728) scale(0.6 -0.6)">
     <defs>
      <path id="DejaVuSans-32" d="M 1228 531 
L 3431 531 
L 3431 0 
L 469 0 
L 469 531 
Q 828 903 1448 1529 
Q 2069 2156 2228 2338 
Q 2531 2678 2651 2914 
Q 2772 3150 2772 3378 
Q 2772 3750 2511 3984 
Q 2250 4219 1831 4219 
Q 1534 4219 1204 4116 
Q 875 4013 500 3803 
L 500 4441 
Q 881 4594 1212 4672 
Q 1544 4750 1819 4750 
Q 2544 4750 2975 4387 
Q 3406 4025 3406 3419 
Q 3406 3131 3298 2873 
Q 3191 2616 2906 2266 
Q 2828 2175 2409 1742 
Q 1991 1309 1228 531 
z
" transform="scale(0.015625)"/>
     </defs>
     <use xlink:href="#DejaVuSans-43"/>
     <use xlink:href="#DejaVuSans-6f" transform="translate(69.824219 0)"/>
     <use xlink:href="#DejaVuSans-70" transform="translate(131.005859 0)"/>
     <use xlink:href="#DejaVuSans-79" transform="translate(194.482422 0)"/>
     <use xlink:href="#DejaVuSans-28" transform="translate(253.662109 0)"/>
     <use xlink:href="#DejaVuSans-54" transform="translate(292.675781 0)"/>
     <use xlink:href="#DejaVuSans-79" transform="translate(338.134766 0)"/>
     <use xlink:href="#DejaVuSans-28" transform="translate(397.314453 0)"/>
     <use xlink:href="#DejaVuSans-29" transform="translate(436.328125 0)"/>
     <use xlink:href="#DejaVuSans-2c" transform="translate(475.341797 0)"/>
     <use xlink:href="#DejaVuSans-20" transform="translate(507.128906 0)"/>
     <use xlink:href="#DejaVuSans-32" transform="translate(538.916016 0)"/>
     <use xlink:href="#DejaVuSans-29" transform="translate(602.539062 0)"/>
    </g>
   </g>
   <g id="text_3">
    <!-- Discard(Ty()) -->
    <g transform="translate(145.430114 215.41712) scale(0.6 -0.6)">
     <defs>
      <path id="DejaVuSans-44" d="M 1259 4147 
L 1259 519 
L 2022 519 
Q 2988 519 3436 956 
Q 3884 1394 3884 2338 
Q 3884 3275 3436 3711 
Q 2988 4147 2022 4147 
L 1259 4147 
z
M 628 4666 
L 1925 4666 
Q 3281 4666 3915 4102 
Q 4550 3538 4550 2338 
Q 4550 1131 3912 565 
Q 3275 0 1925 0 
L 628 0 
L 628 4666 
z
" transform="scale(0.015625)"/>
      <path id="DejaVuSans-69" d="M 603 3500 
L 1178 3500 
L 1178 0 
L 603 0 
L 603 3500 
z
M 603 4863 
L 1178 4863 
L 1178 4134 
L 603 4134 
L 603 4863 
z
" transform="scale(0.015625)"/>
      <path id="DejaVuSans-73" d="M 2834 3397 
L 2834 2853 
Q 2591 2978 2328 3040 
Q 2066 3103 1784 3103 
Q 1356 3103 1142 2972 
Q 928 2841 928 2578 
Q 928 2378 1081 2264 
Q 1234 2150 1697 2047 
L 1894 2003 
Q 2506 1872 2764 1633 
Q 3022 1394 3022 966 
Q 3022 478 2636 193 
Q 2250 -91 1575 -91 
Q 1294 -91 989 -36 
Q 684 19 347 128 
L 347 722 
Q 666 556 975 473 
Q 1284 391 1588 391 
Q 1994 391 2212 530 
Q 2431 669 2431 922 
Q 2431 1156 2273 1281 
Q 2116 1406 1581 1522 
L 1381 1569 
Q 847 1681 609 1914 
Q 372 2147 372 2553 
Q 372 3047 722 3315 
Q 1072 3584 1716 3584 
Q 2034 3584 2315 3537 
Q 2597 3491 2834 3397 
z
" transform="scale(0.015625)"/>
      <path id="DejaVuSans-63" d="M 3122 3366 
L 3122 2828 
Q 2878 2963 2633 3030 
Q 2388 3097 2138 3097 
Q 1578 3097 1268 2742 
Q 959 2388 959 1747 
Q 959 1106 1268 751 
Q 1578 397 2138 397 
Q 2388 397 2633 464 
Q 2878 531 3122 666 
L 3122 134 
Q 2881 22 2623 -34 
Q 2366 -91 2075 -91 
Q 1284 -91 818 406 
Q 353 903 353 1747 
Q 353 2603 823 3093 
Q 1294 3584 2113 3584 
Q 2378 3584 2631 3529 
Q 2884 3475 3122 3366 
z
" transform="scale(0.015625)"/>
      <path id="DejaVuSans-61" d="M 2194 1759 
Q 1497 1759 1228 1600 
Q 959 1441 959 1056 
Q 959 750 1161 570 
Q 1363 391 1709 391 
Q 2188 391 2477 730 
Q 2766 1069 2766 1631 
L 2766 1759 
L 2194 1759 
z
M 3341 1997 
L 3341 0 
L 2766 0 
L 2766 531 
Q 2569 213 2275 61 
Q 1981 -91 1556 -91 
Q 1019 -91 701 211 
Q 384 513 384 1019 
Q 384 1609 779 1909 
Q 1175 2209 1959 2209 
L 2766 2209 
L 2766 2266 
Q 2766 2663 2505 2880 
Q 2244 3097 1772 3097 
Q 1472 3097 1187 3025 
Q 903 2953 641 2809 
L 641 3341 
Q 956 3463 1253 3523 
Q 1550 3584 1831 3584 
Q 2591 3584 2966 3190 
Q 3341 2797 3341 1997 
z
" transform="scale(0.015625)"/>
      <path id="DejaVuSans-72" d="M 2631 2963 
Q 2534 3019 2420 3045 
Q 2306 3072 2169 3072 
Q 1681 3072 1420 2755 
Q 1159 2438 1159 1844 
L 1159 0 
L 581 0 
L 581 3500 
L 1159 3500 
L 1159 2956 
Q 1341 3275 1631 3429 
Q 1922 3584 2338 3584 
Q 2397 3584 2469 3576 
Q 2541 3569 2628 3553 
L 2631 2963 
z
" transform="scale(0.015625)"/>
      <path id="DejaVuSans-64" d="M 2906 2969 
L 2906 4863 
L 3481 4863 
L 3481 0 
L 2906 0 
L 2906 525 
Q 2725 213 2448 61 
Q 2172 -91 1784 -91 
Q 1150 -91 751 415 
Q 353 922 353 1747 
Q 353 2572 751 3078 
Q 1150 3584 1784 3584 
Q 2172 3584 2448 3432 
Q 2725 3281 2906 2969 
z
M 947 1747 
Q 947 1113 1208 752 
Q 1469 391 1925 391 
Q 2381 391 2643 752 
Q 2906 1113 2906 1747 
Q 2906 2381 2643 2742 
Q 2381 3103 1925 3103 
Q 1469 3103 1208 2742 
Q 947 2381 947 1747 
z
" transform="scale(0.015625)"/>
     </defs>
     <use xlink:href="#DejaVuSans-44"/>
     <use xlink:href="#DejaVuSans-69" transform="translate(77.001953 0)"/>
     <use xlink:href="#DejaVuSans-73" transform="translate(104.785156 0)"/>
     <use xlink:href="#DejaVuSans-63" transform="translate(156.884766 0)"/>
     <use xlink:href="#DejaVuSans-61" transform="translate(211.865234 0)"/>
     <use xlink:href="#DejaVuSans-72" transform="translate(273.144531 0)"/>
     <use xlink:href="#DejaVuSans-64" transform="translate(312.507812 0)"/>
     <use xlink:href="#DejaVuSans-28" transform="translate(375.984375 0)"/>
     <use xlink:href="#DejaVuSans-54" transform="translate(414.998047 0)"/>
     <use xlink:href="#DejaVuSans-79" transform="translate(460.457031 0)"/>
     <use xlink:href="#DejaVuSans-28" transform="translate(519.636719 0)"/>
     <use xlink:href="#DejaVuSans-29" transform="translate(558.650391 0)"/>
     <use xlink:href="#DejaVuSans-29" transform="translate(597.664062 0)"/>
    </g>
   </g>
   <g id="text_4">
    <!-- Scalar -->
    <g transform="translate(243.459801 272.234511) scale(0.6 -0.6)">
     <defs>
      <path id="DejaVuSans-53" d="M 3425 4513 
L 3425 3897 
Q 3066 4069 2747 4153 
Q 2428 4238 2131 4238 
Q 1616 4238 1336 4038 
Q 1056 3838 1056 3469 
Q 1056 3159 1242 3001 
Q 1428 2844 1947 2747 
L 2328 2669 
Q 3034 2534 3370 2195 
Q 3706 1856 3706 1288 
Q 3706 609 3251 259 
Q 2797 -91 1919 -91 
Q 1588 -91 1214 -16 
Q 841 59 441 206 
L 441 856 
Q 825 641 1194 531 
Q 1563 422 1919 422 
Q 2459 422 2753 634 
Q 3047 847 3047 1241 
Q 3047 1584 2836 1778 
Q 2625 1972 2144 2069 
L 1759 2144 
Q 1053 2284 737 2584 
Q 422 2884 422 3419 
Q 422 4038 858 4394 
Q 1294 4750 2059 4750 
Q 2388 4750 2728 4690 
Q 3069 4631 3425 4513 
z
" transform="scale(0.015625)"/>
      <path id="DejaVuSans-6c" d="M 603 4863 
L 1178 4863 
L 1178 0 
L 603 0 
L 603 4863 
z
" transform="scale(0.015625)"/>
     </defs>
     <use xlink:href="#DejaVuSans-53"/>
     <use xlink:href="#DejaVuSans-63" transform="translate(63.476562 0)"/>
     <use xlink:href="#DejaVuSans-61" transform="translate(118.457031 0)"/>
     <use xlink:href="#DejaVuSans-6c" transform="translate(179.736328 0)"/>
     <use xlink:href="#DejaVuSans-61" transform="translate(207.519531 0)"/>
     <use xlink:href="#DejaVuSans-72" transform="translate(268.798828 0)"/>
    </g>
   </g>
   <g id="text_5">
    <!-- Scalar -->
    <g transform="translate(579.896165 385.869293) scale(0.6 -0.6)">
     <use xlink:href="#DejaVuSans-53"/>
     <use xlink:href="#DejaVuSans-63" transform="translate(63.476562 0)"/>
     <use xlink:href="#DejaVuSans-61" transform="translate(118.457031 0)"/>
     <use xlink:href="#DejaVuSans-6c" transform="translate(179.736328 0)"/>
     <use xlink:href="#DejaVuSans-61" transform="translate(207.519531 0)"/>
     <use xlink:href="#DejaVuSans-72" transform="translate(268.798828 0)"/>
    </g>
   </g>
   <g id="text_6">
    <!-- 1 -->
    <g transform="translate(878.076136 442.686685) scale(0.6 -0.6)">
     <use xlink:href="#DejaVuSans-31"/>
    </g>
   </g>
   <g id="text_7">
    <!-- Merge(Ty(), 2) -->
    <g transform="translate(294.631108 556.321467) scale(0.6 -0.6)">
     <defs>
      <path id="DejaVuSans-4d" d="M 628 4666 
L 1569 4666 
L 2759 1491 
L 3956 4666 
L 4897 4666 
L 4897 0 
L 4281 0 
L 4281 4097 
L 3078 897 
L 2444 897 
L 1241 4097 
L 1241 0 
L 628 0 
L 628 4666 
z
" transform="scale(0.015625)"/>
      <path id="DejaVuSans-65" d="M 3597 1894 
L 3597 1613 
L 953 1613 
Q 991 1019 1311 708 
Q 1631 397 2203 397 
Q 2534 397 2845 478 
Q 3156 559 3463 722 
L 3463 178 
Q 3153 47 2828 -22 
Q 2503 -91 2169 -91 
Q 1331 -91 842 396 
Q 353 884 353 1716 
Q 353 2575 817 3079 
Q 1281 3584 2069 3584 
Q 2775 3584 3186 3129 
Q 3597 2675 3597 1894 
z
M 3022 2063 
Q 3016 2534 2758 2815 
Q 2500 3097 2075 3097 
Q 1594 3097 1305 2825 
Q 1016 2553 972 2059 
L 3022 2063 
z
" transform="scale(0.015625)"/>
      <path id="DejaVuSans-67" d="M 2906 1791 
Q 2906 2416 2648 2759 
Q 2391 3103 1925 3103 
Q 1463 3103 1205 2759 
Q 947 2416 947 1791 
Q 947 1169 1205 825 
Q 1463 481 1925 481 
Q 2391 481 2648 825 
Q 2906 1169 2906 1791 
z
M 3481 434 
Q 3481 -459 3084 -895 
Q 2688 -1331 1869 -1331 
Q 1566 -1331 1297 -1286 
Q 1028 -1241 775 -1147 
L 775 -588 
Q 1028 -725 1275 -790 
Q 1522 -856 1778 -856 
Q 2344 -856 2625 -561 
Q 2906 -266 2906 331 
L 2906 616 
Q 2728 306 2450 153 
Q 2172 0 1784 0 
Q 1141 0 747 490 
Q 353 981 353 1791 
Q 353 2603 747 3093 
Q 1141 3584 1784 3584 
Q 2172 3584 2450 3431 
Q 2728 3278 2906 2969 
L 2906 3500 
L 3481 3500 
L 3481 434 
z
" transform="scale(0.015625)"/>
     </defs>
     <use xlink:href="#DejaVuSans-4d"/>
     <use xlink:href="#DejaVuSans-65" transform="translate(86.279297 0)"/>
     <use xlink:href="#DejaVuSans-72" transform="translate(147.802734 0)"/>
     <use xlink:href="#DejaVuSans-67" transform="translate(187.166016 0)"/>
     <use xlink:href="#DejaVuSans-65" transform="translate(250.642578 0)"/>
     <use xlink:href="#DejaVuSans-28" transform="translate(312.166016 0)"/>
     <use xlink:href="#DejaVuSans-54" transform="translate(351.179688 0)"/>
     <use xlink:href="#DejaVuSans-79" transform="translate(396.638672 0)"/>
     <use xlink:href="#DejaVuSans-28" transform="translate(455.818359 0)"/>
     <use xlink:href="#DejaVuSans-29" transform="translate(494.832031 0)"/>
     <use xlink:href="#DejaVuSans-2c" transform="translate(533.845703 0)"/>
     <use xlink:href="#DejaVuSans-20" transform="translate(565.632812 0)"/>
     <use xlink:href="#DejaVuSans-32" transform="translate(597.419922 0)"/>
     <use xlink:href="#DejaVuSans-29" transform="translate(661.042969 0)"/>
    </g>
   </g>
   <g id="text_8">
    <!-- mov -->
    <g transform="translate(663.61108 613.138859) scale(0.6 -0.6)">
     <defs>
      <path id="DejaVuSans-6d" d="M 3328 2828 
Q 3544 3216 3844 3400 
Q 4144 3584 4550 3584 
Q 5097 3584 5394 3201 
Q 5691 2819 5691 2113 
L 5691 0 
L 5113 0 
L 5113 2094 
Q 5113 2597 4934 2840 
Q 4756 3084 4391 3084 
Q 3944 3084 3684 2787 
Q 3425 2491 3425 1978 
L 3425 0 
L 2847 0 
L 2847 2094 
Q 2847 2600 2669 2842 
Q 2491 3084 2119 3084 
Q 1678 3084 1418 2786 
Q 1159 2488 1159 1978 
L 1159 0 
L 581 0 
L 581 3500 
L 1159 3500 
L 1159 2956 
Q 1356 3278 1631 3431 
Q 1906 3584 2284 3584 
Q 2666 3584 2933 3390 
Q 3200 3197 3328 2828 
z
" transform="scale(0.015625)"/>
      <path id="DejaVuSans-76" d="M 191 3500 
L 800 3500 
L 1894 563 
L 2988 3500 
L 3597 3500 
L 2284 0 
L 1503 0 
L 191 3500 
z
" transform="scale(0.015625)"/>
     </defs>
     <use xlink:href="#DejaVuSans-6d"/>
     <use xlink:href="#DejaVuSans-6f" transform="translate(97.412109 0)"/>
     <use xlink:href="#DejaVuSans-76" transform="translate(158.59375 0)"/>
    </g>
   </g>
   <g id="text_9">
    <!-- Discard(Ty()) -->
    <g transform="translate(313.648295 726.773641) scale(0.6 -0.6)">
     <use xlink:href="#DejaVuSans-44"/>
     <use xlink:href="#DejaVuSans-69" transform="translate(77.001953 0)"/>
     <use xlink:href="#DejaVuSans-73" transform="translate(104.785156 0)"/>
     <use xlink:href="#DejaVuSans-63" transform="translate(156.884766 0)"/>
     <use xlink:href="#DejaVuSans-61" transform="translate(211.865234 0)"/>
     <use xlink:href="#DejaVuSans-72" transform="translate(273.144531 0)"/>
     <use xlink:href="#DejaVuSans-64" transform="translate(312.507812 0)"/>
     <use xlink:href="#DejaVuSans-28" transform="translate(375.984375 0)"/>
     <use xlink:href="#DejaVuSans-54" transform="translate(414.998047 0)"/>
     <use xlink:href="#DejaVuSans-79" transform="translate(460.457031 0)"/>
     <use xlink:href="#DejaVuSans-28" transform="translate(519.636719 0)"/>
     <use xlink:href="#DejaVuSans-29" transform="translate(558.650391 0)"/>
     <use xlink:href="#DejaVuSans-29" transform="translate(597.664062 0)"/>
    </g>
   </g>
   <g id="text_10">
    <!-- Scalar -->
    <g transform="translate(131.314347 783.591033) scale(0.6 -0.6)">
     <use xlink:href="#DejaVuSans-53"/>
     <use xlink:href="#DejaVuSans-63" transform="translate(63.476562 0)"/>
     <use xlink:href="#DejaVuSans-61" transform="translate(118.457031 0)"/>
     <use xlink:href="#DejaVuSans-6c" transform="translate(179.736328 0)"/>
     <use xlink:href="#DejaVuSans-61" transform="translate(207.519531 0)"/>
     <use xlink:href="#DejaVuSans-72" transform="translate(268.798828 0)"/>
    </g>
   </g>
   <g id="text_11">
    <!-- Merge(Ty(), 1) -->
    <g transform="translate(14.267472 840.408424) scale(0.6 -0.6)">
     <use xlink:href="#DejaVuSans-4d"/>
     <use xlink:href="#DejaVuSans-65" transform="translate(86.279297 0)"/>
     <use xlink:href="#DejaVuSans-72" transform="translate(147.802734 0)"/>
     <use xlink:href="#DejaVuSans-67" transform="translate(187.166016 0)"/>
     <use xlink:href="#DejaVuSans-65" transform="translate(250.642578 0)"/>
     <use xlink:href="#DejaVuSans-28" transform="translate(312.166016 0)"/>
     <use xlink:href="#DejaVuSans-54" transform="translate(351.179688 0)"/>
     <use xlink:href="#DejaVuSans-79" transform="translate(396.638672 0)"/>
     <use xlink:href="#DejaVuSans-28" transform="translate(455.818359 0)"/>
     <use xlink:href="#DejaVuSans-29" transform="translate(494.832031 0)"/>
     <use xlink:href="#DejaVuSans-2c" transform="translate(533.845703 0)"/>
     <use xlink:href="#DejaVuSans-20" transform="translate(565.632812 0)"/>
     <use xlink:href="#DejaVuSans-31" transform="translate(597.419922 0)"/>
     <use xlink:href="#DejaVuSans-29" transform="translate(661.042969 0)"/>
    </g>
   </g>
   <g id="text_12">
    <!-- Copy(Ty(), 1) -->
    <g transform="translate(31.817472 897.225815) scale(0.6 -0.6)">
     <use xlink:href="#DejaVuSans-43"/>
     <use xlink:href="#DejaVuSans-6f" transform="translate(69.824219 0)"/>
     <use xlink:href="#DejaVuSans-70" transform="translate(131.005859 0)"/>
     <use xlink:href="#DejaVuSans-79" transform="translate(194.482422 0)"/>
     <use xlink:href="#DejaVuSans-28" transform="translate(253.662109 0)"/>
     <use xlink:href="#DejaVuSans-54" transform="translate(292.675781 0)"/>
     <use xlink:href="#DejaVuSans-79" transform="translate(338.134766 0)"/>
     <use xlink:href="#DejaVuSans-28" transform="translate(397.314453 0)"/>
     <use xlink:href="#DejaVuSans-29" transform="translate(436.328125 0)"/>
     <use xlink:href="#DejaVuSans-2c" transform="translate(475.341797 0)"/>
     <use xlink:href="#DejaVuSans-20" transform="translate(507.128906 0)"/>
     <use xlink:href="#DejaVuSans-31" transform="translate(538.916016 0)"/>
     <use xlink:href="#DejaVuSans-29" transform="translate(602.539062 0)"/>
    </g>
   </g>
   <g id="text_13">
    <!-- Scalar -->
    <g transform="translate(131.314347 954.043207) scale(0.6 -0.6)">
     <use xlink:href="#DejaVuSans-53"/>
     <use xlink:href="#DejaVuSans-63" transform="translate(63.476562 0)"/>
     <use xlink:href="#DejaVuSans-61" transform="translate(118.457031 0)"/>
     <use xlink:href="#DejaVuSans-6c" transform="translate(179.736328 0)"/>
     <use xlink:href="#DejaVuSans-61" transform="translate(207.519531 0)"/>
     <use xlink:href="#DejaVuSans-72" transform="translate(268.798828 0)"/>
    </g>
   </g>
   <g id="text_14">
    <!-- Discard(Ty()) -->
    <g transform="translate(33.284659 1010.860598) scale(0.6 -0.6)">
     <use xlink:href="#DejaVuSans-44"/>
     <use xlink:href="#DejaVuSans-69" transform="translate(77.001953 0)"/>
     <use xlink:href="#DejaVuSans-73" transform="translate(104.785156 0)"/>
     <use xlink:href="#DejaVuSans-63" transform="translate(156.884766 0)"/>
     <use xlink:href="#DejaVuSans-61" transform="translate(211.865234 0)"/>
     <use xlink:href="#DejaVuSans-72" transform="translate(273.144531 0)"/>
     <use xlink:href="#DejaVuSans-64" transform="translate(312.507812 0)"/>
     <use xlink:href="#DejaVuSans-28" transform="translate(375.984375 0)"/>
     <use xlink:href="#DejaVuSans-54" transform="translate(414.998047 0)"/>
     <use xlink:href="#DejaVuSans-79" transform="translate(460.457031 0)"/>
     <use xlink:href="#DejaVuSans-28" transform="translate(519.636719 0)"/>
     <use xlink:href="#DejaVuSans-29" transform="translate(558.650391 0)"/>
     <use xlink:href="#DejaVuSans-29" transform="translate(597.664062 0)"/>
    </g>
   </g>
   <g id="text_15">
    <!-- Copy(Ty(), 2) -->
    <g transform="translate(31.817472 1067.677989) scale(0.6 -0.6)">
     <use xlink:href="#DejaVuSans-43"/>
     <use xlink:href="#DejaVuSans-6f" transform="translate(69.824219 0)"/>
     <use xlink:href="#DejaVuSans-70" transform="translate(131.005859 0)"/>
     <use xlink:href="#DejaVuSans-79" transform="translate(194.482422 0)"/>
     <use xlink:href="#DejaVuSans-28" transform="translate(253.662109 0)"/>
     <use xlink:href="#DejaVuSans-54" transform="translate(292.675781 0)"/>
     <use xlink:href="#DejaVuSans-79" transform="translate(338.134766 0)"/>
     <use xlink:href="#DejaVuSans-28" transform="translate(397.314453 0)"/>
     <use xlink:href="#DejaVuSans-29" transform="translate(436.328125 0)"/>
     <use xlink:href="#DejaVuSans-2c" transform="translate(475.341797 0)"/>
     <use xlink:href="#DejaVuSans-20" transform="translate(507.128906 0)"/>
     <use xlink:href="#DejaVuSans-32" transform="translate(538.916016 0)"/>
     <use xlink:href="#DejaVuSans-29" transform="translate(602.539062 0)"/>
    </g>
   </g>
   <g id="text_16">
    <!-- Scalar -->
    <g transform="translate(131.314347 1124.49538) scale(0.6 -0.6)">
     <use xlink:href="#DejaVuSans-53"/>
     <use xlink:href="#DejaVuSans-63" transform="translate(63.476562 0)"/>
     <use xlink:href="#DejaVuSans-61" transform="translate(118.457031 0)"/>
     <use xlink:href="#DejaVuSans-6c" transform="translate(179.736328 0)"/>
     <use xlink:href="#DejaVuSans-61" transform="translate(207.519531 0)"/>
     <use xlink:href="#DejaVuSans-72" transform="translate(268.798828 0)"/>
    </g>
   </g>
   <g id="text_17">
    <!-- Scalar -->
    <g transform="translate(355.605256 1181.312772) scale(0.6 -0.6)">
     <use xlink:href="#DejaVuSans-53"/>
     <use xlink:href="#DejaVuSans-63" transform="translate(63.476562 0)"/>
     <use xlink:href="#DejaVuSans-61" transform="translate(118.457031 0)"/>
     <use xlink:href="#DejaVuSans-6c" transform="translate(179.736328 0)"/>
     <use xlink:href="#DejaVuSans-61" transform="translate(207.519531 0)"/>
     <use xlink:href="#DejaVuSans-72" transform="translate(268.798828 0)"/>
    </g>
   </g>
   <g id="text_18">
    <!-- Merge(Ty(), 2) -->
    <g transform="translate(126.412926 1238.130163) scale(0.6 -0.6)">
     <use xlink:href="#DejaVuSans-4d"/>
     <use xlink:href="#DejaVuSans-65" transform="translate(86.279297 0)"/>
     <use xlink:href="#DejaVuSans-72" transform="translate(147.802734 0)"/>
     <use xlink:href="#DejaVuSans-67" transform="translate(187.166016 0)"/>
     <use xlink:href="#DejaVuSans-65" transform="translate(250.642578 0)"/>
     <use xlink:href="#DejaVuSans-28" transform="translate(312.166016 0)"/>
     <use xlink:href="#DejaVuSans-54" transform="translate(351.179688 0)"/>
     <use xlink:href="#DejaVuSans-79" transform="translate(396.638672 0)"/>
     <use xlink:href="#DejaVuSans-28" transform="translate(455.818359 0)"/>
     <use xlink:href="#DejaVuSans-29" transform="translate(494.832031 0)"/>
     <use xlink:href="#DejaVuSans-2c" transform="translate(533.845703 0)"/>
     <use xlink:href="#DejaVuSans-20" transform="translate(565.632812 0)"/>
     <use xlink:href="#DejaVuSans-32" transform="translate(597.419922 0)"/>
     <use xlink:href="#DejaVuSans-29" transform="translate(661.042969 0)"/>
    </g>
   </g>
   <g id="text_19">
    <!-- Merge(Ty(), 1) -->
    <g transform="translate(126.412926 1294.947554) scale(0.6 -0.6)">
     <use xlink:href="#DejaVuSans-4d"/>
     <use xlink:href="#DejaVuSans-65" transform="translate(86.279297 0)"/>
     <use xlink:href="#DejaVuSans-72" transform="translate(147.802734 0)"/>
     <use xlink:href="#DejaVuSans-67" transform="translate(187.166016 0)"/>
     <use xlink:href="#DejaVuSans-65" transform="translate(250.642578 0)"/>
     <use xlink:href="#DejaVuSans-28" transform="translate(312.166016 0)"/>
     <use xlink:href="#DejaVuSans-54" transform="translate(351.179688 0)"/>
     <use xlink:href="#DejaVuSans-79" transform="translate(396.638672 0)"/>
     <use xlink:href="#DejaVuSans-28" transform="translate(455.818359 0)"/>
     <use xlink:href="#DejaVuSans-29" transform="translate(494.832031 0)"/>
     <use xlink:href="#DejaVuSans-2c" transform="translate(533.845703 0)"/>
     <use xlink:href="#DejaVuSans-20" transform="translate(565.632812 0)"/>
     <use xlink:href="#DejaVuSans-31" transform="translate(597.419922 0)"/>
     <use xlink:href="#DejaVuSans-29" transform="translate(661.042969 0)"/>
    </g>
   </g>
   <g id="text_20">
    <!-- Copy(Ty(), 1) -->
    <g transform="translate(143.962926 1351.764946) scale(0.6 -0.6)">
     <use xlink:href="#DejaVuSans-43"/>
     <use xlink:href="#DejaVuSans-6f" transform="translate(69.824219 0)"/>
     <use xlink:href="#DejaVuSans-70" transform="translate(131.005859 0)"/>
     <use xlink:href="#DejaVuSans-79" transform="translate(194.482422 0)"/>
     <use xlink:href="#DejaVuSans-28" transform="translate(253.662109 0)"/>
     <use xlink:href="#DejaVuSans-54" transform="translate(292.675781 0)"/>
     <use xlink:href="#DejaVuSans-79" transform="translate(338.134766 0)"/>
     <use xlink:href="#DejaVuSans-28" transform="translate(397.314453 0)"/>
     <use xlink:href="#DejaVuSans-29" transform="translate(436.328125 0)"/>
     <use xlink:href="#DejaVuSans-2c" transform="translate(475.341797 0)"/>
     <use xlink:href="#DejaVuSans-20" transform="translate(507.128906 0)"/>
     <use xlink:href="#DejaVuSans-31" transform="translate(538.916016 0)"/>
     <use xlink:href="#DejaVuSans-29" transform="translate(602.539062 0)"/>
    </g>
   </g>
   <g id="text_21">
    <!-- Discard(Ty()) -->
    <g transform="translate(145.430114 1465.399728) scale(0.6 -0.6)">
     <use xlink:href="#DejaVuSans-44"/>
     <use xlink:href="#DejaVuSans-69" transform="translate(77.001953 0)"/>
     <use xlink:href="#DejaVuSans-73" transform="translate(104.785156 0)"/>
     <use xlink:href="#DejaVuSans-63" transform="translate(156.884766 0)"/>
     <use xlink:href="#DejaVuSans-61" transform="translate(211.865234 0)"/>
     <use xlink:href="#DejaVuSans-72" transform="translate(273.144531 0)"/>
     <use xlink:href="#DejaVuSans-64" transform="translate(312.507812 0)"/>
     <use xlink:href="#DejaVuSans-28" transform="translate(375.984375 0)"/>
     <use xlink:href="#DejaVuSans-54" transform="translate(414.998047 0)"/>
     <use xlink:href="#DejaVuSans-79" transform="translate(460.457031 0)"/>
     <use xlink:href="#DejaVuSans-28" transform="translate(519.636719 0)"/>
     <use xlink:href="#DejaVuSans-29" transform="translate(558.650391 0)"/>
     <use xlink:href="#DejaVuSans-29" transform="translate(597.664062 0)"/>
    </g>
   </g>
   <g id="text_22">
    <!-- Copy(Ty(), 2) -->
    <g transform="translate(143.962926 1522.21712) scale(0.6 -0.6)">
     <use xlink:href="#DejaVuSans-43"/>
     <use xlink:href="#DejaVuSans-6f" transform="translate(69.824219 0)"/>
     <use xlink:href="#DejaVuSans-70" transform="translate(131.005859 0)"/>
     <use xlink:href="#DejaVuSans-79" transform="translate(194.482422 0)"/>
     <use xlink:href="#DejaVuSans-28" transform="translate(253.662109 0)"/>
     <use xlink:href="#DejaVuSans-54" transform="translate(292.675781 0)"/>
     <use xlink:href="#DejaVuSans-79" transform="translate(338.134766 0)"/>
     <use xlink:href="#DejaVuSans-28" transform="translate(397.314453 0)"/>
     <use xlink:href="#DejaVuSans-29" transform="translate(436.328125 0)"/>
     <use xlink:href="#DejaVuSans-2c" transform="translate(475.341797 0)"/>
     <use xlink:href="#DejaVuSans-20" transform="translate(507.128906 0)"/>
     <use xlink:href="#DejaVuSans-32" transform="translate(538.916016 0)"/>
     <use xlink:href="#DejaVuSans-29" transform="translate(602.539062 0)"/>
    </g>
   </g>
   <g id="text_23">
    <!-- Scalar -->
    <g transform="translate(243.459801 1579.034511) scale(0.6 -0.6)">
     <use xlink:href="#DejaVuSans-53"/>
     <use xlink:href="#DejaVuSans-63" transform="translate(63.476562 0)"/>
     <use xlink:href="#DejaVuSans-61" transform="translate(118.457031 0)"/>
     <use xlink:href="#DejaVuSans-6c" transform="translate(179.736328 0)"/>
     <use xlink:href="#DejaVuSans-61" transform="translate(207.519531 0)"/>
     <use xlink:href="#DejaVuSans-72" transform="translate(268.798828 0)"/>
    </g>
   </g>
   <g id="text_24">
    <!-- Scalar -->
    <g transform="translate(467.75071 1635.851902) scale(0.6 -0.6)">
     <use xlink:href="#DejaVuSans-53"/>
     <use xlink:href="#DejaVuSans-63" transform="translate(63.476562 0)"/>
     <use xlink:href="#DejaVuSans-61" transform="translate(118.457031 0)"/>
     <use xlink:href="#DejaVuSans-6c" transform="translate(179.736328 0)"/>
     <use xlink:href="#DejaVuSans-61" transform="translate(207.519531 0)"/>
     <use xlink:href="#DejaVuSans-72" transform="translate(268.798828 0)"/>
    </g>
   </g>
   <g id="text_25">
    <!-- Merge(Ty(), 2) -->
    <g transform="translate(238.558381 1692.669293) scale(0.6 -0.6)">
     <use xlink:href="#DejaVuSans-4d"/>
     <use xlink:href="#DejaVuSans-65" transform="translate(86.279297 0)"/>
     <use xlink:href="#DejaVuSans-72" transform="translate(147.802734 0)"/>
     <use xlink:href="#DejaVuSans-67" transform="translate(187.166016 0)"/>
     <use xlink:href="#DejaVuSans-65" transform="translate(250.642578 0)"/>
     <use xlink:href="#DejaVuSans-28" transform="translate(312.166016 0)"/>
     <use xlink:href="#DejaVuSans-54" transform="translate(351.179688 0)"/>
     <use xlink:href="#DejaVuSans-79" transform="translate(396.638672 0)"/>
     <use xlink:href="#DejaVuSans-28" transform="translate(455.818359 0)"/>
     <use xlink:href="#DejaVuSans-29" transform="translate(494.832031 0)"/>
     <use xlink:href="#DejaVuSans-2c" transform="translate(533.845703 0)"/>
     <use xlink:href="#DejaVuSans-20" transform="translate(565.632812 0)"/>
     <use xlink:href="#DejaVuSans-32" transform="translate(597.419922 0)"/>
     <use xlink:href="#DejaVuSans-29" transform="translate(661.042969 0)"/>
    </g>
   </g>
   <g id="text_26">
    <!-- mul -->
    <g transform="translate(616.303977 1749.486685) scale(0.6 -0.6)">
     <defs>
      <path id="DejaVuSans-75" d="M 544 1381 
L 544 3500 
L 1119 3500 
L 1119 1403 
Q 1119 906 1312 657 
Q 1506 409 1894 409 
Q 2359 409 2629 706 
Q 2900 1003 2900 1516 
L 2900 3500 
L 3475 3500 
L 3475 0 
L 2900 0 
L 2900 538 
Q 2691 219 2414 64 
Q 2138 -91 1772 -91 
Q 1169 -91 856 284 
Q 544 659 544 1381 
z
M 1991 3584 
L 1991 3584 
z
" transform="scale(0.015625)"/>
     </defs>
     <use xlink:href="#DejaVuSans-6d"/>
     <use xlink:href="#DejaVuSans-75" transform="translate(97.412109 0)"/>
     <use xlink:href="#DejaVuSans-6c" transform="translate(160.791016 0)"/>
    </g>
   </g>
   <g id="text_27">
    <!-- Discard(Ty()) -->
    <g transform="translate(257.575568 1863.121467) scale(0.6 -0.6)">
     <use xlink:href="#DejaVuSans-44"/>
     <use xlink:href="#DejaVuSans-69" transform="translate(77.001953 0)"/>
     <use xlink:href="#DejaVuSans-73" transform="translate(104.785156 0)"/>
     <use xlink:href="#DejaVuSans-63" transform="translate(156.884766 0)"/>
     <use xlink:href="#DejaVuSans-61" transform="translate(211.865234 0)"/>
     <use xlink:href="#DejaVuSans-72" transform="translate(273.144531 0)"/>
     <use xlink:href="#DejaVuSans-64" transform="translate(312.507812 0)"/>
     <use xlink:href="#DejaVuSans-28" transform="translate(375.984375 0)"/>
     <use xlink:href="#DejaVuSans-54" transform="translate(414.998047 0)"/>
     <use xlink:href="#DejaVuSans-79" transform="translate(460.457031 0)"/>
     <use xlink:href="#DejaVuSans-28" transform="translate(519.636719 0)"/>
     <use xlink:href="#DejaVuSans-29" transform="translate(558.650391 0)"/>
     <use xlink:href="#DejaVuSans-29" transform="translate(597.664062 0)"/>
    </g>
   </g>
   <g id="text_28">
    <!-- Scalar -->
    <g transform="translate(131.314347 1919.938859) scale(0.6 -0.6)">
     <use xlink:href="#DejaVuSans-53"/>
     <use xlink:href="#DejaVuSans-63" transform="translate(63.476562 0)"/>
     <use xlink:href="#DejaVuSans-61" transform="translate(118.457031 0)"/>
     <use xlink:href="#DejaVuSans-6c" transform="translate(179.736328 0)"/>
     <use xlink:href="#DejaVuSans-61" transform="translate(207.519531 0)"/>
     <use xlink:href="#DejaVuSans-72" transform="translate(268.798828 0)"/>
    </g>
   </g>
   <g id="text_29">
    <!-- Merge(Ty(), 1) -->
    <g transform="translate(14.267472 1976.75625) scale(0.6 -0.6)">
     <use xlink:href="#DejaVuSans-4d"/>
     <use xlink:href="#DejaVuSans-65" transform="translate(86.279297 0)"/>
     <use xlink:href="#DejaVuSans-72" transform="translate(147.802734 0)"/>
     <use xlink:href="#DejaVuSans-67" transform="translate(187.166016 0)"/>
     <use xlink:href="#DejaVuSans-65" transform="translate(250.642578 0)"/>
     <use xlink:href="#DejaVuSans-28" transform="translate(312.166016 0)"/>
     <use xlink:href="#DejaVuSans-54" transform="translate(351.179688 0)"/>
     <use xlink:href="#DejaVuSans-79" transform="translate(396.638672 0)"/>
     <use xlink:href="#DejaVuSans-28" transform="translate(455.818359 0)"/>
     <use xlink:href="#DejaVuSans-29" transform="translate(494.832031 0)"/>
     <use xlink:href="#DejaVuSans-2c" transform="translate(533.845703 0)"/>
     <use xlink:href="#DejaVuSans-20" transform="translate(565.632812 0)"/>
     <use xlink:href="#DejaVuSans-31" transform="translate(597.419922 0)"/>
     <use xlink:href="#DejaVuSans-29" transform="translate(661.042969 0)"/>
    </g>
   </g>
   <g id="text_30">
    <!-- Copy(Ty(), 1) -->
    <g transform="translate(31.817472 2033.573641) scale(0.6 -0.6)">
     <use xlink:href="#DejaVuSans-43"/>
     <use xlink:href="#DejaVuSans-6f" transform="translate(69.824219 0)"/>
     <use xlink:href="#DejaVuSans-70" transform="translate(131.005859 0)"/>
     <use xlink:href="#DejaVuSans-79" transform="translate(194.482422 0)"/>
     <use xlink:href="#DejaVuSans-28" transform="translate(253.662109 0)"/>
     <use xlink:href="#DejaVuSans-54" transform="translate(292.675781 0)"/>
     <use xlink:href="#DejaVuSans-79" transform="translate(338.134766 0)"/>
     <use xlink:href="#DejaVuSans-28" transform="translate(397.314453 0)"/>
     <use xlink:href="#DejaVuSans-29" transform="translate(436.328125 0)"/>
     <use xlink:href="#DejaVuSans-2c" transform="translate(475.341797 0)"/>
     <use xlink:href="#DejaVuSans-20" transform="translate(507.128906 0)"/>
     <use xlink:href="#DejaVuSans-31" transform="translate(538.916016 0)"/>
     <use xlink:href="#DejaVuSans-29" transform="translate(602.539062 0)"/>
    </g>
   </g>
   <g id="text_31">
    <!-- Discard(Ty()) -->
    <g transform="translate(33.284659 2147.208424) scale(0.6 -0.6)">
     <use xlink:href="#DejaVuSans-44"/>
     <use xlink:href="#DejaVuSans-69" transform="translate(77.001953 0)"/>
     <use xlink:href="#DejaVuSans-73" transform="translate(104.785156 0)"/>
     <use xlink:href="#DejaVuSans-63" transform="translate(156.884766 0)"/>
     <use xlink:href="#DejaVuSans-61" transform="translate(211.865234 0)"/>
     <use xlink:href="#DejaVuSans-72" transform="translate(273.144531 0)"/>
     <use xlink:href="#DejaVuSans-64" transform="translate(312.507812 0)"/>
     <use xlink:href="#DejaVuSans-28" transform="translate(375.984375 0)"/>
     <use xlink:href="#DejaVuSans-54" transform="translate(414.998047 0)"/>
     <use xlink:href="#DejaVuSans-79" transform="translate(460.457031 0)"/>
     <use xlink:href="#DejaVuSans-28" transform="translate(519.636719 0)"/>
     <use xlink:href="#DejaVuSans-29" transform="translate(558.650391 0)"/>
     <use xlink:href="#DejaVuSans-29" transform="translate(597.664062 0)"/>
    </g>
   </g>
   <g id="text_32">
    <!-- Copy(Ty(), 2) -->
    <g transform="translate(31.817472 2204.025815) scale(0.6 -0.6)">
     <use xlink:href="#DejaVuSans-43"/>
     <use xlink:href="#DejaVuSans-6f" transform="translate(69.824219 0)"/>
     <use xlink:href="#DejaVuSans-70" transform="translate(131.005859 0)"/>
     <use xlink:href="#DejaVuSans-79" transform="translate(194.482422 0)"/>
     <use xlink:href="#DejaVuSans-28" transform="translate(253.662109 0)"/>
     <use xlink:href="#DejaVuSans-54" transform="translate(292.675781 0)"/>
     <use xlink:href="#DejaVuSans-79" transform="translate(338.134766 0)"/>
     <use xlink:href="#DejaVuSans-28" transform="translate(397.314453 0)"/>
     <use xlink:href="#DejaVuSans-29" transform="translate(436.328125 0)"/>
     <use xlink:href="#DejaVuSans-2c" transform="translate(475.341797 0)"/>
     <use xlink:href="#DejaVuSans-20" transform="translate(507.128906 0)"/>
     <use xlink:href="#DejaVuSans-32" transform="translate(538.916016 0)"/>
     <use xlink:href="#DejaVuSans-29" transform="translate(602.539062 0)"/>
    </g>
   </g>
   <g id="text_33">
    <!-- Scalar -->
    <g transform="translate(131.314347 2260.843207) scale(0.6 -0.6)">
     <use xlink:href="#DejaVuSans-53"/>
     <use xlink:href="#DejaVuSans-63" transform="translate(63.476562 0)"/>
     <use xlink:href="#DejaVuSans-61" transform="translate(118.457031 0)"/>
     <use xlink:href="#DejaVuSans-6c" transform="translate(179.736328 0)"/>
     <use xlink:href="#DejaVuSans-61" transform="translate(207.519531 0)"/>
     <use xlink:href="#DejaVuSans-72" transform="translate(268.798828 0)"/>
    </g>
   </g>
   <g id="text_34">
    <!-- Scalar -->
    <g transform="translate(355.605256 2317.660598) scale(0.6 -0.6)">
     <use xlink:href="#DejaVuSans-53"/>
     <use xlink:href="#DejaVuSans-63" transform="translate(63.476562 0)"/>
     <use xlink:href="#DejaVuSans-61" transform="translate(118.457031 0)"/>
     <use xlink:href="#DejaVuSans-6c" transform="translate(179.736328 0)"/>
     <use xlink:href="#DejaVuSans-61" transform="translate(207.519531 0)"/>
     <use xlink:href="#DejaVuSans-72" transform="translate(268.798828 0)"/>
    </g>
   </g>
   <g id="text_35">
    <!-- Merge(Ty(), 2) -->
    <g transform="translate(126.412926 2374.477989) scale(0.6 -0.6)">
     <use xlink:href="#DejaVuSans-4d"/>
     <use xlink:href="#DejaVuSans-65" transform="translate(86.279297 0)"/>
     <use xlink:href="#DejaVuSans-72" transform="translate(147.802734 0)"/>
     <use xlink:href="#DejaVuSans-67" transform="translate(187.166016 0)"/>
     <use xlink:href="#DejaVuSans-65" transform="translate(250.642578 0)"/>
     <use xlink:href="#DejaVuSans-28" transform="translate(312.166016 0)"/>
     <use xlink:href="#DejaVuSans-54" transform="translate(351.179688 0)"/>
     <use xlink:href="#DejaVuSans-79" transform="translate(396.638672 0)"/>
     <use xlink:href="#DejaVuSans-28" transform="translate(455.818359 0)"/>
     <use xlink:href="#DejaVuSans-29" transform="translate(494.832031 0)"/>
     <use xlink:href="#DejaVuSans-2c" transform="translate(533.845703 0)"/>
     <use xlink:href="#DejaVuSans-20" transform="translate(565.632812 0)"/>
     <use xlink:href="#DejaVuSans-32" transform="translate(597.419922 0)"/>
     <use xlink:href="#DejaVuSans-29" transform="translate(661.042969 0)"/>
    </g>
   </g>
   <g id="text_36">
    <!-- loop -->
    <g transform="translate(496.635085 2431.29538) scale(0.6 -0.6)">
     <use xlink:href="#DejaVuSans-6c"/>
     <use xlink:href="#DejaVuSans-6f" transform="translate(27.783203 0)"/>
     <use xlink:href="#DejaVuSans-6f" transform="translate(88.964844 0)"/>
     <use xlink:href="#DejaVuSans-70" transform="translate(150.146484 0)"/>
    </g>
   </g>
   <g id="text_37">
    <!-- Scalar -->
    <g transform="translate(243.459801 2544.930163) scale(0.6 -0.6)">
     <use xlink:href="#DejaVuSans-53"/>
     <use xlink:href="#DejaVuSans-63" transform="translate(63.476562 0)"/>
     <use xlink:href="#DejaVuSans-61" transform="translate(118.457031 0)"/>
     <use xlink:href="#DejaVuSans-6c" transform="translate(179.736328 0)"/>
     <use xlink:href="#DejaVuSans-61" transform="translate(207.519531 0)"/>
     <use xlink:href="#DejaVuSans-72" transform="translate(268.798828 0)"/>
    </g>
   </g>
   <g id="text_38">
    <!-- Merge(Ty(), 1) -->
    <g transform="translate(126.412926 2601.747554) scale(0.6 -0.6)">
     <use xlink:href="#DejaVuSans-4d"/>
     <use xlink:href="#DejaVuSans-65" transform="translate(86.279297 0)"/>
     <use xlink:href="#DejaVuSans-72" transform="translate(147.802734 0)"/>
     <use xlink:href="#DejaVuSans-67" transform="translate(187.166016 0)"/>
     <use xlink:href="#DejaVuSans-65" transform="translate(250.642578 0)"/>
     <use xlink:href="#DejaVuSans-28" transform="translate(312.166016 0)"/>
     <use xlink:href="#DejaVuSans-54" transform="translate(351.179688 0)"/>
     <use xlink:href="#DejaVuSans-79" transform="translate(396.638672 0)"/>
     <use xlink:href="#DejaVuSans-28" transform="translate(455.818359 0)"/>
     <use xlink:href="#DejaVuSans-29" transform="translate(494.832031 0)"/>
     <use xlink:href="#DejaVuSans-2c" transform="translate(533.845703 0)"/>
     <use xlink:href="#DejaVuSans-20" transform="translate(565.632812 0)"/>
     <use xlink:href="#DejaVuSans-31" transform="translate(597.419922 0)"/>
     <use xlink:href="#DejaVuSans-29" transform="translate(661.042969 0)"/>
    </g>
   </g>
  </g>
 </g>
 <defs>
  <clipPath id="p14625a277b">
   <rect x="0" y="0" width="1233.6" height="2613.6"/>
  </clipPath>
 </defs>
</svg>
