<?xml version="1.0" encoding="utf-8" standalone="no"?>
<!DOCTYPE svg PUBLIC "-//W3C//DTD SVG 1.1//EN"
  "http://www.w3.org/Graphics/SVG/1.1/DTD/svg11.dtd">
<svg xmlns:xlink="http://www.w3.org/1999/xlink" width="1639.771715pt" height="3034.653568pt" viewBox="0 0 1639.771715 3034.653568" xmlns="http://www.w3.org/2000/svg" version="1.1">
 <metadata>
  <rdf:RDF xmlns:dc="http://purl.org/dc/elements/1.1/" xmlns:cc="http://creativecommons.org/ns#" xmlns:rdf="http://www.w3.org/1999/02/22-rdf-syntax-ns#">
   <cc:Work>
    <dc:type rdf:resource="http://purl.org/dc/dcmitype/StillImage"/>
    <dc:date>2026-01-03T06:38:44.267312</dc:date>
    <dc:format>image/svg+xml</dc:format>
    <dc:creator>
     <cc:Agent>
      <dc:title>Matplotlib v3.10.7, https://matplotlib.org/</dc:title>
     </cc:Agent>
    </dc:creator>
   </cc:Work>
  </rdf:RDF>
 </metadata>
 <defs>
  <style type="text/css">*{stroke-linejoin: round; stroke-linecap: butt}</style>
 </defs>
 <g id="figure_1">
  <g id="patch_1">
   <path d="M 0 3034.653568 
L 1639.771715 3034.653568 
L 1639.771715 0 
L 0 0 
z
" style="fill: #ffffff"/>
  </g>
  <g id="axes_1">
   <g id="patch_2">
    <path d="M 0 3034.653568 
L 1639.771715 3034.653568 
L 1639.771715 0 
L 0 0 
z
" clip-path="url(#p62dc240f14)" style="fill: #ffffff; stroke: #ffffff; stroke-linejoin: miter"/>
   </g>
   <g id="patch_3">
    <path d="M 596.280624 0 
Q 596.280624 16.492682 596.280624 16.492682 
" clip-path="url(#p62dc240f14)" style="fill: none; stroke: #000000; stroke-linejoin: miter"/>
   </g>
   <g id="patch_4">
    <path d="M 596.280624 49.478047 
Q 596.280624 65.97073 596.280624 65.97073 
" clip-path="url(#p62dc240f14)" style="fill: none; stroke: #000000; stroke-linejoin: miter"/>
   </g>
   <g id="patch_5">
    <path d="M 596.280624 98.956095 
Q 223.605234 98.956095 223.605234 131.941459 
" clip-path="url(#p62dc240f14)" style="fill: none; stroke: #000000; stroke-linejoin: miter"/>
   </g>
   <g id="patch_6">
    <path d="M 596.280624 98.956095 
Q 1565.236637 98.956095 1565.236637 131.941459 
" clip-path="url(#p62dc240f14)" style="fill: none; stroke: #000000; stroke-linejoin: miter"/>
   </g>
   <g id="patch_7">
    <path d="M 596.280624 65.97073 
Q 596.280624 131.941459 596.280624 131.941459 
" clip-path="url(#p62dc240f14)" style="fill: none; stroke: #000000; stroke-linejoin: miter"/>
   </g>
   <g id="patch_8">
    <path d="M 223.605234 131.941459 
Q 223.605234 725.678027 223.605234 725.678027 
" clip-path="url(#p62dc240f14)" style="fill: none; stroke: #000000; stroke-linejoin: miter"/>
   </g>
   <g id="patch_9">
    <path d="M 596.280624 131.941459 
Q 596.280624 148.434142 596.280624 148.434142 
" clip-path="url(#p62dc240f14)" style="fill: none; stroke: #000000; stroke-linejoin: miter"/>
   </g>
   <g id="patch_10">
    <path d="M 1565.236637 131.941459 
Q 1565.236637 725.678027 1565.236637 725.678027 
" clip-path="url(#p62dc240f14)" style="fill: none; stroke: #000000; stroke-linejoin: miter"/>
   </g>
   <g id="patch_11">
    <path d="M 447.210468 181.419507 
Q 447.210468 214.404872 447.210468 214.404872 
" clip-path="url(#p62dc240f14)" style="fill: none; stroke: #000000; stroke-linejoin: miter"/>
   </g>
   <g id="patch_12">
    <path d="M 894.420935 181.419507 
Q 894.420935 329.853649 894.420935 329.853649 
" clip-path="url(#p62dc240f14)" style="fill: none; stroke: #000000; stroke-linejoin: miter"/>
   </g>
   <g id="patch_13">
    <path d="M 447.210468 313.360966 
Q 447.210468 610.22925 447.210468 610.22925 
" clip-path="url(#p62dc240f14)" style="fill: none; stroke: #000000; stroke-linejoin: miter"/>
   </g>
   <g id="patch_14">
    <path d="M 894.420935 362.839014 
Q 670.815702 362.839014 670.815702 395.824378 
" clip-path="url(#p62dc240f14)" style="fill: none; stroke: #000000; stroke-linejoin: miter"/>
   </g>
   <g id="patch_15">
    <path d="M 894.420935 362.839014 
Q 1416.166481 362.839014 1416.166481 395.824378 
" clip-path="url(#p62dc240f14)" style="fill: none; stroke: #000000; stroke-linejoin: miter"/>
   </g>
   <g id="patch_16">
    <path d="M 894.420935 329.853649 
Q 894.420935 395.824378 894.420935 395.824378 
" clip-path="url(#p62dc240f14)" style="fill: none; stroke: #000000; stroke-linejoin: miter"/>
   </g>
   <g id="patch_17">
    <path d="M 670.815702 395.824378 
Q 670.815702 527.765838 670.815702 527.765838 
" clip-path="url(#p62dc240f14)" style="fill: none; stroke: #000000; stroke-linejoin: miter"/>
   </g>
   <g id="patch_18">
    <path d="M 894.420935 395.824378 
Q 894.420935 412.317061 894.420935 412.317061 
" clip-path="url(#p62dc240f14)" style="fill: none; stroke: #000000; stroke-linejoin: miter"/>
   </g>
   <g id="patch_19">
    <path d="M 1416.166481 395.824378 
Q 1416.166481 527.765838 1416.166481 527.765838 
" clip-path="url(#p62dc240f14)" style="fill: none; stroke: #000000; stroke-linejoin: miter"/>
   </g>
   <g id="patch_20">
    <path d="M 894.420935 445.302426 
Q 894.420935 527.765838 894.420935 527.765838 
" clip-path="url(#p62dc240f14)" style="fill: none; stroke: #000000; stroke-linejoin: miter"/>
   </g>
   <g id="patch_21">
    <path d="M 670.815702 527.765838 
Q 670.815702 560.751203 894.420935 560.751203 
" clip-path="url(#p62dc240f14)" style="fill: none; stroke: #000000; stroke-linejoin: miter"/>
   </g>
   <g id="patch_22">
    <path d="M 894.420935 527.765838 
Q 894.420935 593.736568 894.420935 593.736568 
" clip-path="url(#p62dc240f14)" style="fill: none; stroke: #000000; stroke-linejoin: miter"/>
   </g>
   <g id="patch_23">
    <path d="M 1416.166481 527.765838 
Q 1416.166481 560.751203 894.420935 560.751203 
" clip-path="url(#p62dc240f14)" style="fill: none; stroke: #000000; stroke-linejoin: miter"/>
   </g>
   <g id="patch_24">
    <path d="M 894.420935 593.736568 
Q 894.420935 610.22925 894.420935 610.22925 
" clip-path="url(#p62dc240f14)" style="fill: none; stroke: #000000; stroke-linejoin: miter"/>
   </g>
   <g id="patch_25">
    <path d="M 670.815702 643.214615 
Q 670.815702 725.678027 670.815702 725.678027 
" clip-path="url(#p62dc240f14)" style="fill: none; stroke: #000000; stroke-linejoin: miter"/>
   </g>
   <g id="patch_26">
    <path d="M 223.605234 725.678027 
Q 223.605234 758.663392 670.815702 758.663392 
" clip-path="url(#p62dc240f14)" style="fill: none; stroke: #000000; stroke-linejoin: miter"/>
   </g>
   <g id="patch_27">
    <path d="M 670.815702 725.678027 
Q 670.815702 791.648757 670.815702 791.648757 
" clip-path="url(#p62dc240f14)" style="fill: none; stroke: #000000; stroke-linejoin: miter"/>
   </g>
   <g id="patch_28">
    <path d="M 1565.236637 725.678027 
Q 1565.236637 758.663392 670.815702 758.663392 
" clip-path="url(#p62dc240f14)" style="fill: none; stroke: #000000; stroke-linejoin: miter"/>
   </g>
   <g id="patch_29">
    <path d="M 670.815702 791.648757 
Q 670.815702 808.141439 670.815702 808.141439 
" clip-path="url(#p62dc240f14)" style="fill: none; stroke: #000000; stroke-linejoin: miter"/>
   </g>
   <g id="patch_30">
    <path d="M 298.140312 907.097534 
Q 298.140312 940.082899 298.140312 940.082899 
" clip-path="url(#p62dc240f14)" style="fill: none; stroke: #000000; stroke-linejoin: miter"/>
   </g>
   <g id="patch_31">
    <path d="M 298.140312 973.068263 
Q 298.140312 1006.053628 298.140312 1006.053628 
" clip-path="url(#p62dc240f14)" style="fill: none; stroke: #000000; stroke-linejoin: miter"/>
   </g>
   <g id="patch_32">
    <path d="M 298.140312 1039.038993 
Q 298.140312 1072.024358 298.140312 1072.024358 
" clip-path="url(#p62dc240f14)" style="fill: none; stroke: #000000; stroke-linejoin: miter"/>
   </g>
   <g id="patch_33">
    <path d="M 298.140312 1105.009723 
Q 298.140312 1137.995088 298.140312 1137.995088 
" clip-path="url(#p62dc240f14)" style="fill: none; stroke: #000000; stroke-linejoin: miter"/>
   </g>
   <g id="patch_34">
    <path d="M 298.140312 1302.921912 
Q 298.140312 1401.878007 298.140312 1401.878007 
" clip-path="url(#p62dc240f14)" style="fill: none; stroke: #000000; stroke-linejoin: miter"/>
   </g>
   <g id="patch_35">
    <path d="M 596.280624 1368.892642 
Q 596.280624 1401.878007 596.280624 1401.878007 
" clip-path="url(#p62dc240f14)" style="fill: none; stroke: #000000; stroke-linejoin: miter"/>
   </g>
   <g id="patch_36">
    <path d="M 447.210468 1434.863372 
Q 447.210468 1467.848736 447.210468 1467.848736 
" clip-path="url(#p62dc240f14)" style="fill: none; stroke: #000000; stroke-linejoin: miter"/>
   </g>
   <g id="patch_37">
    <path d="M 447.210468 1500.834101 
Q 447.210468 1533.819466 447.210468 1533.819466 
" clip-path="url(#p62dc240f14)" style="fill: none; stroke: #000000; stroke-linejoin: miter"/>
   </g>
   <g id="patch_38">
    <path d="M 447.210468 1566.804831 
Q 447.210468 1583.297513 447.210468 1583.297513 
" clip-path="url(#p62dc240f14)" style="fill: none; stroke: #000000; stroke-linejoin: miter"/>
   </g>
   <g id="patch_39">
    <path d="M 447.210468 1616.282878 
Q 223.605234 1616.282878 223.605234 1649.268243 
" clip-path="url(#p62dc240f14)" style="fill: none; stroke: #000000; stroke-linejoin: miter"/>
   </g>
   <g id="patch_40">
    <path d="M 447.210468 1616.282878 
Q 1118.026169 1616.282878 1118.026169 1649.268243 
" clip-path="url(#p62dc240f14)" style="fill: none; stroke: #000000; stroke-linejoin: miter"/>
   </g>
   <g id="patch_41">
    <path d="M 447.210468 1583.297513 
Q 447.210468 1649.268243 447.210468 1649.268243 
" clip-path="url(#p62dc240f14)" style="fill: none; stroke: #000000; stroke-linejoin: miter"/>
   </g>
   <g id="patch_42">
    <path d="M 223.605234 1649.268243 
Q 223.605234 2045.092622 223.605234 2045.092622 
" clip-path="url(#p62dc240f14)" style="fill: none; stroke: #000000; stroke-linejoin: miter"/>
   </g>
   <g id="patch_43">
    <path d="M 447.210468 1649.268243 
Q 447.210468 1665.760926 447.210468 1665.760926 
" clip-path="url(#p62dc240f14)" style="fill: none; stroke: #000000; stroke-linejoin: miter"/>
   </g>
   <g id="patch_44">
    <path d="M 1118.026169 1649.268243 
Q 1118.026169 2045.092622 1118.026169 2045.092622 
" clip-path="url(#p62dc240f14)" style="fill: none; stroke: #000000; stroke-linejoin: miter"/>
   </g>
   <g id="patch_45">
    <path d="M 447.210468 1830.68775 
Q 447.210468 1929.643845 447.210468 1929.643845 
" clip-path="url(#p62dc240f14)" style="fill: none; stroke: #000000; stroke-linejoin: miter"/>
   </g>
   <g id="patch_46">
    <path d="M 745.35078 1896.65848 
Q 745.35078 1929.643845 745.35078 1929.643845 
" clip-path="url(#p62dc240f14)" style="fill: none; stroke: #000000; stroke-linejoin: miter"/>
   </g>
   <g id="patch_47">
    <path d="M 596.280624 1962.629209 
Q 596.280624 2045.092622 596.280624 2045.092622 
" clip-path="url(#p62dc240f14)" style="fill: none; stroke: #000000; stroke-linejoin: miter"/>
   </g>
   <g id="patch_48">
    <path d="M 223.605234 2045.092622 
Q 223.605234 2078.077986 596.280624 2078.077986 
" clip-path="url(#p62dc240f14)" style="fill: none; stroke: #000000; stroke-linejoin: miter"/>
   </g>
   <g id="patch_49">
    <path d="M 596.280624 2045.092622 
Q 596.280624 2111.063351 596.280624 2111.063351 
" clip-path="url(#p62dc240f14)" style="fill: none; stroke: #000000; stroke-linejoin: miter"/>
   </g>
   <g id="patch_50">
    <path d="M 1118.026169 2045.092622 
Q 1118.026169 2078.077986 596.280624 2078.077986 
" clip-path="url(#p62dc240f14)" style="fill: none; stroke: #000000; stroke-linejoin: miter"/>
   </g>
   <g id="patch_51">
    <path d="M 596.280624 2111.063351 
Q 596.280624 2127.556034 596.280624 2127.556034 
" clip-path="url(#p62dc240f14)" style="fill: none; stroke: #000000; stroke-linejoin: miter"/>
   </g>
   <g id="patch_52">
    <path d="M 298.140312 2226.512128 
Q 298.140312 2259.497493 298.140312 2259.497493 
" clip-path="url(#p62dc240f14)" style="fill: none; stroke: #000000; stroke-linejoin: miter"/>
   </g>
   <g id="patch_53">
    <path d="M 298.140312 2292.482858 
Q 298.140312 2325.468223 298.140312 2325.468223 
" clip-path="url(#p62dc240f14)" style="fill: none; stroke: #000000; stroke-linejoin: miter"/>
   </g>
   <g id="patch_54">
    <path d="M 298.140312 2358.453588 
Q 298.140312 2374.94627 298.140312 2374.94627 
" clip-path="url(#p62dc240f14)" style="fill: none; stroke: #000000; stroke-linejoin: miter"/>
   </g>
   <g id="patch_55">
    <path d="M 298.140312 2407.931635 
Q 74.535078 2407.931635 74.535078 2440.917 
" clip-path="url(#p62dc240f14)" style="fill: none; stroke: #000000; stroke-linejoin: miter"/>
   </g>
   <g id="patch_56">
    <path d="M 298.140312 2407.931635 
Q 968.956013 2407.931635 968.956013 2440.917 
" clip-path="url(#p62dc240f14)" style="fill: none; stroke: #000000; stroke-linejoin: miter"/>
   </g>
   <g id="patch_57">
    <path d="M 298.140312 2374.94627 
Q 298.140312 2440.917 298.140312 2440.917 
" clip-path="url(#p62dc240f14)" style="fill: none; stroke: #000000; stroke-linejoin: miter"/>
   </g>
   <g id="patch_58">
    <path d="M 74.535078 2440.917 
Q 74.535078 2836.741378 74.535078 2836.741378 
" clip-path="url(#p62dc240f14)" style="fill: none; stroke: #000000; stroke-linejoin: miter"/>
   </g>
   <g id="patch_59">
    <path d="M 298.140312 2440.917 
Q 298.140312 2457.409682 298.140312 2457.409682 
" clip-path="url(#p62dc240f14)" style="fill: none; stroke: #000000; stroke-linejoin: miter"/>
   </g>
   <g id="patch_60">
    <path d="M 968.956013 2440.917 
Q 968.956013 2836.741378 968.956013 2836.741378 
" clip-path="url(#p62dc240f14)" style="fill: none; stroke: #000000; stroke-linejoin: miter"/>
   </g>
   <g id="patch_61">
    <path d="M 298.140312 2622.336507 
Q 298.140312 2721.292601 298.140312 2721.292601 
" clip-path="url(#p62dc240f14)" style="fill: none; stroke: #000000; stroke-linejoin: miter"/>
   </g>
   <g id="patch_62">
    <path d="M 596.280624 2688.307236 
Q 596.280624 2721.292601 596.280624 2721.292601 
" clip-path="url(#p62dc240f14)" style="fill: none; stroke: #000000; stroke-linejoin: miter"/>
   </g>
   <g id="patch_63">
    <path d="M 447.210468 2754.277966 
Q 447.210468 2836.741378 447.210468 2836.741378 
" clip-path="url(#p62dc240f14)" style="fill: none; stroke: #000000; stroke-linejoin: miter"/>
   </g>
   <g id="patch_64">
    <path d="M 74.535078 2836.741378 
Q 74.535078 2869.726743 447.210468 2869.726743 
" clip-path="url(#p62dc240f14)" style="fill: none; stroke: #000000; stroke-linejoin: miter"/>
   </g>
   <g id="patch_65">
    <path d="M 447.210468 2836.741378 
Q 447.210468 2902.712108 447.210468 2902.712108 
" clip-path="url(#p62dc240f14)" style="fill: none; stroke: #000000; stroke-linejoin: miter"/>
   </g>
   <g id="patch_66">
    <path d="M 968.956013 2836.741378 
Q 968.956013 2869.726743 447.210468 2869.726743 
" clip-path="url(#p62dc240f14)" style="fill: none; stroke: #000000; stroke-linejoin: miter"/>
   </g>
   <g id="patch_67">
    <path d="M 447.210468 2902.712108 
Q 447.210468 2919.20479 447.210468 2919.20479 
" clip-path="url(#p62dc240f14)" style="fill: none; stroke: #000000; stroke-linejoin: miter"/>
   </g>
   <g id="patch_68">
    <path d="M 447.210468 2952.190155 
Q 447.210468 2985.17552 447.210468 2985.17552 
" clip-path="url(#p62dc240f14)" style="fill: none; stroke: #000000; stroke-linejoin: miter"/>
   </g>
   <g id="patch_69">
    <path d="M 447.210468 3018.160885 
Q 447.210468 3034.653568 447.210468 3034.653568 
" clip-path="url(#p62dc240f14)" style="fill: none; stroke: #000000; stroke-linejoin: miter"/>
   </g>
   <g id="patch_70">
    <path d="M 521.745546 49.478047 
L 521.745546 16.492682 
L 670.815702 16.492682 
L 670.815702 49.478047 
z
" clip-path="url(#p62dc240f14)" style="fill: #ffffff; stroke: #000000; stroke-linejoin: miter"/>
   </g>
   <g id="patch_71">
    <path d="M 372.67539 181.419507 
L 372.67539 148.434142 
L 968.956013 148.434142 
L 968.956013 181.419507 
z
" clip-path="url(#p62dc240f14)" style="fill: #ffffff; stroke: #000000; stroke-linejoin: miter"/>
   </g>
   <g id="patch_72">
    <path d="M 372.67539 247.390236 
L 372.67539 214.404872 
L 521.745546 214.404872 
L 521.745546 247.390236 
z
" clip-path="url(#p62dc240f14)" style="fill: #ffffff; stroke: #000000; stroke-linejoin: miter"/>
   </g>
   <g id="patch_73">
    <path d="M 372.67539 313.360966 
L 372.67539 280.375601 
L 521.745546 280.375601 
L 521.745546 313.360966 
z
" clip-path="url(#p62dc240f14)" style="fill: #ffffff; stroke: #000000; stroke-linejoin: miter"/>
   </g>
   <g id="patch_74">
    <path d="M 819.885857 445.302426 
L 819.885857 412.317061 
L 968.956013 412.317061 
L 968.956013 445.302426 
z
" clip-path="url(#p62dc240f14)" style="fill: #ffffff; stroke: #000000; stroke-linejoin: miter"/>
   </g>
   <g id="patch_75">
    <path d="M 1118.026169 511.273155 
L 1118.026169 478.287791 
L 1267.096325 478.287791 
L 1267.096325 511.273155 
z
" clip-path="url(#p62dc240f14)" style="fill: #ffffff; stroke: #000000; stroke-linejoin: miter"/>
   </g>
   <g id="patch_76">
    <path d="M 372.67539 643.214615 
L 372.67539 610.22925 
L 968.956013 610.22925 
L 968.956013 643.214615 
z
" clip-path="url(#p62dc240f14)" style="fill: #ffffff; stroke: #000000; stroke-linejoin: miter"/>
   </g>
   <g id="patch_77">
    <path d="M 894.420935 709.185345 
L 894.420935 676.19998 
L 1043.491091 676.19998 
L 1043.491091 709.185345 
z
" clip-path="url(#p62dc240f14)" style="fill: #ffffff; stroke: #000000; stroke-linejoin: miter"/>
   </g>
   <g id="patch_78">
    <path d="M 596.280624 841.126804 
L 596.280624 808.141439 
L 745.35078 808.141439 
L 745.35078 841.126804 
z
" clip-path="url(#p62dc240f14)" style="fill: #ffffff; stroke: #000000; stroke-linejoin: miter"/>
   </g>
   <g id="patch_79">
    <path d="M 223.605234 907.097534 
L 223.605234 874.112169 
L 372.67539 874.112169 
L 372.67539 907.097534 
z
" clip-path="url(#p62dc240f14)" style="fill: #ffffff; stroke: #000000; stroke-linejoin: miter"/>
   </g>
   <g id="patch_80">
    <path d="M 223.605234 973.068263 
L 223.605234 940.082899 
L 372.67539 940.082899 
L 372.67539 973.068263 
z
" clip-path="url(#p62dc240f14)" style="fill: #ffffff; stroke: #000000; stroke-linejoin: miter"/>
   </g>
   <g id="patch_81">
    <path d="M 223.605234 1039.038993 
L 223.605234 1006.053628 
L 372.67539 1006.053628 
L 372.67539 1039.038993 
z
" clip-path="url(#p62dc240f14)" style="fill: #ffffff; stroke: #000000; stroke-linejoin: miter"/>
   </g>
   <g id="patch_82">
    <path d="M 223.605234 1105.009723 
L 223.605234 1072.024358 
L 372.67539 1072.024358 
L 372.67539 1105.009723 
z
" clip-path="url(#p62dc240f14)" style="fill: #ffffff; stroke: #000000; stroke-linejoin: miter"/>
   </g>
   <g id="patch_83">
    <path d="M 223.605234 1170.980453 
L 223.605234 1137.995088 
L 372.67539 1137.995088 
L 372.67539 1170.980453 
z
" clip-path="url(#p62dc240f14)" style="fill: #ffffff; stroke: #000000; stroke-linejoin: miter"/>
   </g>
   <g id="patch_84">
    <path d="M 223.605234 1236.951182 
L 223.605234 1203.965818 
L 372.67539 1203.965818 
L 372.67539 1236.951182 
z
" clip-path="url(#p62dc240f14)" style="fill: #ffffff; stroke: #000000; stroke-linejoin: miter"/>
   </g>
   <g id="patch_85">
    <path d="M 223.605234 1302.921912 
L 223.605234 1269.936547 
L 372.67539 1269.936547 
L 372.67539 1302.921912 
z
" clip-path="url(#p62dc240f14)" style="fill: #ffffff; stroke: #000000; stroke-linejoin: miter"/>
   </g>
   <g id="patch_86">
    <path d="M 521.745546 1368.892642 
L 521.745546 1335.907277 
L 670.815702 1335.907277 
L 670.815702 1368.892642 
z
" clip-path="url(#p62dc240f14)" style="fill: #ffffff; stroke: #000000; stroke-linejoin: miter"/>
   </g>
   <g id="patch_87">
    <path d="M 223.605234 1434.863372 
L 223.605234 1401.878007 
L 670.815702 1401.878007 
L 670.815702 1434.863372 
z
" clip-path="url(#p62dc240f14)" style="fill: #ffffff; stroke: #000000; stroke-linejoin: miter"/>
   </g>
   <g id="patch_88">
    <path d="M 372.67539 1500.834101 
L 372.67539 1467.848736 
L 521.745546 1467.848736 
L 521.745546 1500.834101 
z
" clip-path="url(#p62dc240f14)" style="fill: #ffffff; stroke: #000000; stroke-linejoin: miter"/>
   </g>
   <g id="patch_89">
    <path d="M 372.67539 1566.804831 
L 372.67539 1533.819466 
L 521.745546 1533.819466 
L 521.745546 1566.804831 
z
" clip-path="url(#p62dc240f14)" style="fill: #ffffff; stroke: #000000; stroke-linejoin: miter"/>
   </g>
   <g id="patch_90">
    <path d="M 372.67539 1698.746291 
L 372.67539 1665.760926 
L 521.745546 1665.760926 
L 521.745546 1698.746291 
z
" clip-path="url(#p62dc240f14)" style="fill: #ffffff; stroke: #000000; stroke-linejoin: miter"/>
   </g>
   <g id="patch_91">
    <path d="M 372.67539 1764.71702 
L 372.67539 1731.731655 
L 521.745546 1731.731655 
L 521.745546 1764.71702 
z
" clip-path="url(#p62dc240f14)" style="fill: #ffffff; stroke: #000000; stroke-linejoin: miter"/>
   </g>
   <g id="patch_92">
    <path d="M 372.67539 1830.68775 
L 372.67539 1797.702385 
L 521.745546 1797.702385 
L 521.745546 1830.68775 
z
" clip-path="url(#p62dc240f14)" style="fill: #ffffff; stroke: #000000; stroke-linejoin: miter"/>
   </g>
   <g id="patch_93">
    <path d="M 670.815702 1896.65848 
L 670.815702 1863.673115 
L 819.885857 1863.673115 
L 819.885857 1896.65848 
z
" clip-path="url(#p62dc240f14)" style="fill: #ffffff; stroke: #000000; stroke-linejoin: miter"/>
   </g>
   <g id="patch_94">
    <path d="M 372.67539 1962.629209 
L 372.67539 1929.643845 
L 819.885857 1929.643845 
L 819.885857 1962.629209 
z
" clip-path="url(#p62dc240f14)" style="fill: #ffffff; stroke: #000000; stroke-linejoin: miter"/>
   </g>
   <g id="patch_95">
    <path d="M 819.885857 2028.599939 
L 819.885857 1995.614574 
L 968.956013 1995.614574 
L 968.956013 2028.599939 
z
" clip-path="url(#p62dc240f14)" style="fill: #ffffff; stroke: #000000; stroke-linejoin: miter"/>
   </g>
   <g id="patch_96">
    <path d="M 521.745546 2160.541399 
L 521.745546 2127.556034 
L 670.815702 2127.556034 
L 670.815702 2160.541399 
z
" clip-path="url(#p62dc240f14)" style="fill: #ffffff; stroke: #000000; stroke-linejoin: miter"/>
   </g>
   <g id="patch_97">
    <path d="M 223.605234 2226.512128 
L 223.605234 2193.526763 
L 372.67539 2193.526763 
L 372.67539 2226.512128 
z
" clip-path="url(#p62dc240f14)" style="fill: #ffffff; stroke: #000000; stroke-linejoin: miter"/>
   </g>
   <g id="patch_98">
    <path d="M 223.605234 2292.482858 
L 223.605234 2259.497493 
L 372.67539 2259.497493 
L 372.67539 2292.482858 
z
" clip-path="url(#p62dc240f14)" style="fill: #ffffff; stroke: #000000; stroke-linejoin: miter"/>
   </g>
   <g id="patch_99">
    <path d="M 223.605234 2358.453588 
L 223.605234 2325.468223 
L 372.67539 2325.468223 
L 372.67539 2358.453588 
z
" clip-path="url(#p62dc240f14)" style="fill: #ffffff; stroke: #000000; stroke-linejoin: miter"/>
   </g>
   <g id="patch_100">
    <path d="M 223.605234 2490.395047 
L 223.605234 2457.409682 
L 372.67539 2457.409682 
L 372.67539 2490.395047 
z
" clip-path="url(#p62dc240f14)" style="fill: #ffffff; stroke: #000000; stroke-linejoin: miter"/>
   </g>
   <g id="patch_101">
    <path d="M 223.605234 2556.365777 
L 223.605234 2523.380412 
L 372.67539 2523.380412 
L 372.67539 2556.365777 
z
" clip-path="url(#p62dc240f14)" style="fill: #ffffff; stroke: #000000; stroke-linejoin: miter"/>
   </g>
   <g id="patch_102">
    <path d="M 223.605234 2622.336507 
L 223.605234 2589.351142 
L 372.67539 2589.351142 
L 372.67539 2622.336507 
z
" clip-path="url(#p62dc240f14)" style="fill: #ffffff; stroke: #000000; stroke-linejoin: miter"/>
   </g>
   <g id="patch_103">
    <path d="M 521.745546 2688.307236 
L 521.745546 2655.321872 
L 670.815702 2655.321872 
L 670.815702 2688.307236 
z
" clip-path="url(#p62dc240f14)" style="fill: #ffffff; stroke: #000000; stroke-linejoin: miter"/>
   </g>
   <g id="patch_104">
    <path d="M 223.605234 2754.277966 
L 223.605234 2721.292601 
L 670.815702 2721.292601 
L 670.815702 2754.277966 
z
" clip-path="url(#p62dc240f14)" style="fill: #ffffff; stroke: #000000; stroke-linejoin: miter"/>
   </g>
   <g id="patch_105">
    <path d="M 670.815702 2820.248696 
L 670.815702 2787.263331 
L 819.885857 2787.263331 
L 819.885857 2820.248696 
z
" clip-path="url(#p62dc240f14)" style="fill: #ffffff; stroke: #000000; stroke-linejoin: miter"/>
   </g>
   <g id="patch_106">
    <path d="M 372.67539 2952.190155 
L 372.67539 2919.20479 
L 521.745546 2919.20479 
L 521.745546 2952.190155 
z
" clip-path="url(#p62dc240f14)" style="fill: #ffffff; stroke: #000000; stroke-linejoin: miter"/>
   </g>
   <g id="patch_107">
    <path d="M 372.67539 3018.160885 
L 372.67539 2985.17552 
L 521.745546 2985.17552 
L 521.745546 3018.160885 
z
" clip-path="url(#p62dc240f14)" style="fill: #ffffff; stroke: #000000; stroke-linejoin: miter"/>
   </g>
   <g id="text_1">
    <!-- Copy(Ty(), 1) -->
    <g transform="translate(371.72828 52.30099) scale(0.7 -0.7)">
     <defs>
      <path id="DejaVuSans-43" d="M 4122 4306 
L 4122 3641 
Q 3803 3938 3442 4084 
Q 3081 4231 2675 4231 
Q 1875 4231 1450 3742 
Q 1025 3253 1025 2328 
Q 1025 1406 1450 917 
Q 1875 428 2675 428 
Q 3081 428 3442 575 
Q 3803 722 4122 1019 
L 4122 359 
Q 3791 134 3420 21 
Q 3050 -91 2638 -91 
Q 1578 -91 968 557 
Q 359 1206 359 2328 
Q 359 3453 968 4101 
Q 1578 4750 2638 4750 
Q 3056 4750 3426 4639 
Q 3797 4528 4122 4306 
z
" transform="scale(0.015625)"/>
      <path id="DejaVuSans-6f" d="M 1959 3097 
Q 1497 3097 1228 2736 
Q 959 2375 959 1747 
Q 959 1119 1226 758 
Q 1494 397 1959 397 
Q 2419 397 2687 759 
Q 2956 1122 2956 1747 
Q 2956 2369 2687 2733 
Q 2419 3097 1959 3097 
z
M 1959 3584 
Q 2709 3584 3137 3096 
Q 3566 2609 3566 1747 
Q 3566 888 3137 398 
Q 2709 -91 1959 -91 
Q 1206 -91 779 398 
Q 353 888 353 1747 
Q 353 2609 779 3096 
Q 1206 3584 1959 3584 
z
" transform="scale(0.015625)"/>
      <path id="DejaVuSans-70" d="M 1159 525 
L 1159 -1331 
L 581 -1331 
L 581 3500 
L 1159 3500 
L 1159 2969 
Q 1341 3281 1617 3432 
Q 1894 3584 2278 3584 
Q 2916 3584 3314 3078 
Q 3713 2572 3713 1747 
Q 3713 922 3314 415 
Q 2916 -91 2278 -91 
Q 1894 -91 1617 61 
Q 1341 213 1159 525 
z
M 3116 1747 
Q 3116 2381 2855 2742 
Q 2594 3103 2138 3103 
Q 1681 3103 1420 2742 
Q 1159 2381 1159 1747 
Q 1159 1113 1420 752 
Q 1681 391 2138 391 
Q 2594 391 2855 752 
Q 3116 1113 3116 1747 
z
" transform="scale(0.015625)"/>
      <path id="DejaVuSans-79" d="M 2059 -325 
Q 1816 -950 1584 -1140 
Q 1353 -1331 966 -1331 
L 506 -1331 
L 506 -850 
L 844 -850 
Q 1081 -850 1212 -737 
Q 1344 -625 1503 -206 
L 1606 56 
L 191 3500 
L 800 3500 
L 1894 763 
L 2988 3500 
L 3597 3500 
L 2059 -325 
z
" transform="scale(0.015625)"/>
      <path id="DejaVuSans-28" d="M 1984 4856 
Q 1566 4138 1362 3434 
Q 1159 2731 1159 2009 
Q 1159 1288 1364 580 
Q 1569 -128 1984 -844 
L 1484 -844 
Q 1016 -109 783 600 
Q 550 1309 550 2009 
Q 550 2706 781 3412 
Q 1013 4119 1484 4856 
L 1984 4856 
z
" transform="scale(0.015625)"/>
      <path id="DejaVuSans-54" d="M -19 4666 
L 3928 4666 
L 3928 4134 
L 2272 4134 
L 2272 0 
L 1638 0 
L 1638 4134 
L -19 4134 
L -19 4666 
z
" transform="scale(0.015625)"/>
      <path id="DejaVuSans-29" d="M 513 4856 
L 1013 4856 
Q 1481 4119 1714 3412 
Q 1947 2706 1947 2009 
Q 1947 1309 1714 600 
Q 1481 -109 1013 -844 
L 513 -844 
Q 928 -128 1133 580 
Q 1338 1288 1338 2009 
Q 1338 2731 1133 3434 
Q 928 4138 513 4856 
z
" transform="scale(0.015625)"/>
      <path id="DejaVuSans-2c" d="M 750 794 
L 1409 794 
L 1409 256 
L 897 -744 
L 494 -744 
L 750 256 
L 750 794 
z
" transform="scale(0.015625)"/>
      <path id="DejaVuSans-20" transform="scale(0.015625)"/>
      <path id="DejaVuSans-31" d="M 794 531 
L 1825 531 
L 1825 4091 
L 703 3866 
L 703 4441 
L 1819 4666 
L 2450 4666 
L 2450 531 
L 3481 531 
L 3481 0 
L 794 0 
L 794 531 
z
" transform="scale(0.015625)"/>
     </defs>
     <use xlink:href="#DejaVuSans-43"/>
     <use xlink:href="#DejaVuSans-6f" transform="translate(69.824219 0)"/>
     <use xlink:href="#DejaVuSans-70" transform="translate(131.005859 0)"/>
     <use xlink:href="#DejaVuSans-79" transform="translate(194.482422 0)"/>
     <use xlink:href="#DejaVuSans-28" transform="translate(253.662109 0)"/>
     <use xlink:href="#DejaVuSans-54" transform="translate(292.675781 0)"/>
     <use xlink:href="#DejaVuSans-79" transform="translate(338.134766 0)"/>
     <use xlink:href="#DejaVuSans-28" transform="translate(397.314453 0)"/>
     <use xlink:href="#DejaVuSans-29" transform="translate(436.328125 0)"/>
     <use xlink:href="#DejaVuSans-2c" transform="translate(475.341797 0)"/>
     <use xlink:href="#DejaVuSans-20" transform="translate(507.128906 0)"/>
     <use xlink:href="#DejaVuSans-31" transform="translate(538.916016 0)"/>
     <use xlink:href="#DejaVuSans-29" transform="translate(602.539062 0)"/>
    </g>
   </g>
   <g id="text_2">
    <!-- Copy(Ty(), 2) -->
    <g transform="translate(446.263358 184.242449) scale(0.7 -0.7)">
     <defs>
      <path id="DejaVuSans-32" d="M 1228 531 
L 3431 531 
L 3431 0 
L 469 0 
L 469 531 
Q 828 903 1448 1529 
Q 2069 2156 2228 2338 
Q 2531 2678 2651 2914 
Q 2772 3150 2772 3378 
Q 2772 3750 2511 3984 
Q 2250 4219 1831 4219 
Q 1534 4219 1204 4116 
Q 875 4013 500 3803 
L 500 4441 
Q 881 4594 1212 4672 
Q 1544 4750 1819 4750 
Q 2544 4750 2975 4387 
Q 3406 4025 3406 3419 
Q 3406 3131 3298 2873 
Q 3191 2616 2906 2266 
Q 2828 2175 2409 1742 
Q 1991 1309 1228 531 
z
" transform="scale(0.015625)"/>
     </defs>
     <use xlink:href="#DejaVuSans-43"/>
     <use xlink:href="#DejaVuSans-6f" transform="translate(69.824219 0)"/>
     <use xlink:href="#DejaVuSans-70" transform="translate(131.005859 0)"/>
     <use xlink:href="#DejaVuSans-79" transform="translate(194.482422 0)"/>
     <use xlink:href="#DejaVuSans-28" transform="translate(253.662109 0)"/>
     <use xlink:href="#DejaVuSans-54" transform="translate(292.675781 0)"/>
     <use xlink:href="#DejaVuSans-79" transform="translate(338.134766 0)"/>
     <use xlink:href="#DejaVuSans-28" transform="translate(397.314453 0)"/>
     <use xlink:href="#DejaVuSans-29" transform="translate(436.328125 0)"/>
     <use xlink:href="#DejaVuSans-2c" transform="translate(475.341797 0)"/>
     <use xlink:href="#DejaVuSans-20" transform="translate(507.128906 0)"/>
     <use xlink:href="#DejaVuSans-32" transform="translate(538.916016 0)"/>
     <use xlink:href="#DejaVuSans-29" transform="translate(602.539062 0)"/>
    </g>
   </g>
   <g id="text_3">
    <!-- Discard(Ty()) -->
    <g transform="translate(224.369843 250.213179) scale(0.7 -0.7)">
     <defs>
      <path id="DejaVuSans-44" d="M 1259 4147 
L 1259 519 
L 2022 519 
Q 2988 519 3436 956 
Q 3884 1394 3884 2338 
Q 3884 3275 3436 3711 
Q 2988 4147 2022 4147 
L 1259 4147 
z
M 628 4666 
L 1925 4666 
Q 3281 4666 3915 4102 
Q 4550 3538 4550 2338 
Q 4550 1131 3912 565 
Q 3275 0 1925 0 
L 628 0 
L 628 4666 
z
" transform="scale(0.015625)"/>
      <path id="DejaVuSans-69" d="M 603 3500 
L 1178 3500 
L 1178 0 
L 603 0 
L 603 3500 
z
M 603 4863 
L 1178 4863 
L 1178 4134 
L 603 4134 
L 603 4863 
z
" transform="scale(0.015625)"/>
      <path id="DejaVuSans-73" d="M 2834 3397 
L 2834 2853 
Q 2591 2978 2328 3040 
Q 2066 3103 1784 3103 
Q 1356 3103 1142 2972 
Q 928 2841 928 2578 
Q 928 2378 1081 2264 
Q 1234 2150 1697 2047 
L 1894 2003 
Q 2506 1872 2764 1633 
Q 3022 1394 3022 966 
Q 3022 478 2636 193 
Q 2250 -91 1575 -91 
Q 1294 -91 989 -36 
Q 684 19 347 128 
L 347 722 
Q 666 556 975 473 
Q 1284 391 1588 391 
Q 1994 391 2212 530 
Q 2431 669 2431 922 
Q 2431 1156 2273 1281 
Q 2116 1406 1581 1522 
L 1381 1569 
Q 847 1681 609 1914 
Q 372 2147 372 2553 
Q 372 3047 722 3315 
Q 1072 3584 1716 3584 
Q 2034 3584 2315 3537 
Q 2597 3491 2834 3397 
z
" transform="scale(0.015625)"/>
      <path id="DejaVuSans-63" d="M 3122 3366 
L 3122 2828 
Q 2878 2963 2633 3030 
Q 2388 3097 2138 3097 
Q 1578 3097 1268 2742 
Q 959 2388 959 1747 
Q 959 1106 1268 751 
Q 1578 397 2138 397 
Q 2388 397 2633 464 
Q 2878 531 3122 666 
L 3122 134 
Q 2881 22 2623 -34 
Q 2366 -91 2075 -91 
Q 1284 -91 818 406 
Q 353 903 353 1747 
Q 353 2603 823 3093 
Q 1294 3584 2113 3584 
Q 2378 3584 2631 3529 
Q 2884 3475 3122 3366 
z
" transform="scale(0.015625)"/>
      <path id="DejaVuSans-61" d="M 2194 1759 
Q 1497 1759 1228 1600 
Q 959 1441 959 1056 
Q 959 750 1161 570 
Q 1363 391 1709 391 
Q 2188 391 2477 730 
Q 2766 1069 2766 1631 
L 2766 1759 
L 2194 1759 
z
M 3341 1997 
L 3341 0 
L 2766 0 
L 2766 531 
Q 2569 213 2275 61 
Q 1981 -91 1556 -91 
Q 1019 -91 701 211 
Q 384 513 384 1019 
Q 384 1609 779 1909 
Q 1175 2209 1959 2209 
L 2766 2209 
L 2766 2266 
Q 2766 2663 2505 2880 
Q 2244 3097 1772 3097 
Q 1472 3097 1187 3025 
Q 903 2953 641 2809 
L 641 3341 
Q 956 3463 1253 3523 
Q 1550 3584 1831 3584 
Q 2591 3584 2966 3190 
Q 3341 2797 3341 1997 
z
" transform="scale(0.015625)"/>
      <path id="DejaVuSans-72" d="M 2631 2963 
Q 2534 3019 2420 3045 
Q 2306 3072 2169 3072 
Q 1681 3072 1420 2755 
Q 1159 2438 1159 1844 
L 1159 0 
L 581 0 
L 581 3500 
L 1159 3500 
L 1159 2956 
Q 1341 3275 1631 3429 
Q 1922 3584 2338 3584 
Q 2397 3584 2469 3576 
Q 2541 3569 2628 3553 
L 2631 2963 
z
" transform="scale(0.015625)"/>
      <path id="DejaVuSans-64" d="M 2906 2969 
L 2906 4863 
L 3481 4863 
L 3481 0 
L 2906 0 
L 2906 525 
Q 2725 213 2448 61 
Q 2172 -91 1784 -91 
Q 1150 -91 751 415 
Q 353 922 353 1747 
Q 353 2572 751 3078 
Q 1150 3584 1784 3584 
Q 2172 3584 2448 3432 
Q 2725 3281 2906 2969 
z
M 947 1747 
Q 947 1113 1208 752 
Q 1469 391 1925 391 
Q 2381 391 2643 752 
Q 2906 1113 2906 1747 
Q 2906 2381 2643 2742 
Q 2381 3103 1925 3103 
Q 1469 3103 1208 2742 
Q 947 2381 947 1747 
z
" transform="scale(0.015625)"/>
     </defs>
     <use xlink:href="#DejaVuSans-44"/>
     <use xlink:href="#DejaVuSans-69" transform="translate(77.001953 0)"/>
     <use xlink:href="#DejaVuSans-73" transform="translate(104.785156 0)"/>
     <use xlink:href="#DejaVuSans-63" transform="translate(156.884766 0)"/>
     <use xlink:href="#DejaVuSans-61" transform="translate(211.865234 0)"/>
     <use xlink:href="#DejaVuSans-72" transform="translate(273.144531 0)"/>
     <use xlink:href="#DejaVuSans-64" transform="translate(312.507812 0)"/>
     <use xlink:href="#DejaVuSans-28" transform="translate(375.984375 0)"/>
     <use xlink:href="#DejaVuSans-54" transform="translate(414.998047 0)"/>
     <use xlink:href="#DejaVuSans-79" transform="translate(460.457031 0)"/>
     <use xlink:href="#DejaVuSans-28" transform="translate(519.636719 0)"/>
     <use xlink:href="#DejaVuSans-29" transform="translate(558.650391 0)"/>
     <use xlink:href="#DejaVuSans-29" transform="translate(597.664062 0)"/>
    </g>
   </g>
   <g id="text_4">
    <!-- Scalar -->
    <g transform="translate(338.737811 316.183909) scale(0.7 -0.7)">
     <defs>
      <path id="DejaVuSans-53" d="M 3425 4513 
L 3425 3897 
Q 3066 4069 2747 4153 
Q 2428 4238 2131 4238 
Q 1616 4238 1336 4038 
Q 1056 3838 1056 3469 
Q 1056 3159 1242 3001 
Q 1428 2844 1947 2747 
L 2328 2669 
Q 3034 2534 3370 2195 
Q 3706 1856 3706 1288 
Q 3706 609 3251 259 
Q 2797 -91 1919 -91 
Q 1588 -91 1214 -16 
Q 841 59 441 206 
L 441 856 
Q 825 641 1194 531 
Q 1563 422 1919 422 
Q 2459 422 2753 634 
Q 3047 847 3047 1241 
Q 3047 1584 2836 1778 
Q 2625 1972 2144 2069 
L 1759 2144 
Q 1053 2284 737 2584 
Q 422 2884 422 3419 
Q 422 4038 858 4394 
Q 1294 4750 2059 4750 
Q 2388 4750 2728 4690 
Q 3069 4631 3425 4513 
z
" transform="scale(0.015625)"/>
      <path id="DejaVuSans-6c" d="M 603 4863 
L 1178 4863 
L 1178 0 
L 603 0 
L 603 4863 
z
" transform="scale(0.015625)"/>
     </defs>
     <use xlink:href="#DejaVuSans-53"/>
     <use xlink:href="#DejaVuSans-63" transform="translate(63.476562 0)"/>
     <use xlink:href="#DejaVuSans-61" transform="translate(118.457031 0)"/>
     <use xlink:href="#DejaVuSans-6c" transform="translate(179.736328 0)"/>
     <use xlink:href="#DejaVuSans-61" transform="translate(207.519531 0)"/>
     <use xlink:href="#DejaVuSans-72" transform="translate(268.798828 0)"/>
    </g>
   </g>
   <g id="text_5">
    <!-- Scalar -->
    <g transform="translate(785.948279 448.125368) scale(0.7 -0.7)">
     <use xlink:href="#DejaVuSans-53"/>
     <use xlink:href="#DejaVuSans-63" transform="translate(63.476562 0)"/>
     <use xlink:href="#DejaVuSans-61" transform="translate(118.457031 0)"/>
     <use xlink:href="#DejaVuSans-6c" transform="translate(179.736328 0)"/>
     <use xlink:href="#DejaVuSans-61" transform="translate(207.519531 0)"/>
     <use xlink:href="#DejaVuSans-72" transform="translate(268.798828 0)"/>
    </g>
   </g>
   <g id="text_6">
    <!-- 1 -->
    <g transform="translate(1170.292497 514.096098) scale(0.7 -0.7)">
     <use xlink:href="#DejaVuSans-31"/>
    </g>
   </g>
   <g id="text_7">
    <!-- Merge(Ty(), 2) -->
    <g transform="translate(425.788358 646.037557) scale(0.7 -0.7)">
     <defs>
      <path id="DejaVuSans-4d" d="M 628 4666 
L 1569 4666 
L 2759 1491 
L 3956 4666 
L 4897 4666 
L 4897 0 
L 4281 0 
L 4281 4097 
L 3078 897 
L 2444 897 
L 1241 4097 
L 1241 0 
L 628 0 
L 628 4666 
z
" transform="scale(0.015625)"/>
      <path id="DejaVuSans-65" d="M 3597 1894 
L 3597 1613 
L 953 1613 
Q 991 1019 1311 708 
Q 1631 397 2203 397 
Q 2534 397 2845 478 
Q 3156 559 3463 722 
L 3463 178 
Q 3153 47 2828 -22 
Q 2503 -91 2169 -91 
Q 1331 -91 842 396 
Q 353 884 353 1716 
Q 353 2575 817 3079 
Q 1281 3584 2069 3584 
Q 2775 3584 3186 3129 
Q 3597 2675 3597 1894 
z
M 3022 2063 
Q 3016 2534 2758 2815 
Q 2500 3097 2075 3097 
Q 1594 3097 1305 2825 
Q 1016 2553 972 2059 
L 3022 2063 
z
" transform="scale(0.015625)"/>
      <path id="DejaVuSans-67" d="M 2906 1791 
Q 2906 2416 2648 2759 
Q 2391 3103 1925 3103 
Q 1463 3103 1205 2759 
Q 947 2416 947 1791 
Q 947 1169 1205 825 
Q 1463 481 1925 481 
Q 2391 481 2648 825 
Q 2906 1169 2906 1791 
z
M 3481 434 
Q 3481 -459 3084 -895 
Q 2688 -1331 1869 -1331 
Q 1566 -1331 1297 -1286 
Q 1028 -1241 775 -1147 
L 775 -588 
Q 1028 -725 1275 -790 
Q 1522 -856 1778 -856 
Q 2344 -856 2625 -561 
Q 2906 -266 2906 331 
L 2906 616 
Q 2728 306 2450 153 
Q 2172 0 1784 0 
Q 1141 0 747 490 
Q 353 981 353 1791 
Q 353 2603 747 3093 
Q 1141 3584 1784 3584 
Q 2172 3584 2450 3431 
Q 2728 3278 2906 2969 
L 2906 3500 
L 3481 3500 
L 3481 434 
z
" transform="scale(0.015625)"/>
     </defs>
     <use xlink:href="#DejaVuSans-4d"/>
     <use xlink:href="#DejaVuSans-65" transform="translate(86.279297 0)"/>
     <use xlink:href="#DejaVuSans-72" transform="translate(147.802734 0)"/>
     <use xlink:href="#DejaVuSans-67" transform="translate(187.166016 0)"/>
     <use xlink:href="#DejaVuSans-65" transform="translate(250.642578 0)"/>
     <use xlink:href="#DejaVuSans-28" transform="translate(312.166016 0)"/>
     <use xlink:href="#DejaVuSans-54" transform="translate(351.179688 0)"/>
     <use xlink:href="#DejaVuSans-79" transform="translate(396.638672 0)"/>
     <use xlink:href="#DejaVuSans-28" transform="translate(455.818359 0)"/>
     <use xlink:href="#DejaVuSans-29" transform="translate(494.832031 0)"/>
     <use xlink:href="#DejaVuSans-2c" transform="translate(533.845703 0)"/>
     <use xlink:href="#DejaVuSans-20" transform="translate(565.632812 0)"/>
     <use xlink:href="#DejaVuSans-32" transform="translate(597.419922 0)"/>
     <use xlink:href="#DejaVuSans-29" transform="translate(661.042969 0)"/>
    </g>
   </g>
   <g id="text_8">
    <!-- mov -->
    <g transform="translate(892.732576 712.008287) scale(0.7 -0.7)">
     <defs>
      <path id="DejaVuSans-6d" d="M 3328 2828 
Q 3544 3216 3844 3400 
Q 4144 3584 4550 3584 
Q 5097 3584 5394 3201 
Q 5691 2819 5691 2113 
L 5691 0 
L 5113 0 
L 5113 2094 
Q 5113 2597 4934 2840 
Q 4756 3084 4391 3084 
Q 3944 3084 3684 2787 
Q 3425 2491 3425 1978 
L 3425 0 
L 2847 0 
L 2847 2094 
Q 2847 2600 2669 2842 
Q 2491 3084 2119 3084 
Q 1678 3084 1418 2786 
Q 1159 2488 1159 1978 
L 1159 0 
L 581 0 
L 581 3500 
L 1159 3500 
L 1159 2956 
Q 1356 3278 1631 3431 
Q 1906 3584 2284 3584 
Q 2666 3584 2933 3390 
Q 3200 3197 3328 2828 
z
" transform="scale(0.015625)"/>
      <path id="DejaVuSans-76" d="M 191 3500 
L 800 3500 
L 1894 563 
L 2988 3500 
L 3597 3500 
L 2284 0 
L 1503 0 
L 191 3500 
z
" transform="scale(0.015625)"/>
     </defs>
     <use xlink:href="#DejaVuSans-6d"/>
     <use xlink:href="#DejaVuSans-6f" transform="translate(97.412109 0)"/>
     <use xlink:href="#DejaVuSans-76" transform="translate(158.59375 0)"/>
    </g>
   </g>
   <g id="text_9">
    <!-- Discard(Ty()) -->
    <g transform="translate(447.975077 843.949747) scale(0.7 -0.7)">
     <use xlink:href="#DejaVuSans-44"/>
     <use xlink:href="#DejaVuSans-69" transform="translate(77.001953 0)"/>
     <use xlink:href="#DejaVuSans-73" transform="translate(104.785156 0)"/>
     <use xlink:href="#DejaVuSans-63" transform="translate(156.884766 0)"/>
     <use xlink:href="#DejaVuSans-61" transform="translate(211.865234 0)"/>
     <use xlink:href="#DejaVuSans-72" transform="translate(273.144531 0)"/>
     <use xlink:href="#DejaVuSans-64" transform="translate(312.507812 0)"/>
     <use xlink:href="#DejaVuSans-28" transform="translate(375.984375 0)"/>
     <use xlink:href="#DejaVuSans-54" transform="translate(414.998047 0)"/>
     <use xlink:href="#DejaVuSans-79" transform="translate(460.457031 0)"/>
     <use xlink:href="#DejaVuSans-28" transform="translate(519.636719 0)"/>
     <use xlink:href="#DejaVuSans-29" transform="translate(558.650391 0)"/>
     <use xlink:href="#DejaVuSans-29" transform="translate(597.664062 0)"/>
    </g>
   </g>
   <g id="text_10">
    <!-- Scalar -->
    <g transform="translate(189.667656 909.920476) scale(0.7 -0.7)">
     <use xlink:href="#DejaVuSans-53"/>
     <use xlink:href="#DejaVuSans-63" transform="translate(63.476562 0)"/>
     <use xlink:href="#DejaVuSans-61" transform="translate(118.457031 0)"/>
     <use xlink:href="#DejaVuSans-6c" transform="translate(179.736328 0)"/>
     <use xlink:href="#DejaVuSans-61" transform="translate(207.519531 0)"/>
     <use xlink:href="#DejaVuSans-72" transform="translate(268.798828 0)"/>
    </g>
   </g>
   <g id="text_11">
    <!-- Merge(Ty(), 1) -->
    <g transform="translate(53.112968 975.891206) scale(0.7 -0.7)">
     <use xlink:href="#DejaVuSans-4d"/>
     <use xlink:href="#DejaVuSans-65" transform="translate(86.279297 0)"/>
     <use xlink:href="#DejaVuSans-72" transform="translate(147.802734 0)"/>
     <use xlink:href="#DejaVuSans-67" transform="translate(187.166016 0)"/>
     <use xlink:href="#DejaVuSans-65" transform="translate(250.642578 0)"/>
     <use xlink:href="#DejaVuSans-28" transform="translate(312.166016 0)"/>
     <use xlink:href="#DejaVuSans-54" transform="translate(351.179688 0)"/>
     <use xlink:href="#DejaVuSans-79" transform="translate(396.638672 0)"/>
     <use xlink:href="#DejaVuSans-28" transform="translate(455.818359 0)"/>
     <use xlink:href="#DejaVuSans-29" transform="translate(494.832031 0)"/>
     <use xlink:href="#DejaVuSans-2c" transform="translate(533.845703 0)"/>
     <use xlink:href="#DejaVuSans-20" transform="translate(565.632812 0)"/>
     <use xlink:href="#DejaVuSans-31" transform="translate(597.419922 0)"/>
     <use xlink:href="#DejaVuSans-29" transform="translate(661.042969 0)"/>
    </g>
   </g>
   <g id="text_12">
    <!-- Copy(Ty(), 1) -->
    <g transform="translate(73.587968 1041.861936) scale(0.7 -0.7)">
     <use xlink:href="#DejaVuSans-43"/>
     <use xlink:href="#DejaVuSans-6f" transform="translate(69.824219 0)"/>
     <use xlink:href="#DejaVuSans-70" transform="translate(131.005859 0)"/>
     <use xlink:href="#DejaVuSans-79" transform="translate(194.482422 0)"/>
     <use xlink:href="#DejaVuSans-28" transform="translate(253.662109 0)"/>
     <use xlink:href="#DejaVuSans-54" transform="translate(292.675781 0)"/>
     <use xlink:href="#DejaVuSans-79" transform="translate(338.134766 0)"/>
     <use xlink:href="#DejaVuSans-28" transform="translate(397.314453 0)"/>
     <use xlink:href="#DejaVuSans-29" transform="translate(436.328125 0)"/>
     <use xlink:href="#DejaVuSans-2c" transform="translate(475.341797 0)"/>
     <use xlink:href="#DejaVuSans-20" transform="translate(507.128906 0)"/>
     <use xlink:href="#DejaVuSans-31" transform="translate(538.916016 0)"/>
     <use xlink:href="#DejaVuSans-29" transform="translate(602.539062 0)"/>
    </g>
   </g>
   <g id="text_13">
    <!-- Scalar -->
    <g transform="translate(189.667656 1107.832666) scale(0.7 -0.7)">
     <use xlink:href="#DejaVuSans-53"/>
     <use xlink:href="#DejaVuSans-63" transform="translate(63.476562 0)"/>
     <use xlink:href="#DejaVuSans-61" transform="translate(118.457031 0)"/>
     <use xlink:href="#DejaVuSans-6c" transform="translate(179.736328 0)"/>
     <use xlink:href="#DejaVuSans-61" transform="translate(207.519531 0)"/>
     <use xlink:href="#DejaVuSans-72" transform="translate(268.798828 0)"/>
    </g>
   </g>
   <g id="text_14">
    <!-- Discard(Ty()) -->
    <g transform="translate(75.299687 1173.803395) scale(0.7 -0.7)">
     <use xlink:href="#DejaVuSans-44"/>
     <use xlink:href="#DejaVuSans-69" transform="translate(77.001953 0)"/>
     <use xlink:href="#DejaVuSans-73" transform="translate(104.785156 0)"/>
     <use xlink:href="#DejaVuSans-63" transform="translate(156.884766 0)"/>
     <use xlink:href="#DejaVuSans-61" transform="translate(211.865234 0)"/>
     <use xlink:href="#DejaVuSans-72" transform="translate(273.144531 0)"/>
     <use xlink:href="#DejaVuSans-64" transform="translate(312.507812 0)"/>
     <use xlink:href="#DejaVuSans-28" transform="translate(375.984375 0)"/>
     <use xlink:href="#DejaVuSans-54" transform="translate(414.998047 0)"/>
     <use xlink:href="#DejaVuSans-79" transform="translate(460.457031 0)"/>
     <use xlink:href="#DejaVuSans-28" transform="translate(519.636719 0)"/>
     <use xlink:href="#DejaVuSans-29" transform="translate(558.650391 0)"/>
     <use xlink:href="#DejaVuSans-29" transform="translate(597.664062 0)"/>
    </g>
   </g>
   <g id="text_15">
    <!-- Copy(Ty(), 2) -->
    <g transform="translate(73.587968 1239.774125) scale(0.7 -0.7)">
     <use xlink:href="#DejaVuSans-43"/>
     <use xlink:href="#DejaVuSans-6f" transform="translate(69.824219 0)"/>
     <use xlink:href="#DejaVuSans-70" transform="translate(131.005859 0)"/>
     <use xlink:href="#DejaVuSans-79" transform="translate(194.482422 0)"/>
     <use xlink:href="#DejaVuSans-28" transform="translate(253.662109 0)"/>
     <use xlink:href="#DejaVuSans-54" transform="translate(292.675781 0)"/>
     <use xlink:href="#DejaVuSans-79" transform="translate(338.134766 0)"/>
     <use xlink:href="#DejaVuSans-28" transform="translate(397.314453 0)"/>
     <use xlink:href="#DejaVuSans-29" transform="translate(436.328125 0)"/>
     <use xlink:href="#DejaVuSans-2c" transform="translate(475.341797 0)"/>
     <use xlink:href="#DejaVuSans-20" transform="translate(507.128906 0)"/>
     <use xlink:href="#DejaVuSans-32" transform="translate(538.916016 0)"/>
     <use xlink:href="#DejaVuSans-29" transform="translate(602.539062 0)"/>
    </g>
   </g>
   <g id="text_16">
    <!-- Scalar -->
    <g transform="translate(189.667656 1305.744855) scale(0.7 -0.7)">
     <use xlink:href="#DejaVuSans-53"/>
     <use xlink:href="#DejaVuSans-63" transform="translate(63.476562 0)"/>
     <use xlink:href="#DejaVuSans-61" transform="translate(118.457031 0)"/>
     <use xlink:href="#DejaVuSans-6c" transform="translate(179.736328 0)"/>
     <use xlink:href="#DejaVuSans-61" transform="translate(207.519531 0)"/>
     <use xlink:href="#DejaVuSans-72" transform="translate(268.798828 0)"/>
    </g>
   </g>
   <g id="text_17">
    <!-- Scalar -->
    <g transform="translate(487.807967 1371.715584) scale(0.7 -0.7)">
     <use xlink:href="#DejaVuSans-53"/>
     <use xlink:href="#DejaVuSans-63" transform="translate(63.476562 0)"/>
     <use xlink:href="#DejaVuSans-61" transform="translate(118.457031 0)"/>
     <use xlink:href="#DejaVuSans-6c" transform="translate(179.736328 0)"/>
     <use xlink:href="#DejaVuSans-61" transform="translate(207.519531 0)"/>
     <use xlink:href="#DejaVuSans-72" transform="translate(268.798828 0)"/>
    </g>
   </g>
   <g id="text_18">
    <!-- Merge(Ty(), 2) -->
    <g transform="translate(202.183124 1437.686314) scale(0.7 -0.7)">
     <use xlink:href="#DejaVuSans-4d"/>
     <use xlink:href="#DejaVuSans-65" transform="translate(86.279297 0)"/>
     <use xlink:href="#DejaVuSans-72" transform="translate(147.802734 0)"/>
     <use xlink:href="#DejaVuSans-67" transform="translate(187.166016 0)"/>
     <use xlink:href="#DejaVuSans-65" transform="translate(250.642578 0)"/>
     <use xlink:href="#DejaVuSans-28" transform="translate(312.166016 0)"/>
     <use xlink:href="#DejaVuSans-54" transform="translate(351.179688 0)"/>
     <use xlink:href="#DejaVuSans-79" transform="translate(396.638672 0)"/>
     <use xlink:href="#DejaVuSans-28" transform="translate(455.818359 0)"/>
     <use xlink:href="#DejaVuSans-29" transform="translate(494.832031 0)"/>
     <use xlink:href="#DejaVuSans-2c" transform="translate(533.845703 0)"/>
     <use xlink:href="#DejaVuSans-20" transform="translate(565.632812 0)"/>
     <use xlink:href="#DejaVuSans-32" transform="translate(597.419922 0)"/>
     <use xlink:href="#DejaVuSans-29" transform="translate(661.042969 0)"/>
    </g>
   </g>
   <g id="text_19">
    <!-- Merge(Ty(), 1) -->
    <g transform="translate(202.183124 1503.657044) scale(0.7 -0.7)">
     <use xlink:href="#DejaVuSans-4d"/>
     <use xlink:href="#DejaVuSans-65" transform="translate(86.279297 0)"/>
     <use xlink:href="#DejaVuSans-72" transform="translate(147.802734 0)"/>
     <use xlink:href="#DejaVuSans-67" transform="translate(187.166016 0)"/>
     <use xlink:href="#DejaVuSans-65" transform="translate(250.642578 0)"/>
     <use xlink:href="#DejaVuSans-28" transform="translate(312.166016 0)"/>
     <use xlink:href="#DejaVuSans-54" transform="translate(351.179688 0)"/>
     <use xlink:href="#DejaVuSans-79" transform="translate(396.638672 0)"/>
     <use xlink:href="#DejaVuSans-28" transform="translate(455.818359 0)"/>
     <use xlink:href="#DejaVuSans-29" transform="translate(494.832031 0)"/>
     <use xlink:href="#DejaVuSans-2c" transform="translate(533.845703 0)"/>
     <use xlink:href="#DejaVuSans-20" transform="translate(565.632812 0)"/>
     <use xlink:href="#DejaVuSans-31" transform="translate(597.419922 0)"/>
     <use xlink:href="#DejaVuSans-29" transform="translate(661.042969 0)"/>
    </g>
   </g>
   <g id="text_20">
    <!-- Copy(Ty(), 1) -->
    <g transform="translate(222.658124 1569.627774) scale(0.7 -0.7)">
     <use xlink:href="#DejaVuSans-43"/>
     <use xlink:href="#DejaVuSans-6f" transform="translate(69.824219 0)"/>
     <use xlink:href="#DejaVuSans-70" transform="translate(131.005859 0)"/>
     <use xlink:href="#DejaVuSans-79" transform="translate(194.482422 0)"/>
     <use xlink:href="#DejaVuSans-28" transform="translate(253.662109 0)"/>
     <use xlink:href="#DejaVuSans-54" transform="translate(292.675781 0)"/>
     <use xlink:href="#DejaVuSans-79" transform="translate(338.134766 0)"/>
     <use xlink:href="#DejaVuSans-28" transform="translate(397.314453 0)"/>
     <use xlink:href="#DejaVuSans-29" transform="translate(436.328125 0)"/>
     <use xlink:href="#DejaVuSans-2c" transform="translate(475.341797 0)"/>
     <use xlink:href="#DejaVuSans-20" transform="translate(507.128906 0)"/>
     <use xlink:href="#DejaVuSans-31" transform="translate(538.916016 0)"/>
     <use xlink:href="#DejaVuSans-29" transform="translate(602.539062 0)"/>
    </g>
   </g>
   <g id="text_21">
    <!-- Discard(Ty()) -->
    <g transform="translate(224.369843 1701.569233) scale(0.7 -0.7)">
     <use xlink:href="#DejaVuSans-44"/>
     <use xlink:href="#DejaVuSans-69" transform="translate(77.001953 0)"/>
     <use xlink:href="#DejaVuSans-73" transform="translate(104.785156 0)"/>
     <use xlink:href="#DejaVuSans-63" transform="translate(156.884766 0)"/>
     <use xlink:href="#DejaVuSans-61" transform="translate(211.865234 0)"/>
     <use xlink:href="#DejaVuSans-72" transform="translate(273.144531 0)"/>
     <use xlink:href="#DejaVuSans-64" transform="translate(312.507812 0)"/>
     <use xlink:href="#DejaVuSans-28" transform="translate(375.984375 0)"/>
     <use xlink:href="#DejaVuSans-54" transform="translate(414.998047 0)"/>
     <use xlink:href="#DejaVuSans-79" transform="translate(460.457031 0)"/>
     <use xlink:href="#DejaVuSans-28" transform="translate(519.636719 0)"/>
     <use xlink:href="#DejaVuSans-29" transform="translate(558.650391 0)"/>
     <use xlink:href="#DejaVuSans-29" transform="translate(597.664062 0)"/>
    </g>
   </g>
   <g id="text_22">
    <!-- Copy(Ty(), 2) -->
    <g transform="translate(222.658124 1767.539963) scale(0.7 -0.7)">
     <use xlink:href="#DejaVuSans-43"/>
     <use xlink:href="#DejaVuSans-6f" transform="translate(69.824219 0)"/>
     <use xlink:href="#DejaVuSans-70" transform="translate(131.005859 0)"/>
     <use xlink:href="#DejaVuSans-79" transform="translate(194.482422 0)"/>
     <use xlink:href="#DejaVuSans-28" transform="translate(253.662109 0)"/>
     <use xlink:href="#DejaVuSans-54" transform="translate(292.675781 0)"/>
     <use xlink:href="#DejaVuSans-79" transform="translate(338.134766 0)"/>
     <use xlink:href="#DejaVuSans-28" transform="translate(397.314453 0)"/>
     <use xlink:href="#DejaVuSans-29" transform="translate(436.328125 0)"/>
     <use xlink:href="#DejaVuSans-2c" transform="translate(475.341797 0)"/>
     <use xlink:href="#DejaVuSans-20" transform="translate(507.128906 0)"/>
     <use xlink:href="#DejaVuSans-32" transform="translate(538.916016 0)"/>
     <use xlink:href="#DejaVuSans-29" transform="translate(602.539062 0)"/>
    </g>
   </g>
   <g id="text_23">
    <!-- Scalar -->
    <g transform="translate(338.737811 1833.510693) scale(0.7 -0.7)">
     <use xlink:href="#DejaVuSans-53"/>
     <use xlink:href="#DejaVuSans-63" transform="translate(63.476562 0)"/>
     <use xlink:href="#DejaVuSans-61" transform="translate(118.457031 0)"/>
     <use xlink:href="#DejaVuSans-6c" transform="translate(179.736328 0)"/>
     <use xlink:href="#DejaVuSans-61" transform="translate(207.519531 0)"/>
     <use xlink:href="#DejaVuSans-72" transform="translate(268.798828 0)"/>
    </g>
   </g>
   <g id="text_24">
    <!-- Scalar -->
    <g transform="translate(636.878123 1899.481422) scale(0.7 -0.7)">
     <use xlink:href="#DejaVuSans-53"/>
     <use xlink:href="#DejaVuSans-63" transform="translate(63.476562 0)"/>
     <use xlink:href="#DejaVuSans-61" transform="translate(118.457031 0)"/>
     <use xlink:href="#DejaVuSans-6c" transform="translate(179.736328 0)"/>
     <use xlink:href="#DejaVuSans-61" transform="translate(207.519531 0)"/>
     <use xlink:href="#DejaVuSans-72" transform="translate(268.798828 0)"/>
    </g>
   </g>
   <g id="text_25">
    <!-- Merge(Ty(), 2) -->
    <g transform="translate(351.25328 1965.452152) scale(0.7 -0.7)">
     <use xlink:href="#DejaVuSans-4d"/>
     <use xlink:href="#DejaVuSans-65" transform="translate(86.279297 0)"/>
     <use xlink:href="#DejaVuSans-72" transform="translate(147.802734 0)"/>
     <use xlink:href="#DejaVuSans-67" transform="translate(187.166016 0)"/>
     <use xlink:href="#DejaVuSans-65" transform="translate(250.642578 0)"/>
     <use xlink:href="#DejaVuSans-28" transform="translate(312.166016 0)"/>
     <use xlink:href="#DejaVuSans-54" transform="translate(351.179688 0)"/>
     <use xlink:href="#DejaVuSans-79" transform="translate(396.638672 0)"/>
     <use xlink:href="#DejaVuSans-28" transform="translate(455.818359 0)"/>
     <use xlink:href="#DejaVuSans-29" transform="translate(494.832031 0)"/>
     <use xlink:href="#DejaVuSans-2c" transform="translate(533.845703 0)"/>
     <use xlink:href="#DejaVuSans-20" transform="translate(565.632812 0)"/>
     <use xlink:href="#DejaVuSans-32" transform="translate(597.419922 0)"/>
     <use xlink:href="#DejaVuSans-29" transform="translate(661.042969 0)"/>
    </g>
   </g>
   <g id="text_26">
    <!-- mul -->
    <g transform="translate(828.42406 2031.422882) scale(0.7 -0.7)">
     <defs>
      <path id="DejaVuSans-75" d="M 544 1381 
L 544 3500 
L 1119 3500 
L 1119 1403 
Q 1119 906 1312 657 
Q 1506 409 1894 409 
Q 2359 409 2629 706 
Q 2900 1003 2900 1516 
L 2900 3500 
L 3475 3500 
L 3475 0 
L 2900 0 
L 2900 538 
Q 2691 219 2414 64 
Q 2138 -91 1772 -91 
Q 1169 -91 856 284 
Q 544 659 544 1381 
z
M 1991 3584 
L 1991 3584 
z
" transform="scale(0.015625)"/>
     </defs>
     <use xlink:href="#DejaVuSans-6d"/>
     <use xlink:href="#DejaVuSans-75" transform="translate(97.412109 0)"/>
     <use xlink:href="#DejaVuSans-6c" transform="translate(160.791016 0)"/>
    </g>
   </g>
   <g id="text_27">
    <!-- Discard(Ty()) -->
    <g transform="translate(373.439999 2163.364341) scale(0.7 -0.7)">
     <use xlink:href="#DejaVuSans-44"/>
     <use xlink:href="#DejaVuSans-69" transform="translate(77.001953 0)"/>
     <use xlink:href="#DejaVuSans-73" transform="translate(104.785156 0)"/>
     <use xlink:href="#DejaVuSans-63" transform="translate(156.884766 0)"/>
     <use xlink:href="#DejaVuSans-61" transform="translate(211.865234 0)"/>
     <use xlink:href="#DejaVuSans-72" transform="translate(273.144531 0)"/>
     <use xlink:href="#DejaVuSans-64" transform="translate(312.507812 0)"/>
     <use xlink:href="#DejaVuSans-28" transform="translate(375.984375 0)"/>
     <use xlink:href="#DejaVuSans-54" transform="translate(414.998047 0)"/>
     <use xlink:href="#DejaVuSans-79" transform="translate(460.457031 0)"/>
     <use xlink:href="#DejaVuSans-28" transform="translate(519.636719 0)"/>
     <use xlink:href="#DejaVuSans-29" transform="translate(558.650391 0)"/>
     <use xlink:href="#DejaVuSans-29" transform="translate(597.664062 0)"/>
    </g>
   </g>
   <g id="text_28">
    <!-- Scalar -->
    <g transform="translate(189.667656 2229.335071) scale(0.7 -0.7)">
     <use xlink:href="#DejaVuSans-53"/>
     <use xlink:href="#DejaVuSans-63" transform="translate(63.476562 0)"/>
     <use xlink:href="#DejaVuSans-61" transform="translate(118.457031 0)"/>
     <use xlink:href="#DejaVuSans-6c" transform="translate(179.736328 0)"/>
     <use xlink:href="#DejaVuSans-61" transform="translate(207.519531 0)"/>
     <use xlink:href="#DejaVuSans-72" transform="translate(268.798828 0)"/>
    </g>
   </g>
   <g id="text_29">
    <!-- Merge(Ty(), 1) -->
    <g transform="translate(53.112968 2295.305801) scale(0.7 -0.7)">
     <use xlink:href="#DejaVuSans-4d"/>
     <use xlink:href="#DejaVuSans-65" transform="translate(86.279297 0)"/>
     <use xlink:href="#DejaVuSans-72" transform="translate(147.802734 0)"/>
     <use xlink:href="#DejaVuSans-67" transform="translate(187.166016 0)"/>
     <use xlink:href="#DejaVuSans-65" transform="translate(250.642578 0)"/>
     <use xlink:href="#DejaVuSans-28" transform="translate(312.166016 0)"/>
     <use xlink:href="#DejaVuSans-54" transform="translate(351.179688 0)"/>
     <use xlink:href="#DejaVuSans-79" transform="translate(396.638672 0)"/>
     <use xlink:href="#DejaVuSans-28" transform="translate(455.818359 0)"/>
     <use xlink:href="#DejaVuSans-29" transform="translate(494.832031 0)"/>
     <use xlink:href="#DejaVuSans-2c" transform="translate(533.845703 0)"/>
     <use xlink:href="#DejaVuSans-20" transform="translate(565.632812 0)"/>
     <use xlink:href="#DejaVuSans-31" transform="translate(597.419922 0)"/>
     <use xlink:href="#DejaVuSans-29" transform="translate(661.042969 0)"/>
    </g>
   </g>
   <g id="text_30">
    <!-- Copy(Ty(), 1) -->
    <g transform="translate(73.587968 2361.27653) scale(0.7 -0.7)">
     <use xlink:href="#DejaVuSans-43"/>
     <use xlink:href="#DejaVuSans-6f" transform="translate(69.824219 0)"/>
     <use xlink:href="#DejaVuSans-70" transform="translate(131.005859 0)"/>
     <use xlink:href="#DejaVuSans-79" transform="translate(194.482422 0)"/>
     <use xlink:href="#DejaVuSans-28" transform="translate(253.662109 0)"/>
     <use xlink:href="#DejaVuSans-54" transform="translate(292.675781 0)"/>
     <use xlink:href="#DejaVuSans-79" transform="translate(338.134766 0)"/>
     <use xlink:href="#DejaVuSans-28" transform="translate(397.314453 0)"/>
     <use xlink:href="#DejaVuSans-29" transform="translate(436.328125 0)"/>
     <use xlink:href="#DejaVuSans-2c" transform="translate(475.341797 0)"/>
     <use xlink:href="#DejaVuSans-20" transform="translate(507.128906 0)"/>
     <use xlink:href="#DejaVuSans-31" transform="translate(538.916016 0)"/>
     <use xlink:href="#DejaVuSans-29" transform="translate(602.539062 0)"/>
    </g>
   </g>
   <g id="text_31">
    <!-- Discard(Ty()) -->
    <g transform="translate(75.299687 2493.21799) scale(0.7 -0.7)">
     <use xlink:href="#DejaVuSans-44"/>
     <use xlink:href="#DejaVuSans-69" transform="translate(77.001953 0)"/>
     <use xlink:href="#DejaVuSans-73" transform="translate(104.785156 0)"/>
     <use xlink:href="#DejaVuSans-63" transform="translate(156.884766 0)"/>
     <use xlink:href="#DejaVuSans-61" transform="translate(211.865234 0)"/>
     <use xlink:href="#DejaVuSans-72" transform="translate(273.144531 0)"/>
     <use xlink:href="#DejaVuSans-64" transform="translate(312.507812 0)"/>
     <use xlink:href="#DejaVuSans-28" transform="translate(375.984375 0)"/>
     <use xlink:href="#DejaVuSans-54" transform="translate(414.998047 0)"/>
     <use xlink:href="#DejaVuSans-79" transform="translate(460.457031 0)"/>
     <use xlink:href="#DejaVuSans-28" transform="translate(519.636719 0)"/>
     <use xlink:href="#DejaVuSans-29" transform="translate(558.650391 0)"/>
     <use xlink:href="#DejaVuSans-29" transform="translate(597.664062 0)"/>
    </g>
   </g>
   <g id="text_32">
    <!-- Copy(Ty(), 2) -->
    <g transform="translate(73.587968 2559.18872) scale(0.7 -0.7)">
     <use xlink:href="#DejaVuSans-43"/>
     <use xlink:href="#DejaVuSans-6f" transform="translate(69.824219 0)"/>
     <use xlink:href="#DejaVuSans-70" transform="translate(131.005859 0)"/>
     <use xlink:href="#DejaVuSans-79" transform="translate(194.482422 0)"/>
     <use xlink:href="#DejaVuSans-28" transform="translate(253.662109 0)"/>
     <use xlink:href="#DejaVuSans-54" transform="translate(292.675781 0)"/>
     <use xlink:href="#DejaVuSans-79" transform="translate(338.134766 0)"/>
     <use xlink:href="#DejaVuSans-28" transform="translate(397.314453 0)"/>
     <use xlink:href="#DejaVuSans-29" transform="translate(436.328125 0)"/>
     <use xlink:href="#DejaVuSans-2c" transform="translate(475.341797 0)"/>
     <use xlink:href="#DejaVuSans-20" transform="translate(507.128906 0)"/>
     <use xlink:href="#DejaVuSans-32" transform="translate(538.916016 0)"/>
     <use xlink:href="#DejaVuSans-29" transform="translate(602.539062 0)"/>
    </g>
   </g>
   <g id="text_33">
    <!-- Scalar -->
    <g transform="translate(189.667656 2625.159449) scale(0.7 -0.7)">
     <use xlink:href="#DejaVuSans-53"/>
     <use xlink:href="#DejaVuSans-63" transform="translate(63.476562 0)"/>
     <use xlink:href="#DejaVuSans-61" transform="translate(118.457031 0)"/>
     <use xlink:href="#DejaVuSans-6c" transform="translate(179.736328 0)"/>
     <use xlink:href="#DejaVuSans-61" transform="translate(207.519531 0)"/>
     <use xlink:href="#DejaVuSans-72" transform="translate(268.798828 0)"/>
    </g>
   </g>
   <g id="text_34">
    <!-- Scalar -->
    <g transform="translate(487.807967 2691.130179) scale(0.7 -0.7)">
     <use xlink:href="#DejaVuSans-53"/>
     <use xlink:href="#DejaVuSans-63" transform="translate(63.476562 0)"/>
     <use xlink:href="#DejaVuSans-61" transform="translate(118.457031 0)"/>
     <use xlink:href="#DejaVuSans-6c" transform="translate(179.736328 0)"/>
     <use xlink:href="#DejaVuSans-61" transform="translate(207.519531 0)"/>
     <use xlink:href="#DejaVuSans-72" transform="translate(268.798828 0)"/>
    </g>
   </g>
   <g id="text_35">
    <!-- Merge(Ty(), 2) -->
    <g transform="translate(202.183124 2757.100909) scale(0.7 -0.7)">
     <use xlink:href="#DejaVuSans-4d"/>
     <use xlink:href="#DejaVuSans-65" transform="translate(86.279297 0)"/>
     <use xlink:href="#DejaVuSans-72" transform="translate(147.802734 0)"/>
     <use xlink:href="#DejaVuSans-67" transform="translate(187.166016 0)"/>
     <use xlink:href="#DejaVuSans-65" transform="translate(250.642578 0)"/>
     <use xlink:href="#DejaVuSans-28" transform="translate(312.166016 0)"/>
     <use xlink:href="#DejaVuSans-54" transform="translate(351.179688 0)"/>
     <use xlink:href="#DejaVuSans-79" transform="translate(396.638672 0)"/>
     <use xlink:href="#DejaVuSans-28" transform="translate(455.818359 0)"/>
     <use xlink:href="#DejaVuSans-29" transform="translate(494.832031 0)"/>
     <use xlink:href="#DejaVuSans-2c" transform="translate(533.845703 0)"/>
     <use xlink:href="#DejaVuSans-20" transform="translate(565.632812 0)"/>
     <use xlink:href="#DejaVuSans-32" transform="translate(597.419922 0)"/>
     <use xlink:href="#DejaVuSans-29" transform="translate(661.042969 0)"/>
    </g>
   </g>
   <g id="text_36">
    <!-- loop -->
    <g transform="translate(670.576561 2823.071638) scale(0.7 -0.7)">
     <use xlink:href="#DejaVuSans-6c"/>
     <use xlink:href="#DejaVuSans-6f" transform="translate(27.783203 0)"/>
     <use xlink:href="#DejaVuSans-6f" transform="translate(88.964844 0)"/>
     <use xlink:href="#DejaVuSans-70" transform="translate(150.146484 0)"/>
    </g>
   </g>
   <g id="text_37">
    <!-- Scalar -->
    <g transform="translate(338.737811 2955.013098) scale(0.7 -0.7)">
     <use xlink:href="#DejaVuSans-53"/>
     <use xlink:href="#DejaVuSans-63" transform="translate(63.476562 0)"/>
     <use xlink:href="#DejaVuSans-61" transform="translate(118.457031 0)"/>
     <use xlink:href="#DejaVuSans-6c" transform="translate(179.736328 0)"/>
     <use xlink:href="#DejaVuSans-61" transform="translate(207.519531 0)"/>
     <use xlink:href="#DejaVuSans-72" transform="translate(268.798828 0)"/>
    </g>
   </g>
   <g id="text_38">
    <!-- Merge(Ty(), 1) -->
    <g transform="translate(202.183124 3020.983828) scale(0.7 -0.7)">
     <use xlink:href="#DejaVuSans-4d"/>
     <use xlink:href="#DejaVuSans-65" transform="translate(86.279297 0)"/>
     <use xlink:href="#DejaVuSans-72" transform="translate(147.802734 0)"/>
     <use xlink:href="#DejaVuSans-67" transform="translate(187.166016 0)"/>
     <use xlink:href="#DejaVuSans-65" transform="translate(250.642578 0)"/>
     <use xlink:href="#DejaVuSans-28" transform="translate(312.166016 0)"/>
     <use xlink:href="#DejaVuSans-54" transform="translate(351.179688 0)"/>
     <use xlink:href="#DejaVuSans-79" transform="translate(396.638672 0)"/>
     <use xlink:href="#DejaVuSans-28" transform="translate(455.818359 0)"/>
     <use xlink:href="#DejaVuSans-29" transform="translate(494.832031 0)"/>
     <use xlink:href="#DejaVuSans-2c" transform="translate(533.845703 0)"/>
     <use xlink:href="#DejaVuSans-20" transform="translate(565.632812 0)"/>
     <use xlink:href="#DejaVuSans-31" transform="translate(597.419922 0)"/>
     <use xlink:href="#DejaVuSans-29" transform="translate(661.042969 0)"/>
    </g>
   </g>
  </g>
 </g>
 <defs>
  <clipPath id="p62dc240f14">
   <rect x="0" y="0" width="1639.771715" height="3034.653568"/>
  </clipPath>
 </defs>
</svg>
