<?xml version="1.0" encoding="utf-8" standalone="no"?>
<!DOCTYPE svg PUBLIC "-//W3C//DTD SVG 1.1//EN"
  "http://www.w3.org/Graphics/SVG/1.1/DTD/svg11.dtd">
<svg xmlns:xlink="http://www.w3.org/1999/xlink" width="280.8pt" height="594pt" viewBox="0 0 280.8 594" xmlns="http://www.w3.org/2000/svg" version="1.1">
 <metadata>
  <rdf:RDF xmlns:dc="http://purl.org/dc/elements/1.1/" xmlns:cc="http://creativecommons.org/ns#" xmlns:rdf="http://www.w3.org/1999/02/22-rdf-syntax-ns#">
   <cc:Work>
    <dc:type rdf:resource="http://purl.org/dc/dcmitype/StillImage"/>
    <dc:date>2026-01-03T06:48:19.490220</dc:date>
    <dc:format>image/svg+xml</dc:format>
    <dc:creator>
     <cc:Agent>
      <dc:title>Matplotlib v3.10.7, https://matplotlib.org/</dc:title>
     </cc:Agent>
    </dc:creator>
   </cc:Work>
  </rdf:RDF>
 </metadata>
 <defs>
  <style type="text/css">*{stroke-linejoin: round; stroke-linecap: butt}</style>
 </defs>
 <g id="figure_1">
  <g id="patch_1">
   <path d="M 0 594 
L 280.8 594 
L 280.8 0 
L 0 0 
z
" style="fill: #ffffff"/>
  </g>
  <g id="axes_1">
   <g id="patch_2">
    <path d="M 0 594 
L 280.8 594 
L 280.8 0 
L 0 0 
z
" clip-path="url(#pfb9a1b0094)" style="fill: #ffffff; stroke: #ffffff; stroke-linejoin: miter"/>
   </g>
   <g id="patch_3">
    <path d="M 56.16 0 
Q 56.16 4.5 56.16 4.5 
" clip-path="url(#pfb9a1b0094)" style="fill: none; stroke: #000000; stroke-linejoin: miter"/>
   </g>
   <g id="patch_4">
    <path d="M 56.16 13.5 
Q 56.16 18 56.16 18 
" clip-path="url(#pfb9a1b0094)" style="fill: none; stroke: #000000; stroke-linejoin: miter"/>
   </g>
   <g id="patch_5">
    <path d="M 56.16 27 
Q 14.04 27 14.04 36 
" clip-path="url(#pfb9a1b0094)" style="fill: none; stroke: #000000; stroke-linejoin: miter"/>
   </g>
   <g id="patch_6">
    <path d="M 56.16 27 
Q 182.52 27 182.52 36 
" clip-path="url(#pfb9a1b0094)" style="fill: none; stroke: #000000; stroke-linejoin: miter"/>
   </g>
   <g id="patch_7">
    <path d="M 56.16 18 
Q 56.16 36 56.16 36 
" clip-path="url(#pfb9a1b0094)" style="fill: none; stroke: #000000; stroke-linejoin: miter"/>
   </g>
   <g id="patch_8">
    <path d="M 14.04 36 
Q 14.04 144 14.04 144 
" clip-path="url(#pfb9a1b0094)" style="fill: none; stroke: #000000; stroke-linejoin: miter"/>
   </g>
   <g id="patch_9">
    <path d="M 56.16 36 
Q 56.16 40.5 56.16 40.5 
" clip-path="url(#pfb9a1b0094)" style="fill: none; stroke: #000000; stroke-linejoin: miter"/>
   </g>
   <g id="patch_10">
    <path d="M 182.52 36 
Q 182.52 144 182.52 144 
" clip-path="url(#pfb9a1b0094)" style="fill: none; stroke: #000000; stroke-linejoin: miter"/>
   </g>
   <g id="patch_11">
    <path d="M 56.16 85.5 
Q 56.16 112.5 56.16 112.5 
" clip-path="url(#pfb9a1b0094)" style="fill: none; stroke: #000000; stroke-linejoin: miter"/>
   </g>
   <g id="patch_12">
    <path d="M 112.32 103.5 
Q 112.32 112.5 112.32 112.5 
" clip-path="url(#pfb9a1b0094)" style="fill: none; stroke: #000000; stroke-linejoin: miter"/>
   </g>
   <g id="patch_13">
    <path d="M 84.24 121.5 
Q 84.24 144 84.24 144 
" clip-path="url(#pfb9a1b0094)" style="fill: none; stroke: #000000; stroke-linejoin: miter"/>
   </g>
   <g id="patch_14">
    <path d="M 14.04 144 
Q 14.04 153 84.24 153 
" clip-path="url(#pfb9a1b0094)" style="fill: none; stroke: #000000; stroke-linejoin: miter"/>
   </g>
   <g id="patch_15">
    <path d="M 84.24 144 
Q 84.24 162 84.24 162 
" clip-path="url(#pfb9a1b0094)" style="fill: none; stroke: #000000; stroke-linejoin: miter"/>
   </g>
   <g id="patch_16">
    <path d="M 182.52 144 
Q 182.52 153 84.24 153 
" clip-path="url(#pfb9a1b0094)" style="fill: none; stroke: #000000; stroke-linejoin: miter"/>
   </g>
   <g id="patch_17">
    <path d="M 84.24 171 
Q 42.12 171 42.12 180 
" clip-path="url(#pfb9a1b0094)" style="fill: none; stroke: #000000; stroke-linejoin: miter"/>
   </g>
   <g id="patch_18">
    <path d="M 84.24 171 
Q 210.6 171 210.6 180 
" clip-path="url(#pfb9a1b0094)" style="fill: none; stroke: #000000; stroke-linejoin: miter"/>
   </g>
   <g id="patch_19">
    <path d="M 84.24 162 
Q 84.24 180 84.24 180 
" clip-path="url(#pfb9a1b0094)" style="fill: none; stroke: #000000; stroke-linejoin: miter"/>
   </g>
   <g id="patch_20">
    <path d="M 42.12 180 
Q 42.12 288 42.12 288 
" clip-path="url(#pfb9a1b0094)" style="fill: none; stroke: #000000; stroke-linejoin: miter"/>
   </g>
   <g id="patch_21">
    <path d="M 84.24 180 
Q 84.24 184.5 84.24 184.5 
" clip-path="url(#pfb9a1b0094)" style="fill: none; stroke: #000000; stroke-linejoin: miter"/>
   </g>
   <g id="patch_22">
    <path d="M 210.6 180 
Q 210.6 288 210.6 288 
" clip-path="url(#pfb9a1b0094)" style="fill: none; stroke: #000000; stroke-linejoin: miter"/>
   </g>
   <g id="patch_23">
    <path d="M 84.24 229.5 
Q 84.24 256.5 84.24 256.5 
" clip-path="url(#pfb9a1b0094)" style="fill: none; stroke: #000000; stroke-linejoin: miter"/>
   </g>
   <g id="patch_24">
    <path d="M 140.4 247.5 
Q 140.4 256.5 140.4 256.5 
" clip-path="url(#pfb9a1b0094)" style="fill: none; stroke: #000000; stroke-linejoin: miter"/>
   </g>
   <g id="patch_25">
    <path d="M 112.32 265.5 
Q 112.32 288 112.32 288 
" clip-path="url(#pfb9a1b0094)" style="fill: none; stroke: #000000; stroke-linejoin: miter"/>
   </g>
   <g id="patch_26">
    <path d="M 42.12 288 
Q 42.12 297 112.32 297 
" clip-path="url(#pfb9a1b0094)" style="fill: none; stroke: #000000; stroke-linejoin: miter"/>
   </g>
   <g id="patch_27">
    <path d="M 112.32 288 
Q 112.32 306 112.32 306 
" clip-path="url(#pfb9a1b0094)" style="fill: none; stroke: #000000; stroke-linejoin: miter"/>
   </g>
   <g id="patch_28">
    <path d="M 210.6 288 
Q 210.6 297 112.32 297 
" clip-path="url(#pfb9a1b0094)" style="fill: none; stroke: #000000; stroke-linejoin: miter"/>
   </g>
   <g id="patch_29">
    <path d="M 112.32 315 
Q 70.2 315 70.2 324 
" clip-path="url(#pfb9a1b0094)" style="fill: none; stroke: #000000; stroke-linejoin: miter"/>
   </g>
   <g id="patch_30">
    <path d="M 112.32 315 
Q 238.68 315 238.68 324 
" clip-path="url(#pfb9a1b0094)" style="fill: none; stroke: #000000; stroke-linejoin: miter"/>
   </g>
   <g id="patch_31">
    <path d="M 112.32 306 
Q 112.32 324 112.32 324 
" clip-path="url(#pfb9a1b0094)" style="fill: none; stroke: #000000; stroke-linejoin: miter"/>
   </g>
   <g id="patch_32">
    <path d="M 70.2 324 
Q 70.2 432 70.2 432 
" clip-path="url(#pfb9a1b0094)" style="fill: none; stroke: #000000; stroke-linejoin: miter"/>
   </g>
   <g id="patch_33">
    <path d="M 112.32 324 
Q 112.32 328.5 112.32 328.5 
" clip-path="url(#pfb9a1b0094)" style="fill: none; stroke: #000000; stroke-linejoin: miter"/>
   </g>
   <g id="patch_34">
    <path d="M 238.68 324 
Q 238.68 432 238.68 432 
" clip-path="url(#pfb9a1b0094)" style="fill: none; stroke: #000000; stroke-linejoin: miter"/>
   </g>
   <g id="patch_35">
    <path d="M 112.32 373.5 
Q 112.32 400.5 112.32 400.5 
" clip-path="url(#pfb9a1b0094)" style="fill: none; stroke: #000000; stroke-linejoin: miter"/>
   </g>
   <g id="patch_36">
    <path d="M 168.48 391.5 
Q 168.48 400.5 168.48 400.5 
" clip-path="url(#pfb9a1b0094)" style="fill: none; stroke: #000000; stroke-linejoin: miter"/>
   </g>
   <g id="patch_37">
    <path d="M 140.4 409.5 
Q 140.4 432 140.4 432 
" clip-path="url(#pfb9a1b0094)" style="fill: none; stroke: #000000; stroke-linejoin: miter"/>
   </g>
   <g id="patch_38">
    <path d="M 70.2 432 
Q 70.2 441 140.4 441 
" clip-path="url(#pfb9a1b0094)" style="fill: none; stroke: #000000; stroke-linejoin: miter"/>
   </g>
   <g id="patch_39">
    <path d="M 140.4 432 
Q 140.4 450 140.4 450 
" clip-path="url(#pfb9a1b0094)" style="fill: none; stroke: #000000; stroke-linejoin: miter"/>
   </g>
   <g id="patch_40">
    <path d="M 238.68 432 
Q 238.68 441 140.4 441 
" clip-path="url(#pfb9a1b0094)" style="fill: none; stroke: #000000; stroke-linejoin: miter"/>
   </g>
   <g id="patch_41">
    <path d="M 140.4 459 
Q 98.28 459 98.28 468 
" clip-path="url(#pfb9a1b0094)" style="fill: none; stroke: #000000; stroke-linejoin: miter"/>
   </g>
   <g id="patch_42">
    <path d="M 140.4 459 
Q 266.76 459 266.76 468 
" clip-path="url(#pfb9a1b0094)" style="fill: none; stroke: #000000; stroke-linejoin: miter"/>
   </g>
   <g id="patch_43">
    <path d="M 140.4 450 
Q 140.4 468 140.4 468 
" clip-path="url(#pfb9a1b0094)" style="fill: none; stroke: #000000; stroke-linejoin: miter"/>
   </g>
   <g id="patch_44">
    <path d="M 98.28 468 
Q 98.28 576 98.28 576 
" clip-path="url(#pfb9a1b0094)" style="fill: none; stroke: #000000; stroke-linejoin: miter"/>
   </g>
   <g id="patch_45">
    <path d="M 140.4 468 
Q 140.4 472.5 140.4 472.5 
" clip-path="url(#pfb9a1b0094)" style="fill: none; stroke: #000000; stroke-linejoin: miter"/>
   </g>
   <g id="patch_46">
    <path d="M 266.76 468 
Q 266.76 576 266.76 576 
" clip-path="url(#pfb9a1b0094)" style="fill: none; stroke: #000000; stroke-linejoin: miter"/>
   </g>
   <g id="patch_47">
    <path d="M 140.4 517.5 
Q 140.4 544.5 140.4 544.5 
" clip-path="url(#pfb9a1b0094)" style="fill: none; stroke: #000000; stroke-linejoin: miter"/>
   </g>
   <g id="patch_48">
    <path d="M 196.56 535.5 
Q 196.56 544.5 196.56 544.5 
" clip-path="url(#pfb9a1b0094)" style="fill: none; stroke: #000000; stroke-linejoin: miter"/>
   </g>
   <g id="patch_49">
    <path d="M 168.48 553.5 
Q 168.48 576 168.48 576 
" clip-path="url(#pfb9a1b0094)" style="fill: none; stroke: #000000; stroke-linejoin: miter"/>
   </g>
   <g id="patch_50">
    <path d="M 98.28 576 
Q 98.28 585 168.48 585 
" clip-path="url(#pfb9a1b0094)" style="fill: none; stroke: #000000; stroke-linejoin: miter"/>
   </g>
   <g id="patch_51">
    <path d="M 168.48 576 
Q 168.48 594 168.48 594 
" clip-path="url(#pfb9a1b0094)" style="fill: none; stroke: #000000; stroke-linejoin: miter"/>
   </g>
   <g id="patch_52">
    <path d="M 266.76 576 
Q 266.76 585 168.48 585 
" clip-path="url(#pfb9a1b0094)" style="fill: none; stroke: #000000; stroke-linejoin: miter"/>
   </g>
   <g id="patch_53">
    <path d="M 42.12 13.5 
L 42.12 4.5 
L 70.2 4.5 
L 70.2 13.5 
z
" clip-path="url(#pfb9a1b0094)" style="fill: #ffffff; stroke: #000000; stroke-linejoin: miter"/>
   </g>
   <g id="patch_54">
    <path d="M 42.12 49.5 
L 42.12 40.5 
L 70.2 40.5 
L 70.2 49.5 
z
" clip-path="url(#pfb9a1b0094)" style="fill: #ffffff; stroke: #000000; stroke-linejoin: miter"/>
   </g>
   <g id="patch_55">
    <path d="M 42.12 67.5 
L 42.12 58.5 
L 70.2 58.5 
L 70.2 67.5 
z
" clip-path="url(#pfb9a1b0094)" style="fill: #ffffff; stroke: #000000; stroke-linejoin: miter"/>
   </g>
   <g id="patch_56">
    <path d="M 42.12 85.5 
L 42.12 76.5 
L 70.2 76.5 
L 70.2 85.5 
z
" clip-path="url(#pfb9a1b0094)" style="fill: #ffffff; stroke: #000000; stroke-linejoin: miter"/>
   </g>
   <g id="patch_57">
    <path d="M 98.28 103.5 
L 98.28 94.5 
L 126.36 94.5 
L 126.36 103.5 
z
" clip-path="url(#pfb9a1b0094)" style="fill: #ffffff; stroke: #000000; stroke-linejoin: miter"/>
   </g>
   <g id="patch_58">
    <path d="M 42.12 121.5 
L 42.12 112.5 
L 126.36 112.5 
L 126.36 121.5 
z
" clip-path="url(#pfb9a1b0094)" style="fill: #ffffff; stroke: #000000; stroke-linejoin: miter"/>
   </g>
   <g id="patch_59">
    <path d="M 126.36 139.5 
L 126.36 130.5 
L 154.44 130.5 
L 154.44 139.5 
z
" clip-path="url(#pfb9a1b0094)" style="fill: #ffffff; stroke: #000000; stroke-linejoin: miter"/>
   </g>
   <g id="patch_60">
    <path d="M 70.2 193.5 
L 70.2 184.5 
L 98.28 184.5 
L 98.28 193.5 
z
" clip-path="url(#pfb9a1b0094)" style="fill: #ffffff; stroke: #000000; stroke-linejoin: miter"/>
   </g>
   <g id="patch_61">
    <path d="M 70.2 211.5 
L 70.2 202.5 
L 98.28 202.5 
L 98.28 211.5 
z
" clip-path="url(#pfb9a1b0094)" style="fill: #ffffff; stroke: #000000; stroke-linejoin: miter"/>
   </g>
   <g id="patch_62">
    <path d="M 70.2 229.5 
L 70.2 220.5 
L 98.28 220.5 
L 98.28 229.5 
z
" clip-path="url(#pfb9a1b0094)" style="fill: #ffffff; stroke: #000000; stroke-linejoin: miter"/>
   </g>
   <g id="patch_63">
    <path d="M 126.36 247.5 
L 126.36 238.5 
L 154.44 238.5 
L 154.44 247.5 
z
" clip-path="url(#pfb9a1b0094)" style="fill: #ffffff; stroke: #000000; stroke-linejoin: miter"/>
   </g>
   <g id="patch_64">
    <path d="M 70.2 265.5 
L 70.2 256.5 
L 154.44 256.5 
L 154.44 265.5 
z
" clip-path="url(#pfb9a1b0094)" style="fill: #ffffff; stroke: #000000; stroke-linejoin: miter"/>
   </g>
   <g id="patch_65">
    <path d="M 154.44 283.5 
L 154.44 274.5 
L 182.52 274.5 
L 182.52 283.5 
z
" clip-path="url(#pfb9a1b0094)" style="fill: #ffffff; stroke: #000000; stroke-linejoin: miter"/>
   </g>
   <g id="patch_66">
    <path d="M 98.28 337.5 
L 98.28 328.5 
L 126.36 328.5 
L 126.36 337.5 
z
" clip-path="url(#pfb9a1b0094)" style="fill: #ffffff; stroke: #000000; stroke-linejoin: miter"/>
   </g>
   <g id="patch_67">
    <path d="M 98.28 355.5 
L 98.28 346.5 
L 126.36 346.5 
L 126.36 355.5 
z
" clip-path="url(#pfb9a1b0094)" style="fill: #ffffff; stroke: #000000; stroke-linejoin: miter"/>
   </g>
   <g id="patch_68">
    <path d="M 98.28 373.5 
L 98.28 364.5 
L 126.36 364.5 
L 126.36 373.5 
z
" clip-path="url(#pfb9a1b0094)" style="fill: #ffffff; stroke: #000000; stroke-linejoin: miter"/>
   </g>
   <g id="patch_69">
    <path d="M 154.44 391.5 
L 154.44 382.5 
L 182.52 382.5 
L 182.52 391.5 
z
" clip-path="url(#pfb9a1b0094)" style="fill: #ffffff; stroke: #000000; stroke-linejoin: miter"/>
   </g>
   <g id="patch_70">
    <path d="M 98.28 409.5 
L 98.28 400.5 
L 182.52 400.5 
L 182.52 409.5 
z
" clip-path="url(#pfb9a1b0094)" style="fill: #ffffff; stroke: #000000; stroke-linejoin: miter"/>
   </g>
   <g id="patch_71">
    <path d="M 182.52 427.5 
L 182.52 418.5 
L 210.6 418.5 
L 210.6 427.5 
z
" clip-path="url(#pfb9a1b0094)" style="fill: #ffffff; stroke: #000000; stroke-linejoin: miter"/>
   </g>
   <g id="patch_72">
    <path d="M 126.36 481.5 
L 126.36 472.5 
L 154.44 472.5 
L 154.44 481.5 
z
" clip-path="url(#pfb9a1b0094)" style="fill: #ffffff; stroke: #000000; stroke-linejoin: miter"/>
   </g>
   <g id="patch_73">
    <path d="M 126.36 499.5 
L 126.36 490.5 
L 154.44 490.5 
L 154.44 499.5 
z
" clip-path="url(#pfb9a1b0094)" style="fill: #ffffff; stroke: #000000; stroke-linejoin: miter"/>
   </g>
   <g id="patch_74">
    <path d="M 126.36 517.5 
L 126.36 508.5 
L 154.44 508.5 
L 154.44 517.5 
z
" clip-path="url(#pfb9a1b0094)" style="fill: #ffffff; stroke: #000000; stroke-linejoin: miter"/>
   </g>
   <g id="patch_75">
    <path d="M 182.52 535.5 
L 182.52 526.5 
L 210.6 526.5 
L 210.6 535.5 
z
" clip-path="url(#pfb9a1b0094)" style="fill: #ffffff; stroke: #000000; stroke-linejoin: miter"/>
   </g>
   <g id="patch_76">
    <path d="M 126.36 553.5 
L 126.36 544.5 
L 210.6 544.5 
L 210.6 553.5 
z
" clip-path="url(#pfb9a1b0094)" style="fill: #ffffff; stroke: #000000; stroke-linejoin: miter"/>
   </g>
   <g id="patch_77">
    <path d="M 210.6 571.5 
L 210.6 562.5 
L 238.68 562.5 
L 238.68 571.5 
z
" clip-path="url(#pfb9a1b0094)" style="fill: #ffffff; stroke: #000000; stroke-linejoin: miter"/>
   </g>
   <g id="text_1">
    <!-- Scalar -->
    <g transform="translate(-36.816562 25.55625) scale(0.6 -0.6)">
     <defs>
      <path id="DejaVuSans-53" d="M 3425 4513 
L 3425 3897 
Q 3066 4069 2747 4153 
Q 2428 4238 2131 4238 
Q 1616 4238 1336 4038 
Q 1056 3838 1056 3469 
Q 1056 3159 1242 3001 
Q 1428 2844 1947 2747 
L 2328 2669 
Q 3034 2534 3370 2195 
Q 3706 1856 3706 1288 
Q 3706 609 3251 259 
Q 2797 -91 1919 -91 
Q 1588 -91 1214 -16 
Q 841 59 441 206 
L 441 856 
Q 825 641 1194 531 
Q 1563 422 1919 422 
Q 2459 422 2753 634 
Q 3047 847 3047 1241 
Q 3047 1584 2836 1778 
Q 2625 1972 2144 2069 
L 1759 2144 
Q 1053 2284 737 2584 
Q 422 2884 422 3419 
Q 422 4038 858 4394 
Q 1294 4750 2059 4750 
Q 2388 4750 2728 4690 
Q 3069 4631 3425 4513 
z
" transform="scale(0.015625)"/>
      <path id="DejaVuSans-63" d="M 3122 3366 
L 3122 2828 
Q 2878 2963 2633 3030 
Q 2388 3097 2138 3097 
Q 1578 3097 1268 2742 
Q 959 2388 959 1747 
Q 959 1106 1268 751 
Q 1578 397 2138 397 
Q 2388 397 2633 464 
Q 2878 531 3122 666 
L 3122 134 
Q 2881 22 2623 -34 
Q 2366 -91 2075 -91 
Q 1284 -91 818 406 
Q 353 903 353 1747 
Q 353 2603 823 3093 
Q 1294 3584 2113 3584 
Q 2378 3584 2631 3529 
Q 2884 3475 3122 3366 
z
" transform="scale(0.015625)"/>
      <path id="DejaVuSans-61" d="M 2194 1759 
Q 1497 1759 1228 1600 
Q 959 1441 959 1056 
Q 959 750 1161 570 
Q 1363 391 1709 391 
Q 2188 391 2477 730 
Q 2766 1069 2766 1631 
L 2766 1759 
L 2194 1759 
z
M 3341 1997 
L 3341 0 
L 2766 0 
L 2766 531 
Q 2569 213 2275 61 
Q 1981 -91 1556 -91 
Q 1019 -91 701 211 
Q 384 513 384 1019 
Q 384 1609 779 1909 
Q 1175 2209 1959 2209 
L 2766 2209 
L 2766 2266 
Q 2766 2663 2505 2880 
Q 2244 3097 1772 3097 
Q 1472 3097 1187 3025 
Q 903 2953 641 2809 
L 641 3341 
Q 956 3463 1253 3523 
Q 1550 3584 1831 3584 
Q 2591 3584 2966 3190 
Q 3341 2797 3341 1997 
z
" transform="scale(0.015625)"/>
      <path id="DejaVuSans-6c" d="M 603 4863 
L 1178 4863 
L 1178 0 
L 603 0 
L 603 4863 
z
" transform="scale(0.015625)"/>
      <path id="DejaVuSans-72" d="M 2631 2963 
Q 2534 3019 2420 3045 
Q 2306 3072 2169 3072 
Q 1681 3072 1420 2755 
Q 1159 2438 1159 1844 
L 1159 0 
L 581 0 
L 581 3500 
L 1159 3500 
L 1159 2956 
Q 1341 3275 1631 3429 
Q 1922 3584 2338 3584 
Q 2397 3584 2469 3576 
Q 2541 3569 2628 3553 
L 2631 2963 
z
" transform="scale(0.015625)"/>
     </defs>
     <use xlink:href="#DejaVuSans-53"/>
     <use xlink:href="#DejaVuSans-63" transform="translate(63.476562 0)"/>
     <use xlink:href="#DejaVuSans-61" transform="translate(118.457031 0)"/>
     <use xlink:href="#DejaVuSans-6c" transform="translate(179.736328 0)"/>
     <use xlink:href="#DejaVuSans-61" transform="translate(207.519531 0)"/>
     <use xlink:href="#DejaVuSans-72" transform="translate(268.798828 0)"/>
    </g>
   </g>
   <g id="text_2">
    <!-- Discard(Ty()) -->
    <g transform="translate(-134.84625 61.55625) scale(0.6 -0.6)">
     <defs>
      <path id="DejaVuSans-44" d="M 1259 4147 
L 1259 519 
L 2022 519 
Q 2988 519 3436 956 
Q 3884 1394 3884 2338 
Q 3884 3275 3436 3711 
Q 2988 4147 2022 4147 
L 1259 4147 
z
M 628 4666 
L 1925 4666 
Q 3281 4666 3915 4102 
Q 4550 3538 4550 2338 
Q 4550 1131 3912 565 
Q 3275 0 1925 0 
L 628 0 
L 628 4666 
z
" transform="scale(0.015625)"/>
      <path id="DejaVuSans-69" d="M 603 3500 
L 1178 3500 
L 1178 0 
L 603 0 
L 603 3500 
z
M 603 4863 
L 1178 4863 
L 1178 4134 
L 603 4134 
L 603 4863 
z
" transform="scale(0.015625)"/>
      <path id="DejaVuSans-73" d="M 2834 3397 
L 2834 2853 
Q 2591 2978 2328 3040 
Q 2066 3103 1784 3103 
Q 1356 3103 1142 2972 
Q 928 2841 928 2578 
Q 928 2378 1081 2264 
Q 1234 2150 1697 2047 
L 1894 2003 
Q 2506 1872 2764 1633 
Q 3022 1394 3022 966 
Q 3022 478 2636 193 
Q 2250 -91 1575 -91 
Q 1294 -91 989 -36 
Q 684 19 347 128 
L 347 722 
Q 666 556 975 473 
Q 1284 391 1588 391 
Q 1994 391 2212 530 
Q 2431 669 2431 922 
Q 2431 1156 2273 1281 
Q 2116 1406 1581 1522 
L 1381 1569 
Q 847 1681 609 1914 
Q 372 2147 372 2553 
Q 372 3047 722 3315 
Q 1072 3584 1716 3584 
Q 2034 3584 2315 3537 
Q 2597 3491 2834 3397 
z
" transform="scale(0.015625)"/>
      <path id="DejaVuSans-64" d="M 2906 2969 
L 2906 4863 
L 3481 4863 
L 3481 0 
L 2906 0 
L 2906 525 
Q 2725 213 2448 61 
Q 2172 -91 1784 -91 
Q 1150 -91 751 415 
Q 353 922 353 1747 
Q 353 2572 751 3078 
Q 1150 3584 1784 3584 
Q 2172 3584 2448 3432 
Q 2725 3281 2906 2969 
z
M 947 1747 
Q 947 1113 1208 752 
Q 1469 391 1925 391 
Q 2381 391 2643 752 
Q 2906 1113 2906 1747 
Q 2906 2381 2643 2742 
Q 2381 3103 1925 3103 
Q 1469 3103 1208 2742 
Q 947 2381 947 1747 
z
" transform="scale(0.015625)"/>
      <path id="DejaVuSans-28" d="M 1984 4856 
Q 1566 4138 1362 3434 
Q 1159 2731 1159 2009 
Q 1159 1288 1364 580 
Q 1569 -128 1984 -844 
L 1484 -844 
Q 1016 -109 783 600 
Q 550 1309 550 2009 
Q 550 2706 781 3412 
Q 1013 4119 1484 4856 
L 1984 4856 
z
" transform="scale(0.015625)"/>
      <path id="DejaVuSans-54" d="M -19 4666 
L 3928 4666 
L 3928 4134 
L 2272 4134 
L 2272 0 
L 1638 0 
L 1638 4134 
L -19 4134 
L -19 4666 
z
" transform="scale(0.015625)"/>
      <path id="DejaVuSans-79" d="M 2059 -325 
Q 1816 -950 1584 -1140 
Q 1353 -1331 966 -1331 
L 506 -1331 
L 506 -850 
L 844 -850 
Q 1081 -850 1212 -737 
Q 1344 -625 1503 -206 
L 1606 56 
L 191 3500 
L 800 3500 
L 1894 763 
L 2988 3500 
L 3597 3500 
L 2059 -325 
z
" transform="scale(0.015625)"/>
      <path id="DejaVuSans-29" d="M 513 4856 
L 1013 4856 
Q 1481 4119 1714 3412 
Q 1947 2706 1947 2009 
Q 1947 1309 1714 600 
Q 1481 -109 1013 -844 
L 513 -844 
Q 928 -128 1133 580 
Q 1338 1288 1338 2009 
Q 1338 2731 1133 3434 
Q 928 4138 513 4856 
z
" transform="scale(0.015625)"/>
     </defs>
     <use xlink:href="#DejaVuSans-44"/>
     <use xlink:href="#DejaVuSans-69" transform="translate(77.001953 0)"/>
     <use xlink:href="#DejaVuSans-73" transform="translate(104.785156 0)"/>
     <use xlink:href="#DejaVuSans-63" transform="translate(156.884766 0)"/>
     <use xlink:href="#DejaVuSans-61" transform="translate(211.865234 0)"/>
     <use xlink:href="#DejaVuSans-72" transform="translate(273.144531 0)"/>
     <use xlink:href="#DejaVuSans-64" transform="translate(312.507812 0)"/>
     <use xlink:href="#DejaVuSans-28" transform="translate(375.984375 0)"/>
     <use xlink:href="#DejaVuSans-54" transform="translate(414.998047 0)"/>
     <use xlink:href="#DejaVuSans-79" transform="translate(460.457031 0)"/>
     <use xlink:href="#DejaVuSans-28" transform="translate(519.636719 0)"/>
     <use xlink:href="#DejaVuSans-29" transform="translate(558.650391 0)"/>
     <use xlink:href="#DejaVuSans-29" transform="translate(597.664062 0)"/>
    </g>
   </g>
   <g id="text_3">
    <!-- Copy(Ty(), 2) -->
    <g transform="translate(-136.313437 79.55625) scale(0.6 -0.6)">
     <defs>
      <path id="DejaVuSans-43" d="M 4122 4306 
L 4122 3641 
Q 3803 3938 3442 4084 
Q 3081 4231 2675 4231 
Q 1875 4231 1450 3742 
Q 1025 3253 1025 2328 
Q 1025 1406 1450 917 
Q 1875 428 2675 428 
Q 3081 428 3442 575 
Q 3803 722 4122 1019 
L 4122 359 
Q 3791 134 3420 21 
Q 3050 -91 2638 -91 
Q 1578 -91 968 557 
Q 359 1206 359 2328 
Q 359 3453 968 4101 
Q 1578 4750 2638 4750 
Q 3056 4750 3426 4639 
Q 3797 4528 4122 4306 
z
" transform="scale(0.015625)"/>
      <path id="DejaVuSans-6f" d="M 1959 3097 
Q 1497 3097 1228 2736 
Q 959 2375 959 1747 
Q 959 1119 1226 758 
Q 1494 397 1959 397 
Q 2419 397 2687 759 
Q 2956 1122 2956 1747 
Q 2956 2369 2687 2733 
Q 2419 3097 1959 3097 
z
M 1959 3584 
Q 2709 3584 3137 3096 
Q 3566 2609 3566 1747 
Q 3566 888 3137 398 
Q 2709 -91 1959 -91 
Q 1206 -91 779 398 
Q 353 888 353 1747 
Q 353 2609 779 3096 
Q 1206 3584 1959 3584 
z
" transform="scale(0.015625)"/>
      <path id="DejaVuSans-70" d="M 1159 525 
L 1159 -1331 
L 581 -1331 
L 581 3500 
L 1159 3500 
L 1159 2969 
Q 1341 3281 1617 3432 
Q 1894 3584 2278 3584 
Q 2916 3584 3314 3078 
Q 3713 2572 3713 1747 
Q 3713 922 3314 415 
Q 2916 -91 2278 -91 
Q 1894 -91 1617 61 
Q 1341 213 1159 525 
z
M 3116 1747 
Q 3116 2381 2855 2742 
Q 2594 3103 2138 3103 
Q 1681 3103 1420 2742 
Q 1159 2381 1159 1747 
Q 1159 1113 1420 752 
Q 1681 391 2138 391 
Q 2594 391 2855 752 
Q 3116 1113 3116 1747 
z
" transform="scale(0.015625)"/>
      <path id="DejaVuSans-2c" d="M 750 794 
L 1409 794 
L 1409 256 
L 897 -744 
L 494 -744 
L 750 256 
L 750 794 
z
" transform="scale(0.015625)"/>
      <path id="DejaVuSans-20" transform="scale(0.015625)"/>
      <path id="DejaVuSans-32" d="M 1228 531 
L 3431 531 
L 3431 0 
L 469 0 
L 469 531 
Q 828 903 1448 1529 
Q 2069 2156 2228 2338 
Q 2531 2678 2651 2914 
Q 2772 3150 2772 3378 
Q 2772 3750 2511 3984 
Q 2250 4219 1831 4219 
Q 1534 4219 1204 4116 
Q 875 4013 500 3803 
L 500 4441 
Q 881 4594 1212 4672 
Q 1544 4750 1819 4750 
Q 2544 4750 2975 4387 
Q 3406 4025 3406 3419 
Q 3406 3131 3298 2873 
Q 3191 2616 2906 2266 
Q 2828 2175 2409 1742 
Q 1991 1309 1228 531 
z
" transform="scale(0.015625)"/>
     </defs>
     <use xlink:href="#DejaVuSans-43"/>
     <use xlink:href="#DejaVuSans-6f" transform="translate(69.824219 0)"/>
     <use xlink:href="#DejaVuSans-70" transform="translate(131.005859 0)"/>
     <use xlink:href="#DejaVuSans-79" transform="translate(194.482422 0)"/>
     <use xlink:href="#DejaVuSans-28" transform="translate(253.662109 0)"/>
     <use xlink:href="#DejaVuSans-54" transform="translate(292.675781 0)"/>
     <use xlink:href="#DejaVuSans-79" transform="translate(338.134766 0)"/>
     <use xlink:href="#DejaVuSans-28" transform="translate(397.314453 0)"/>
     <use xlink:href="#DejaVuSans-29" transform="translate(436.328125 0)"/>
     <use xlink:href="#DejaVuSans-2c" transform="translate(475.341797 0)"/>
     <use xlink:href="#DejaVuSans-20" transform="translate(507.128906 0)"/>
     <use xlink:href="#DejaVuSans-32" transform="translate(538.916016 0)"/>
     <use xlink:href="#DejaVuSans-29" transform="translate(602.539062 0)"/>
    </g>
   </g>
   <g id="text_4">
    <!-- Scalar -->
    <g transform="translate(-36.816562 97.55625) scale(0.6 -0.6)">
     <use xlink:href="#DejaVuSans-53"/>
     <use xlink:href="#DejaVuSans-63" transform="translate(63.476562 0)"/>
     <use xlink:href="#DejaVuSans-61" transform="translate(118.457031 0)"/>
     <use xlink:href="#DejaVuSans-6c" transform="translate(179.736328 0)"/>
     <use xlink:href="#DejaVuSans-61" transform="translate(207.519531 0)"/>
     <use xlink:href="#DejaVuSans-72" transform="translate(268.798828 0)"/>
    </g>
   </g>
   <g id="text_5">
    <!-- Scalar -->
    <g transform="translate(19.343438 115.55625) scale(0.6 -0.6)">
     <use xlink:href="#DejaVuSans-53"/>
     <use xlink:href="#DejaVuSans-63" transform="translate(63.476562 0)"/>
     <use xlink:href="#DejaVuSans-61" transform="translate(118.457031 0)"/>
     <use xlink:href="#DejaVuSans-6c" transform="translate(179.736328 0)"/>
     <use xlink:href="#DejaVuSans-61" transform="translate(207.519531 0)"/>
     <use xlink:href="#DejaVuSans-72" transform="translate(268.798828 0)"/>
    </g>
   </g>
   <g id="text_6">
    <!-- Merge(Ty(), 2) -->
    <g transform="translate(-125.783437 133.55625) scale(0.6 -0.6)">
     <defs>
      <path id="DejaVuSans-4d" d="M 628 4666 
L 1569 4666 
L 2759 1491 
L 3956 4666 
L 4897 4666 
L 4897 0 
L 4281 0 
L 4281 4097 
L 3078 897 
L 2444 897 
L 1241 4097 
L 1241 0 
L 628 0 
L 628 4666 
z
" transform="scale(0.015625)"/>
      <path id="DejaVuSans-65" d="M 3597 1894 
L 3597 1613 
L 953 1613 
Q 991 1019 1311 708 
Q 1631 397 2203 397 
Q 2534 397 2845 478 
Q 3156 559 3463 722 
L 3463 178 
Q 3153 47 2828 -22 
Q 2503 -91 2169 -91 
Q 1331 -91 842 396 
Q 353 884 353 1716 
Q 353 2575 817 3079 
Q 1281 3584 2069 3584 
Q 2775 3584 3186 3129 
Q 3597 2675 3597 1894 
z
M 3022 2063 
Q 3016 2534 2758 2815 
Q 2500 3097 2075 3097 
Q 1594 3097 1305 2825 
Q 1016 2553 972 2059 
L 3022 2063 
z
" transform="scale(0.015625)"/>
      <path id="DejaVuSans-67" d="M 2906 1791 
Q 2906 2416 2648 2759 
Q 2391 3103 1925 3103 
Q 1463 3103 1205 2759 
Q 947 2416 947 1791 
Q 947 1169 1205 825 
Q 1463 481 1925 481 
Q 2391 481 2648 825 
Q 2906 1169 2906 1791 
z
M 3481 434 
Q 3481 -459 3084 -895 
Q 2688 -1331 1869 -1331 
Q 1566 -1331 1297 -1286 
Q 1028 -1241 775 -1147 
L 775 -588 
Q 1028 -725 1275 -790 
Q 1522 -856 1778 -856 
Q 2344 -856 2625 -561 
Q 2906 -266 2906 331 
L 2906 616 
Q 2728 306 2450 153 
Q 2172 0 1784 0 
Q 1141 0 747 490 
Q 353 981 353 1791 
Q 353 2603 747 3093 
Q 1141 3584 1784 3584 
Q 2172 3584 2450 3431 
Q 2728 3278 2906 2969 
L 2906 3500 
L 3481 3500 
L 3481 434 
z
" transform="scale(0.015625)"/>
     </defs>
     <use xlink:href="#DejaVuSans-4d"/>
     <use xlink:href="#DejaVuSans-65" transform="translate(86.279297 0)"/>
     <use xlink:href="#DejaVuSans-72" transform="translate(147.802734 0)"/>
     <use xlink:href="#DejaVuSans-67" transform="translate(187.166016 0)"/>
     <use xlink:href="#DejaVuSans-65" transform="translate(250.642578 0)"/>
     <use xlink:href="#DejaVuSans-28" transform="translate(312.166016 0)"/>
     <use xlink:href="#DejaVuSans-54" transform="translate(351.179688 0)"/>
     <use xlink:href="#DejaVuSans-79" transform="translate(396.638672 0)"/>
     <use xlink:href="#DejaVuSans-28" transform="translate(455.818359 0)"/>
     <use xlink:href="#DejaVuSans-29" transform="translate(494.832031 0)"/>
     <use xlink:href="#DejaVuSans-2c" transform="translate(533.845703 0)"/>
     <use xlink:href="#DejaVuSans-20" transform="translate(565.632812 0)"/>
     <use xlink:href="#DejaVuSans-32" transform="translate(597.419922 0)"/>
     <use xlink:href="#DejaVuSans-29" transform="translate(661.042969 0)"/>
    </g>
   </g>
   <g id="text_7">
    <!-- tr -->
    <g transform="translate(116.30625 151.55625) scale(0.6 -0.6)">
     <defs>
      <path id="DejaVuSans-74" d="M 1172 4494 
L 1172 3500 
L 2356 3500 
L 2356 3053 
L 1172 3053 
L 1172 1153 
Q 1172 725 1289 603 
Q 1406 481 1766 481 
L 2356 481 
L 2356 0 
L 1766 0 
Q 1100 0 847 248 
Q 594 497 594 1153 
L 594 3053 
L 172 3053 
L 172 3500 
L 594 3500 
L 594 4494 
L 1172 4494 
z
" transform="scale(0.015625)"/>
     </defs>
     <use xlink:href="#DejaVuSans-74"/>
     <use xlink:href="#DejaVuSans-72" transform="translate(39.208984 0)"/>
    </g>
   </g>
   <g id="text_8">
    <!-- Discard(Ty()) -->
    <g transform="translate(-106.76625 205.55625) scale(0.6 -0.6)">
     <use xlink:href="#DejaVuSans-44"/>
     <use xlink:href="#DejaVuSans-69" transform="translate(77.001953 0)"/>
     <use xlink:href="#DejaVuSans-73" transform="translate(104.785156 0)"/>
     <use xlink:href="#DejaVuSans-63" transform="translate(156.884766 0)"/>
     <use xlink:href="#DejaVuSans-61" transform="translate(211.865234 0)"/>
     <use xlink:href="#DejaVuSans-72" transform="translate(273.144531 0)"/>
     <use xlink:href="#DejaVuSans-64" transform="translate(312.507812 0)"/>
     <use xlink:href="#DejaVuSans-28" transform="translate(375.984375 0)"/>
     <use xlink:href="#DejaVuSans-54" transform="translate(414.998047 0)"/>
     <use xlink:href="#DejaVuSans-79" transform="translate(460.457031 0)"/>
     <use xlink:href="#DejaVuSans-28" transform="translate(519.636719 0)"/>
     <use xlink:href="#DejaVuSans-29" transform="translate(558.650391 0)"/>
     <use xlink:href="#DejaVuSans-29" transform="translate(597.664062 0)"/>
    </g>
   </g>
   <g id="text_9">
    <!-- Copy(Ty(), 2) -->
    <g transform="translate(-108.233437 223.55625) scale(0.6 -0.6)">
     <use xlink:href="#DejaVuSans-43"/>
     <use xlink:href="#DejaVuSans-6f" transform="translate(69.824219 0)"/>
     <use xlink:href="#DejaVuSans-70" transform="translate(131.005859 0)"/>
     <use xlink:href="#DejaVuSans-79" transform="translate(194.482422 0)"/>
     <use xlink:href="#DejaVuSans-28" transform="translate(253.662109 0)"/>
     <use xlink:href="#DejaVuSans-54" transform="translate(292.675781 0)"/>
     <use xlink:href="#DejaVuSans-79" transform="translate(338.134766 0)"/>
     <use xlink:href="#DejaVuSans-28" transform="translate(397.314453 0)"/>
     <use xlink:href="#DejaVuSans-29" transform="translate(436.328125 0)"/>
     <use xlink:href="#DejaVuSans-2c" transform="translate(475.341797 0)"/>
     <use xlink:href="#DejaVuSans-20" transform="translate(507.128906 0)"/>
     <use xlink:href="#DejaVuSans-32" transform="translate(538.916016 0)"/>
     <use xlink:href="#DejaVuSans-29" transform="translate(602.539062 0)"/>
    </g>
   </g>
   <g id="text_10">
    <!-- Scalar -->
    <g transform="translate(-8.736562 241.55625) scale(0.6 -0.6)">
     <use xlink:href="#DejaVuSans-53"/>
     <use xlink:href="#DejaVuSans-63" transform="translate(63.476562 0)"/>
     <use xlink:href="#DejaVuSans-61" transform="translate(118.457031 0)"/>
     <use xlink:href="#DejaVuSans-6c" transform="translate(179.736328 0)"/>
     <use xlink:href="#DejaVuSans-61" transform="translate(207.519531 0)"/>
     <use xlink:href="#DejaVuSans-72" transform="translate(268.798828 0)"/>
    </g>
   </g>
   <g id="text_11">
    <!-- Scalar -->
    <g transform="translate(47.423438 259.55625) scale(0.6 -0.6)">
     <use xlink:href="#DejaVuSans-53"/>
     <use xlink:href="#DejaVuSans-63" transform="translate(63.476562 0)"/>
     <use xlink:href="#DejaVuSans-61" transform="translate(118.457031 0)"/>
     <use xlink:href="#DejaVuSans-6c" transform="translate(179.736328 0)"/>
     <use xlink:href="#DejaVuSans-61" transform="translate(207.519531 0)"/>
     <use xlink:href="#DejaVuSans-72" transform="translate(268.798828 0)"/>
    </g>
   </g>
   <g id="text_12">
    <!-- Merge(Ty(), 2) -->
    <g transform="translate(-97.703437 277.55625) scale(0.6 -0.6)">
     <use xlink:href="#DejaVuSans-4d"/>
     <use xlink:href="#DejaVuSans-65" transform="translate(86.279297 0)"/>
     <use xlink:href="#DejaVuSans-72" transform="translate(147.802734 0)"/>
     <use xlink:href="#DejaVuSans-67" transform="translate(187.166016 0)"/>
     <use xlink:href="#DejaVuSans-65" transform="translate(250.642578 0)"/>
     <use xlink:href="#DejaVuSans-28" transform="translate(312.166016 0)"/>
     <use xlink:href="#DejaVuSans-54" transform="translate(351.179688 0)"/>
     <use xlink:href="#DejaVuSans-79" transform="translate(396.638672 0)"/>
     <use xlink:href="#DejaVuSans-28" transform="translate(455.818359 0)"/>
     <use xlink:href="#DejaVuSans-29" transform="translate(494.832031 0)"/>
     <use xlink:href="#DejaVuSans-2c" transform="translate(533.845703 0)"/>
     <use xlink:href="#DejaVuSans-20" transform="translate(565.632812 0)"/>
     <use xlink:href="#DejaVuSans-32" transform="translate(597.419922 0)"/>
     <use xlink:href="#DejaVuSans-29" transform="translate(661.042969 0)"/>
    </g>
   </g>
   <g id="text_13">
    <!-- xargs -->
    <g transform="translate(85.858125 295.55625) scale(0.6 -0.6)">
     <defs>
      <path id="DejaVuSans-78" d="M 3513 3500 
L 2247 1797 
L 3578 0 
L 2900 0 
L 1881 1375 
L 863 0 
L 184 0 
L 1544 1831 
L 300 3500 
L 978 3500 
L 1906 2253 
L 2834 3500 
L 3513 3500 
z
" transform="scale(0.015625)"/>
     </defs>
     <use xlink:href="#DejaVuSans-78"/>
     <use xlink:href="#DejaVuSans-61" transform="translate(59.179688 0)"/>
     <use xlink:href="#DejaVuSans-72" transform="translate(120.458984 0)"/>
     <use xlink:href="#DejaVuSans-67" transform="translate(159.822266 0)"/>
     <use xlink:href="#DejaVuSans-73" transform="translate(223.298828 0)"/>
    </g>
   </g>
   <g id="text_14">
    <!-- Discard(Ty()) -->
    <g transform="translate(-78.68625 349.55625) scale(0.6 -0.6)">
     <use xlink:href="#DejaVuSans-44"/>
     <use xlink:href="#DejaVuSans-69" transform="translate(77.001953 0)"/>
     <use xlink:href="#DejaVuSans-73" transform="translate(104.785156 0)"/>
     <use xlink:href="#DejaVuSans-63" transform="translate(156.884766 0)"/>
     <use xlink:href="#DejaVuSans-61" transform="translate(211.865234 0)"/>
     <use xlink:href="#DejaVuSans-72" transform="translate(273.144531 0)"/>
     <use xlink:href="#DejaVuSans-64" transform="translate(312.507812 0)"/>
     <use xlink:href="#DejaVuSans-28" transform="translate(375.984375 0)"/>
     <use xlink:href="#DejaVuSans-54" transform="translate(414.998047 0)"/>
     <use xlink:href="#DejaVuSans-79" transform="translate(460.457031 0)"/>
     <use xlink:href="#DejaVuSans-28" transform="translate(519.636719 0)"/>
     <use xlink:href="#DejaVuSans-29" transform="translate(558.650391 0)"/>
     <use xlink:href="#DejaVuSans-29" transform="translate(597.664062 0)"/>
    </g>
   </g>
   <g id="text_15">
    <!-- Copy(Ty(), 2) -->
    <g transform="translate(-80.153437 367.55625) scale(0.6 -0.6)">
     <use xlink:href="#DejaVuSans-43"/>
     <use xlink:href="#DejaVuSans-6f" transform="translate(69.824219 0)"/>
     <use xlink:href="#DejaVuSans-70" transform="translate(131.005859 0)"/>
     <use xlink:href="#DejaVuSans-79" transform="translate(194.482422 0)"/>
     <use xlink:href="#DejaVuSans-28" transform="translate(253.662109 0)"/>
     <use xlink:href="#DejaVuSans-54" transform="translate(292.675781 0)"/>
     <use xlink:href="#DejaVuSans-79" transform="translate(338.134766 0)"/>
     <use xlink:href="#DejaVuSans-28" transform="translate(397.314453 0)"/>
     <use xlink:href="#DejaVuSans-29" transform="translate(436.328125 0)"/>
     <use xlink:href="#DejaVuSans-2c" transform="translate(475.341797 0)"/>
     <use xlink:href="#DejaVuSans-20" transform="translate(507.128906 0)"/>
     <use xlink:href="#DejaVuSans-32" transform="translate(538.916016 0)"/>
     <use xlink:href="#DejaVuSans-29" transform="translate(602.539062 0)"/>
    </g>
   </g>
   <g id="text_16">
    <!-- Scalar -->
    <g transform="translate(19.343438 385.55625) scale(0.6 -0.6)">
     <use xlink:href="#DejaVuSans-53"/>
     <use xlink:href="#DejaVuSans-63" transform="translate(63.476562 0)"/>
     <use xlink:href="#DejaVuSans-61" transform="translate(118.457031 0)"/>
     <use xlink:href="#DejaVuSans-6c" transform="translate(179.736328 0)"/>
     <use xlink:href="#DejaVuSans-61" transform="translate(207.519531 0)"/>
     <use xlink:href="#DejaVuSans-72" transform="translate(268.798828 0)"/>
    </g>
   </g>
   <g id="text_17">
    <!-- Scalar -->
    <g transform="translate(75.503438 403.55625) scale(0.6 -0.6)">
     <use xlink:href="#DejaVuSans-53"/>
     <use xlink:href="#DejaVuSans-63" transform="translate(63.476562 0)"/>
     <use xlink:href="#DejaVuSans-61" transform="translate(118.457031 0)"/>
     <use xlink:href="#DejaVuSans-6c" transform="translate(179.736328 0)"/>
     <use xlink:href="#DejaVuSans-61" transform="translate(207.519531 0)"/>
     <use xlink:href="#DejaVuSans-72" transform="translate(268.798828 0)"/>
    </g>
   </g>
   <g id="text_18">
    <!-- Merge(Ty(), 2) -->
    <g transform="translate(-69.623437 421.55625) scale(0.6 -0.6)">
     <use xlink:href="#DejaVuSans-4d"/>
     <use xlink:href="#DejaVuSans-65" transform="translate(86.279297 0)"/>
     <use xlink:href="#DejaVuSans-72" transform="translate(147.802734 0)"/>
     <use xlink:href="#DejaVuSans-67" transform="translate(187.166016 0)"/>
     <use xlink:href="#DejaVuSans-65" transform="translate(250.642578 0)"/>
     <use xlink:href="#DejaVuSans-28" transform="translate(312.166016 0)"/>
     <use xlink:href="#DejaVuSans-54" transform="translate(351.179688 0)"/>
     <use xlink:href="#DejaVuSans-79" transform="translate(396.638672 0)"/>
     <use xlink:href="#DejaVuSans-28" transform="translate(455.818359 0)"/>
     <use xlink:href="#DejaVuSans-29" transform="translate(494.832031 0)"/>
     <use xlink:href="#DejaVuSans-2c" transform="translate(533.845703 0)"/>
     <use xlink:href="#DejaVuSans-20" transform="translate(565.632812 0)"/>
     <use xlink:href="#DejaVuSans-32" transform="translate(597.419922 0)"/>
     <use xlink:href="#DejaVuSans-29" transform="translate(661.042969 0)"/>
    </g>
   </g>
   <g id="text_19">
    <!-- grep -->
    <g transform="translate(128.352188 439.55625) scale(0.6 -0.6)">
     <use xlink:href="#DejaVuSans-67"/>
     <use xlink:href="#DejaVuSans-72" transform="translate(63.476562 0)"/>
     <use xlink:href="#DejaVuSans-65" transform="translate(102.339844 0)"/>
     <use xlink:href="#DejaVuSans-70" transform="translate(163.863281 0)"/>
    </g>
   </g>
   <g id="text_20">
    <!-- Discard(Ty()) -->
    <g transform="translate(-50.60625 493.55625) scale(0.6 -0.6)">
     <use xlink:href="#DejaVuSans-44"/>
     <use xlink:href="#DejaVuSans-69" transform="translate(77.001953 0)"/>
     <use xlink:href="#DejaVuSans-73" transform="translate(104.785156 0)"/>
     <use xlink:href="#DejaVuSans-63" transform="translate(156.884766 0)"/>
     <use xlink:href="#DejaVuSans-61" transform="translate(211.865234 0)"/>
     <use xlink:href="#DejaVuSans-72" transform="translate(273.144531 0)"/>
     <use xlink:href="#DejaVuSans-64" transform="translate(312.507812 0)"/>
     <use xlink:href="#DejaVuSans-28" transform="translate(375.984375 0)"/>
     <use xlink:href="#DejaVuSans-54" transform="translate(414.998047 0)"/>
     <use xlink:href="#DejaVuSans-79" transform="translate(460.457031 0)"/>
     <use xlink:href="#DejaVuSans-28" transform="translate(519.636719 0)"/>
     <use xlink:href="#DejaVuSans-29" transform="translate(558.650391 0)"/>
     <use xlink:href="#DejaVuSans-29" transform="translate(597.664062 0)"/>
    </g>
   </g>
   <g id="text_21">
    <!-- Copy(Ty(), 2) -->
    <g transform="translate(-52.073437 511.55625) scale(0.6 -0.6)">
     <use xlink:href="#DejaVuSans-43"/>
     <use xlink:href="#DejaVuSans-6f" transform="translate(69.824219 0)"/>
     <use xlink:href="#DejaVuSans-70" transform="translate(131.005859 0)"/>
     <use xlink:href="#DejaVuSans-79" transform="translate(194.482422 0)"/>
     <use xlink:href="#DejaVuSans-28" transform="translate(253.662109 0)"/>
     <use xlink:href="#DejaVuSans-54" transform="translate(292.675781 0)"/>
     <use xlink:href="#DejaVuSans-79" transform="translate(338.134766 0)"/>
     <use xlink:href="#DejaVuSans-28" transform="translate(397.314453 0)"/>
     <use xlink:href="#DejaVuSans-29" transform="translate(436.328125 0)"/>
     <use xlink:href="#DejaVuSans-2c" transform="translate(475.341797 0)"/>
     <use xlink:href="#DejaVuSans-20" transform="translate(507.128906 0)"/>
     <use xlink:href="#DejaVuSans-32" transform="translate(538.916016 0)"/>
     <use xlink:href="#DejaVuSans-29" transform="translate(602.539062 0)"/>
    </g>
   </g>
   <g id="text_22">
    <!-- Scalar -->
    <g transform="translate(47.423438 529.55625) scale(0.6 -0.6)">
     <use xlink:href="#DejaVuSans-53"/>
     <use xlink:href="#DejaVuSans-63" transform="translate(63.476562 0)"/>
     <use xlink:href="#DejaVuSans-61" transform="translate(118.457031 0)"/>
     <use xlink:href="#DejaVuSans-6c" transform="translate(179.736328 0)"/>
     <use xlink:href="#DejaVuSans-61" transform="translate(207.519531 0)"/>
     <use xlink:href="#DejaVuSans-72" transform="translate(268.798828 0)"/>
    </g>
   </g>
   <g id="text_23">
    <!-- Scalar -->
    <g transform="translate(103.583438 547.55625) scale(0.6 -0.6)">
     <use xlink:href="#DejaVuSans-53"/>
     <use xlink:href="#DejaVuSans-63" transform="translate(63.476562 0)"/>
     <use xlink:href="#DejaVuSans-61" transform="translate(118.457031 0)"/>
     <use xlink:href="#DejaVuSans-6c" transform="translate(179.736328 0)"/>
     <use xlink:href="#DejaVuSans-61" transform="translate(207.519531 0)"/>
     <use xlink:href="#DejaVuSans-72" transform="translate(268.798828 0)"/>
    </g>
   </g>
   <g id="text_24">
    <!-- Merge(Ty(), 2) -->
    <g transform="translate(-41.543437 565.55625) scale(0.6 -0.6)">
     <use xlink:href="#DejaVuSans-4d"/>
     <use xlink:href="#DejaVuSans-65" transform="translate(86.279297 0)"/>
     <use xlink:href="#DejaVuSans-72" transform="translate(147.802734 0)"/>
     <use xlink:href="#DejaVuSans-67" transform="translate(187.166016 0)"/>
     <use xlink:href="#DejaVuSans-65" transform="translate(250.642578 0)"/>
     <use xlink:href="#DejaVuSans-28" transform="translate(312.166016 0)"/>
     <use xlink:href="#DejaVuSans-54" transform="translate(351.179688 0)"/>
     <use xlink:href="#DejaVuSans-79" transform="translate(396.638672 0)"/>
     <use xlink:href="#DejaVuSans-28" transform="translate(455.818359 0)"/>
     <use xlink:href="#DejaVuSans-29" transform="translate(494.832031 0)"/>
     <use xlink:href="#DejaVuSans-2c" transform="translate(533.845703 0)"/>
     <use xlink:href="#DejaVuSans-20" transform="translate(565.632812 0)"/>
     <use xlink:href="#DejaVuSans-32" transform="translate(597.419922 0)"/>
     <use xlink:href="#DejaVuSans-29" transform="translate(661.042969 0)"/>
    </g>
   </g>
   <g id="text_25">
    <!-- awk -->
    <g transform="translate(164.349375 583.55625) scale(0.6 -0.6)">
     <defs>
      <path id="DejaVuSans-77" d="M 269 3500 
L 844 3500 
L 1563 769 
L 2278 3500 
L 2956 3500 
L 3675 769 
L 4391 3500 
L 4966 3500 
L 4050 0 
L 3372 0 
L 2619 2869 
L 1863 0 
L 1184 0 
L 269 3500 
z
" transform="scale(0.015625)"/>
      <path id="DejaVuSans-6b" d="M 581 4863 
L 1159 4863 
L 1159 1991 
L 2875 3500 
L 3609 3500 
L 1753 1863 
L 3688 0 
L 2938 0 
L 1159 1709 
L 1159 0 
L 581 0 
L 581 4863 
z
" transform="scale(0.015625)"/>
     </defs>
     <use xlink:href="#DejaVuSans-61"/>
     <use xlink:href="#DejaVuSans-77" transform="translate(61.279297 0)"/>
     <use xlink:href="#DejaVuSans-6b" transform="translate(143.066406 0)"/>
    </g>
   </g>
  </g>
 </g>
 <defs>
  <clipPath id="pfb9a1b0094">
   <rect x="0" y="0" width="280.8" height="594"/>
  </clipPath>
 </defs>
</svg>
