<?xml version="1.0" encoding="utf-8" standalone="no"?>
<!DOCTYPE svg PUBLIC "-//W3C//DTD SVG 1.1//EN"
  "http://www.w3.org/Graphics/SVG/1.1/DTD/svg11.dtd">
<svg xmlns:xlink="http://www.w3.org/1999/xlink" width="295.2pt" height="2088pt" viewBox="0 0 295.2 2088" xmlns="http://www.w3.org/2000/svg" version="1.1">
 <metadata>
  <rdf:RDF xmlns:dc="http://purl.org/dc/elements/1.1/" xmlns:cc="http://creativecommons.org/ns#" xmlns:rdf="http://www.w3.org/1999/02/22-rdf-syntax-ns#">
   <cc:Work>
    <dc:type rdf:resource="http://purl.org/dc/dcmitype/StillImage"/>
    <dc:date>2026-01-03T02:20:11.514621</dc:date>
    <dc:format>image/svg+xml</dc:format>
    <dc:creator>
     <cc:Agent>
      <dc:title>Matplotlib v3.10.7, https://matplotlib.org/</dc:title>
     </cc:Agent>
    </dc:creator>
   </cc:Work>
  </rdf:RDF>
 </metadata>
 <defs>
  <style type="text/css">*{stroke-linejoin: round; stroke-linecap: butt}</style>
 </defs>
 <g id="figure_1">
  <g id="patch_1">
   <path d="M 0 2088 
L 295.2 2088 
L 295.2 0 
L 0 0 
z
" style="fill: #ffffff"/>
  </g>
  <g id="axes_1">
   <g id="patch_2">
    <path d="M 0 2088 
L 295.2 2088 
L 295.2 0 
L 0 0 
z
" clip-path="url(#pbd0189c489)" style="fill: #ffffff; stroke: #ffffff; stroke-linejoin: miter"/>
   </g>
   <g id="patch_3">
    <path d="M 84.342857 37.285714 
Q 42.171429 37.285714 42.171429 55.928571 
" clip-path="url(#pbd0189c489)" style="fill: none; stroke: #000000; stroke-linejoin: miter"/>
   </g>
   <g id="patch_4">
    <path d="M 84.342857 37.285714 
Q 210.857143 37.285714 210.857143 55.928571 
" clip-path="url(#pbd0189c489)" style="fill: none; stroke: #000000; stroke-linejoin: miter"/>
   </g>
   <g id="patch_5">
    <path d="M 84.342857 0 
Q 84.342857 18.642857 84.342857 18.642857 
" clip-path="url(#pbd0189c489)" style="fill: none; stroke: #000000; stroke-linejoin: miter"/>
   </g>
   <g id="patch_6">
    <path d="M 84.342857 18.642857 
Q 84.342857 37.285714 84.342857 37.285714 
" clip-path="url(#pbd0189c489)" style="fill: none; stroke: #000000; stroke-linejoin: miter"/>
   </g>
   <g id="patch_7">
    <path d="M 42.171429 55.928571 
Q 42.171429 93.214286 42.171429 93.214286 
" clip-path="url(#pbd0189c489)" style="fill: none; stroke: #000000; stroke-linejoin: miter"/>
   </g>
   <g id="patch_8">
    <path d="M 210.857143 55.928571 
Q 210.857143 540.642857 210.857143 540.642857 
" clip-path="url(#pbd0189c489)" style="fill: none; stroke: #000000; stroke-linejoin: miter"/>
   </g>
   <g id="patch_9">
    <path d="M 42.171429 130.5 
Q 42.171429 167.785714 42.171429 167.785714 
" clip-path="url(#pbd0189c489)" style="fill: none; stroke: #000000; stroke-linejoin: miter"/>
   </g>
   <g id="patch_10">
    <path d="M 42.171429 167.785714 
Q 42.171429 186.428571 42.171429 186.428571 
" clip-path="url(#pbd0189c489)" style="fill: none; stroke: #000000; stroke-linejoin: miter"/>
   </g>
   <g id="patch_11">
    <path d="M 42.171429 354.214286 
Q 42.171429 466.071429 42.171429 466.071429 
" clip-path="url(#pbd0189c489)" style="fill: none; stroke: #000000; stroke-linejoin: miter"/>
   </g>
   <g id="patch_12">
    <path d="M 126.514286 428.785714 
Q 126.514286 466.071429 126.514286 466.071429 
" clip-path="url(#pbd0189c489)" style="fill: none; stroke: #000000; stroke-linejoin: miter"/>
   </g>
   <g id="patch_13">
    <path d="M 84.342857 484.714286 
Q 84.342857 484.714286 84.342857 503.357143 
" clip-path="url(#pbd0189c489)" style="fill: none; stroke: #000000; stroke-linejoin: miter"/>
   </g>
   <g id="patch_14">
    <path d="M 42.171429 466.071429 
Q 42.171429 484.714286 84.342857 484.714286 
" clip-path="url(#pbd0189c489)" style="fill: none; stroke: #000000; stroke-linejoin: miter"/>
   </g>
   <g id="patch_15">
    <path d="M 126.514286 466.071429 
Q 126.514286 484.714286 84.342857 484.714286 
" clip-path="url(#pbd0189c489)" style="fill: none; stroke: #000000; stroke-linejoin: miter"/>
   </g>
   <g id="patch_16">
    <path d="M 84.342857 503.357143 
Q 84.342857 988.071429 84.342857 988.071429 
" clip-path="url(#pbd0189c489)" style="fill: none; stroke: #000000; stroke-linejoin: miter"/>
   </g>
   <g id="patch_17">
    <path d="M 210.857143 577.928571 
Q 210.857143 615.214286 210.857143 615.214286 
" clip-path="url(#pbd0189c489)" style="fill: none; stroke: #000000; stroke-linejoin: miter"/>
   </g>
   <g id="patch_18">
    <path d="M 210.857143 615.214286 
Q 210.857143 633.857143 210.857143 633.857143 
" clip-path="url(#pbd0189c489)" style="fill: none; stroke: #000000; stroke-linejoin: miter"/>
   </g>
   <g id="patch_19">
    <path d="M 168.685714 801.642857 
Q 168.685714 913.5 168.685714 913.5 
" clip-path="url(#pbd0189c489)" style="fill: none; stroke: #000000; stroke-linejoin: miter"/>
   </g>
   <g id="patch_20">
    <path d="M 253.028571 876.214286 
Q 253.028571 913.5 253.028571 913.5 
" clip-path="url(#pbd0189c489)" style="fill: none; stroke: #000000; stroke-linejoin: miter"/>
   </g>
   <g id="patch_21">
    <path d="M 210.857143 932.142857 
Q 210.857143 932.142857 210.857143 950.785714 
" clip-path="url(#pbd0189c489)" style="fill: none; stroke: #000000; stroke-linejoin: miter"/>
   </g>
   <g id="patch_22">
    <path d="M 168.685714 913.5 
Q 168.685714 932.142857 210.857143 932.142857 
" clip-path="url(#pbd0189c489)" style="fill: none; stroke: #000000; stroke-linejoin: miter"/>
   </g>
   <g id="patch_23">
    <path d="M 253.028571 913.5 
Q 253.028571 932.142857 210.857143 932.142857 
" clip-path="url(#pbd0189c489)" style="fill: none; stroke: #000000; stroke-linejoin: miter"/>
   </g>
   <g id="patch_24">
    <path d="M 210.857143 950.785714 
Q 210.857143 988.071429 210.857143 988.071429 
" clip-path="url(#pbd0189c489)" style="fill: none; stroke: #000000; stroke-linejoin: miter"/>
   </g>
   <g id="patch_25">
    <path d="M 147.6 1006.714286 
Q 147.6 1006.714286 147.6 1025.357143 
" clip-path="url(#pbd0189c489)" style="fill: none; stroke: #000000; stroke-linejoin: miter"/>
   </g>
   <g id="patch_26">
    <path d="M 84.342857 988.071429 
Q 84.342857 1006.714286 147.6 1006.714286 
" clip-path="url(#pbd0189c489)" style="fill: none; stroke: #000000; stroke-linejoin: miter"/>
   </g>
   <g id="patch_27">
    <path d="M 210.857143 988.071429 
Q 210.857143 1006.714286 147.6 1006.714286 
" clip-path="url(#pbd0189c489)" style="fill: none; stroke: #000000; stroke-linejoin: miter"/>
   </g>
   <g id="patch_28">
    <path d="M 147.6 1025.357143 
Q 147.6 1062.642857 147.6 1062.642857 
" clip-path="url(#pbd0189c489)" style="fill: none; stroke: #000000; stroke-linejoin: miter"/>
   </g>
   <g id="patch_29">
    <path d="M 147.6 1081.285714 
Q 105.428571 1081.285714 105.428571 1099.928571 
" clip-path="url(#pbd0189c489)" style="fill: none; stroke: #000000; stroke-linejoin: miter"/>
   </g>
   <g id="patch_30">
    <path d="M 147.6 1081.285714 
Q 189.771429 1081.285714 189.771429 1099.928571 
" clip-path="url(#pbd0189c489)" style="fill: none; stroke: #000000; stroke-linejoin: miter"/>
   </g>
   <g id="patch_31">
    <path d="M 147.6 1062.642857 
Q 147.6 1081.285714 147.6 1081.285714 
" clip-path="url(#pbd0189c489)" style="fill: none; stroke: #000000; stroke-linejoin: miter"/>
   </g>
   <g id="patch_32">
    <path d="M 105.428571 1099.928571 
Q 105.428571 1137.214286 105.428571 1137.214286 
" clip-path="url(#pbd0189c489)" style="fill: none; stroke: #000000; stroke-linejoin: miter"/>
   </g>
   <g id="patch_33">
    <path d="M 189.771429 1099.928571 
Q 189.771429 1286.357143 189.771429 1286.357143 
" clip-path="url(#pbd0189c489)" style="fill: none; stroke: #000000; stroke-linejoin: miter"/>
   </g>
   <g id="patch_34">
    <path d="M 105.428571 1137.214286 
Q 105.428571 1155.857143 105.428571 1155.857143 
" clip-path="url(#pbd0189c489)" style="fill: none; stroke: #000000; stroke-linejoin: miter"/>
   </g>
   <g id="patch_35">
    <path d="M 105.428571 1249.071429 
Q 105.428571 1435.5 105.428571 1435.5 
" clip-path="url(#pbd0189c489)" style="fill: none; stroke: #000000; stroke-linejoin: miter"/>
   </g>
   <g id="patch_36">
    <path d="M 189.771429 1286.357143 
Q 189.771429 1305 189.771429 1305 
" clip-path="url(#pbd0189c489)" style="fill: none; stroke: #000000; stroke-linejoin: miter"/>
   </g>
   <g id="patch_37">
    <path d="M 189.771429 1398.214286 
Q 189.771429 1435.5 189.771429 1435.5 
" clip-path="url(#pbd0189c489)" style="fill: none; stroke: #000000; stroke-linejoin: miter"/>
   </g>
   <g id="patch_38">
    <path d="M 147.6 1454.142857 
Q 147.6 1454.142857 147.6 1472.785714 
" clip-path="url(#pbd0189c489)" style="fill: none; stroke: #000000; stroke-linejoin: miter"/>
   </g>
   <g id="patch_39">
    <path d="M 105.428571 1435.5 
Q 105.428571 1454.142857 147.6 1454.142857 
" clip-path="url(#pbd0189c489)" style="fill: none; stroke: #000000; stroke-linejoin: miter"/>
   </g>
   <g id="patch_40">
    <path d="M 189.771429 1435.5 
Q 189.771429 1454.142857 147.6 1454.142857 
" clip-path="url(#pbd0189c489)" style="fill: none; stroke: #000000; stroke-linejoin: miter"/>
   </g>
   <g id="patch_41">
    <path d="M 147.6 1472.785714 
Q 147.6 1510.071429 147.6 1510.071429 
" clip-path="url(#pbd0189c489)" style="fill: none; stroke: #000000; stroke-linejoin: miter"/>
   </g>
   <g id="patch_42">
    <path d="M 147.6 1528.714286 
Q 147.6 1528.714286 147.6 1547.357143 
" clip-path="url(#pbd0189c489)" style="fill: none; stroke: #000000; stroke-linejoin: miter"/>
   </g>
   <g id="patch_43">
    <path d="M 147.6 1510.071429 
Q 147.6 1528.714286 147.6 1528.714286 
" clip-path="url(#pbd0189c489)" style="fill: none; stroke: #000000; stroke-linejoin: miter"/>
   </g>
   <g id="patch_44">
    <path d="M 147.6 1547.357143 
Q 147.6 1584.642857 147.6 1584.642857 
" clip-path="url(#pbd0189c489)" style="fill: none; stroke: #000000; stroke-linejoin: miter"/>
   </g>
   <g id="patch_45">
    <path d="M 147.6 1584.642857 
Q 147.6 1603.285714 147.6 1603.285714 
" clip-path="url(#pbd0189c489)" style="fill: none; stroke: #000000; stroke-linejoin: miter"/>
   </g>
   <g id="patch_46">
    <path d="M 42.171429 1696.5 
Q 42.171429 1733.785714 42.171429 1733.785714 
" clip-path="url(#pbd0189c489)" style="fill: none; stroke: #000000; stroke-linejoin: miter"/>
   </g>
   <g id="patch_47">
    <path d="M 42.171429 1752.428571 
Q 42.171429 1752.428571 42.171429 1771.071429 
" clip-path="url(#pbd0189c489)" style="fill: none; stroke: #000000; stroke-linejoin: miter"/>
   </g>
   <g id="patch_48">
    <path d="M 42.171429 1733.785714 
Q 42.171429 1752.428571 42.171429 1752.428571 
" clip-path="url(#pbd0189c489)" style="fill: none; stroke: #000000; stroke-linejoin: miter"/>
   </g>
   <g id="patch_49">
    <path d="M 42.171429 1771.071429 
Q 42.171429 1808.357143 42.171429 1808.357143 
" clip-path="url(#pbd0189c489)" style="fill: none; stroke: #000000; stroke-linejoin: miter"/>
   </g>
   <g id="patch_50">
    <path d="M 42.171429 1827 
Q 42.171429 1827 42.171429 1845.642857 
" clip-path="url(#pbd0189c489)" style="fill: none; stroke: #000000; stroke-linejoin: miter"/>
   </g>
   <g id="patch_51">
    <path d="M 42.171429 1808.357143 
Q 42.171429 1827 42.171429 1827 
" clip-path="url(#pbd0189c489)" style="fill: none; stroke: #000000; stroke-linejoin: miter"/>
   </g>
   <g id="patch_52">
    <path d="M 42.171429 1845.642857 
Q 42.171429 1882.928571 42.171429 1882.928571 
" clip-path="url(#pbd0189c489)" style="fill: none; stroke: #000000; stroke-linejoin: miter"/>
   </g>
   <g id="patch_53">
    <path d="M 42.171429 1882.928571 
Q 42.171429 1901.571429 42.171429 1901.571429 
" clip-path="url(#pbd0189c489)" style="fill: none; stroke: #000000; stroke-linejoin: miter"/>
   </g>
   <g id="patch_54">
    <path d="M 42.171429 1994.785714 
Q 42.171429 2032.071429 42.171429 2032.071429 
" clip-path="url(#pbd0189c489)" style="fill: none; stroke: #000000; stroke-linejoin: miter"/>
   </g>
   <g id="patch_55">
    <path d="M 42.171429 2050.714286 
Q 42.171429 2050.714286 42.171429 2069.357143 
" clip-path="url(#pbd0189c489)" style="fill: none; stroke: #000000; stroke-linejoin: miter"/>
   </g>
   <g id="patch_56">
    <path d="M 42.171429 2032.071429 
Q 42.171429 2050.714286 42.171429 2050.714286 
" clip-path="url(#pbd0189c489)" style="fill: none; stroke: #000000; stroke-linejoin: miter"/>
   </g>
   <g id="patch_57">
    <path d="M 42.171429 2069.357143 
Q 42.171429 2088 42.171429 2088 
" clip-path="url(#pbd0189c489)" style="fill: none; stroke: #000000; stroke-linejoin: miter"/>
   </g>
   <g id="patch_58">
    <path d="M 21.085714 130.5 
L 21.085714 93.214286 
L 63.257143 93.214286 
L 63.257143 130.5 
z
" clip-path="url(#pbd0189c489)" style="fill: #ffffff; stroke: #000000; stroke-linejoin: miter"/>
   </g>
   <g id="patch_59">
    <path d="M 21.085714 354.214286 
L 21.085714 316.928571 
L 63.257143 316.928571 
L 63.257143 354.214286 
z
" clip-path="url(#pbd0189c489)" style="fill: #ffffff; stroke: #000000; stroke-linejoin: miter"/>
   </g>
   <g id="patch_60">
    <path d="M 105.428571 428.785714 
L 105.428571 391.5 
L 147.6 391.5 
L 147.6 428.785714 
z
" clip-path="url(#pbd0189c489)" style="fill: #ffffff; stroke: #000000; stroke-linejoin: miter"/>
   </g>
   <g id="patch_61">
    <path d="M 189.771429 577.928571 
L 189.771429 540.642857 
L 231.942857 540.642857 
L 231.942857 577.928571 
z
" clip-path="url(#pbd0189c489)" style="fill: #ffffff; stroke: #000000; stroke-linejoin: miter"/>
   </g>
   <g id="patch_62">
    <path d="M 147.6 801.642857 
L 147.6 764.357143 
L 189.771429 764.357143 
L 189.771429 801.642857 
z
" clip-path="url(#pbd0189c489)" style="fill: #ffffff; stroke: #000000; stroke-linejoin: miter"/>
   </g>
   <g id="patch_63">
    <path d="M 231.942857 876.214286 
L 231.942857 838.928571 
L 274.114286 838.928571 
L 274.114286 876.214286 
z
" clip-path="url(#pbd0189c489)" style="fill: #ffffff; stroke: #000000; stroke-linejoin: miter"/>
   </g>
   <g id="patch_64">
    <path d="M 84.342857 1249.071429 
L 84.342857 1211.785714 
L 126.514286 1211.785714 
L 126.514286 1249.071429 
z
" clip-path="url(#pbd0189c489)" style="fill: #ffffff; stroke: #000000; stroke-linejoin: miter"/>
   </g>
   <g id="patch_65">
    <path d="M 168.685714 1398.214286 
L 168.685714 1360.928571 
L 210.857143 1360.928571 
L 210.857143 1398.214286 
z
" clip-path="url(#pbd0189c489)" style="fill: #ffffff; stroke: #000000; stroke-linejoin: miter"/>
   </g>
   <g id="patch_66">
    <path d="M 21.085714 1696.5 
L 21.085714 1659.214286 
L 63.257143 1659.214286 
L 63.257143 1696.5 
z
" clip-path="url(#pbd0189c489)" style="fill: #ffffff; stroke: #000000; stroke-linejoin: miter"/>
   </g>
   <g id="patch_67">
    <path d="M 21.085714 1994.785714 
L 21.085714 1957.5 
L 63.257143 1957.5 
L 63.257143 1994.785714 
z
" clip-path="url(#pbd0189c489)" style="fill: #ffffff; stroke: #000000; stroke-linejoin: miter"/>
   </g>
   <g id="PathCollection_1">
    <defs>
     <path id="C0_0_f980c2ae1c" d="M 0 3.76497 
C 0.998482 3.76497 1.956203 3.368269 2.662236 2.662236 
C 3.368269 1.956203 3.76497 0.998482 3.76497 -0 
C 3.76497 -0.998482 3.368269 -1.956203 2.662236 -2.662236 
C 1.956203 -3.368269 0.998482 -3.76497 0 -3.76497 
C -0.998482 -3.76497 -1.956203 -3.368269 -2.662236 -2.662236 
C -3.368269 -1.956203 -3.76497 -0.998482 -3.76497 0 
C -3.76497 0.998482 -3.368269 1.956203 -2.662236 2.662236 
C -1.956203 3.368269 -0.998482 3.76497 0 3.76497 
z
"/>
    </defs>
    <g clip-path="url(#pbd0189c489)">
     <use xlink:href="#C0_0_f980c2ae1c" x="84.342857" y="484.714286" style="fill: #d8f8d8; stroke: #d8f8d8"/>
    </g>
    <g clip-path="url(#pbd0189c489)">
     <use xlink:href="#C0_0_f980c2ae1c" x="42.171429" y="1752.428571" style="fill: #d8f8d8; stroke: #d8f8d8"/>
    </g>
    <g clip-path="url(#pbd0189c489)">
     <use xlink:href="#C0_0_f980c2ae1c" x="210.857143" y="633.857143" style="fill: #ffffff; stroke: #ffffff"/>
    </g>
    <g clip-path="url(#pbd0189c489)">
     <use xlink:href="#C0_0_f980c2ae1c" x="147.6" y="1006.714286" style="fill: #d8f8d8; stroke: #d8f8d8"/>
    </g>
    <g clip-path="url(#pbd0189c489)">
     <use xlink:href="#C0_0_f980c2ae1c" x="147.6" y="1454.142857" style="fill: #d8f8d8; stroke: #d8f8d8"/>
    </g>
    <g clip-path="url(#pbd0189c489)">
     <use xlink:href="#C0_0_f980c2ae1c" x="189.771429" y="1305" style="fill: #ffffff; stroke: #ffffff"/>
    </g>
    <g clip-path="url(#pbd0189c489)">
     <use xlink:href="#C0_0_f980c2ae1c" x="147.6" y="1603.285714" style="fill: #ffffff; stroke: #ffffff"/>
    </g>
    <g clip-path="url(#pbd0189c489)">
     <use xlink:href="#C0_0_f980c2ae1c" x="210.857143" y="932.142857" style="fill: #d8f8d8; stroke: #d8f8d8"/>
    </g>
    <g clip-path="url(#pbd0189c489)">
     <use xlink:href="#C0_0_f980c2ae1c" x="42.171429" y="261" style="fill: #d8f8d8; stroke: #d8f8d8"/>
    </g>
    <g clip-path="url(#pbd0189c489)">
     <use xlink:href="#C0_0_f980c2ae1c" x="147.6" y="1528.714286" style="fill: #d8f8d8; stroke: #d8f8d8"/>
    </g>
    <g clip-path="url(#pbd0189c489)">
     <use xlink:href="#C0_0_f980c2ae1c" x="42.171429" y="186.428571" style="fill: #ffffff; stroke: #ffffff"/>
    </g>
    <g clip-path="url(#pbd0189c489)">
     <use xlink:href="#C0_0_f980c2ae1c" x="105.428571" y="1155.857143" style="fill: #ffffff; stroke: #ffffff"/>
    </g>
    <g clip-path="url(#pbd0189c489)">
     <use xlink:href="#C0_0_f980c2ae1c" x="42.171429" y="2050.714286" style="fill: #d8f8d8; stroke: #d8f8d8"/>
    </g>
    <g clip-path="url(#pbd0189c489)">
     <use xlink:href="#C0_0_f980c2ae1c" x="147.6" y="1081.285714" style="fill: #d8f8d8; stroke: #d8f8d8"/>
    </g>
    <g clip-path="url(#pbd0189c489)">
     <use xlink:href="#C0_0_f980c2ae1c" x="168.685714" y="708.428571" style="fill: #d8f8d8; stroke: #d8f8d8"/>
    </g>
    <g clip-path="url(#pbd0189c489)">
     <use xlink:href="#C0_0_f980c2ae1c" x="42.171429" y="1827" style="fill: #d8f8d8; stroke: #d8f8d8"/>
    </g>
    <g clip-path="url(#pbd0189c489)">
     <use xlink:href="#C0_0_f980c2ae1c" x="42.171429" y="1901.571429" style="fill: #ffffff; stroke: #ffffff"/>
    </g>
    <g clip-path="url(#pbd0189c489)">
     <use xlink:href="#C0_0_f980c2ae1c" x="84.342857" y="37.285714" style="fill: #d8f8d8; stroke: #d8f8d8"/>
    </g>
   </g>
   <g id="text_1">
    <!-- crack egg -->
    <g transform="translate(17.644085 114.616518) scale(0.1 -0.1)">
     <defs>
      <path id="DejaVuSans-63" d="M 3122 3366 
L 3122 2828 
Q 2878 2963 2633 3030 
Q 2388 3097 2138 3097 
Q 1578 3097 1268 2742 
Q 959 2388 959 1747 
Q 959 1106 1268 751 
Q 1578 397 2138 397 
Q 2388 397 2633 464 
Q 2878 531 3122 666 
L 3122 134 
Q 2881 22 2623 -34 
Q 2366 -91 2075 -91 
Q 1284 -91 818 406 
Q 353 903 353 1747 
Q 353 2603 823 3093 
Q 1294 3584 2113 3584 
Q 2378 3584 2631 3529 
Q 2884 3475 3122 3366 
z
" transform="scale(0.015625)"/>
      <path id="DejaVuSans-72" d="M 2631 2963 
Q 2534 3019 2420 3045 
Q 2306 3072 2169 3072 
Q 1681 3072 1420 2755 
Q 1159 2438 1159 1844 
L 1159 0 
L 581 0 
L 581 3500 
L 1159 3500 
L 1159 2956 
Q 1341 3275 1631 3429 
Q 1922 3584 2338 3584 
Q 2397 3584 2469 3576 
Q 2541 3569 2628 3553 
L 2631 2963 
z
" transform="scale(0.015625)"/>
      <path id="DejaVuSans-61" d="M 2194 1759 
Q 1497 1759 1228 1600 
Q 959 1441 959 1056 
Q 959 750 1161 570 
Q 1363 391 1709 391 
Q 2188 391 2477 730 
Q 2766 1069 2766 1631 
L 2766 1759 
L 2194 1759 
z
M 3341 1997 
L 3341 0 
L 2766 0 
L 2766 531 
Q 2569 213 2275 61 
Q 1981 -91 1556 -91 
Q 1019 -91 701 211 
Q 384 513 384 1019 
Q 384 1609 779 1909 
Q 1175 2209 1959 2209 
L 2766 2209 
L 2766 2266 
Q 2766 2663 2505 2880 
Q 2244 3097 1772 3097 
Q 1472 3097 1187 3025 
Q 903 2953 641 2809 
L 641 3341 
Q 956 3463 1253 3523 
Q 1550 3584 1831 3584 
Q 2591 3584 2966 3190 
Q 3341 2797 3341 1997 
z
" transform="scale(0.015625)"/>
      <path id="DejaVuSans-6b" d="M 581 4863 
L 1159 4863 
L 1159 1991 
L 2875 3500 
L 3609 3500 
L 1753 1863 
L 3688 0 
L 2938 0 
L 1159 1709 
L 1159 0 
L 581 0 
L 581 4863 
z
" transform="scale(0.015625)"/>
      <path id="DejaVuSans-20" transform="scale(0.015625)"/>
      <path id="DejaVuSans-65" d="M 3597 1894 
L 3597 1613 
L 953 1613 
Q 991 1019 1311 708 
Q 1631 397 2203 397 
Q 2534 397 2845 478 
Q 3156 559 3463 722 
L 3463 178 
Q 3153 47 2828 -22 
Q 2503 -91 2169 -91 
Q 1331 -91 842 396 
Q 353 884 353 1716 
Q 353 2575 817 3079 
Q 1281 3584 2069 3584 
Q 2775 3584 3186 3129 
Q 3597 2675 3597 1894 
z
M 3022 2063 
Q 3016 2534 2758 2815 
Q 2500 3097 2075 3097 
Q 1594 3097 1305 2825 
Q 1016 2553 972 2059 
L 3022 2063 
z
" transform="scale(0.015625)"/>
      <path id="DejaVuSans-67" d="M 2906 1791 
Q 2906 2416 2648 2759 
Q 2391 3103 1925 3103 
Q 1463 3103 1205 2759 
Q 947 2416 947 1791 
Q 947 1169 1205 825 
Q 1463 481 1925 481 
Q 2391 481 2648 825 
Q 2906 1169 2906 1791 
z
M 3481 434 
Q 3481 -459 3084 -895 
Q 2688 -1331 1869 -1331 
Q 1566 -1331 1297 -1286 
Q 1028 -1241 775 -1147 
L 775 -588 
Q 1028 -725 1275 -790 
Q 1522 -856 1778 -856 
Q 2344 -856 2625 -561 
Q 2906 -266 2906 331 
L 2906 616 
Q 2728 306 2450 153 
Q 2172 0 1784 0 
Q 1141 0 747 490 
Q 353 981 353 1791 
Q 353 2603 747 3093 
Q 1141 3584 1784 3584 
Q 2172 3584 2450 3431 
Q 2728 3278 2906 2969 
L 2906 3500 
L 3481 3500 
L 3481 434 
z
" transform="scale(0.015625)"/>
     </defs>
     <use xlink:href="#DejaVuSans-63"/>
     <use xlink:href="#DejaVuSans-72" transform="translate(54.980469 0)"/>
     <use xlink:href="#DejaVuSans-61" transform="translate(96.09375 0)"/>
     <use xlink:href="#DejaVuSans-63" transform="translate(157.373047 0)"/>
     <use xlink:href="#DejaVuSans-6b" transform="translate(212.353516 0)"/>
     <use xlink:href="#DejaVuSans-20" transform="translate(270.263672 0)"/>
     <use xlink:href="#DejaVuSans-65" transform="translate(302.050781 0)"/>
     <use xlink:href="#DejaVuSans-67" transform="translate(363.574219 0)"/>
     <use xlink:href="#DejaVuSans-67" transform="translate(427.050781 0)"/>
    </g>
   </g>
   <g id="text_2">
    <!-- white -->
    <g transform="translate(28.487835 338.330804) scale(0.1 -0.1)">
     <defs>
      <path id="DejaVuSans-77" d="M 269 3500 
L 844 3500 
L 1563 769 
L 2278 3500 
L 2956 3500 
L 3675 769 
L 4391 3500 
L 4966 3500 
L 4050 0 
L 3372 0 
L 2619 2869 
L 1863 0 
L 1184 0 
L 269 3500 
z
" transform="scale(0.015625)"/>
      <path id="DejaVuSans-68" d="M 3513 2113 
L 3513 0 
L 2938 0 
L 2938 2094 
Q 2938 2591 2744 2837 
Q 2550 3084 2163 3084 
Q 1697 3084 1428 2787 
Q 1159 2491 1159 1978 
L 1159 0 
L 581 0 
L 581 4863 
L 1159 4863 
L 1159 2956 
Q 1366 3272 1645 3428 
Q 1925 3584 2291 3584 
Q 2894 3584 3203 3211 
Q 3513 2838 3513 2113 
z
" transform="scale(0.015625)"/>
      <path id="DejaVuSans-69" d="M 603 3500 
L 1178 3500 
L 1178 0 
L 603 0 
L 603 3500 
z
M 603 4863 
L 1178 4863 
L 1178 4134 
L 603 4134 
L 603 4863 
z
" transform="scale(0.015625)"/>
      <path id="DejaVuSans-74" d="M 1172 4494 
L 1172 3500 
L 2356 3500 
L 2356 3053 
L 1172 3053 
L 1172 1153 
Q 1172 725 1289 603 
Q 1406 481 1766 481 
L 2356 481 
L 2356 0 
L 1766 0 
Q 1100 0 847 248 
Q 594 497 594 1153 
L 594 3053 
L 172 3053 
L 172 3500 
L 594 3500 
L 594 4494 
L 1172 4494 
z
" transform="scale(0.015625)"/>
     </defs>
     <use xlink:href="#DejaVuSans-77"/>
     <use xlink:href="#DejaVuSans-68" transform="translate(81.787109 0)"/>
     <use xlink:href="#DejaVuSans-69" transform="translate(145.166016 0)"/>
     <use xlink:href="#DejaVuSans-74" transform="translate(172.949219 0)"/>
     <use xlink:href="#DejaVuSans-65" transform="translate(212.158203 0)"/>
    </g>
   </g>
   <g id="text_3">
    <!-- yolk -->
    <g transform="translate(116.211161 412.902232) scale(0.1 -0.1)">
     <defs>
      <path id="DejaVuSans-79" d="M 2059 -325 
Q 1816 -950 1584 -1140 
Q 1353 -1331 966 -1331 
L 506 -1331 
L 506 -850 
L 844 -850 
Q 1081 -850 1212 -737 
Q 1344 -625 1503 -206 
L 1606 56 
L 191 3500 
L 800 3500 
L 1894 763 
L 2988 3500 
L 3597 3500 
L 2059 -325 
z
" transform="scale(0.015625)"/>
      <path id="DejaVuSans-6f" d="M 1959 3097 
Q 1497 3097 1228 2736 
Q 959 2375 959 1747 
Q 959 1119 1226 758 
Q 1494 397 1959 397 
Q 2419 397 2687 759 
Q 2956 1122 2956 1747 
Q 2956 2369 2687 2733 
Q 2419 3097 1959 3097 
z
M 1959 3584 
Q 2709 3584 3137 3096 
Q 3566 2609 3566 1747 
Q 3566 888 3137 398 
Q 2709 -91 1959 -91 
Q 1206 -91 779 398 
Q 353 888 353 1747 
Q 353 2609 779 3096 
Q 1206 3584 1959 3584 
z
" transform="scale(0.015625)"/>
      <path id="DejaVuSans-6c" d="M 603 4863 
L 1178 4863 
L 1178 0 
L 603 0 
L 603 4863 
z
" transform="scale(0.015625)"/>
     </defs>
     <use xlink:href="#DejaVuSans-79"/>
     <use xlink:href="#DejaVuSans-6f" transform="translate(59.179688 0)"/>
     <use xlink:href="#DejaVuSans-6c" transform="translate(120.361328 0)"/>
     <use xlink:href="#DejaVuSans-6b" transform="translate(148.144531 0)"/>
    </g>
   </g>
   <g id="text_4">
    <!-- crack egg -->
    <g transform="translate(186.329799 562.045089) scale(0.1 -0.1)">
     <use xlink:href="#DejaVuSans-63"/>
     <use xlink:href="#DejaVuSans-72" transform="translate(54.980469 0)"/>
     <use xlink:href="#DejaVuSans-61" transform="translate(96.09375 0)"/>
     <use xlink:href="#DejaVuSans-63" transform="translate(157.373047 0)"/>
     <use xlink:href="#DejaVuSans-6b" transform="translate(212.353516 0)"/>
     <use xlink:href="#DejaVuSans-20" transform="translate(270.263672 0)"/>
     <use xlink:href="#DejaVuSans-65" transform="translate(302.050781 0)"/>
     <use xlink:href="#DejaVuSans-67" transform="translate(363.574219 0)"/>
     <use xlink:href="#DejaVuSans-67" transform="translate(427.050781 0)"/>
    </g>
   </g>
   <g id="text_5">
    <!-- white -->
    <g transform="translate(155.002121 785.759375) scale(0.1 -0.1)">
     <use xlink:href="#DejaVuSans-77"/>
     <use xlink:href="#DejaVuSans-68" transform="translate(81.787109 0)"/>
     <use xlink:href="#DejaVuSans-69" transform="translate(145.166016 0)"/>
     <use xlink:href="#DejaVuSans-74" transform="translate(172.949219 0)"/>
     <use xlink:href="#DejaVuSans-65" transform="translate(212.158203 0)"/>
    </g>
   </g>
   <g id="text_6">
    <!-- yolk -->
    <g transform="translate(242.725446 860.330804) scale(0.1 -0.1)">
     <use xlink:href="#DejaVuSans-79"/>
     <use xlink:href="#DejaVuSans-6f" transform="translate(59.179688 0)"/>
     <use xlink:href="#DejaVuSans-6c" transform="translate(120.361328 0)"/>
     <use xlink:href="#DejaVuSans-6b" transform="translate(148.144531 0)"/>
    </g>
   </g>
   <g id="text_7">
    <!-- whisked whites -->
    <g transform="translate(67.334821 1233.187946) scale(0.1 -0.1)">
     <defs>
      <path id="DejaVuSans-73" d="M 2834 3397 
L 2834 2853 
Q 2591 2978 2328 3040 
Q 2066 3103 1784 3103 
Q 1356 3103 1142 2972 
Q 928 2841 928 2578 
Q 928 2378 1081 2264 
Q 1234 2150 1697 2047 
L 1894 2003 
Q 2506 1872 2764 1633 
Q 3022 1394 3022 966 
Q 3022 478 2636 193 
Q 2250 -91 1575 -91 
Q 1294 -91 989 -36 
Q 684 19 347 128 
L 347 722 
Q 666 556 975 473 
Q 1284 391 1588 391 
Q 1994 391 2212 530 
Q 2431 669 2431 922 
Q 2431 1156 2273 1281 
Q 2116 1406 1581 1522 
L 1381 1569 
Q 847 1681 609 1914 
Q 372 2147 372 2553 
Q 372 3047 722 3315 
Q 1072 3584 1716 3584 
Q 2034 3584 2315 3537 
Q 2597 3491 2834 3397 
z
" transform="scale(0.015625)"/>
      <path id="DejaVuSans-64" d="M 2906 2969 
L 2906 4863 
L 3481 4863 
L 3481 0 
L 2906 0 
L 2906 525 
Q 2725 213 2448 61 
Q 2172 -91 1784 -91 
Q 1150 -91 751 415 
Q 353 922 353 1747 
Q 353 2572 751 3078 
Q 1150 3584 1784 3584 
Q 2172 3584 2448 3432 
Q 2725 3281 2906 2969 
z
M 947 1747 
Q 947 1113 1208 752 
Q 1469 391 1925 391 
Q 2381 391 2643 752 
Q 2906 1113 2906 1747 
Q 2906 2381 2643 2742 
Q 2381 3103 1925 3103 
Q 1469 3103 1208 2742 
Q 947 2381 947 1747 
z
" transform="scale(0.015625)"/>
     </defs>
     <use xlink:href="#DejaVuSans-77"/>
     <use xlink:href="#DejaVuSans-68" transform="translate(81.787109 0)"/>
     <use xlink:href="#DejaVuSans-69" transform="translate(145.166016 0)"/>
     <use xlink:href="#DejaVuSans-73" transform="translate(172.949219 0)"/>
     <use xlink:href="#DejaVuSans-6b" transform="translate(225.048828 0)"/>
     <use xlink:href="#DejaVuSans-65" transform="translate(279.333984 0)"/>
     <use xlink:href="#DejaVuSans-64" transform="translate(340.857422 0)"/>
     <use xlink:href="#DejaVuSans-20" transform="translate(404.333984 0)"/>
     <use xlink:href="#DejaVuSans-77" transform="translate(436.121094 0)"/>
     <use xlink:href="#DejaVuSans-68" transform="translate(517.908203 0)"/>
     <use xlink:href="#DejaVuSans-69" transform="translate(581.287109 0)"/>
     <use xlink:href="#DejaVuSans-74" transform="translate(609.070312 0)"/>
     <use xlink:href="#DejaVuSans-65" transform="translate(648.279297 0)"/>
     <use xlink:href="#DejaVuSans-73" transform="translate(709.802734 0)"/>
    </g>
   </g>
   <g id="text_8">
    <!-- yolky paste -->
    <g transform="translate(161.221429 1382.330804) scale(0.1 -0.1)">
     <defs>
      <path id="DejaVuSans-70" d="M 1159 525 
L 1159 -1331 
L 581 -1331 
L 581 3500 
L 1159 3500 
L 1159 2969 
Q 1341 3281 1617 3432 
Q 1894 3584 2278 3584 
Q 2916 3584 3314 3078 
Q 3713 2572 3713 1747 
Q 3713 922 3314 415 
Q 2916 -91 2278 -91 
Q 1894 -91 1617 61 
Q 1341 213 1159 525 
z
M 3116 1747 
Q 3116 2381 2855 2742 
Q 2594 3103 2138 3103 
Q 1681 3103 1420 2742 
Q 1159 2381 1159 1747 
Q 1159 1113 1420 752 
Q 1681 391 2138 391 
Q 2594 391 2855 752 
Q 3116 1113 3116 1747 
z
" transform="scale(0.015625)"/>
     </defs>
     <use xlink:href="#DejaVuSans-79"/>
     <use xlink:href="#DejaVuSans-6f" transform="translate(59.179688 0)"/>
     <use xlink:href="#DejaVuSans-6c" transform="translate(120.361328 0)"/>
     <use xlink:href="#DejaVuSans-6b" transform="translate(148.144531 0)"/>
     <use xlink:href="#DejaVuSans-79" transform="translate(202.429688 0)"/>
     <use xlink:href="#DejaVuSans-20" transform="translate(261.609375 0)"/>
     <use xlink:href="#DejaVuSans-70" transform="translate(293.396484 0)"/>
     <use xlink:href="#DejaVuSans-61" transform="translate(356.873047 0)"/>
     <use xlink:href="#DejaVuSans-73" transform="translate(418.152344 0)"/>
     <use xlink:href="#DejaVuSans-74" transform="translate(470.251953 0)"/>
     <use xlink:href="#DejaVuSans-65" transform="translate(509.460938 0)"/>
    </g>
   </g>
   <g id="text_9">
    <!-- thick paste -->
    <g transform="translate(14.540179 1680.616518) scale(0.1 -0.1)">
     <use xlink:href="#DejaVuSans-74"/>
     <use xlink:href="#DejaVuSans-68" transform="translate(39.208984 0)"/>
     <use xlink:href="#DejaVuSans-69" transform="translate(102.587891 0)"/>
     <use xlink:href="#DejaVuSans-63" transform="translate(130.371094 0)"/>
     <use xlink:href="#DejaVuSans-6b" transform="translate(185.351562 0)"/>
     <use xlink:href="#DejaVuSans-20" transform="translate(243.261719 0)"/>
     <use xlink:href="#DejaVuSans-70" transform="translate(275.048828 0)"/>
     <use xlink:href="#DejaVuSans-61" transform="translate(338.525391 0)"/>
     <use xlink:href="#DejaVuSans-73" transform="translate(399.804688 0)"/>
     <use xlink:href="#DejaVuSans-74" transform="translate(451.904297 0)"/>
     <use xlink:href="#DejaVuSans-65" transform="translate(491.113281 0)"/>
    </g>
   </g>
   <g id="text_10">
    <!-- crema di mascarpone -->
    <g transform="translate(-12.159821 1978.902232) scale(0.1 -0.1)">
     <defs>
      <path id="DejaVuSans-6d" d="M 3328 2828 
Q 3544 3216 3844 3400 
Q 4144 3584 4550 3584 
Q 5097 3584 5394 3201 
Q 5691 2819 5691 2113 
L 5691 0 
L 5113 0 
L 5113 2094 
Q 5113 2597 4934 2840 
Q 4756 3084 4391 3084 
Q 3944 3084 3684 2787 
Q 3425 2491 3425 1978 
L 3425 0 
L 2847 0 
L 2847 2094 
Q 2847 2600 2669 2842 
Q 2491 3084 2119 3084 
Q 1678 3084 1418 2786 
Q 1159 2488 1159 1978 
L 1159 0 
L 581 0 
L 581 3500 
L 1159 3500 
L 1159 2956 
Q 1356 3278 1631 3431 
Q 1906 3584 2284 3584 
Q 2666 3584 2933 3390 
Q 3200 3197 3328 2828 
z
" transform="scale(0.015625)"/>
      <path id="DejaVuSans-6e" d="M 3513 2113 
L 3513 0 
L 2938 0 
L 2938 2094 
Q 2938 2591 2744 2837 
Q 2550 3084 2163 3084 
Q 1697 3084 1428 2787 
Q 1159 2491 1159 1978 
L 1159 0 
L 581 0 
L 581 3500 
L 1159 3500 
L 1159 2956 
Q 1366 3272 1645 3428 
Q 1925 3584 2291 3584 
Q 2894 3584 3203 3211 
Q 3513 2838 3513 2113 
z
" transform="scale(0.015625)"/>
     </defs>
     <use xlink:href="#DejaVuSans-63"/>
     <use xlink:href="#DejaVuSans-72" transform="translate(54.980469 0)"/>
     <use xlink:href="#DejaVuSans-65" transform="translate(93.84375 0)"/>
     <use xlink:href="#DejaVuSans-6d" transform="translate(155.367188 0)"/>
     <use xlink:href="#DejaVuSans-61" transform="translate(252.779297 0)"/>
     <use xlink:href="#DejaVuSans-20" transform="translate(314.058594 0)"/>
     <use xlink:href="#DejaVuSans-64" transform="translate(345.845703 0)"/>
     <use xlink:href="#DejaVuSans-69" transform="translate(409.322266 0)"/>
     <use xlink:href="#DejaVuSans-20" transform="translate(437.105469 0)"/>
     <use xlink:href="#DejaVuSans-6d" transform="translate(468.892578 0)"/>
     <use xlink:href="#DejaVuSans-61" transform="translate(566.304688 0)"/>
     <use xlink:href="#DejaVuSans-73" transform="translate(627.583984 0)"/>
     <use xlink:href="#DejaVuSans-63" transform="translate(679.683594 0)"/>
     <use xlink:href="#DejaVuSans-61" transform="translate(734.664062 0)"/>
     <use xlink:href="#DejaVuSans-72" transform="translate(795.943359 0)"/>
     <use xlink:href="#DejaVuSans-70" transform="translate(837.056641 0)"/>
     <use xlink:href="#DejaVuSans-6f" transform="translate(900.533203 0)"/>
     <use xlink:href="#DejaVuSans-6e" transform="translate(961.714844 0)"/>
     <use xlink:href="#DejaVuSans-65" transform="translate(1025.09375 0)"/>
    </g>
   </g>
   <g id="text_11">
    <g clip-path="url(#pbd0189c489)">
     <!-- ⊗ -->
     <g transform="translate(79.315045 488.025536) scale(0.12 -0.12)">
      <defs>
       <path id="DejaVuSans-2297" d="M 3306 3522 
Q 3016 3644 2681 3644 
Q 2347 3644 2056 3522 
Q 1769 3400 1531 3163 
Q 1291 2922 1172 2634 
Q 1053 2347 1053 2006 
Q 1053 1675 1172 1387 
Q 1291 1100 1531 859 
Q 1769 622 2056 500 
Q 2347 378 2681 378 
Q 3016 378 3306 500 
Q 3594 622 3831 859 
Q 4072 1100 4190 1387 
Q 4309 1675 4309 2006 
Q 4309 2347 4190 2634 
Q 4072 2922 3831 3163 
Q 3594 3400 3306 3522 
z
M 1878 3956 
Q 2250 4113 2681 4113 
Q 3113 4113 3484 3956 
Q 3856 3800 4163 3494 
Q 4472 3184 4625 2813 
Q 4778 2444 4778 2006 
Q 4778 1578 4625 1206 
Q 4472 838 4163 528 
Q 3856 222 3484 65 
Q 3113 -91 2681 -91 
Q 2250 -91 1878 65 
Q 1506 222 1200 528 
Q 891 838 738 1206 
Q 584 1578 584 2006 
Q 584 2444 738 2813 
Q 891 3184 1200 3494 
Q 1506 3800 1878 3956 
z
M 3847 2794 
L 3056 2006 
L 3844 1219 
L 3469 844 
L 2681 1631 
L 1894 841 
L 1516 1219 
L 2306 2006 
L 1519 2794 
L 1894 3169 
L 2681 2381 
L 3469 3172 
L 3847 2794 
z
" transform="scale(0.015625)"/>
      </defs>
      <use xlink:href="#DejaVuSans-2297"/>
     </g>
    </g>
   </g>
   <g id="text_12">
    <g clip-path="url(#pbd0189c489)">
     <!-- ⊗ -->
     <g transform="translate(37.143616 1755.739821) scale(0.12 -0.12)">
      <use xlink:href="#DejaVuSans-2297"/>
     </g>
    </g>
   </g>
   <g id="text_13">
    <g clip-path="url(#pbd0189c489)">
     <!-- ⊗ -->
     <g transform="translate(142.572187 1010.025536) scale(0.12 -0.12)">
      <use xlink:href="#DejaVuSans-2297"/>
     </g>
    </g>
   </g>
   <g id="text_14">
    <g clip-path="url(#pbd0189c489)">
     <!-- ⊗ -->
     <g transform="translate(142.572187 1457.454107) scale(0.12 -0.12)">
      <use xlink:href="#DejaVuSans-2297"/>
     </g>
    </g>
   </g>
   <g id="text_15">
    <g clip-path="url(#pbd0189c489)">
     <!-- ⊗ -->
     <g transform="translate(205.82933 935.454107) scale(0.12 -0.12)">
      <use xlink:href="#DejaVuSans-2297"/>
     </g>
    </g>
   </g>
   <g id="text_16">
    <g clip-path="url(#pbd0189c489)">
     <!-- Δ -->
     <g transform="translate(38.067054 264.31125) scale(0.12 -0.12)">
      <defs>
       <path id="DejaVuSans-394" d="M 2188 4044 
L 906 525 
L 3472 525 
L 2188 4044 
z
M 50 0 
L 1831 4666 
L 2547 4666 
L 4325 0 
L 50 0 
z
" transform="scale(0.015625)"/>
      </defs>
      <use xlink:href="#DejaVuSans-394"/>
     </g>
    </g>
   </g>
   <g id="text_17">
    <g clip-path="url(#pbd0189c489)">
     <!-- Δ -->
     <g transform="translate(143.495625 1532.025536) scale(0.12 -0.12)">
      <use xlink:href="#DejaVuSans-394"/>
     </g>
    </g>
   </g>
   <g id="text_18">
    <g clip-path="url(#pbd0189c489)">
     <!-- ⊗ -->
     <g transform="translate(37.143616 2054.025536) scale(0.12 -0.12)">
      <use xlink:href="#DejaVuSans-2297"/>
     </g>
    </g>
   </g>
   <g id="text_19">
    <g clip-path="url(#pbd0189c489)">
     <!-- Δ -->
     <g transform="translate(143.495625 1084.596964) scale(0.12 -0.12)">
      <use xlink:href="#DejaVuSans-394"/>
     </g>
    </g>
   </g>
   <g id="text_20">
    <g clip-path="url(#pbd0189c489)">
     <!-- Δ -->
     <g transform="translate(164.581339 711.739821) scale(0.12 -0.12)">
      <use xlink:href="#DejaVuSans-394"/>
     </g>
    </g>
   </g>
   <g id="text_21">
    <g clip-path="url(#pbd0189c489)">
     <!-- Δ -->
     <g transform="translate(38.067054 1830.31125) scale(0.12 -0.12)">
      <use xlink:href="#DejaVuSans-394"/>
     </g>
    </g>
   </g>
   <g id="text_22">
    <g clip-path="url(#pbd0189c489)">
     <!-- Δ -->
     <g transform="translate(80.238482 40.596964) scale(0.12 -0.12)">
      <use xlink:href="#DejaVuSans-394"/>
     </g>
    </g>
   </g>
  </g>
 </g>
 <defs>
  <clipPath id="pbd0189c489">
   <rect x="0" y="0" width="295.2" height="2088"/>
  </clipPath>
 </defs>
</svg>
