<?xml version="1.0" encoding="utf-8" standalone="no"?>
<!DOCTYPE svg PUBLIC "-//W3C//DTD SVG 1.1//EN"
  "http://www.w3.org/Graphics/SVG/1.1/DTD/svg11.dtd">
<svg xmlns:xlink="http://www.w3.org/1999/xlink" width="216pt" height="161.28pt" viewBox="0 0 216 161.28" xmlns="http://www.w3.org/2000/svg" version="1.1">
 <metadata>
  <rdf:RDF xmlns:dc="http://purl.org/dc/elements/1.1/" xmlns:cc="http://creativecommons.org/ns#" xmlns:rdf="http://www.w3.org/1999/02/22-rdf-syntax-ns#">
   <cc:Work>
    <dc:type rdf:resource="http://purl.org/dc/dcmitype/StillImage"/>
    <dc:date>2026-01-03T02:45:36.247832</dc:date>
    <dc:format>image/svg+xml</dc:format>
    <dc:creator>
     <cc:Agent>
      <dc:title>Matplotlib v3.10.7, https://matplotlib.org/</dc:title>
     </cc:Agent>
    </dc:creator>
   </cc:Work>
  </rdf:RDF>
 </metadata>
 <defs>
  <style type="text/css">*{stroke-linejoin: round; stroke-linecap: butt}</style>
 </defs>
 <g id="figure_1">
  <g id="patch_1">
   <path d="M 0 161.28 
L 216 161.28 
L 216 0 
L 0 0 
z
" style="fill: #ffffff"/>
  </g>
  <g id="axes_1">
   <g id="patch_2">
    <path d="M 0 161.28 
L 216 161.28 
L 216 0 
L 0 0 
z
" clip-path="url(#p0c2ef5444d)" style="fill: #ffffff; stroke: #ffffff; stroke-linejoin: miter"/>
   </g>
   <g id="patch_3">
    <path d="M 108 3.506087 
Q 12 3.506087 12 7.012174 
" clip-path="url(#p0c2ef5444d)" style="fill: none; stroke: #000000; stroke-linejoin: miter"/>
   </g>
   <g id="patch_4">
    <path d="M 108 3.506087 
Q 204 3.506087 204 7.012174 
" clip-path="url(#p0c2ef5444d)" style="fill: none; stroke: #000000; stroke-linejoin: miter"/>
   </g>
   <g id="patch_5">
    <path d="M 12 7.012174 
Q 12 154.267826 12 154.267826 
" clip-path="url(#p0c2ef5444d)" style="fill: none; stroke: #000000; stroke-linejoin: miter"/>
   </g>
   <g id="patch_6">
    <path d="M 204 7.012174 
Q 204 154.267826 204 154.267826 
" clip-path="url(#p0c2ef5444d)" style="fill: none; stroke: #000000; stroke-linejoin: miter"/>
   </g>
   <g id="patch_7">
    <path d="M 120 19.283478 
Q 120 22.789565 120 22.789565 
" clip-path="url(#p0c2ef5444d)" style="fill: none; stroke: #000000; stroke-linejoin: miter"/>
   </g>
   <g id="patch_8">
    <path d="M 72 26.295652 
Q 72 29.801739 72 29.801739 
" clip-path="url(#p0c2ef5444d)" style="fill: none; stroke: #000000; stroke-linejoin: miter"/>
   </g>
   <g id="patch_9">
    <path d="M 120 26.295652 
Q 120 43.826087 120 43.826087 
" clip-path="url(#p0c2ef5444d)" style="fill: none; stroke: #000000; stroke-linejoin: miter"/>
   </g>
   <g id="patch_10">
    <path d="M 168 26.295652 
Q 168 50.838261 168 50.838261 
" clip-path="url(#p0c2ef5444d)" style="fill: none; stroke: #000000; stroke-linejoin: miter"/>
   </g>
   <g id="patch_11">
    <path d="M 72 40.32 
Q 72 78.886957 72 78.886957 
" clip-path="url(#p0c2ef5444d)" style="fill: none; stroke: #000000; stroke-linejoin: miter"/>
   </g>
   <g id="patch_12">
    <path d="M 120 47.332174 
Q 120 78.886957 120 78.886957 
" clip-path="url(#p0c2ef5444d)" style="fill: none; stroke: #000000; stroke-linejoin: miter"/>
   </g>
   <g id="patch_13">
    <path d="M 168 54.344348 
Q 168 57.850435 168 57.850435 
" clip-path="url(#p0c2ef5444d)" style="fill: none; stroke: #000000; stroke-linejoin: miter"/>
   </g>
   <g id="patch_14">
    <path d="M 168 61.356522 
Q 168 64.862609 168 64.862609 
" clip-path="url(#p0c2ef5444d)" style="fill: none; stroke: #000000; stroke-linejoin: miter"/>
   </g>
   <g id="patch_15">
    <path d="M 168 68.368696 
Q 168 71.874783 168 71.874783 
" clip-path="url(#p0c2ef5444d)" style="fill: none; stroke: #000000; stroke-linejoin: miter"/>
   </g>
   <g id="patch_16">
    <path d="M 168 75.38087 
Q 168 78.886957 168 78.886957 
" clip-path="url(#p0c2ef5444d)" style="fill: none; stroke: #000000; stroke-linejoin: miter"/>
   </g>
   <g id="patch_17">
    <path d="M 120 82.393043 
Q 120 85.89913 120 85.89913 
" clip-path="url(#p0c2ef5444d)" style="fill: none; stroke: #000000; stroke-linejoin: miter"/>
   </g>
   <g id="patch_18">
    <path d="M 120 89.405217 
Q 120 92.911304 120 92.911304 
" clip-path="url(#p0c2ef5444d)" style="fill: none; stroke: #000000; stroke-linejoin: miter"/>
   </g>
   <g id="patch_19">
    <path d="M 72 110.441739 
Q 72 113.947826 72 113.947826 
" clip-path="url(#p0c2ef5444d)" style="fill: none; stroke: #000000; stroke-linejoin: miter"/>
   </g>
   <g id="patch_20">
    <path d="M 48 117.453913 
Q 48 120.96 48 120.96 
" clip-path="url(#p0c2ef5444d)" style="fill: none; stroke: #000000; stroke-linejoin: miter"/>
   </g>
   <g id="patch_21">
    <path d="M 96 117.453913 
Q 96 134.984348 96 134.984348 
" clip-path="url(#p0c2ef5444d)" style="fill: none; stroke: #000000; stroke-linejoin: miter"/>
   </g>
   <g id="patch_22">
    <path d="M 48 131.478261 
Q 48 141.996522 48 141.996522 
" clip-path="url(#p0c2ef5444d)" style="fill: none; stroke: #000000; stroke-linejoin: miter"/>
   </g>
   <g id="patch_23">
    <path d="M 96 138.490435 
Q 96 141.996522 96 141.996522 
" clip-path="url(#p0c2ef5444d)" style="fill: none; stroke: #000000; stroke-linejoin: miter"/>
   </g>
   <g id="patch_24">
    <path d="M 72 145.502609 
Q 72 149.008696 72 149.008696 
" clip-path="url(#p0c2ef5444d)" style="fill: none; stroke: #000000; stroke-linejoin: miter"/>
   </g>
   <g id="patch_25">
    <path d="M 72 152.514783 
Q 72 154.267826 72 154.267826 
" clip-path="url(#p0c2ef5444d)" style="fill: none; stroke: #000000; stroke-linejoin: miter"/>
   </g>
   <g id="patch_26">
    <path d="M 12 154.267826 
Q 12 157.773913 72 157.773913 
" clip-path="url(#p0c2ef5444d)" style="fill: none; stroke: #000000; stroke-linejoin: miter"/>
   </g>
   <g id="patch_27">
    <path d="M 72 154.267826 
Q 72 161.28 72 161.28 
" clip-path="url(#p0c2ef5444d)" style="fill: none; stroke: #000000; stroke-linejoin: miter"/>
   </g>
   <g id="patch_28">
    <path d="M 204 154.267826 
Q 204 157.773913 72 157.773913 
" clip-path="url(#p0c2ef5444d)" style="fill: none; stroke: #000000; stroke-linejoin: miter"/>
   </g>
   <g id="patch_29">
    <path d="M 108 12.271304 
L 108 8.765217 
L 132 8.765217 
L 132 12.271304 
z
" clip-path="url(#p0c2ef5444d)" style="fill: #ffffff; stroke: #000000; stroke-linejoin: miter"/>
   </g>
   <g id="patch_30">
    <path d="M 108 19.283478 
L 108 15.777391 
L 132 15.777391 
L 132 19.283478 
z
" clip-path="url(#p0c2ef5444d)" style="fill: #ffffff; stroke: #000000; stroke-linejoin: miter"/>
   </g>
   <g id="patch_31">
    <path d="M 60 26.295652 
L 60 22.789565 
L 180 22.789565 
L 180 26.295652 
z
" clip-path="url(#p0c2ef5444d)" style="fill: #ffffff; stroke: #000000; stroke-linejoin: miter"/>
   </g>
   <g id="patch_32">
    <path d="M 60 33.307826 
L 60 29.801739 
L 84 29.801739 
L 84 33.307826 
z
" clip-path="url(#p0c2ef5444d)" style="fill: #ffffff; stroke: #000000; stroke-linejoin: miter"/>
   </g>
   <g id="patch_33">
    <path d="M 60 40.32 
L 60 36.813913 
L 84 36.813913 
L 84 40.32 
z
" clip-path="url(#p0c2ef5444d)" style="fill: #ffffff; stroke: #000000; stroke-linejoin: miter"/>
   </g>
   <g id="patch_34">
    <path d="M 108 47.332174 
L 108 43.826087 
L 132 43.826087 
L 132 47.332174 
z
" clip-path="url(#p0c2ef5444d)" style="fill: #ffffff; stroke: #000000; stroke-linejoin: miter"/>
   </g>
   <g id="patch_35">
    <path d="M 156 54.344348 
L 156 50.838261 
L 180 50.838261 
L 180 54.344348 
z
" clip-path="url(#p0c2ef5444d)" style="fill: #ffffff; stroke: #000000; stroke-linejoin: miter"/>
   </g>
   <g id="patch_36">
    <path d="M 156 61.356522 
L 156 57.850435 
L 180 57.850435 
L 180 61.356522 
z
" clip-path="url(#p0c2ef5444d)" style="fill: #ffffff; stroke: #000000; stroke-linejoin: miter"/>
   </g>
   <g id="patch_37">
    <path d="M 156 68.368696 
L 156 64.862609 
L 180 64.862609 
L 180 68.368696 
z
" clip-path="url(#p0c2ef5444d)" style="fill: #ffffff; stroke: #000000; stroke-linejoin: miter"/>
   </g>
   <g id="patch_38">
    <path d="M 156 75.38087 
L 156 71.874783 
L 180 71.874783 
L 180 75.38087 
z
" clip-path="url(#p0c2ef5444d)" style="fill: #ffffff; stroke: #000000; stroke-linejoin: miter"/>
   </g>
   <g id="patch_39">
    <path d="M 60 82.393043 
L 60 78.886957 
L 180 78.886957 
L 180 82.393043 
z
" clip-path="url(#p0c2ef5444d)" style="fill: #ffffff; stroke: #000000; stroke-linejoin: miter"/>
   </g>
   <g id="patch_40">
    <path d="M 108 89.405217 
L 108 85.89913 
L 132 85.89913 
L 132 89.405217 
z
" clip-path="url(#p0c2ef5444d)" style="fill: #ffffff; stroke: #000000; stroke-linejoin: miter"/>
   </g>
   <g id="patch_41">
    <path d="M 108 96.417391 
L 108 92.911304 
L 132 92.911304 
L 132 96.417391 
z
" clip-path="url(#p0c2ef5444d)" style="fill: #ffffff; stroke: #000000; stroke-linejoin: miter"/>
   </g>
   <g id="patch_42">
    <path d="M 60 103.429565 
L 60 99.923478 
L 84 99.923478 
L 84 103.429565 
z
" clip-path="url(#p0c2ef5444d)" style="fill: #ffffff; stroke: #000000; stroke-linejoin: miter"/>
   </g>
   <g id="patch_43">
    <path d="M 60 110.441739 
L 60 106.935652 
L 84 106.935652 
L 84 110.441739 
z
" clip-path="url(#p0c2ef5444d)" style="fill: #ffffff; stroke: #000000; stroke-linejoin: miter"/>
   </g>
   <g id="patch_44">
    <path d="M 36 117.453913 
L 36 113.947826 
L 108 113.947826 
L 108 117.453913 
z
" clip-path="url(#p0c2ef5444d)" style="fill: #ffffff; stroke: #000000; stroke-linejoin: miter"/>
   </g>
   <g id="patch_45">
    <path d="M 36 124.466087 
L 36 120.96 
L 60 120.96 
L 60 124.466087 
z
" clip-path="url(#p0c2ef5444d)" style="fill: #ffffff; stroke: #000000; stroke-linejoin: miter"/>
   </g>
   <g id="patch_46">
    <path d="M 36 131.478261 
L 36 127.972174 
L 60 127.972174 
L 60 131.478261 
z
" clip-path="url(#p0c2ef5444d)" style="fill: #ffffff; stroke: #000000; stroke-linejoin: miter"/>
   </g>
   <g id="patch_47">
    <path d="M 84 138.490435 
L 84 134.984348 
L 108 134.984348 
L 108 138.490435 
z
" clip-path="url(#p0c2ef5444d)" style="fill: #ffffff; stroke: #000000; stroke-linejoin: miter"/>
   </g>
   <g id="patch_48">
    <path d="M 36 145.502609 
L 36 141.996522 
L 108 141.996522 
L 108 145.502609 
z
" clip-path="url(#p0c2ef5444d)" style="fill: #ffffff; stroke: #000000; stroke-linejoin: miter"/>
   </g>
   <g id="patch_49">
    <path d="M 60 152.514783 
L 60 149.008696 
L 84 149.008696 
L 84 152.514783 
z
" clip-path="url(#p0c2ef5444d)" style="fill: #ffffff; stroke: #000000; stroke-linejoin: miter"/>
   </g>
   <g id="text_1">
    <!-- IO -->
    <g transform="translate(129.6 22.965444) scale(0.03 -0.03)">
     <defs>
      <path id="DejaVuSans-49" d="M 628 4666 
L 1259 4666 
L 1259 0 
L 628 0 
L 628 4666 
z
" transform="scale(0.015625)"/>
      <path id="DejaVuSans-4f" d="M 2522 4238 
Q 1834 4238 1429 3725 
Q 1025 3213 1025 2328 
Q 1025 1447 1429 934 
Q 1834 422 2522 422 
Q 3209 422 3611 934 
Q 4013 1447 4013 2328 
Q 4013 3213 3611 3725 
Q 3209 4238 2522 4238 
z
M 2522 4750 
Q 3503 4750 4090 4092 
Q 4678 3434 4678 2328 
Q 4678 1225 4090 567 
Q 3503 -91 2522 -91 
Q 1538 -91 948 565 
Q 359 1222 359 2328 
Q 359 3434 948 4092 
Q 1538 4750 2522 4750 
z
" transform="scale(0.015625)"/>
     </defs>
     <use xlink:href="#DejaVuSans-49"/>
     <use xlink:href="#DejaVuSans-4f" transform="translate(29.492188 0)"/>
    </g>
   </g>
   <g id="text_2">
    <!-- IO -->
    <g transform="translate(81.6 29.977618) scale(0.03 -0.03)">
     <use xlink:href="#DejaVuSans-49"/>
     <use xlink:href="#DejaVuSans-4f" transform="translate(29.492188 0)"/>
    </g>
   </g>
   <g id="text_3">
    <!-- IO -->
    <g transform="translate(129.6 29.977618) scale(0.03 -0.03)">
     <use xlink:href="#DejaVuSans-49"/>
     <use xlink:href="#DejaVuSans-4f" transform="translate(29.492188 0)"/>
    </g>
   </g>
   <g id="text_4">
    <!-- IO -->
    <g transform="translate(177.6 29.977618) scale(0.03 -0.03)">
     <use xlink:href="#DejaVuSans-49"/>
     <use xlink:href="#DejaVuSans-4f" transform="translate(29.492188 0)"/>
    </g>
   </g>
   <g id="text_5">
    <!-- IO -->
    <g transform="translate(81.6 44.001966) scale(0.03 -0.03)">
     <use xlink:href="#DejaVuSans-49"/>
     <use xlink:href="#DejaVuSans-4f" transform="translate(29.492188 0)"/>
    </g>
   </g>
   <g id="text_6">
    <!-- IO -->
    <g transform="translate(129.6 51.01414) scale(0.03 -0.03)">
     <use xlink:href="#DejaVuSans-49"/>
     <use xlink:href="#DejaVuSans-4f" transform="translate(29.492188 0)"/>
    </g>
   </g>
   <g id="text_7">
    <!-- IO -->
    <g transform="translate(177.6 58.026314) scale(0.03 -0.03)">
     <use xlink:href="#DejaVuSans-49"/>
     <use xlink:href="#DejaVuSans-4f" transform="translate(29.492188 0)"/>
    </g>
   </g>
   <g id="text_8">
    <!-- IO -->
    <g transform="translate(177.6 65.038488) scale(0.03 -0.03)">
     <use xlink:href="#DejaVuSans-49"/>
     <use xlink:href="#DejaVuSans-4f" transform="translate(29.492188 0)"/>
    </g>
   </g>
   <g id="text_9">
    <!-- IO -->
    <g transform="translate(177.6 72.050662) scale(0.03 -0.03)">
     <use xlink:href="#DejaVuSans-49"/>
     <use xlink:href="#DejaVuSans-4f" transform="translate(29.492188 0)"/>
    </g>
   </g>
   <g id="text_10">
    <!-- IO -->
    <g transform="translate(177.6 79.062836) scale(0.03 -0.03)">
     <use xlink:href="#DejaVuSans-49"/>
     <use xlink:href="#DejaVuSans-4f" transform="translate(29.492188 0)"/>
    </g>
   </g>
   <g id="text_11">
    <!-- IO -->
    <g transform="translate(129.6 86.07501) scale(0.03 -0.03)">
     <use xlink:href="#DejaVuSans-49"/>
     <use xlink:href="#DejaVuSans-4f" transform="translate(29.492188 0)"/>
    </g>
   </g>
   <g id="text_12">
    <!-- IO -->
    <g transform="translate(129.6 93.087183) scale(0.03 -0.03)">
     <use xlink:href="#DejaVuSans-49"/>
     <use xlink:href="#DejaVuSans-4f" transform="translate(29.492188 0)"/>
    </g>
   </g>
   <g id="text_13">
    <!-- IO -->
    <g transform="translate(81.6 114.123705) scale(0.03 -0.03)">
     <use xlink:href="#DejaVuSans-49"/>
     <use xlink:href="#DejaVuSans-4f" transform="translate(29.492188 0)"/>
    </g>
   </g>
   <g id="text_14">
    <!-- IO -->
    <g transform="translate(57.6 121.135879) scale(0.03 -0.03)">
     <use xlink:href="#DejaVuSans-49"/>
     <use xlink:href="#DejaVuSans-4f" transform="translate(29.492188 0)"/>
    </g>
   </g>
   <g id="text_15">
    <!-- IO -->
    <g transform="translate(105.6 121.135879) scale(0.03 -0.03)">
     <use xlink:href="#DejaVuSans-49"/>
     <use xlink:href="#DejaVuSans-4f" transform="translate(29.492188 0)"/>
    </g>
   </g>
   <g id="text_16">
    <!-- IO -->
    <g transform="translate(57.6 135.160227) scale(0.03 -0.03)">
     <use xlink:href="#DejaVuSans-49"/>
     <use xlink:href="#DejaVuSans-4f" transform="translate(29.492188 0)"/>
    </g>
   </g>
   <g id="text_17">
    <!-- IO -->
    <g transform="translate(105.6 142.172401) scale(0.03 -0.03)">
     <use xlink:href="#DejaVuSans-49"/>
     <use xlink:href="#DejaVuSans-4f" transform="translate(29.492188 0)"/>
    </g>
   </g>
   <g id="text_18">
    <!-- IO -->
    <g transform="translate(81.6 149.184575) scale(0.03 -0.03)">
     <use xlink:href="#DejaVuSans-49"/>
     <use xlink:href="#DejaVuSans-4f" transform="translate(29.492188 0)"/>
    </g>
   </g>
   <g id="text_19">
    <!-- IO -->
    <g transform="translate(81.6 156.196749) scale(0.03 -0.03)">
     <use xlink:href="#DejaVuSans-49"/>
     <use xlink:href="#DejaVuSans-4f" transform="translate(29.492188 0)"/>
    </g>
   </g>
   <g id="text_20">
    <!-- IO -->
    <g transform="translate(81.6 163.208923) scale(0.03 -0.03)">
     <use xlink:href="#DejaVuSans-49"/>
     <use xlink:href="#DejaVuSans-4f" transform="translate(29.492188 0)"/>
    </g>
   </g>
   <g id="text_21">
    <!-- Copy(Ty(), 1) -->
    <g transform="translate(104.217178 11.875873) scale(0.0492 -0.0492)">
     <defs>
      <path id="DejaVuSans-43" d="M 4122 4306 
L 4122 3641 
Q 3803 3938 3442 4084 
Q 3081 4231 2675 4231 
Q 1875 4231 1450 3742 
Q 1025 3253 1025 2328 
Q 1025 1406 1450 917 
Q 1875 428 2675 428 
Q 3081 428 3442 575 
Q 3803 722 4122 1019 
L 4122 359 
Q 3791 134 3420 21 
Q 3050 -91 2638 -91 
Q 1578 -91 968 557 
Q 359 1206 359 2328 
Q 359 3453 968 4101 
Q 1578 4750 2638 4750 
Q 3056 4750 3426 4639 
Q 3797 4528 4122 4306 
z
" transform="scale(0.015625)"/>
      <path id="DejaVuSans-6f" d="M 1959 3097 
Q 1497 3097 1228 2736 
Q 959 2375 959 1747 
Q 959 1119 1226 758 
Q 1494 397 1959 397 
Q 2419 397 2687 759 
Q 2956 1122 2956 1747 
Q 2956 2369 2687 2733 
Q 2419 3097 1959 3097 
z
M 1959 3584 
Q 2709 3584 3137 3096 
Q 3566 2609 3566 1747 
Q 3566 888 3137 398 
Q 2709 -91 1959 -91 
Q 1206 -91 779 398 
Q 353 888 353 1747 
Q 353 2609 779 3096 
Q 1206 3584 1959 3584 
z
" transform="scale(0.015625)"/>
      <path id="DejaVuSans-70" d="M 1159 525 
L 1159 -1331 
L 581 -1331 
L 581 3500 
L 1159 3500 
L 1159 2969 
Q 1341 3281 1617 3432 
Q 1894 3584 2278 3584 
Q 2916 3584 3314 3078 
Q 3713 2572 3713 1747 
Q 3713 922 3314 415 
Q 2916 -91 2278 -91 
Q 1894 -91 1617 61 
Q 1341 213 1159 525 
z
M 3116 1747 
Q 3116 2381 2855 2742 
Q 2594 3103 2138 3103 
Q 1681 3103 1420 2742 
Q 1159 2381 1159 1747 
Q 1159 1113 1420 752 
Q 1681 391 2138 391 
Q 2594 391 2855 752 
Q 3116 1113 3116 1747 
z
" transform="scale(0.015625)"/>
      <path id="DejaVuSans-79" d="M 2059 -325 
Q 1816 -950 1584 -1140 
Q 1353 -1331 966 -1331 
L 506 -1331 
L 506 -850 
L 844 -850 
Q 1081 -850 1212 -737 
Q 1344 -625 1503 -206 
L 1606 56 
L 191 3500 
L 800 3500 
L 1894 763 
L 2988 3500 
L 3597 3500 
L 2059 -325 
z
" transform="scale(0.015625)"/>
      <path id="DejaVuSans-28" d="M 1984 4856 
Q 1566 4138 1362 3434 
Q 1159 2731 1159 2009 
Q 1159 1288 1364 580 
Q 1569 -128 1984 -844 
L 1484 -844 
Q 1016 -109 783 600 
Q 550 1309 550 2009 
Q 550 2706 781 3412 
Q 1013 4119 1484 4856 
L 1984 4856 
z
" transform="scale(0.015625)"/>
      <path id="DejaVuSans-54" d="M -19 4666 
L 3928 4666 
L 3928 4134 
L 2272 4134 
L 2272 0 
L 1638 0 
L 1638 4134 
L -19 4134 
L -19 4666 
z
" transform="scale(0.015625)"/>
      <path id="DejaVuSans-29" d="M 513 4856 
L 1013 4856 
Q 1481 4119 1714 3412 
Q 1947 2706 1947 2009 
Q 1947 1309 1714 600 
Q 1481 -109 1013 -844 
L 513 -844 
Q 928 -128 1133 580 
Q 1338 1288 1338 2009 
Q 1338 2731 1133 3434 
Q 928 4138 513 4856 
z
" transform="scale(0.015625)"/>
      <path id="DejaVuSans-2c" d="M 750 794 
L 1409 794 
L 1409 256 
L 897 -744 
L 494 -744 
L 750 256 
L 750 794 
z
" transform="scale(0.015625)"/>
      <path id="DejaVuSans-20" transform="scale(0.015625)"/>
      <path id="DejaVuSans-31" d="M 794 531 
L 1825 531 
L 1825 4091 
L 703 3866 
L 703 4441 
L 1819 4666 
L 2450 4666 
L 2450 531 
L 3481 531 
L 3481 0 
L 794 0 
L 794 531 
z
" transform="scale(0.015625)"/>
     </defs>
     <use xlink:href="#DejaVuSans-43"/>
     <use xlink:href="#DejaVuSans-6f" transform="translate(69.824219 0)"/>
     <use xlink:href="#DejaVuSans-70" transform="translate(131.005859 0)"/>
     <use xlink:href="#DejaVuSans-79" transform="translate(194.482422 0)"/>
     <use xlink:href="#DejaVuSans-28" transform="translate(253.662109 0)"/>
     <use xlink:href="#DejaVuSans-54" transform="translate(292.675781 0)"/>
     <use xlink:href="#DejaVuSans-79" transform="translate(338.134766 0)"/>
     <use xlink:href="#DejaVuSans-28" transform="translate(397.314453 0)"/>
     <use xlink:href="#DejaVuSans-29" transform="translate(436.328125 0)"/>
     <use xlink:href="#DejaVuSans-2c" transform="translate(475.341797 0)"/>
     <use xlink:href="#DejaVuSans-20" transform="translate(507.128906 0)"/>
     <use xlink:href="#DejaVuSans-31" transform="translate(538.916016 0)"/>
     <use xlink:href="#DejaVuSans-29" transform="translate(602.539062 0)"/>
    </g>
   </g>
   <g id="text_22">
    <!-- ⌜10⌝ -->
    <g transform="translate(114.5634 18.888047) scale(0.0492 -0.0492)">
     <defs>
      <path id="DejaVuSans-231c" d="M 2581 4413 
L 1000 4413 
L 1000 2722 
L 550 2722 
L 550 4863 
L 2581 4863 
L 2581 4413 
z
" transform="scale(0.015625)"/>
      <path id="DejaVuSans-30" d="M 2034 4250 
Q 1547 4250 1301 3770 
Q 1056 3291 1056 2328 
Q 1056 1369 1301 889 
Q 1547 409 2034 409 
Q 2525 409 2770 889 
Q 3016 1369 3016 2328 
Q 3016 3291 2770 3770 
Q 2525 4250 2034 4250 
z
M 2034 4750 
Q 2819 4750 3233 4129 
Q 3647 3509 3647 2328 
Q 3647 1150 3233 529 
Q 2819 -91 2034 -91 
Q 1250 -91 836 529 
Q 422 1150 422 2328 
Q 422 3509 836 4129 
Q 1250 4750 2034 4750 
z
" transform="scale(0.015625)"/>
      <path id="DejaVuSans-231d" d="M 419 4413 
L 419 4863 
L 2450 4863 
L 2450 2722 
L 2000 2722 
L 2000 4413 
L 419 4413 
z
" transform="scale(0.015625)"/>
     </defs>
     <use xlink:href="#DejaVuSans-231c"/>
     <use xlink:href="#DejaVuSans-31" transform="translate(46.875 0)"/>
     <use xlink:href="#DejaVuSans-30" transform="translate(110.498047 0)"/>
     <use xlink:href="#DejaVuSans-231d" transform="translate(174.121094 0)"/>
    </g>
   </g>
   <g id="text_23">
    <!-- Copy(IO, 3) -->
    <g transform="translate(106.048725 25.900221) scale(0.0492 -0.0492)">
     <defs>
      <path id="DejaVuSans-33" d="M 2597 2516 
Q 3050 2419 3304 2112 
Q 3559 1806 3559 1356 
Q 3559 666 3084 287 
Q 2609 -91 1734 -91 
Q 1441 -91 1130 -33 
Q 819 25 488 141 
L 488 750 
Q 750 597 1062 519 
Q 1375 441 1716 441 
Q 2309 441 2620 675 
Q 2931 909 2931 1356 
Q 2931 1769 2642 2001 
Q 2353 2234 1838 2234 
L 1294 2234 
L 1294 2753 
L 1863 2753 
Q 2328 2753 2575 2939 
Q 2822 3125 2822 3475 
Q 2822 3834 2567 4026 
Q 2313 4219 1838 4219 
Q 1578 4219 1281 4162 
Q 984 4106 628 3988 
L 628 4550 
Q 988 4650 1302 4700 
Q 1616 4750 1894 4750 
Q 2613 4750 3031 4423 
Q 3450 4097 3450 3541 
Q 3450 3153 3228 2886 
Q 3006 2619 2597 2516 
z
" transform="scale(0.015625)"/>
     </defs>
     <use xlink:href="#DejaVuSans-43"/>
     <use xlink:href="#DejaVuSans-6f" transform="translate(69.824219 0)"/>
     <use xlink:href="#DejaVuSans-70" transform="translate(131.005859 0)"/>
     <use xlink:href="#DejaVuSans-79" transform="translate(194.482422 0)"/>
     <use xlink:href="#DejaVuSans-28" transform="translate(253.662109 0)"/>
     <use xlink:href="#DejaVuSans-49" transform="translate(292.675781 0)"/>
     <use xlink:href="#DejaVuSans-4f" transform="translate(322.167969 0)"/>
     <use xlink:href="#DejaVuSans-2c" transform="translate(400.878906 0)"/>
     <use xlink:href="#DejaVuSans-20" transform="translate(432.666016 0)"/>
     <use xlink:href="#DejaVuSans-33" transform="translate(464.453125 0)"/>
     <use xlink:href="#DejaVuSans-29" transform="translate(528.076172 0)"/>
    </g>
   </g>
   <g id="text_24">
    <!-- Discard(IO) -->
    <g transform="translate(58.169034 32.912395) scale(0.0492 -0.0492)">
     <defs>
      <path id="DejaVuSans-44" d="M 1259 4147 
L 1259 519 
L 2022 519 
Q 2988 519 3436 956 
Q 3884 1394 3884 2338 
Q 3884 3275 3436 3711 
Q 2988 4147 2022 4147 
L 1259 4147 
z
M 628 4666 
L 1925 4666 
Q 3281 4666 3915 4102 
Q 4550 3538 4550 2338 
Q 4550 1131 3912 565 
Q 3275 0 1925 0 
L 628 0 
L 628 4666 
z
" transform="scale(0.015625)"/>
      <path id="DejaVuSans-69" d="M 603 3500 
L 1178 3500 
L 1178 0 
L 603 0 
L 603 3500 
z
M 603 4863 
L 1178 4863 
L 1178 4134 
L 603 4134 
L 603 4863 
z
" transform="scale(0.015625)"/>
      <path id="DejaVuSans-73" d="M 2834 3397 
L 2834 2853 
Q 2591 2978 2328 3040 
Q 2066 3103 1784 3103 
Q 1356 3103 1142 2972 
Q 928 2841 928 2578 
Q 928 2378 1081 2264 
Q 1234 2150 1697 2047 
L 1894 2003 
Q 2506 1872 2764 1633 
Q 3022 1394 3022 966 
Q 3022 478 2636 193 
Q 2250 -91 1575 -91 
Q 1294 -91 989 -36 
Q 684 19 347 128 
L 347 722 
Q 666 556 975 473 
Q 1284 391 1588 391 
Q 1994 391 2212 530 
Q 2431 669 2431 922 
Q 2431 1156 2273 1281 
Q 2116 1406 1581 1522 
L 1381 1569 
Q 847 1681 609 1914 
Q 372 2147 372 2553 
Q 372 3047 722 3315 
Q 1072 3584 1716 3584 
Q 2034 3584 2315 3537 
Q 2597 3491 2834 3397 
z
" transform="scale(0.015625)"/>
      <path id="DejaVuSans-63" d="M 3122 3366 
L 3122 2828 
Q 2878 2963 2633 3030 
Q 2388 3097 2138 3097 
Q 1578 3097 1268 2742 
Q 959 2388 959 1747 
Q 959 1106 1268 751 
Q 1578 397 2138 397 
Q 2388 397 2633 464 
Q 2878 531 3122 666 
L 3122 134 
Q 2881 22 2623 -34 
Q 2366 -91 2075 -91 
Q 1284 -91 818 406 
Q 353 903 353 1747 
Q 353 2603 823 3093 
Q 1294 3584 2113 3584 
Q 2378 3584 2631 3529 
Q 2884 3475 3122 3366 
z
" transform="scale(0.015625)"/>
      <path id="DejaVuSans-61" d="M 2194 1759 
Q 1497 1759 1228 1600 
Q 959 1441 959 1056 
Q 959 750 1161 570 
Q 1363 391 1709 391 
Q 2188 391 2477 730 
Q 2766 1069 2766 1631 
L 2766 1759 
L 2194 1759 
z
M 3341 1997 
L 3341 0 
L 2766 0 
L 2766 531 
Q 2569 213 2275 61 
Q 1981 -91 1556 -91 
Q 1019 -91 701 211 
Q 384 513 384 1019 
Q 384 1609 779 1909 
Q 1175 2209 1959 2209 
L 2766 2209 
L 2766 2266 
Q 2766 2663 2505 2880 
Q 2244 3097 1772 3097 
Q 1472 3097 1187 3025 
Q 903 2953 641 2809 
L 641 3341 
Q 956 3463 1253 3523 
Q 1550 3584 1831 3584 
Q 2591 3584 2966 3190 
Q 3341 2797 3341 1997 
z
" transform="scale(0.015625)"/>
      <path id="DejaVuSans-72" d="M 2631 2963 
Q 2534 3019 2420 3045 
Q 2306 3072 2169 3072 
Q 1681 3072 1420 2755 
Q 1159 2438 1159 1844 
L 1159 0 
L 581 0 
L 581 3500 
L 1159 3500 
L 1159 2956 
Q 1341 3275 1631 3429 
Q 1922 3584 2338 3584 
Q 2397 3584 2469 3576 
Q 2541 3569 2628 3553 
L 2631 2963 
z
" transform="scale(0.015625)"/>
      <path id="DejaVuSans-64" d="M 2906 2969 
L 2906 4863 
L 3481 4863 
L 3481 0 
L 2906 0 
L 2906 525 
Q 2725 213 2448 61 
Q 2172 -91 1784 -91 
Q 1150 -91 751 415 
Q 353 922 353 1747 
Q 353 2572 751 3078 
Q 1150 3584 1784 3584 
Q 2172 3584 2448 3432 
Q 2725 3281 2906 2969 
z
M 947 1747 
Q 947 1113 1208 752 
Q 1469 391 1925 391 
Q 2381 391 2643 752 
Q 2906 1113 2906 1747 
Q 2906 2381 2643 2742 
Q 2381 3103 1925 3103 
Q 1469 3103 1208 2742 
Q 947 2381 947 1747 
z
" transform="scale(0.015625)"/>
     </defs>
     <use xlink:href="#DejaVuSans-44"/>
     <use xlink:href="#DejaVuSans-69" transform="translate(77.001953 0)"/>
     <use xlink:href="#DejaVuSans-73" transform="translate(104.785156 0)"/>
     <use xlink:href="#DejaVuSans-63" transform="translate(156.884766 0)"/>
     <use xlink:href="#DejaVuSans-61" transform="translate(211.865234 0)"/>
     <use xlink:href="#DejaVuSans-72" transform="translate(273.144531 0)"/>
     <use xlink:href="#DejaVuSans-64" transform="translate(312.507812 0)"/>
     <use xlink:href="#DejaVuSans-28" transform="translate(375.984375 0)"/>
     <use xlink:href="#DejaVuSans-49" transform="translate(414.998047 0)"/>
     <use xlink:href="#DejaVuSans-4f" transform="translate(444.490234 0)"/>
     <use xlink:href="#DejaVuSans-29" transform="translate(523.201172 0)"/>
    </g>
   </g>
   <g id="text_25">
    <!-- ⌜Liftoff!⌝ -->
    <g transform="translate(61.628794 39.924569) scale(0.0492 -0.0492)">
     <defs>
      <path id="DejaVuSans-4c" d="M 628 4666 
L 1259 4666 
L 1259 531 
L 3531 531 
L 3531 0 
L 628 0 
L 628 4666 
z
" transform="scale(0.015625)"/>
      <path id="DejaVuSans-66" d="M 2375 4863 
L 2375 4384 
L 1825 4384 
Q 1516 4384 1395 4259 
Q 1275 4134 1275 3809 
L 1275 3500 
L 2222 3500 
L 2222 3053 
L 1275 3053 
L 1275 0 
L 697 0 
L 697 3053 
L 147 3053 
L 147 3500 
L 697 3500 
L 697 3744 
Q 697 4328 969 4595 
Q 1241 4863 1831 4863 
L 2375 4863 
z
" transform="scale(0.015625)"/>
      <path id="DejaVuSans-74" d="M 1172 4494 
L 1172 3500 
L 2356 3500 
L 2356 3053 
L 1172 3053 
L 1172 1153 
Q 1172 725 1289 603 
Q 1406 481 1766 481 
L 2356 481 
L 2356 0 
L 1766 0 
Q 1100 0 847 248 
Q 594 497 594 1153 
L 594 3053 
L 172 3053 
L 172 3500 
L 594 3500 
L 594 4494 
L 1172 4494 
z
" transform="scale(0.015625)"/>
      <path id="DejaVuSans-21" d="M 966 794 
L 1600 794 
L 1600 0 
L 966 0 
L 966 794 
z
M 966 4666 
L 1600 4666 
L 1600 2619 
L 1538 1503 
L 1031 1503 
L 966 2619 
L 966 4666 
z
" transform="scale(0.015625)"/>
     </defs>
     <use xlink:href="#DejaVuSans-231c"/>
     <use xlink:href="#DejaVuSans-4c" transform="translate(46.875 0)"/>
     <use xlink:href="#DejaVuSans-69" transform="translate(102.587891 0)"/>
     <use xlink:href="#DejaVuSans-66" transform="translate(130.371094 0)"/>
     <use xlink:href="#DejaVuSans-74" transform="translate(163.826172 0)"/>
     <use xlink:href="#DejaVuSans-6f" transform="translate(203.035156 0)"/>
     <use xlink:href="#DejaVuSans-66" transform="translate(264.216797 0)"/>
     <use xlink:href="#DejaVuSans-66" transform="translate(299.421875 0)"/>
     <use xlink:href="#DejaVuSans-21" transform="translate(334.626953 0)"/>
     <use xlink:href="#DejaVuSans-231d" transform="translate(374.714844 0)"/>
    </g>
   </g>
   <g id="text_26">
    <!-- countdown -->
    <g transform="translate(106.421953 46.936743) scale(0.0492 -0.0492)">
     <defs>
      <path id="DejaVuSans-75" d="M 544 1381 
L 544 3500 
L 1119 3500 
L 1119 1403 
Q 1119 906 1312 657 
Q 1506 409 1894 409 
Q 2359 409 2629 706 
Q 2900 1003 2900 1516 
L 2900 3500 
L 3475 3500 
L 3475 0 
L 2900 0 
L 2900 538 
Q 2691 219 2414 64 
Q 2138 -91 1772 -91 
Q 1169 -91 856 284 
Q 544 659 544 1381 
z
M 1991 3584 
L 1991 3584 
z
" transform="scale(0.015625)"/>
      <path id="DejaVuSans-6e" d="M 3513 2113 
L 3513 0 
L 2938 0 
L 2938 2094 
Q 2938 2591 2744 2837 
Q 2550 3084 2163 3084 
Q 1697 3084 1428 2787 
Q 1159 2491 1159 1978 
L 1159 0 
L 581 0 
L 581 3500 
L 1159 3500 
L 1159 2956 
Q 1366 3272 1645 3428 
Q 1925 3584 2291 3584 
Q 2894 3584 3203 3211 
Q 3513 2838 3513 2113 
z
" transform="scale(0.015625)"/>
      <path id="DejaVuSans-77" d="M 269 3500 
L 844 3500 
L 1563 769 
L 2278 3500 
L 2956 3500 
L 3675 769 
L 4391 3500 
L 4966 3500 
L 4050 0 
L 3372 0 
L 2619 2869 
L 1863 0 
L 1184 0 
L 269 3500 
z
" transform="scale(0.015625)"/>
     </defs>
     <use xlink:href="#DejaVuSans-63"/>
     <use xlink:href="#DejaVuSans-6f" transform="translate(54.980469 0)"/>
     <use xlink:href="#DejaVuSans-75" transform="translate(116.162109 0)"/>
     <use xlink:href="#DejaVuSans-6e" transform="translate(179.541016 0)"/>
     <use xlink:href="#DejaVuSans-74" transform="translate(242.919922 0)"/>
     <use xlink:href="#DejaVuSans-64" transform="translate(282.128906 0)"/>
     <use xlink:href="#DejaVuSans-6f" transform="translate(345.605469 0)"/>
     <use xlink:href="#DejaVuSans-77" transform="translate(406.787109 0)"/>
     <use xlink:href="#DejaVuSans-6e" transform="translate(488.574219 0)"/>
    </g>
   </g>
   <g id="text_27">
    <!-- Copy(IO, 1) -->
    <g transform="translate(154.048725 53.948917) scale(0.0492 -0.0492)">
     <use xlink:href="#DejaVuSans-43"/>
     <use xlink:href="#DejaVuSans-6f" transform="translate(69.824219 0)"/>
     <use xlink:href="#DejaVuSans-70" transform="translate(131.005859 0)"/>
     <use xlink:href="#DejaVuSans-79" transform="translate(194.482422 0)"/>
     <use xlink:href="#DejaVuSans-28" transform="translate(253.662109 0)"/>
     <use xlink:href="#DejaVuSans-49" transform="translate(292.675781 0)"/>
     <use xlink:href="#DejaVuSans-4f" transform="translate(322.167969 0)"/>
     <use xlink:href="#DejaVuSans-2c" transform="translate(400.878906 0)"/>
     <use xlink:href="#DejaVuSans-20" transform="translate(432.666016 0)"/>
     <use xlink:href="#DejaVuSans-31" transform="translate(464.453125 0)"/>
     <use xlink:href="#DejaVuSans-29" transform="translate(528.076172 0)"/>
    </g>
   </g>
   <g id="text_28">
    <!-- echo -->
    <g transform="translate(162.069478 60.961091) scale(0.0492 -0.0492)">
     <defs>
      <path id="DejaVuSans-65" d="M 3597 1894 
L 3597 1613 
L 953 1613 
Q 991 1019 1311 708 
Q 1631 397 2203 397 
Q 2534 397 2845 478 
Q 3156 559 3463 722 
L 3463 178 
Q 3153 47 2828 -22 
Q 2503 -91 2169 -91 
Q 1331 -91 842 396 
Q 353 884 353 1716 
Q 353 2575 817 3079 
Q 1281 3584 2069 3584 
Q 2775 3584 3186 3129 
Q 3597 2675 3597 1894 
z
M 3022 2063 
Q 3016 2534 2758 2815 
Q 2500 3097 2075 3097 
Q 1594 3097 1305 2825 
Q 1016 2553 972 2059 
L 3022 2063 
z
" transform="scale(0.015625)"/>
      <path id="DejaVuSans-68" d="M 3513 2113 
L 3513 0 
L 2938 0 
L 2938 2094 
Q 2938 2591 2744 2837 
Q 2550 3084 2163 3084 
Q 1697 3084 1428 2787 
Q 1159 2491 1159 1978 
L 1159 0 
L 581 0 
L 581 4863 
L 1159 4863 
L 1159 2956 
Q 1366 3272 1645 3428 
Q 1925 3584 2291 3584 
Q 2894 3584 3203 3211 
Q 3513 2838 3513 2113 
z
" transform="scale(0.015625)"/>
     </defs>
     <use xlink:href="#DejaVuSans-65"/>
     <use xlink:href="#DejaVuSans-63" transform="translate(61.523438 0)"/>
     <use xlink:href="#DejaVuSans-68" transform="translate(116.503906 0)"/>
     <use xlink:href="#DejaVuSans-6f" transform="translate(179.882812 0)"/>
    </g>
   </g>
   <g id="text_29">
    <!-- countdown -->
    <g transform="translate(154.421953 67.973265) scale(0.0492 -0.0492)">
     <use xlink:href="#DejaVuSans-63"/>
     <use xlink:href="#DejaVuSans-6f" transform="translate(54.980469 0)"/>
     <use xlink:href="#DejaVuSans-75" transform="translate(116.162109 0)"/>
     <use xlink:href="#DejaVuSans-6e" transform="translate(179.541016 0)"/>
     <use xlink:href="#DejaVuSans-74" transform="translate(242.919922 0)"/>
     <use xlink:href="#DejaVuSans-64" transform="translate(282.128906 0)"/>
     <use xlink:href="#DejaVuSans-6f" transform="translate(345.605469 0)"/>
     <use xlink:href="#DejaVuSans-77" transform="translate(406.787109 0)"/>
     <use xlink:href="#DejaVuSans-6e" transform="translate(488.574219 0)"/>
    </g>
   </g>
   <g id="text_30">
    <!-- Merge(IO, 1) -->
    <g transform="translate(152.609625 74.985439) scale(0.0492 -0.0492)">
     <defs>
      <path id="DejaVuSans-4d" d="M 628 4666 
L 1569 4666 
L 2759 1491 
L 3956 4666 
L 4897 4666 
L 4897 0 
L 4281 0 
L 4281 4097 
L 3078 897 
L 2444 897 
L 1241 4097 
L 1241 0 
L 628 0 
L 628 4666 
z
" transform="scale(0.015625)"/>
      <path id="DejaVuSans-67" d="M 2906 1791 
Q 2906 2416 2648 2759 
Q 2391 3103 1925 3103 
Q 1463 3103 1205 2759 
Q 947 2416 947 1791 
Q 947 1169 1205 825 
Q 1463 481 1925 481 
Q 2391 481 2648 825 
Q 2906 1169 2906 1791 
z
M 3481 434 
Q 3481 -459 3084 -895 
Q 2688 -1331 1869 -1331 
Q 1566 -1331 1297 -1286 
Q 1028 -1241 775 -1147 
L 775 -588 
Q 1028 -725 1275 -790 
Q 1522 -856 1778 -856 
Q 2344 -856 2625 -561 
Q 2906 -266 2906 331 
L 2906 616 
Q 2728 306 2450 153 
Q 2172 0 1784 0 
Q 1141 0 747 490 
Q 353 981 353 1791 
Q 353 2603 747 3093 
Q 1141 3584 1784 3584 
Q 2172 3584 2450 3431 
Q 2728 3278 2906 2969 
L 2906 3500 
L 3481 3500 
L 3481 434 
z
" transform="scale(0.015625)"/>
     </defs>
     <use xlink:href="#DejaVuSans-4d"/>
     <use xlink:href="#DejaVuSans-65" transform="translate(86.279297 0)"/>
     <use xlink:href="#DejaVuSans-72" transform="translate(147.802734 0)"/>
     <use xlink:href="#DejaVuSans-67" transform="translate(187.166016 0)"/>
     <use xlink:href="#DejaVuSans-65" transform="translate(250.642578 0)"/>
     <use xlink:href="#DejaVuSans-28" transform="translate(312.166016 0)"/>
     <use xlink:href="#DejaVuSans-49" transform="translate(351.179688 0)"/>
     <use xlink:href="#DejaVuSans-4f" transform="translate(380.671875 0)"/>
     <use xlink:href="#DejaVuSans-2c" transform="translate(459.382812 0)"/>
     <use xlink:href="#DejaVuSans-20" transform="translate(491.169922 0)"/>
     <use xlink:href="#DejaVuSans-31" transform="translate(522.957031 0)"/>
     <use xlink:href="#DejaVuSans-29" transform="translate(586.580078 0)"/>
    </g>
   </g>
   <g id="text_31">
    <!-- Merge(IO, 3) -->
    <g transform="translate(104.609625 81.997613) scale(0.0492 -0.0492)">
     <use xlink:href="#DejaVuSans-4d"/>
     <use xlink:href="#DejaVuSans-65" transform="translate(86.279297 0)"/>
     <use xlink:href="#DejaVuSans-72" transform="translate(147.802734 0)"/>
     <use xlink:href="#DejaVuSans-67" transform="translate(187.166016 0)"/>
     <use xlink:href="#DejaVuSans-65" transform="translate(250.642578 0)"/>
     <use xlink:href="#DejaVuSans-28" transform="translate(312.166016 0)"/>
     <use xlink:href="#DejaVuSans-49" transform="translate(351.179688 0)"/>
     <use xlink:href="#DejaVuSans-4f" transform="translate(380.671875 0)"/>
     <use xlink:href="#DejaVuSans-2c" transform="translate(459.382812 0)"/>
     <use xlink:href="#DejaVuSans-20" transform="translate(491.169922 0)"/>
     <use xlink:href="#DejaVuSans-33" transform="translate(522.957031 0)"/>
     <use xlink:href="#DejaVuSans-29" transform="translate(586.580078 0)"/>
    </g>
   </g>
   <g id="text_32">
    <!-- Merge(IO, 1) -->
    <g transform="translate(104.609625 89.009786) scale(0.0492 -0.0492)">
     <use xlink:href="#DejaVuSans-4d"/>
     <use xlink:href="#DejaVuSans-65" transform="translate(86.279297 0)"/>
     <use xlink:href="#DejaVuSans-72" transform="translate(147.802734 0)"/>
     <use xlink:href="#DejaVuSans-67" transform="translate(187.166016 0)"/>
     <use xlink:href="#DejaVuSans-65" transform="translate(250.642578 0)"/>
     <use xlink:href="#DejaVuSans-28" transform="translate(312.166016 0)"/>
     <use xlink:href="#DejaVuSans-49" transform="translate(351.179688 0)"/>
     <use xlink:href="#DejaVuSans-4f" transform="translate(380.671875 0)"/>
     <use xlink:href="#DejaVuSans-2c" transform="translate(459.382812 0)"/>
     <use xlink:href="#DejaVuSans-20" transform="translate(491.169922 0)"/>
     <use xlink:href="#DejaVuSans-31" transform="translate(522.957031 0)"/>
     <use xlink:href="#DejaVuSans-29" transform="translate(586.580078 0)"/>
    </g>
   </g>
   <g id="text_33">
    <!-- Discard(IO) -->
    <g transform="translate(106.169034 96.02196) scale(0.0492 -0.0492)">
     <use xlink:href="#DejaVuSans-44"/>
     <use xlink:href="#DejaVuSans-69" transform="translate(77.001953 0)"/>
     <use xlink:href="#DejaVuSans-73" transform="translate(104.785156 0)"/>
     <use xlink:href="#DejaVuSans-63" transform="translate(156.884766 0)"/>
     <use xlink:href="#DejaVuSans-61" transform="translate(211.865234 0)"/>
     <use xlink:href="#DejaVuSans-72" transform="translate(273.144531 0)"/>
     <use xlink:href="#DejaVuSans-64" transform="translate(312.507812 0)"/>
     <use xlink:href="#DejaVuSans-28" transform="translate(375.984375 0)"/>
     <use xlink:href="#DejaVuSans-49" transform="translate(414.998047 0)"/>
     <use xlink:href="#DejaVuSans-4f" transform="translate(444.490234 0)"/>
     <use xlink:href="#DejaVuSans-29" transform="translate(523.201172 0)"/>
    </g>
   </g>
   <g id="text_34">
    <!-- Copy(Ty(), 1) -->
    <g transform="translate(56.217178 103.034134) scale(0.0492 -0.0492)">
     <use xlink:href="#DejaVuSans-43"/>
     <use xlink:href="#DejaVuSans-6f" transform="translate(69.824219 0)"/>
     <use xlink:href="#DejaVuSans-70" transform="translate(131.005859 0)"/>
     <use xlink:href="#DejaVuSans-79" transform="translate(194.482422 0)"/>
     <use xlink:href="#DejaVuSans-28" transform="translate(253.662109 0)"/>
     <use xlink:href="#DejaVuSans-54" transform="translate(292.675781 0)"/>
     <use xlink:href="#DejaVuSans-79" transform="translate(338.134766 0)"/>
     <use xlink:href="#DejaVuSans-28" transform="translate(397.314453 0)"/>
     <use xlink:href="#DejaVuSans-29" transform="translate(436.328125 0)"/>
     <use xlink:href="#DejaVuSans-2c" transform="translate(475.341797 0)"/>
     <use xlink:href="#DejaVuSans-20" transform="translate(507.128906 0)"/>
     <use xlink:href="#DejaVuSans-31" transform="translate(538.916016 0)"/>
     <use xlink:href="#DejaVuSans-29" transform="translate(602.539062 0)"/>
    </g>
   </g>
   <g id="text_35">
    <!-- ⌜15⌝ -->
    <g transform="translate(66.5634 110.046308) scale(0.0492 -0.0492)">
     <defs>
      <path id="DejaVuSans-35" d="M 691 4666 
L 3169 4666 
L 3169 4134 
L 1269 4134 
L 1269 2991 
Q 1406 3038 1543 3061 
Q 1681 3084 1819 3084 
Q 2600 3084 3056 2656 
Q 3513 2228 3513 1497 
Q 3513 744 3044 326 
Q 2575 -91 1722 -91 
Q 1428 -91 1123 -41 
Q 819 9 494 109 
L 494 744 
Q 775 591 1075 516 
Q 1375 441 1709 441 
Q 2250 441 2565 725 
Q 2881 1009 2881 1497 
Q 2881 1984 2565 2268 
Q 2250 2553 1709 2553 
Q 1456 2553 1204 2497 
Q 953 2441 691 2322 
L 691 4666 
z
" transform="scale(0.015625)"/>
     </defs>
     <use xlink:href="#DejaVuSans-231c"/>
     <use xlink:href="#DejaVuSans-31" transform="translate(46.875 0)"/>
     <use xlink:href="#DejaVuSans-35" transform="translate(110.498047 0)"/>
     <use xlink:href="#DejaVuSans-231d" transform="translate(174.121094 0)"/>
    </g>
   </g>
   <g id="text_36">
    <!-- Copy(IO, 2) -->
    <g transform="translate(58.048725 117.058482) scale(0.0492 -0.0492)">
     <defs>
      <path id="DejaVuSans-32" d="M 1228 531 
L 3431 531 
L 3431 0 
L 469 0 
L 469 531 
Q 828 903 1448 1529 
Q 2069 2156 2228 2338 
Q 2531 2678 2651 2914 
Q 2772 3150 2772 3378 
Q 2772 3750 2511 3984 
Q 2250 4219 1831 4219 
Q 1534 4219 1204 4116 
Q 875 4013 500 3803 
L 500 4441 
Q 881 4594 1212 4672 
Q 1544 4750 1819 4750 
Q 2544 4750 2975 4387 
Q 3406 4025 3406 3419 
Q 3406 3131 3298 2873 
Q 3191 2616 2906 2266 
Q 2828 2175 2409 1742 
Q 1991 1309 1228 531 
z
" transform="scale(0.015625)"/>
     </defs>
     <use xlink:href="#DejaVuSans-43"/>
     <use xlink:href="#DejaVuSans-6f" transform="translate(69.824219 0)"/>
     <use xlink:href="#DejaVuSans-70" transform="translate(131.005859 0)"/>
     <use xlink:href="#DejaVuSans-79" transform="translate(194.482422 0)"/>
     <use xlink:href="#DejaVuSans-28" transform="translate(253.662109 0)"/>
     <use xlink:href="#DejaVuSans-49" transform="translate(292.675781 0)"/>
     <use xlink:href="#DejaVuSans-4f" transform="translate(322.167969 0)"/>
     <use xlink:href="#DejaVuSans-2c" transform="translate(400.878906 0)"/>
     <use xlink:href="#DejaVuSans-20" transform="translate(432.666016 0)"/>
     <use xlink:href="#DejaVuSans-32" transform="translate(464.453125 0)"/>
     <use xlink:href="#DejaVuSans-29" transform="translate(528.076172 0)"/>
    </g>
   </g>
   <g id="text_37">
    <!-- Discard(IO) -->
    <g transform="translate(34.169034 124.070656) scale(0.0492 -0.0492)">
     <use xlink:href="#DejaVuSans-44"/>
     <use xlink:href="#DejaVuSans-69" transform="translate(77.001953 0)"/>
     <use xlink:href="#DejaVuSans-73" transform="translate(104.785156 0)"/>
     <use xlink:href="#DejaVuSans-63" transform="translate(156.884766 0)"/>
     <use xlink:href="#DejaVuSans-61" transform="translate(211.865234 0)"/>
     <use xlink:href="#DejaVuSans-72" transform="translate(273.144531 0)"/>
     <use xlink:href="#DejaVuSans-64" transform="translate(312.507812 0)"/>
     <use xlink:href="#DejaVuSans-28" transform="translate(375.984375 0)"/>
     <use xlink:href="#DejaVuSans-49" transform="translate(414.998047 0)"/>
     <use xlink:href="#DejaVuSans-4f" transform="translate(444.490234 0)"/>
     <use xlink:href="#DejaVuSans-29" transform="translate(523.201172 0)"/>
    </g>
   </g>
   <g id="text_38">
    <!-- ⌜Blastoff!⌝ -->
    <g transform="translate(35.345606 131.08283) scale(0.0492 -0.0492)">
     <defs>
      <path id="DejaVuSans-42" d="M 1259 2228 
L 1259 519 
L 2272 519 
Q 2781 519 3026 730 
Q 3272 941 3272 1375 
Q 3272 1813 3026 2020 
Q 2781 2228 2272 2228 
L 1259 2228 
z
M 1259 4147 
L 1259 2741 
L 2194 2741 
Q 2656 2741 2882 2914 
Q 3109 3088 3109 3444 
Q 3109 3797 2882 3972 
Q 2656 4147 2194 4147 
L 1259 4147 
z
M 628 4666 
L 2241 4666 
Q 2963 4666 3353 4366 
Q 3744 4066 3744 3513 
Q 3744 3084 3544 2831 
Q 3344 2578 2956 2516 
Q 3422 2416 3680 2098 
Q 3938 1781 3938 1306 
Q 3938 681 3513 340 
Q 3088 0 2303 0 
L 628 0 
L 628 4666 
z
" transform="scale(0.015625)"/>
      <path id="DejaVuSans-6c" d="M 603 4863 
L 1178 4863 
L 1178 0 
L 603 0 
L 603 4863 
z
" transform="scale(0.015625)"/>
     </defs>
     <use xlink:href="#DejaVuSans-231c"/>
     <use xlink:href="#DejaVuSans-42" transform="translate(46.875 0)"/>
     <use xlink:href="#DejaVuSans-6c" transform="translate(115.478516 0)"/>
     <use xlink:href="#DejaVuSans-61" transform="translate(143.261719 0)"/>
     <use xlink:href="#DejaVuSans-73" transform="translate(204.541016 0)"/>
     <use xlink:href="#DejaVuSans-74" transform="translate(256.640625 0)"/>
     <use xlink:href="#DejaVuSans-6f" transform="translate(295.849609 0)"/>
     <use xlink:href="#DejaVuSans-66" transform="translate(357.03125 0)"/>
     <use xlink:href="#DejaVuSans-66" transform="translate(392.236328 0)"/>
     <use xlink:href="#DejaVuSans-21" transform="translate(427.441406 0)"/>
     <use xlink:href="#DejaVuSans-231d" transform="translate(467.529297 0)"/>
    </g>
   </g>
   <g id="text_39">
    <!-- countdown2 -->
    <g transform="translate(80.856778 138.095004) scale(0.0492 -0.0492)">
     <use xlink:href="#DejaVuSans-63"/>
     <use xlink:href="#DejaVuSans-6f" transform="translate(54.980469 0)"/>
     <use xlink:href="#DejaVuSans-75" transform="translate(116.162109 0)"/>
     <use xlink:href="#DejaVuSans-6e" transform="translate(179.541016 0)"/>
     <use xlink:href="#DejaVuSans-74" transform="translate(242.919922 0)"/>
     <use xlink:href="#DejaVuSans-64" transform="translate(282.128906 0)"/>
     <use xlink:href="#DejaVuSans-6f" transform="translate(345.605469 0)"/>
     <use xlink:href="#DejaVuSans-77" transform="translate(406.787109 0)"/>
     <use xlink:href="#DejaVuSans-6e" transform="translate(488.574219 0)"/>
     <use xlink:href="#DejaVuSans-32" transform="translate(551.953125 0)"/>
    </g>
   </g>
   <g id="text_40">
    <!-- Merge(IO) -->
    <g transform="translate(59.738438 145.107178) scale(0.0492 -0.0492)">
     <use xlink:href="#DejaVuSans-4d"/>
     <use xlink:href="#DejaVuSans-65" transform="translate(86.279297 0)"/>
     <use xlink:href="#DejaVuSans-72" transform="translate(147.802734 0)"/>
     <use xlink:href="#DejaVuSans-67" transform="translate(187.166016 0)"/>
     <use xlink:href="#DejaVuSans-65" transform="translate(250.642578 0)"/>
     <use xlink:href="#DejaVuSans-28" transform="translate(312.166016 0)"/>
     <use xlink:href="#DejaVuSans-49" transform="translate(351.179688 0)"/>
     <use xlink:href="#DejaVuSans-4f" transform="translate(380.671875 0)"/>
     <use xlink:href="#DejaVuSans-29" transform="translate(459.382812 0)"/>
    </g>
   </g>
   <g id="text_41">
    <!-- Merge(IO, 1) -->
    <g transform="translate(56.609625 152.119352) scale(0.0492 -0.0492)">
     <use xlink:href="#DejaVuSans-4d"/>
     <use xlink:href="#DejaVuSans-65" transform="translate(86.279297 0)"/>
     <use xlink:href="#DejaVuSans-72" transform="translate(147.802734 0)"/>
     <use xlink:href="#DejaVuSans-67" transform="translate(187.166016 0)"/>
     <use xlink:href="#DejaVuSans-65" transform="translate(250.642578 0)"/>
     <use xlink:href="#DejaVuSans-28" transform="translate(312.166016 0)"/>
     <use xlink:href="#DejaVuSans-49" transform="translate(351.179688 0)"/>
     <use xlink:href="#DejaVuSans-4f" transform="translate(380.671875 0)"/>
     <use xlink:href="#DejaVuSans-2c" transform="translate(459.382812 0)"/>
     <use xlink:href="#DejaVuSans-20" transform="translate(491.169922 0)"/>
     <use xlink:href="#DejaVuSans-31" transform="translate(522.957031 0)"/>
     <use xlink:href="#DejaVuSans-29" transform="translate(586.580078 0)"/>
    </g>
   </g>
  </g>
 </g>
 <defs>
  <clipPath id="p0c2ef5444d">
   <rect x="0" y="0" width="216" height="161.28"/>
  </clipPath>
 </defs>
</svg>
