<?xml version="1.0" encoding="utf-8" standalone="no"?>
<!DOCTYPE svg PUBLIC "-//W3C//DTD SVG 1.1//EN"
  "http://www.w3.org/Graphics/SVG/1.1/DTD/svg11.dtd">
<svg xmlns:xlink="http://www.w3.org/1999/xlink" width="216pt" height="161.28pt" viewBox="0 0 216 161.28" xmlns="http://www.w3.org/2000/svg" version="1.1">
 <metadata>
  <rdf:RDF xmlns:dc="http://purl.org/dc/elements/1.1/" xmlns:cc="http://creativecommons.org/ns#" xmlns:rdf="http://www.w3.org/1999/02/22-rdf-syntax-ns#">
   <cc:Work>
    <dc:type rdf:resource="http://purl.org/dc/dcmitype/StillImage"/>
    <dc:date>2026-01-03T02:45:36.131525</dc:date>
    <dc:format>image/svg+xml</dc:format>
    <dc:creator>
     <cc:Agent>
      <dc:title>Matplotlib v3.10.7, https://matplotlib.org/</dc:title>
     </cc:Agent>
    </dc:creator>
   </cc:Work>
  </rdf:RDF>
 </metadata>
 <defs>
  <style type="text/css">*{stroke-linejoin: round; stroke-linecap: butt}</style>
 </defs>
 <g id="figure_1">
  <g id="patch_1">
   <path d="M 0 161.28 
L 216 161.28 
L 216 0 
L 0 0 
z
" style="fill: #ffffff"/>
  </g>
  <g id="axes_1">
   <g id="patch_2">
    <path d="M 0 161.28 
L 216 161.28 
L 216 0 
L 0 0 
z
" clip-path="url(#pd0f4c7513a)" style="fill: #ffffff; stroke: #ffffff; stroke-linejoin: miter"/>
   </g>
   <g id="patch_3">
    <path d="M 108 3.506087 
Q 12 3.506087 12 7.012174 
" clip-path="url(#pd0f4c7513a)" style="fill: none; stroke: #000000; stroke-linejoin: miter"/>
   </g>
   <g id="patch_4">
    <path d="M 108 3.506087 
Q 204 3.506087 204 7.012174 
" clip-path="url(#pd0f4c7513a)" style="fill: none; stroke: #000000; stroke-linejoin: miter"/>
   </g>
   <g id="patch_5">
    <path d="M 12 7.012174 
Q 12 154.267826 12 154.267826 
" clip-path="url(#pd0f4c7513a)" style="fill: none; stroke: #000000; stroke-linejoin: miter"/>
   </g>
   <g id="patch_6">
    <path d="M 204 7.012174 
Q 204 154.267826 204 154.267826 
" clip-path="url(#pd0f4c7513a)" style="fill: none; stroke: #000000; stroke-linejoin: miter"/>
   </g>
   <g id="patch_7">
    <path d="M 120 19.283478 
Q 120 22.789565 120 22.789565 
" clip-path="url(#pd0f4c7513a)" style="fill: none; stroke: #000000; stroke-linejoin: miter"/>
   </g>
   <g id="patch_8">
    <path d="M 120 24.542609 
Q 72 24.542609 72 26.295652 
" clip-path="url(#pd0f4c7513a)" style="fill: none; stroke: #000000; stroke-linejoin: miter"/>
   </g>
   <g id="patch_9">
    <path d="M 120 24.542609 
Q 120 24.542609 120 26.295652 
" clip-path="url(#pd0f4c7513a)" style="fill: none; stroke: #000000; stroke-linejoin: miter"/>
   </g>
   <g id="patch_10">
    <path d="M 120 24.542609 
Q 168 24.542609 168 26.295652 
" clip-path="url(#pd0f4c7513a)" style="fill: none; stroke: #000000; stroke-linejoin: miter"/>
   </g>
   <g id="patch_11">
    <path d="M 120 22.789565 
Q 120 24.542609 120 24.542609 
" clip-path="url(#pd0f4c7513a)" style="fill: none; stroke: #000000; stroke-linejoin: miter"/>
   </g>
   <g id="patch_12">
    <path d="M 72 26.295652 
Q 72 29.801739 72 29.801739 
" clip-path="url(#pd0f4c7513a)" style="fill: none; stroke: #000000; stroke-linejoin: miter"/>
   </g>
   <g id="patch_13">
    <path d="M 120 26.295652 
Q 120 43.826087 120 43.826087 
" clip-path="url(#pd0f4c7513a)" style="fill: none; stroke: #000000; stroke-linejoin: miter"/>
   </g>
   <g id="patch_14">
    <path d="M 168 26.295652 
Q 168 50.838261 168 50.838261 
" clip-path="url(#pd0f4c7513a)" style="fill: none; stroke: #000000; stroke-linejoin: miter"/>
   </g>
   <g id="patch_15">
    <path d="M 72 29.801739 
Q 72 31.554783 72 31.554783 
" clip-path="url(#pd0f4c7513a)" style="fill: none; stroke: #000000; stroke-linejoin: miter"/>
   </g>
   <g id="patch_16">
    <path d="M 72 40.32 
Q 72 78.886957 72 78.886957 
" clip-path="url(#pd0f4c7513a)" style="fill: none; stroke: #000000; stroke-linejoin: miter"/>
   </g>
   <g id="patch_17">
    <path d="M 120 47.332174 
Q 120 78.886957 120 78.886957 
" clip-path="url(#pd0f4c7513a)" style="fill: none; stroke: #000000; stroke-linejoin: miter"/>
   </g>
   <g id="patch_18">
    <path d="M 168 52.591304 
Q 168 52.591304 168 54.344348 
" clip-path="url(#pd0f4c7513a)" style="fill: none; stroke: #000000; stroke-linejoin: miter"/>
   </g>
   <g id="patch_19">
    <path d="M 168 50.838261 
Q 168 52.591304 168 52.591304 
" clip-path="url(#pd0f4c7513a)" style="fill: none; stroke: #000000; stroke-linejoin: miter"/>
   </g>
   <g id="patch_20">
    <path d="M 168 54.344348 
Q 168 57.850435 168 57.850435 
" clip-path="url(#pd0f4c7513a)" style="fill: none; stroke: #000000; stroke-linejoin: miter"/>
   </g>
   <g id="patch_21">
    <path d="M 168 61.356522 
Q 168 64.862609 168 64.862609 
" clip-path="url(#pd0f4c7513a)" style="fill: none; stroke: #000000; stroke-linejoin: miter"/>
   </g>
   <g id="patch_22">
    <path d="M 168 68.368696 
Q 168 71.874783 168 71.874783 
" clip-path="url(#pd0f4c7513a)" style="fill: none; stroke: #000000; stroke-linejoin: miter"/>
   </g>
   <g id="patch_23">
    <path d="M 168 73.627826 
Q 168 73.627826 168 75.38087 
" clip-path="url(#pd0f4c7513a)" style="fill: none; stroke: #000000; stroke-linejoin: miter"/>
   </g>
   <g id="patch_24">
    <path d="M 168 71.874783 
Q 168 73.627826 168 73.627826 
" clip-path="url(#pd0f4c7513a)" style="fill: none; stroke: #000000; stroke-linejoin: miter"/>
   </g>
   <g id="patch_25">
    <path d="M 168 75.38087 
Q 168 78.886957 168 78.886957 
" clip-path="url(#pd0f4c7513a)" style="fill: none; stroke: #000000; stroke-linejoin: miter"/>
   </g>
   <g id="patch_26">
    <path d="M 120 80.64 
Q 120 80.64 120 82.393043 
" clip-path="url(#pd0f4c7513a)" style="fill: none; stroke: #000000; stroke-linejoin: miter"/>
   </g>
   <g id="patch_27">
    <path d="M 72 78.886957 
Q 72 80.64 120 80.64 
" clip-path="url(#pd0f4c7513a)" style="fill: none; stroke: #000000; stroke-linejoin: miter"/>
   </g>
   <g id="patch_28">
    <path d="M 120 78.886957 
Q 120 80.64 120 80.64 
" clip-path="url(#pd0f4c7513a)" style="fill: none; stroke: #000000; stroke-linejoin: miter"/>
   </g>
   <g id="patch_29">
    <path d="M 168 78.886957 
Q 168 80.64 120 80.64 
" clip-path="url(#pd0f4c7513a)" style="fill: none; stroke: #000000; stroke-linejoin: miter"/>
   </g>
   <g id="patch_30">
    <path d="M 120 82.393043 
Q 120 85.89913 120 85.89913 
" clip-path="url(#pd0f4c7513a)" style="fill: none; stroke: #000000; stroke-linejoin: miter"/>
   </g>
   <g id="patch_31">
    <path d="M 120 87.652174 
Q 120 87.652174 120 89.405217 
" clip-path="url(#pd0f4c7513a)" style="fill: none; stroke: #000000; stroke-linejoin: miter"/>
   </g>
   <g id="patch_32">
    <path d="M 120 85.89913 
Q 120 87.652174 120 87.652174 
" clip-path="url(#pd0f4c7513a)" style="fill: none; stroke: #000000; stroke-linejoin: miter"/>
   </g>
   <g id="patch_33">
    <path d="M 120 89.405217 
Q 120 92.911304 120 92.911304 
" clip-path="url(#pd0f4c7513a)" style="fill: none; stroke: #000000; stroke-linejoin: miter"/>
   </g>
   <g id="patch_34">
    <path d="M 120 92.911304 
Q 120 94.664348 120 94.664348 
" clip-path="url(#pd0f4c7513a)" style="fill: none; stroke: #000000; stroke-linejoin: miter"/>
   </g>
   <g id="patch_35">
    <path d="M 72 110.441739 
Q 72 113.947826 72 113.947826 
" clip-path="url(#pd0f4c7513a)" style="fill: none; stroke: #000000; stroke-linejoin: miter"/>
   </g>
   <g id="patch_36">
    <path d="M 72 115.70087 
Q 48 115.70087 48 117.453913 
" clip-path="url(#pd0f4c7513a)" style="fill: none; stroke: #000000; stroke-linejoin: miter"/>
   </g>
   <g id="patch_37">
    <path d="M 72 115.70087 
Q 96 115.70087 96 117.453913 
" clip-path="url(#pd0f4c7513a)" style="fill: none; stroke: #000000; stroke-linejoin: miter"/>
   </g>
   <g id="patch_38">
    <path d="M 72 113.947826 
Q 72 115.70087 72 115.70087 
" clip-path="url(#pd0f4c7513a)" style="fill: none; stroke: #000000; stroke-linejoin: miter"/>
   </g>
   <g id="patch_39">
    <path d="M 48 117.453913 
Q 48 120.96 48 120.96 
" clip-path="url(#pd0f4c7513a)" style="fill: none; stroke: #000000; stroke-linejoin: miter"/>
   </g>
   <g id="patch_40">
    <path d="M 96 117.453913 
Q 96 134.984348 96 134.984348 
" clip-path="url(#pd0f4c7513a)" style="fill: none; stroke: #000000; stroke-linejoin: miter"/>
   </g>
   <g id="patch_41">
    <path d="M 48 120.96 
Q 48 122.713043 48 122.713043 
" clip-path="url(#pd0f4c7513a)" style="fill: none; stroke: #000000; stroke-linejoin: miter"/>
   </g>
   <g id="patch_42">
    <path d="M 48 131.478261 
Q 48 141.996522 48 141.996522 
" clip-path="url(#pd0f4c7513a)" style="fill: none; stroke: #000000; stroke-linejoin: miter"/>
   </g>
   <g id="patch_43">
    <path d="M 96 138.490435 
Q 96 141.996522 96 141.996522 
" clip-path="url(#pd0f4c7513a)" style="fill: none; stroke: #000000; stroke-linejoin: miter"/>
   </g>
   <g id="patch_44">
    <path d="M 72 143.749565 
Q 72 143.749565 72 145.502609 
" clip-path="url(#pd0f4c7513a)" style="fill: none; stroke: #000000; stroke-linejoin: miter"/>
   </g>
   <g id="patch_45">
    <path d="M 48 141.996522 
Q 48 143.749565 72 143.749565 
" clip-path="url(#pd0f4c7513a)" style="fill: none; stroke: #000000; stroke-linejoin: miter"/>
   </g>
   <g id="patch_46">
    <path d="M 96 141.996522 
Q 96 143.749565 72 143.749565 
" clip-path="url(#pd0f4c7513a)" style="fill: none; stroke: #000000; stroke-linejoin: miter"/>
   </g>
   <g id="patch_47">
    <path d="M 72 145.502609 
Q 72 149.008696 72 149.008696 
" clip-path="url(#pd0f4c7513a)" style="fill: none; stroke: #000000; stroke-linejoin: miter"/>
   </g>
   <g id="patch_48">
    <path d="M 72 150.761739 
Q 72 150.761739 72 152.514783 
" clip-path="url(#pd0f4c7513a)" style="fill: none; stroke: #000000; stroke-linejoin: miter"/>
   </g>
   <g id="patch_49">
    <path d="M 72 149.008696 
Q 72 150.761739 72 150.761739 
" clip-path="url(#pd0f4c7513a)" style="fill: none; stroke: #000000; stroke-linejoin: miter"/>
   </g>
   <g id="patch_50">
    <path d="M 72 152.514783 
Q 72 154.267826 72 154.267826 
" clip-path="url(#pd0f4c7513a)" style="fill: none; stroke: #000000; stroke-linejoin: miter"/>
   </g>
   <g id="patch_51">
    <path d="M 12 154.267826 
Q 12 157.773913 72 157.773913 
" clip-path="url(#pd0f4c7513a)" style="fill: none; stroke: #000000; stroke-linejoin: miter"/>
   </g>
   <g id="patch_52">
    <path d="M 72 154.267826 
Q 72 161.28 72 161.28 
" clip-path="url(#pd0f4c7513a)" style="fill: none; stroke: #000000; stroke-linejoin: miter"/>
   </g>
   <g id="patch_53">
    <path d="M 204 154.267826 
Q 204 157.773913 72 157.773913 
" clip-path="url(#pd0f4c7513a)" style="fill: none; stroke: #000000; stroke-linejoin: miter"/>
   </g>
   <g id="patch_54">
    <path d="M 108 19.283478 
L 108 15.777391 
L 132 15.777391 
L 132 19.283478 
z
" clip-path="url(#pd0f4c7513a)" style="fill: #ffffff; stroke: #000000; stroke-linejoin: miter"/>
   </g>
   <g id="patch_55">
    <path d="M 60 40.32 
L 60 36.813913 
L 84 36.813913 
L 84 40.32 
z
" clip-path="url(#pd0f4c7513a)" style="fill: #ffffff; stroke: #000000; stroke-linejoin: miter"/>
   </g>
   <g id="patch_56">
    <path d="M 108 47.332174 
L 108 43.826087 
L 132 43.826087 
L 132 47.332174 
z
" clip-path="url(#pd0f4c7513a)" style="fill: #776ff3; stroke: #000000; stroke-linejoin: miter"/>
   </g>
   <g id="patch_57">
    <path d="M 156 61.356522 
L 156 57.850435 
L 180 57.850435 
L 180 61.356522 
z
" clip-path="url(#pd0f4c7513a)" style="fill: #ffffff; stroke: #000000; stroke-linejoin: miter"/>
   </g>
   <g id="patch_58">
    <path d="M 156 68.368696 
L 156 64.862609 
L 180 64.862609 
L 180 68.368696 
z
" clip-path="url(#pd0f4c7513a)" style="fill: #776ff3; stroke: #000000; stroke-linejoin: miter"/>
   </g>
   <g id="patch_59">
    <path d="M 60 110.441739 
L 60 106.935652 
L 84 106.935652 
L 84 110.441739 
z
" clip-path="url(#pd0f4c7513a)" style="fill: #ffffff; stroke: #000000; stroke-linejoin: miter"/>
   </g>
   <g id="patch_60">
    <path d="M 36 131.478261 
L 36 127.972174 
L 60 127.972174 
L 60 131.478261 
z
" clip-path="url(#pd0f4c7513a)" style="fill: #ffffff; stroke: #000000; stroke-linejoin: miter"/>
   </g>
   <g id="patch_61">
    <path d="M 84 138.490435 
L 84 134.984348 
L 108 134.984348 
L 108 138.490435 
z
" clip-path="url(#pd0f4c7513a)" style="fill: #776ff3; stroke: #000000; stroke-linejoin: miter"/>
   </g>
   <g id="PathCollection_1">
    <defs>
     <path id="C0_0_8c58026b51" d="M 0 3.959167 
C 1.049983 3.959167 2.057103 3.542004 2.799554 2.799554 
C 3.542004 2.057103 3.959167 1.049983 3.959167 -0 
C 3.959167 -1.049983 3.542004 -2.057103 2.799554 -2.799554 
C 2.057103 -3.542004 1.049983 -3.959167 0 -3.959167 
C -1.049983 -3.959167 -2.057103 -3.542004 -2.799554 -2.799554 
C -3.542004 -2.057103 -3.959167 -1.049983 -3.959167 0 
C -3.959167 1.049983 -3.542004 2.057103 -2.799554 2.799554 
C -2.057103 3.542004 -1.049983 3.959167 0 3.959167 
z
"/>
    </defs>
    <g clip-path="url(#pd0f4c7513a)">
     <use xlink:href="#C0_0_8c58026b51" x="48" y="122.713043" style="fill: #ffffff; stroke: #ffffff"/>
    </g>
    <g clip-path="url(#pd0f4c7513a)">
     <use xlink:href="#C0_0_8c58026b51" x="72" y="31.554783" style="fill: #ffffff; stroke: #ffffff"/>
    </g>
    <g clip-path="url(#pd0f4c7513a)">
     <use xlink:href="#C0_0_8c58026b51" x="168" y="52.591304" style="fill: #d8f8d8; stroke: #d8f8d8"/>
    </g>
    <g clip-path="url(#pd0f4c7513a)">
     <use xlink:href="#C0_0_8c58026b51" x="120" y="10.518261" style="fill: #d8f8d8; stroke: #d8f8d8"/>
    </g>
    <g clip-path="url(#pd0f4c7513a)">
     <use xlink:href="#C0_0_8c58026b51" x="120" y="87.652174" style="fill: #d8f8d8; stroke: #d8f8d8"/>
    </g>
    <g clip-path="url(#pd0f4c7513a)">
     <use xlink:href="#C0_0_8c58026b51" x="168" y="73.627826" style="fill: #d8f8d8; stroke: #d8f8d8"/>
    </g>
    <g clip-path="url(#pd0f4c7513a)">
     <use xlink:href="#C0_0_8c58026b51" x="120" y="94.664348" style="fill: #ffffff; stroke: #ffffff"/>
    </g>
    <g clip-path="url(#pd0f4c7513a)">
     <use xlink:href="#C0_0_8c58026b51" x="72" y="143.749565" style="fill: #d8f8d8; stroke: #d8f8d8"/>
    </g>
    <g clip-path="url(#pd0f4c7513a)">
     <use xlink:href="#C0_0_8c58026b51" x="120" y="24.542609" style="fill: #d8f8d8; stroke: #d8f8d8"/>
    </g>
    <g clip-path="url(#pd0f4c7513a)">
     <use xlink:href="#C0_0_8c58026b51" x="120" y="80.64" style="fill: #d8f8d8; stroke: #d8f8d8"/>
    </g>
    <g clip-path="url(#pd0f4c7513a)">
     <use xlink:href="#C0_0_8c58026b51" x="72" y="115.70087" style="fill: #d8f8d8; stroke: #d8f8d8"/>
    </g>
    <g clip-path="url(#pd0f4c7513a)">
     <use xlink:href="#C0_0_8c58026b51" x="72" y="150.761739" style="fill: #d8f8d8; stroke: #d8f8d8"/>
    </g>
    <g clip-path="url(#pd0f4c7513a)">
     <use xlink:href="#C0_0_8c58026b51" x="72" y="101.676522" style="fill: #d8f8d8; stroke: #d8f8d8"/>
    </g>
   </g>
   <g id="text_1">
    <!-- Stream -->
    <g transform="translate(21.6 8.941096) scale(0.03 -0.03)">
     <defs>
      <path id="DejaVuSans-53" d="M 3425 4513 
L 3425 3897 
Q 3066 4069 2747 4153 
Q 2428 4238 2131 4238 
Q 1616 4238 1336 4038 
Q 1056 3838 1056 3469 
Q 1056 3159 1242 3001 
Q 1428 2844 1947 2747 
L 2328 2669 
Q 3034 2534 3370 2195 
Q 3706 1856 3706 1288 
Q 3706 609 3251 259 
Q 2797 -91 1919 -91 
Q 1588 -91 1214 -16 
Q 841 59 441 206 
L 441 856 
Q 825 641 1194 531 
Q 1563 422 1919 422 
Q 2459 422 2753 634 
Q 3047 847 3047 1241 
Q 3047 1584 2836 1778 
Q 2625 1972 2144 2069 
L 1759 2144 
Q 1053 2284 737 2584 
Q 422 2884 422 3419 
Q 422 4038 858 4394 
Q 1294 4750 2059 4750 
Q 2388 4750 2728 4690 
Q 3069 4631 3425 4513 
z
" transform="scale(0.015625)"/>
      <path id="DejaVuSans-74" d="M 1172 4494 
L 1172 3500 
L 2356 3500 
L 2356 3053 
L 1172 3053 
L 1172 1153 
Q 1172 725 1289 603 
Q 1406 481 1766 481 
L 2356 481 
L 2356 0 
L 1766 0 
Q 1100 0 847 248 
Q 594 497 594 1153 
L 594 3053 
L 172 3053 
L 172 3500 
L 594 3500 
L 594 4494 
L 1172 4494 
z
" transform="scale(0.015625)"/>
      <path id="DejaVuSans-72" d="M 2631 2963 
Q 2534 3019 2420 3045 
Q 2306 3072 2169 3072 
Q 1681 3072 1420 2755 
Q 1159 2438 1159 1844 
L 1159 0 
L 581 0 
L 581 3500 
L 1159 3500 
L 1159 2956 
Q 1341 3275 1631 3429 
Q 1922 3584 2338 3584 
Q 2397 3584 2469 3576 
Q 2541 3569 2628 3553 
L 2631 2963 
z
" transform="scale(0.015625)"/>
      <path id="DejaVuSans-65" d="M 3597 1894 
L 3597 1613 
L 953 1613 
Q 991 1019 1311 708 
Q 1631 397 2203 397 
Q 2534 397 2845 478 
Q 3156 559 3463 722 
L 3463 178 
Q 3153 47 2828 -22 
Q 2503 -91 2169 -91 
Q 1331 -91 842 396 
Q 353 884 353 1716 
Q 353 2575 817 3079 
Q 1281 3584 2069 3584 
Q 2775 3584 3186 3129 
Q 3597 2675 3597 1894 
z
M 3022 2063 
Q 3016 2534 2758 2815 
Q 2500 3097 2075 3097 
Q 1594 3097 1305 2825 
Q 1016 2553 972 2059 
L 3022 2063 
z
" transform="scale(0.015625)"/>
      <path id="DejaVuSans-61" d="M 2194 1759 
Q 1497 1759 1228 1600 
Q 959 1441 959 1056 
Q 959 750 1161 570 
Q 1363 391 1709 391 
Q 2188 391 2477 730 
Q 2766 1069 2766 1631 
L 2766 1759 
L 2194 1759 
z
M 3341 1997 
L 3341 0 
L 2766 0 
L 2766 531 
Q 2569 213 2275 61 
Q 1981 -91 1556 -91 
Q 1019 -91 701 211 
Q 384 513 384 1019 
Q 384 1609 779 1909 
Q 1175 2209 1959 2209 
L 2766 2209 
L 2766 2266 
Q 2766 2663 2505 2880 
Q 2244 3097 1772 3097 
Q 1472 3097 1187 3025 
Q 903 2953 641 2809 
L 641 3341 
Q 956 3463 1253 3523 
Q 1550 3584 1831 3584 
Q 2591 3584 2966 3190 
Q 3341 2797 3341 1997 
z
" transform="scale(0.015625)"/>
      <path id="DejaVuSans-6d" d="M 3328 2828 
Q 3544 3216 3844 3400 
Q 4144 3584 4550 3584 
Q 5097 3584 5394 3201 
Q 5691 2819 5691 2113 
L 5691 0 
L 5113 0 
L 5113 2094 
Q 5113 2597 4934 2840 
Q 4756 3084 4391 3084 
Q 3944 3084 3684 2787 
Q 3425 2491 3425 1978 
L 3425 0 
L 2847 0 
L 2847 2094 
Q 2847 2600 2669 2842 
Q 2491 3084 2119 3084 
Q 1678 3084 1418 2786 
Q 1159 2488 1159 1978 
L 1159 0 
L 581 0 
L 581 3500 
L 1159 3500 
L 1159 2956 
Q 1356 3278 1631 3431 
Q 1906 3584 2284 3584 
Q 2666 3584 2933 3390 
Q 3200 3197 3328 2828 
z
" transform="scale(0.015625)"/>
     </defs>
     <use xlink:href="#DejaVuSans-53"/>
     <use xlink:href="#DejaVuSans-74" transform="translate(63.476562 0)"/>
     <use xlink:href="#DejaVuSans-72" transform="translate(102.685547 0)"/>
     <use xlink:href="#DejaVuSans-65" transform="translate(141.548828 0)"/>
     <use xlink:href="#DejaVuSans-61" transform="translate(203.072266 0)"/>
     <use xlink:href="#DejaVuSans-6d" transform="translate(264.351562 0)"/>
    </g>
   </g>
   <g id="text_2">
    <!-- 10 -->
    <g transform="translate(116.86965 18.888047) scale(0.0492 -0.0492)">
     <defs>
      <path id="DejaVuSans-31" d="M 794 531 
L 1825 531 
L 1825 4091 
L 703 3866 
L 703 4441 
L 1819 4666 
L 2450 4666 
L 2450 531 
L 3481 531 
L 3481 0 
L 794 0 
L 794 531 
z
" transform="scale(0.015625)"/>
      <path id="DejaVuSans-30" d="M 2034 4250 
Q 1547 4250 1301 3770 
Q 1056 3291 1056 2328 
Q 1056 1369 1301 889 
Q 1547 409 2034 409 
Q 2525 409 2770 889 
Q 3016 1369 3016 2328 
Q 3016 3291 2770 3770 
Q 2525 4250 2034 4250 
z
M 2034 4750 
Q 2819 4750 3233 4129 
Q 3647 3509 3647 2328 
Q 3647 1150 3233 529 
Q 2819 -91 2034 -91 
Q 1250 -91 836 529 
Q 422 1150 422 2328 
Q 422 3509 836 4129 
Q 1250 4750 2034 4750 
z
" transform="scale(0.015625)"/>
     </defs>
     <use xlink:href="#DejaVuSans-31"/>
     <use xlink:href="#DejaVuSans-30" transform="translate(63.623047 0)"/>
    </g>
   </g>
   <g id="text_3">
    <!-- Liftoff! -->
    <g transform="translate(63.935044 39.924569) scale(0.0492 -0.0492)">
     <defs>
      <path id="DejaVuSans-4c" d="M 628 4666 
L 1259 4666 
L 1259 531 
L 3531 531 
L 3531 0 
L 628 0 
L 628 4666 
z
" transform="scale(0.015625)"/>
      <path id="DejaVuSans-69" d="M 603 3500 
L 1178 3500 
L 1178 0 
L 603 0 
L 603 3500 
z
M 603 4863 
L 1178 4863 
L 1178 4134 
L 603 4134 
L 603 4863 
z
" transform="scale(0.015625)"/>
      <path id="DejaVuSans-66" d="M 2375 4863 
L 2375 4384 
L 1825 4384 
Q 1516 4384 1395 4259 
Q 1275 4134 1275 3809 
L 1275 3500 
L 2222 3500 
L 2222 3053 
L 1275 3053 
L 1275 0 
L 697 0 
L 697 3053 
L 147 3053 
L 147 3500 
L 697 3500 
L 697 3744 
Q 697 4328 969 4595 
Q 1241 4863 1831 4863 
L 2375 4863 
z
" transform="scale(0.015625)"/>
      <path id="DejaVuSans-6f" d="M 1959 3097 
Q 1497 3097 1228 2736 
Q 959 2375 959 1747 
Q 959 1119 1226 758 
Q 1494 397 1959 397 
Q 2419 397 2687 759 
Q 2956 1122 2956 1747 
Q 2956 2369 2687 2733 
Q 2419 3097 1959 3097 
z
M 1959 3584 
Q 2709 3584 3137 3096 
Q 3566 2609 3566 1747 
Q 3566 888 3137 398 
Q 2709 -91 1959 -91 
Q 1206 -91 779 398 
Q 353 888 353 1747 
Q 353 2609 779 3096 
Q 1206 3584 1959 3584 
z
" transform="scale(0.015625)"/>
      <path id="DejaVuSans-21" d="M 966 794 
L 1600 794 
L 1600 0 
L 966 0 
L 966 794 
z
M 966 4666 
L 1600 4666 
L 1600 2619 
L 1538 1503 
L 1031 1503 
L 966 2619 
L 966 4666 
z
" transform="scale(0.015625)"/>
     </defs>
     <use xlink:href="#DejaVuSans-4c"/>
     <use xlink:href="#DejaVuSans-69" transform="translate(55.712891 0)"/>
     <use xlink:href="#DejaVuSans-66" transform="translate(83.496094 0)"/>
     <use xlink:href="#DejaVuSans-74" transform="translate(116.951172 0)"/>
     <use xlink:href="#DejaVuSans-6f" transform="translate(156.160156 0)"/>
     <use xlink:href="#DejaVuSans-66" transform="translate(217.341797 0)"/>
     <use xlink:href="#DejaVuSans-66" transform="translate(252.546875 0)"/>
     <use xlink:href="#DejaVuSans-21" transform="translate(287.751953 0)"/>
    </g>
   </g>
   <g id="text_4">
    <!-- *countdown -->
    <g transform="translate(105.191953 46.936743) scale(0.0492 -0.0492)">
     <defs>
      <path id="DejaVuSans-2a" d="M 3009 3897 
L 1888 3291 
L 3009 2681 
L 2828 2375 
L 1778 3009 
L 1778 1831 
L 1422 1831 
L 1422 3009 
L 372 2375 
L 191 2681 
L 1313 3291 
L 191 3897 
L 372 4206 
L 1422 3572 
L 1422 4750 
L 1778 4750 
L 1778 3572 
L 2828 4206 
L 3009 3897 
z
" transform="scale(0.015625)"/>
      <path id="DejaVuSans-63" d="M 3122 3366 
L 3122 2828 
Q 2878 2963 2633 3030 
Q 2388 3097 2138 3097 
Q 1578 3097 1268 2742 
Q 959 2388 959 1747 
Q 959 1106 1268 751 
Q 1578 397 2138 397 
Q 2388 397 2633 464 
Q 2878 531 3122 666 
L 3122 134 
Q 2881 22 2623 -34 
Q 2366 -91 2075 -91 
Q 1284 -91 818 406 
Q 353 903 353 1747 
Q 353 2603 823 3093 
Q 1294 3584 2113 3584 
Q 2378 3584 2631 3529 
Q 2884 3475 3122 3366 
z
" transform="scale(0.015625)"/>
      <path id="DejaVuSans-75" d="M 544 1381 
L 544 3500 
L 1119 3500 
L 1119 1403 
Q 1119 906 1312 657 
Q 1506 409 1894 409 
Q 2359 409 2629 706 
Q 2900 1003 2900 1516 
L 2900 3500 
L 3475 3500 
L 3475 0 
L 2900 0 
L 2900 538 
Q 2691 219 2414 64 
Q 2138 -91 1772 -91 
Q 1169 -91 856 284 
Q 544 659 544 1381 
z
M 1991 3584 
L 1991 3584 
z
" transform="scale(0.015625)"/>
      <path id="DejaVuSans-6e" d="M 3513 2113 
L 3513 0 
L 2938 0 
L 2938 2094 
Q 2938 2591 2744 2837 
Q 2550 3084 2163 3084 
Q 1697 3084 1428 2787 
Q 1159 2491 1159 1978 
L 1159 0 
L 581 0 
L 581 3500 
L 1159 3500 
L 1159 2956 
Q 1366 3272 1645 3428 
Q 1925 3584 2291 3584 
Q 2894 3584 3203 3211 
Q 3513 2838 3513 2113 
z
" transform="scale(0.015625)"/>
      <path id="DejaVuSans-64" d="M 2906 2969 
L 2906 4863 
L 3481 4863 
L 3481 0 
L 2906 0 
L 2906 525 
Q 2725 213 2448 61 
Q 2172 -91 1784 -91 
Q 1150 -91 751 415 
Q 353 922 353 1747 
Q 353 2572 751 3078 
Q 1150 3584 1784 3584 
Q 2172 3584 2448 3432 
Q 2725 3281 2906 2969 
z
M 947 1747 
Q 947 1113 1208 752 
Q 1469 391 1925 391 
Q 2381 391 2643 752 
Q 2906 1113 2906 1747 
Q 2906 2381 2643 2742 
Q 2381 3103 1925 3103 
Q 1469 3103 1208 2742 
Q 947 2381 947 1747 
z
" transform="scale(0.015625)"/>
      <path id="DejaVuSans-77" d="M 269 3500 
L 844 3500 
L 1563 769 
L 2278 3500 
L 2956 3500 
L 3675 769 
L 4391 3500 
L 4966 3500 
L 4050 0 
L 3372 0 
L 2619 2869 
L 1863 0 
L 1184 0 
L 269 3500 
z
" transform="scale(0.015625)"/>
     </defs>
     <use xlink:href="#DejaVuSans-2a"/>
     <use xlink:href="#DejaVuSans-63" transform="translate(50 0)"/>
     <use xlink:href="#DejaVuSans-6f" transform="translate(104.980469 0)"/>
     <use xlink:href="#DejaVuSans-75" transform="translate(166.162109 0)"/>
     <use xlink:href="#DejaVuSans-6e" transform="translate(229.541016 0)"/>
     <use xlink:href="#DejaVuSans-74" transform="translate(292.919922 0)"/>
     <use xlink:href="#DejaVuSans-64" transform="translate(332.128906 0)"/>
     <use xlink:href="#DejaVuSans-6f" transform="translate(395.605469 0)"/>
     <use xlink:href="#DejaVuSans-77" transform="translate(456.787109 0)"/>
     <use xlink:href="#DejaVuSans-6e" transform="translate(538.574219 0)"/>
    </g>
   </g>
   <g id="text_5">
    <!-- echo TestAlias -->
    <g transform="translate(150.605109 60.961091) scale(0.0492 -0.0492)">
     <defs>
      <path id="DejaVuSans-68" d="M 3513 2113 
L 3513 0 
L 2938 0 
L 2938 2094 
Q 2938 2591 2744 2837 
Q 2550 3084 2163 3084 
Q 1697 3084 1428 2787 
Q 1159 2491 1159 1978 
L 1159 0 
L 581 0 
L 581 4863 
L 1159 4863 
L 1159 2956 
Q 1366 3272 1645 3428 
Q 1925 3584 2291 3584 
Q 2894 3584 3203 3211 
Q 3513 2838 3513 2113 
z
" transform="scale(0.015625)"/>
      <path id="DejaVuSans-20" transform="scale(0.015625)"/>
      <path id="DejaVuSans-54" d="M -19 4666 
L 3928 4666 
L 3928 4134 
L 2272 4134 
L 2272 0 
L 1638 0 
L 1638 4134 
L -19 4134 
L -19 4666 
z
" transform="scale(0.015625)"/>
      <path id="DejaVuSans-73" d="M 2834 3397 
L 2834 2853 
Q 2591 2978 2328 3040 
Q 2066 3103 1784 3103 
Q 1356 3103 1142 2972 
Q 928 2841 928 2578 
Q 928 2378 1081 2264 
Q 1234 2150 1697 2047 
L 1894 2003 
Q 2506 1872 2764 1633 
Q 3022 1394 3022 966 
Q 3022 478 2636 193 
Q 2250 -91 1575 -91 
Q 1294 -91 989 -36 
Q 684 19 347 128 
L 347 722 
Q 666 556 975 473 
Q 1284 391 1588 391 
Q 1994 391 2212 530 
Q 2431 669 2431 922 
Q 2431 1156 2273 1281 
Q 2116 1406 1581 1522 
L 1381 1569 
Q 847 1681 609 1914 
Q 372 2147 372 2553 
Q 372 3047 722 3315 
Q 1072 3584 1716 3584 
Q 2034 3584 2315 3537 
Q 2597 3491 2834 3397 
z
" transform="scale(0.015625)"/>
      <path id="DejaVuSans-41" d="M 2188 4044 
L 1331 1722 
L 3047 1722 
L 2188 4044 
z
M 1831 4666 
L 2547 4666 
L 4325 0 
L 3669 0 
L 3244 1197 
L 1141 1197 
L 716 0 
L 50 0 
L 1831 4666 
z
" transform="scale(0.015625)"/>
      <path id="DejaVuSans-6c" d="M 603 4863 
L 1178 4863 
L 1178 0 
L 603 0 
L 603 4863 
z
" transform="scale(0.015625)"/>
     </defs>
     <use xlink:href="#DejaVuSans-65"/>
     <use xlink:href="#DejaVuSans-63" transform="translate(61.523438 0)"/>
     <use xlink:href="#DejaVuSans-68" transform="translate(116.503906 0)"/>
     <use xlink:href="#DejaVuSans-6f" transform="translate(179.882812 0)"/>
     <use xlink:href="#DejaVuSans-20" transform="translate(241.064453 0)"/>
     <use xlink:href="#DejaVuSans-54" transform="translate(272.851562 0)"/>
     <use xlink:href="#DejaVuSans-65" transform="translate(316.935547 0)"/>
     <use xlink:href="#DejaVuSans-73" transform="translate(378.458984 0)"/>
     <use xlink:href="#DejaVuSans-74" transform="translate(430.558594 0)"/>
     <use xlink:href="#DejaVuSans-41" transform="translate(469.767578 0)"/>
     <use xlink:href="#DejaVuSans-6c" transform="translate(538.175781 0)"/>
     <use xlink:href="#DejaVuSans-69" transform="translate(565.958984 0)"/>
     <use xlink:href="#DejaVuSans-61" transform="translate(593.742188 0)"/>
     <use xlink:href="#DejaVuSans-73" transform="translate(655.021484 0)"/>
    </g>
   </g>
   <g id="text_6">
    <!-- *countdown -->
    <g transform="translate(153.191953 67.973265) scale(0.0492 -0.0492)">
     <use xlink:href="#DejaVuSans-2a"/>
     <use xlink:href="#DejaVuSans-63" transform="translate(50 0)"/>
     <use xlink:href="#DejaVuSans-6f" transform="translate(104.980469 0)"/>
     <use xlink:href="#DejaVuSans-75" transform="translate(166.162109 0)"/>
     <use xlink:href="#DejaVuSans-6e" transform="translate(229.541016 0)"/>
     <use xlink:href="#DejaVuSans-74" transform="translate(292.919922 0)"/>
     <use xlink:href="#DejaVuSans-64" transform="translate(332.128906 0)"/>
     <use xlink:href="#DejaVuSans-6f" transform="translate(395.605469 0)"/>
     <use xlink:href="#DejaVuSans-77" transform="translate(456.787109 0)"/>
     <use xlink:href="#DejaVuSans-6e" transform="translate(538.574219 0)"/>
    </g>
   </g>
   <g id="text_7">
    <!-- 15 -->
    <g transform="translate(68.86965 110.046308) scale(0.0492 -0.0492)">
     <defs>
      <path id="DejaVuSans-35" d="M 691 4666 
L 3169 4666 
L 3169 4134 
L 1269 4134 
L 1269 2991 
Q 1406 3038 1543 3061 
Q 1681 3084 1819 3084 
Q 2600 3084 3056 2656 
Q 3513 2228 3513 1497 
Q 3513 744 3044 326 
Q 2575 -91 1722 -91 
Q 1428 -91 1123 -41 
Q 819 9 494 109 
L 494 744 
Q 775 591 1075 516 
Q 1375 441 1709 441 
Q 2250 441 2565 725 
Q 2881 1009 2881 1497 
Q 2881 1984 2565 2268 
Q 2250 2553 1709 2553 
Q 1456 2553 1204 2497 
Q 953 2441 691 2322 
L 691 4666 
z
" transform="scale(0.015625)"/>
     </defs>
     <use xlink:href="#DejaVuSans-31"/>
     <use xlink:href="#DejaVuSans-35" transform="translate(63.623047 0)"/>
    </g>
   </g>
   <g id="text_8">
    <!-- Blastoff! -->
    <g transform="translate(37.651856 131.08283) scale(0.0492 -0.0492)">
     <defs>
      <path id="DejaVuSans-42" d="M 1259 2228 
L 1259 519 
L 2272 519 
Q 2781 519 3026 730 
Q 3272 941 3272 1375 
Q 3272 1813 3026 2020 
Q 2781 2228 2272 2228 
L 1259 2228 
z
M 1259 4147 
L 1259 2741 
L 2194 2741 
Q 2656 2741 2882 2914 
Q 3109 3088 3109 3444 
Q 3109 3797 2882 3972 
Q 2656 4147 2194 4147 
L 1259 4147 
z
M 628 4666 
L 2241 4666 
Q 2963 4666 3353 4366 
Q 3744 4066 3744 3513 
Q 3744 3084 3544 2831 
Q 3344 2578 2956 2516 
Q 3422 2416 3680 2098 
Q 3938 1781 3938 1306 
Q 3938 681 3513 340 
Q 3088 0 2303 0 
L 628 0 
L 628 4666 
z
" transform="scale(0.015625)"/>
     </defs>
     <use xlink:href="#DejaVuSans-42"/>
     <use xlink:href="#DejaVuSans-6c" transform="translate(68.603516 0)"/>
     <use xlink:href="#DejaVuSans-61" transform="translate(96.386719 0)"/>
     <use xlink:href="#DejaVuSans-73" transform="translate(157.666016 0)"/>
     <use xlink:href="#DejaVuSans-74" transform="translate(209.765625 0)"/>
     <use xlink:href="#DejaVuSans-6f" transform="translate(248.974609 0)"/>
     <use xlink:href="#DejaVuSans-66" transform="translate(310.15625 0)"/>
     <use xlink:href="#DejaVuSans-66" transform="translate(345.361328 0)"/>
     <use xlink:href="#DejaVuSans-21" transform="translate(380.566406 0)"/>
    </g>
   </g>
   <g id="text_9">
    <!-- *countdown2 -->
    <g transform="translate(79.626778 138.095004) scale(0.0492 -0.0492)">
     <defs>
      <path id="DejaVuSans-32" d="M 1228 531 
L 3431 531 
L 3431 0 
L 469 0 
L 469 531 
Q 828 903 1448 1529 
Q 2069 2156 2228 2338 
Q 2531 2678 2651 2914 
Q 2772 3150 2772 3378 
Q 2772 3750 2511 3984 
Q 2250 4219 1831 4219 
Q 1534 4219 1204 4116 
Q 875 4013 500 3803 
L 500 4441 
Q 881 4594 1212 4672 
Q 1544 4750 1819 4750 
Q 2544 4750 2975 4387 
Q 3406 4025 3406 3419 
Q 3406 3131 3298 2873 
Q 3191 2616 2906 2266 
Q 2828 2175 2409 1742 
Q 1991 1309 1228 531 
z
" transform="scale(0.015625)"/>
     </defs>
     <use xlink:href="#DejaVuSans-2a"/>
     <use xlink:href="#DejaVuSans-63" transform="translate(50 0)"/>
     <use xlink:href="#DejaVuSans-6f" transform="translate(104.980469 0)"/>
     <use xlink:href="#DejaVuSans-75" transform="translate(166.162109 0)"/>
     <use xlink:href="#DejaVuSans-6e" transform="translate(229.541016 0)"/>
     <use xlink:href="#DejaVuSans-74" transform="translate(292.919922 0)"/>
     <use xlink:href="#DejaVuSans-64" transform="translate(332.128906 0)"/>
     <use xlink:href="#DejaVuSans-6f" transform="translate(395.605469 0)"/>
     <use xlink:href="#DejaVuSans-77" transform="translate(456.787109 0)"/>
     <use xlink:href="#DejaVuSans-6e" transform="translate(538.574219 0)"/>
     <use xlink:href="#DejaVuSans-32" transform="translate(601.953125 0)"/>
    </g>
   </g>
   <g id="text_10">
    <g clip-path="url(#pd0f4c7513a)">
     <!-- Δ -->
     <g transform="translate(163.895625 55.902554) scale(0.12 -0.12)">
      <defs>
       <path id="DejaVuSans-394" d="M 2188 4044 
L 906 525 
L 3472 525 
L 2188 4044 
z
M 50 0 
L 1831 4666 
L 2547 4666 
L 4325 0 
L 50 0 
z
" transform="scale(0.015625)"/>
      </defs>
      <use xlink:href="#DejaVuSans-394"/>
     </g>
    </g>
   </g>
   <g id="text_11">
    <g clip-path="url(#pd0f4c7513a)">
     <!-- Δ -->
     <g transform="translate(115.895625 13.829511) scale(0.12 -0.12)">
      <use xlink:href="#DejaVuSans-394"/>
     </g>
    </g>
   </g>
   <g id="text_12">
    <g clip-path="url(#pd0f4c7513a)">
     <!-- ⊗ -->
     <g transform="translate(114.972188 90.963424) scale(0.12 -0.12)">
      <defs>
       <path id="DejaVuSans-2297" d="M 3306 3522 
Q 3016 3644 2681 3644 
Q 2347 3644 2056 3522 
Q 1769 3400 1531 3163 
Q 1291 2922 1172 2634 
Q 1053 2347 1053 2006 
Q 1053 1675 1172 1387 
Q 1291 1100 1531 859 
Q 1769 622 2056 500 
Q 2347 378 2681 378 
Q 3016 378 3306 500 
Q 3594 622 3831 859 
Q 4072 1100 4190 1387 
Q 4309 1675 4309 2006 
Q 4309 2347 4190 2634 
Q 4072 2922 3831 3163 
Q 3594 3400 3306 3522 
z
M 1878 3956 
Q 2250 4113 2681 4113 
Q 3113 4113 3484 3956 
Q 3856 3800 4163 3494 
Q 4472 3184 4625 2813 
Q 4778 2444 4778 2006 
Q 4778 1578 4625 1206 
Q 4472 838 4163 528 
Q 3856 222 3484 65 
Q 3113 -91 2681 -91 
Q 2250 -91 1878 65 
Q 1506 222 1200 528 
Q 891 838 738 1206 
Q 584 1578 584 2006 
Q 584 2444 738 2813 
Q 891 3184 1200 3494 
Q 1506 3800 1878 3956 
z
M 3847 2794 
L 3056 2006 
L 3844 1219 
L 3469 844 
L 2681 1631 
L 1894 841 
L 1516 1219 
L 2306 2006 
L 1519 2794 
L 1894 3169 
L 2681 2381 
L 3469 3172 
L 3847 2794 
z
" transform="scale(0.015625)"/>
      </defs>
      <use xlink:href="#DejaVuSans-2297"/>
     </g>
    </g>
   </g>
   <g id="text_13">
    <g clip-path="url(#pd0f4c7513a)">
     <!-- ⊗ -->
     <g transform="translate(162.972187 76.939076) scale(0.12 -0.12)">
      <use xlink:href="#DejaVuSans-2297"/>
     </g>
    </g>
   </g>
   <g id="text_14">
    <g clip-path="url(#pd0f4c7513a)">
     <!-- ⊗ -->
     <g transform="translate(66.972188 147.060815) scale(0.12 -0.12)">
      <use xlink:href="#DejaVuSans-2297"/>
     </g>
    </g>
   </g>
   <g id="text_15">
    <g clip-path="url(#pd0f4c7513a)">
     <!-- Δ -->
     <g transform="translate(115.895625 27.853859) scale(0.12 -0.12)">
      <use xlink:href="#DejaVuSans-394"/>
     </g>
    </g>
   </g>
   <g id="text_16">
    <g clip-path="url(#pd0f4c7513a)">
     <!-- ⊗3 -->
     <g transform="translate(111.154687 83.95125) scale(0.12 -0.12)">
      <defs>
       <path id="DejaVuSans-33" d="M 2597 2516 
Q 3050 2419 3304 2112 
Q 3559 1806 3559 1356 
Q 3559 666 3084 287 
Q 2609 -91 1734 -91 
Q 1441 -91 1130 -33 
Q 819 25 488 141 
L 488 750 
Q 750 597 1062 519 
Q 1375 441 1716 441 
Q 2309 441 2620 675 
Q 2931 909 2931 1356 
Q 2931 1769 2642 2001 
Q 2353 2234 1838 2234 
L 1294 2234 
L 1294 2753 
L 1863 2753 
Q 2328 2753 2575 2939 
Q 2822 3125 2822 3475 
Q 2822 3834 2567 4026 
Q 2313 4219 1838 4219 
Q 1578 4219 1281 4162 
Q 984 4106 628 3988 
L 628 4550 
Q 988 4650 1302 4700 
Q 1616 4750 1894 4750 
Q 2613 4750 3031 4423 
Q 3450 4097 3450 3541 
Q 3450 3153 3228 2886 
Q 3006 2619 2597 2516 
z
" transform="scale(0.015625)"/>
      </defs>
      <use xlink:href="#DejaVuSans-2297"/>
      <use xlink:href="#DejaVuSans-33" transform="translate(83.789062 0)"/>
     </g>
    </g>
   </g>
   <g id="text_17">
    <g clip-path="url(#pd0f4c7513a)">
     <!-- Δ -->
     <g transform="translate(67.895625 119.01212) scale(0.12 -0.12)">
      <use xlink:href="#DejaVuSans-394"/>
     </g>
    </g>
   </g>
   <g id="text_18">
    <g clip-path="url(#pd0f4c7513a)">
     <!-- ⊗ -->
     <g transform="translate(66.972188 154.072989) scale(0.12 -0.12)">
      <use xlink:href="#DejaVuSans-2297"/>
     </g>
    </g>
   </g>
   <g id="text_19">
    <g clip-path="url(#pd0f4c7513a)">
     <!-- Δ -->
     <g transform="translate(67.895625 104.987772) scale(0.12 -0.12)">
      <use xlink:href="#DejaVuSans-394"/>
     </g>
    </g>
   </g>
  </g>
 </g>
 <defs>
  <clipPath id="pd0f4c7513a">
   <rect x="0" y="0" width="216" height="161.28"/>
  </clipPath>
 </defs>
</svg>
