<?xml version="1.0" encoding="utf-8" standalone="no"?>
<!DOCTYPE svg PUBLIC "-//W3C//DTD SVG 1.1//EN"
  "http://www.w3.org/Graphics/SVG/1.1/DTD/svg11.dtd">
<svg xmlns:xlink="http://www.w3.org/1999/xlink" width="432pt" height="756pt" viewBox="0 0 432 756" xmlns="http://www.w3.org/2000/svg" version="1.1">
 <metadata>
  <rdf:RDF xmlns:dc="http://purl.org/dc/elements/1.1/" xmlns:cc="http://creativecommons.org/ns#" xmlns:rdf="http://www.w3.org/1999/02/22-rdf-syntax-ns#">
   <cc:Work>
    <dc:type rdf:resource="http://purl.org/dc/dcmitype/StillImage"/>
    <dc:date>2026-01-03T01:44:09.635083</dc:date>
    <dc:format>image/svg+xml</dc:format>
    <dc:creator>
     <cc:Agent>
      <dc:title>Matplotlib v3.10.7, https://matplotlib.org/</dc:title>
     </cc:Agent>
    </dc:creator>
   </cc:Work>
  </rdf:RDF>
 </metadata>
 <defs>
  <style type="text/css">*{stroke-linejoin: round; stroke-linecap: butt}</style>
 </defs>
 <g id="figure_1">
  <g id="patch_1">
   <path d="M 0 756 
L 432 756 
L 432 0 
L 0 0 
z
" style="fill: #ffffff"/>
  </g>
  <g id="axes_1">
   <g id="patch_2">
    <path d="M 0 756 
L 432 756 
L 432 0 
L 0 0 
z
" clip-path="url(#p1c71d21740)" style="fill: #ffffff; stroke: #ffffff; stroke-linejoin: miter"/>
   </g>
   <g id="patch_3">
    <path d="M 259.2 77.823529 
Q 259.2 100.058824 259.2 100.058824 
" clip-path="url(#p1c71d21740)" style="fill: none; stroke: #000000; stroke-linejoin: miter"/>
   </g>
   <g id="patch_4">
    <path d="M 259.2 111.176471 
Q 172.8 111.176471 172.8 122.294118 
" clip-path="url(#p1c71d21740)" style="fill: none; stroke: #000000; stroke-linejoin: miter"/>
   </g>
   <g id="patch_5">
    <path d="M 259.2 111.176471 
Q 345.6 111.176471 345.6 122.294118 
" clip-path="url(#p1c71d21740)" style="fill: none; stroke: #000000; stroke-linejoin: miter"/>
   </g>
   <g id="patch_6">
    <path d="M 259.2 100.058824 
Q 259.2 111.176471 259.2 111.176471 
" clip-path="url(#p1c71d21740)" style="fill: none; stroke: #000000; stroke-linejoin: miter"/>
   </g>
   <g id="patch_7">
    <path d="M 172.8 122.294118 
Q 172.8 144.529412 172.8 144.529412 
" clip-path="url(#p1c71d21740)" style="fill: none; stroke: #000000; stroke-linejoin: miter"/>
   </g>
   <g id="patch_8">
    <path d="M 345.6 122.294118 
Q 345.6 233.470588 345.6 233.470588 
" clip-path="url(#p1c71d21740)" style="fill: none; stroke: #000000; stroke-linejoin: miter"/>
   </g>
   <g id="patch_9">
    <path d="M 172.8 144.529412 
Q 172.8 155.647059 172.8 155.647059 
" clip-path="url(#p1c71d21740)" style="fill: none; stroke: #000000; stroke-linejoin: miter"/>
   </g>
   <g id="patch_10">
    <path d="M 172.8 211.235294 
Q 172.8 277.941176 172.8 277.941176 
" clip-path="url(#p1c71d21740)" style="fill: none; stroke: #000000; stroke-linejoin: miter"/>
   </g>
   <g id="patch_11">
    <path d="M 345.6 244.588235 
Q 345.6 244.588235 345.6 255.705882 
" clip-path="url(#p1c71d21740)" style="fill: none; stroke: #000000; stroke-linejoin: miter"/>
   </g>
   <g id="patch_12">
    <path d="M 345.6 233.470588 
Q 345.6 244.588235 345.6 244.588235 
" clip-path="url(#p1c71d21740)" style="fill: none; stroke: #000000; stroke-linejoin: miter"/>
   </g>
   <g id="patch_13">
    <path d="M 345.6 255.705882 
Q 345.6 277.941176 345.6 277.941176 
" clip-path="url(#p1c71d21740)" style="fill: none; stroke: #000000; stroke-linejoin: miter"/>
   </g>
   <g id="patch_14">
    <path d="M 259.2 289.058824 
Q 259.2 289.058824 259.2 300.176471 
" clip-path="url(#p1c71d21740)" style="fill: none; stroke: #000000; stroke-linejoin: miter"/>
   </g>
   <g id="patch_15">
    <path d="M 172.8 277.941176 
Q 172.8 289.058824 259.2 289.058824 
" clip-path="url(#p1c71d21740)" style="fill: none; stroke: #000000; stroke-linejoin: miter"/>
   </g>
   <g id="patch_16">
    <path d="M 345.6 277.941176 
Q 345.6 289.058824 259.2 289.058824 
" clip-path="url(#p1c71d21740)" style="fill: none; stroke: #000000; stroke-linejoin: miter"/>
   </g>
   <g id="patch_17">
    <path d="M 259.2 300.176471 
Q 259.2 322.411765 259.2 322.411765 
" clip-path="url(#p1c71d21740)" style="fill: none; stroke: #000000; stroke-linejoin: miter"/>
   </g>
   <g id="patch_18">
    <path d="M 259.2 333.529412 
Q 259.2 333.529412 259.2 344.647059 
" clip-path="url(#p1c71d21740)" style="fill: none; stroke: #000000; stroke-linejoin: miter"/>
   </g>
   <g id="patch_19">
    <path d="M 259.2 322.411765 
Q 259.2 333.529412 259.2 333.529412 
" clip-path="url(#p1c71d21740)" style="fill: none; stroke: #000000; stroke-linejoin: miter"/>
   </g>
   <g id="patch_20">
    <path d="M 259.2 344.647059 
Q 259.2 366.882353 259.2 366.882353 
" clip-path="url(#p1c71d21740)" style="fill: none; stroke: #000000; stroke-linejoin: miter"/>
   </g>
   <g id="patch_21">
    <path d="M 259.2 366.882353 
Q 259.2 378 259.2 378 
" clip-path="url(#p1c71d21740)" style="fill: none; stroke: #000000; stroke-linejoin: miter"/>
   </g>
   <g id="patch_22">
    <path d="M 172.8 478.058824 
Q 172.8 500.294118 172.8 500.294118 
" clip-path="url(#p1c71d21740)" style="fill: none; stroke: #000000; stroke-linejoin: miter"/>
   </g>
   <g id="patch_23">
    <path d="M 172.8 511.411765 
Q 86.4 511.411765 86.4 522.529412 
" clip-path="url(#p1c71d21740)" style="fill: none; stroke: #000000; stroke-linejoin: miter"/>
   </g>
   <g id="patch_24">
    <path d="M 172.8 511.411765 
Q 259.2 511.411765 259.2 522.529412 
" clip-path="url(#p1c71d21740)" style="fill: none; stroke: #000000; stroke-linejoin: miter"/>
   </g>
   <g id="patch_25">
    <path d="M 172.8 500.294118 
Q 172.8 511.411765 172.8 511.411765 
" clip-path="url(#p1c71d21740)" style="fill: none; stroke: #000000; stroke-linejoin: miter"/>
   </g>
   <g id="patch_26">
    <path d="M 86.4 522.529412 
Q 86.4 544.764706 86.4 544.764706 
" clip-path="url(#p1c71d21740)" style="fill: none; stroke: #000000; stroke-linejoin: miter"/>
   </g>
   <g id="patch_27">
    <path d="M 259.2 522.529412 
Q 259.2 633.705882 259.2 633.705882 
" clip-path="url(#p1c71d21740)" style="fill: none; stroke: #000000; stroke-linejoin: miter"/>
   </g>
   <g id="patch_28">
    <path d="M 86.4 544.764706 
Q 86.4 555.882353 86.4 555.882353 
" clip-path="url(#p1c71d21740)" style="fill: none; stroke: #000000; stroke-linejoin: miter"/>
   </g>
   <g id="patch_29">
    <path d="M 86.4 611.470588 
Q 86.4 678.176471 86.4 678.176471 
" clip-path="url(#p1c71d21740)" style="fill: none; stroke: #000000; stroke-linejoin: miter"/>
   </g>
   <g id="patch_30">
    <path d="M 259.2 644.823529 
Q 259.2 644.823529 259.2 655.941176 
" clip-path="url(#p1c71d21740)" style="fill: none; stroke: #000000; stroke-linejoin: miter"/>
   </g>
   <g id="patch_31">
    <path d="M 259.2 633.705882 
Q 259.2 644.823529 259.2 644.823529 
" clip-path="url(#p1c71d21740)" style="fill: none; stroke: #000000; stroke-linejoin: miter"/>
   </g>
   <g id="patch_32">
    <path d="M 259.2 655.941176 
Q 259.2 678.176471 259.2 678.176471 
" clip-path="url(#p1c71d21740)" style="fill: none; stroke: #000000; stroke-linejoin: miter"/>
   </g>
   <g id="patch_33">
    <path d="M 172.8 689.294118 
Q 172.8 689.294118 172.8 700.411765 
" clip-path="url(#p1c71d21740)" style="fill: none; stroke: #000000; stroke-linejoin: miter"/>
   </g>
   <g id="patch_34">
    <path d="M 86.4 678.176471 
Q 86.4 689.294118 172.8 689.294118 
" clip-path="url(#p1c71d21740)" style="fill: none; stroke: #000000; stroke-linejoin: miter"/>
   </g>
   <g id="patch_35">
    <path d="M 259.2 678.176471 
Q 259.2 689.294118 172.8 689.294118 
" clip-path="url(#p1c71d21740)" style="fill: none; stroke: #000000; stroke-linejoin: miter"/>
   </g>
   <g id="patch_36">
    <path d="M 172.8 700.411765 
Q 172.8 722.647059 172.8 722.647059 
" clip-path="url(#p1c71d21740)" style="fill: none; stroke: #000000; stroke-linejoin: miter"/>
   </g>
   <g id="patch_37">
    <path d="M 172.8 733.764706 
Q 172.8 733.764706 172.8 744.882353 
" clip-path="url(#p1c71d21740)" style="fill: none; stroke: #000000; stroke-linejoin: miter"/>
   </g>
   <g id="patch_38">
    <path d="M 172.8 722.647059 
Q 172.8 733.764706 172.8 733.764706 
" clip-path="url(#p1c71d21740)" style="fill: none; stroke: #000000; stroke-linejoin: miter"/>
   </g>
   <g id="patch_39">
    <path d="M 172.8 744.882353 
Q 172.8 756 172.8 756 
" clip-path="url(#p1c71d21740)" style="fill: none; stroke: #000000; stroke-linejoin: miter"/>
   </g>
   <g id="patch_40">
    <path d="M 216 77.823529 
L 216 55.588235 
L 302.4 55.588235 
L 302.4 77.823529 
z
" clip-path="url(#p1c71d21740)" style="fill: #ffffff; stroke: #000000; stroke-linejoin: miter"/>
   </g>
   <g id="patch_41">
    <path d="M 129.6 211.235294 
L 129.6 189 
L 216 189 
L 216 211.235294 
z
" clip-path="url(#p1c71d21740)" style="fill: #ffffff; stroke: #000000; stroke-linejoin: miter"/>
   </g>
   <g id="patch_42">
    <path d="M 129.6 478.058824 
L 129.6 455.823529 
L 216 455.823529 
L 216 478.058824 
z
" clip-path="url(#p1c71d21740)" style="fill: #ffffff; stroke: #000000; stroke-linejoin: miter"/>
   </g>
   <g id="patch_43">
    <path d="M 43.2 611.470588 
L 43.2 589.235294 
L 129.6 589.235294 
L 129.6 611.470588 
z
" clip-path="url(#p1c71d21740)" style="fill: #ffffff; stroke: #000000; stroke-linejoin: miter"/>
   </g>
   <g id="PathCollection_1">
    <defs>
     <path id="C0_0_1e44f7829d" d="M 0 4.269075 
C 1.132172 4.269075 2.218125 3.819258 3.018692 3.018692 
C 3.819258 2.218125 4.269075 1.132172 4.269075 -0 
C 4.269075 -1.132172 3.819258 -2.218125 3.018692 -3.018692 
C 2.218125 -3.819258 1.132172 -4.269075 0 -4.269075 
C -1.132172 -4.269075 -2.218125 -3.819258 -3.018692 -3.018692 
C -3.819258 -2.218125 -4.269075 -1.132172 -4.269075 0 
C -4.269075 1.132172 -3.819258 2.218125 -3.018692 3.018692 
C -2.218125 3.819258 -1.132172 4.269075 0 4.269075 
z
"/>
    </defs>
    <g clip-path="url(#p1c71d21740)">
     <use xlink:href="#C0_0_1e44f7829d" x="259.2" y="22.235294" style="fill: #d8f8d8; stroke: #d8f8d8"/>
    </g>
    <g clip-path="url(#p1c71d21740)">
     <use xlink:href="#C0_0_1e44f7829d" x="172.8" y="511.411765" style="fill: #d8f8d8; stroke: #d8f8d8"/>
    </g>
    <g clip-path="url(#p1c71d21740)">
     <use xlink:href="#C0_0_1e44f7829d" x="259.2" y="378" style="fill: #e8a5a5; stroke: #e8a5a5"/>
    </g>
    <g clip-path="url(#p1c71d21740)">
     <use xlink:href="#C0_0_1e44f7829d" x="172.8" y="422.470588" style="fill: #d8f8d8; stroke: #d8f8d8"/>
    </g>
    <g clip-path="url(#p1c71d21740)">
     <use xlink:href="#C0_0_1e44f7829d" x="172.8" y="733.764706" style="fill: #d8f8d8; stroke: #d8f8d8"/>
    </g>
    <g clip-path="url(#p1c71d21740)">
     <use xlink:href="#C0_0_1e44f7829d" x="259.2" y="289.058824" style="fill: #d8f8d8; stroke: #d8f8d8"/>
    </g>
    <g clip-path="url(#p1c71d21740)">
     <use xlink:href="#C0_0_1e44f7829d" x="259.2" y="111.176471" style="fill: #d8f8d8; stroke: #d8f8d8"/>
    </g>
    <g clip-path="url(#p1c71d21740)">
     <use xlink:href="#C0_0_1e44f7829d" x="172.8" y="155.647059" style="fill: #e8a5a5; stroke: #e8a5a5"/>
    </g>
    <g clip-path="url(#p1c71d21740)">
     <use xlink:href="#C0_0_1e44f7829d" x="259.2" y="333.529412" style="fill: #d8f8d8; stroke: #d8f8d8"/>
    </g>
    <g clip-path="url(#p1c71d21740)">
     <use xlink:href="#C0_0_1e44f7829d" x="86.4" y="555.882353" style="fill: #e8a5a5; stroke: #e8a5a5"/>
    </g>
    <g clip-path="url(#p1c71d21740)">
     <use xlink:href="#C0_0_1e44f7829d" x="172.8" y="689.294118" style="fill: #d8f8d8; stroke: #d8f8d8"/>
    </g>
    <g clip-path="url(#p1c71d21740)">
     <use xlink:href="#C0_0_1e44f7829d" x="259.2" y="644.823529" style="fill: #776ff3; stroke: #776ff3"/>
    </g>
    <g clip-path="url(#p1c71d21740)">
     <use xlink:href="#C0_0_1e44f7829d" x="345.6" y="244.588235" style="fill: #776ff3; stroke: #776ff3"/>
    </g>
   </g>
   <g id="text_1">
    <!-- 10 -->
    <g transform="translate(252.20125 69.741195) scale(0.11 -0.11)">
     <defs>
      <path id="DejaVuSans-31" d="M 794 531 
L 1825 531 
L 1825 4091 
L 703 3866 
L 703 4441 
L 1819 4666 
L 2450 4666 
L 2450 531 
L 3481 531 
L 3481 0 
L 794 0 
L 794 531 
z
" transform="scale(0.015625)"/>
      <path id="DejaVuSans-30" d="M 2034 4250 
Q 1547 4250 1301 3770 
Q 1056 3291 1056 2328 
Q 1056 1369 1301 889 
Q 1547 409 2034 409 
Q 2525 409 2770 889 
Q 3016 1369 3016 2328 
Q 3016 3291 2770 3770 
Q 2525 4250 2034 4250 
z
M 2034 4750 
Q 2819 4750 3233 4129 
Q 3647 3509 3647 2328 
Q 3647 1150 3233 529 
Q 2819 -91 2034 -91 
Q 1250 -91 836 529 
Q 422 1150 422 2328 
Q 422 3509 836 4129 
Q 1250 4750 2034 4750 
z
" transform="scale(0.015625)"/>
     </defs>
     <use xlink:href="#DejaVuSans-31"/>
     <use xlink:href="#DejaVuSans-30" transform="translate(63.623047 0)"/>
    </g>
   </g>
   <g id="text_2">
    <!-- Liftoff! -->
    <g transform="translate(154.768594 203.15296) scale(0.11 -0.11)">
     <defs>
      <path id="DejaVuSans-4c" d="M 628 4666 
L 1259 4666 
L 1259 531 
L 3531 531 
L 3531 0 
L 628 0 
L 628 4666 
z
" transform="scale(0.015625)"/>
      <path id="DejaVuSans-69" d="M 603 3500 
L 1178 3500 
L 1178 0 
L 603 0 
L 603 3500 
z
M 603 4863 
L 1178 4863 
L 1178 4134 
L 603 4134 
L 603 4863 
z
" transform="scale(0.015625)"/>
      <path id="DejaVuSans-66" d="M 2375 4863 
L 2375 4384 
L 1825 4384 
Q 1516 4384 1395 4259 
Q 1275 4134 1275 3809 
L 1275 3500 
L 2222 3500 
L 2222 3053 
L 1275 3053 
L 1275 0 
L 697 0 
L 697 3053 
L 147 3053 
L 147 3500 
L 697 3500 
L 697 3744 
Q 697 4328 969 4595 
Q 1241 4863 1831 4863 
L 2375 4863 
z
" transform="scale(0.015625)"/>
      <path id="DejaVuSans-74" d="M 1172 4494 
L 1172 3500 
L 2356 3500 
L 2356 3053 
L 1172 3053 
L 1172 1153 
Q 1172 725 1289 603 
Q 1406 481 1766 481 
L 2356 481 
L 2356 0 
L 1766 0 
Q 1100 0 847 248 
Q 594 497 594 1153 
L 594 3053 
L 172 3053 
L 172 3500 
L 594 3500 
L 594 4494 
L 1172 4494 
z
" transform="scale(0.015625)"/>
      <path id="DejaVuSans-6f" d="M 1959 3097 
Q 1497 3097 1228 2736 
Q 959 2375 959 1747 
Q 959 1119 1226 758 
Q 1494 397 1959 397 
Q 2419 397 2687 759 
Q 2956 1122 2956 1747 
Q 2956 2369 2687 2733 
Q 2419 3097 1959 3097 
z
M 1959 3584 
Q 2709 3584 3137 3096 
Q 3566 2609 3566 1747 
Q 3566 888 3137 398 
Q 2709 -91 1959 -91 
Q 1206 -91 779 398 
Q 353 888 353 1747 
Q 353 2609 779 3096 
Q 1206 3584 1959 3584 
z
" transform="scale(0.015625)"/>
      <path id="DejaVuSans-21" d="M 966 794 
L 1600 794 
L 1600 0 
L 966 0 
L 966 794 
z
M 966 4666 
L 1600 4666 
L 1600 2619 
L 1538 1503 
L 1031 1503 
L 966 2619 
L 966 4666 
z
" transform="scale(0.015625)"/>
     </defs>
     <use xlink:href="#DejaVuSans-4c"/>
     <use xlink:href="#DejaVuSans-69" transform="translate(55.712891 0)"/>
     <use xlink:href="#DejaVuSans-66" transform="translate(83.496094 0)"/>
     <use xlink:href="#DejaVuSans-74" transform="translate(116.951172 0)"/>
     <use xlink:href="#DejaVuSans-6f" transform="translate(156.160156 0)"/>
     <use xlink:href="#DejaVuSans-66" transform="translate(217.341797 0)"/>
     <use xlink:href="#DejaVuSans-66" transform="translate(252.546875 0)"/>
     <use xlink:href="#DejaVuSans-21" transform="translate(287.751953 0)"/>
    </g>
   </g>
   <g id="text_3">
    <!-- 15 -->
    <g transform="translate(165.80125 469.976489) scale(0.11 -0.11)">
     <defs>
      <path id="DejaVuSans-35" d="M 691 4666 
L 3169 4666 
L 3169 4134 
L 1269 4134 
L 1269 2991 
Q 1406 3038 1543 3061 
Q 1681 3084 1819 3084 
Q 2600 3084 3056 2656 
Q 3513 2228 3513 1497 
Q 3513 744 3044 326 
Q 2575 -91 1722 -91 
Q 1428 -91 1123 -41 
Q 819 9 494 109 
L 494 744 
Q 775 591 1075 516 
Q 1375 441 1709 441 
Q 2250 441 2565 725 
Q 2881 1009 2881 1497 
Q 2881 1984 2565 2268 
Q 2250 2553 1709 2553 
Q 1456 2553 1204 2497 
Q 953 2441 691 2322 
L 691 4666 
z
" transform="scale(0.015625)"/>
     </defs>
     <use xlink:href="#DejaVuSans-31"/>
     <use xlink:href="#DejaVuSans-35" transform="translate(63.623047 0)"/>
    </g>
   </g>
   <g id="text_4">
    <!-- Blastoff! -->
    <g transform="translate(63.263906 603.388254) scale(0.11 -0.11)">
     <defs>
      <path id="DejaVuSans-42" d="M 1259 2228 
L 1259 519 
L 2272 519 
Q 2781 519 3026 730 
Q 3272 941 3272 1375 
Q 3272 1813 3026 2020 
Q 2781 2228 2272 2228 
L 1259 2228 
z
M 1259 4147 
L 1259 2741 
L 2194 2741 
Q 2656 2741 2882 2914 
Q 3109 3088 3109 3444 
Q 3109 3797 2882 3972 
Q 2656 4147 2194 4147 
L 1259 4147 
z
M 628 4666 
L 2241 4666 
Q 2963 4666 3353 4366 
Q 3744 4066 3744 3513 
Q 3744 3084 3544 2831 
Q 3344 2578 2956 2516 
Q 3422 2416 3680 2098 
Q 3938 1781 3938 1306 
Q 3938 681 3513 340 
Q 3088 0 2303 0 
L 628 0 
L 628 4666 
z
" transform="scale(0.015625)"/>
      <path id="DejaVuSans-6c" d="M 603 4863 
L 1178 4863 
L 1178 0 
L 603 0 
L 603 4863 
z
" transform="scale(0.015625)"/>
      <path id="DejaVuSans-61" d="M 2194 1759 
Q 1497 1759 1228 1600 
Q 959 1441 959 1056 
Q 959 750 1161 570 
Q 1363 391 1709 391 
Q 2188 391 2477 730 
Q 2766 1069 2766 1631 
L 2766 1759 
L 2194 1759 
z
M 3341 1997 
L 3341 0 
L 2766 0 
L 2766 531 
Q 2569 213 2275 61 
Q 1981 -91 1556 -91 
Q 1019 -91 701 211 
Q 384 513 384 1019 
Q 384 1609 779 1909 
Q 1175 2209 1959 2209 
L 2766 2209 
L 2766 2266 
Q 2766 2663 2505 2880 
Q 2244 3097 1772 3097 
Q 1472 3097 1187 3025 
Q 903 2953 641 2809 
L 641 3341 
Q 956 3463 1253 3523 
Q 1550 3584 1831 3584 
Q 2591 3584 2966 3190 
Q 3341 2797 3341 1997 
z
" transform="scale(0.015625)"/>
      <path id="DejaVuSans-73" d="M 2834 3397 
L 2834 2853 
Q 2591 2978 2328 3040 
Q 2066 3103 1784 3103 
Q 1356 3103 1142 2972 
Q 928 2841 928 2578 
Q 928 2378 1081 2264 
Q 1234 2150 1697 2047 
L 1894 2003 
Q 2506 1872 2764 1633 
Q 3022 1394 3022 966 
Q 3022 478 2636 193 
Q 2250 -91 1575 -91 
Q 1294 -91 989 -36 
Q 684 19 347 128 
L 347 722 
Q 666 556 975 473 
Q 1284 391 1588 391 
Q 1994 391 2212 530 
Q 2431 669 2431 922 
Q 2431 1156 2273 1281 
Q 2116 1406 1581 1522 
L 1381 1569 
Q 847 1681 609 1914 
Q 372 2147 372 2553 
Q 372 3047 722 3315 
Q 1072 3584 1716 3584 
Q 2034 3584 2315 3537 
Q 2597 3491 2834 3397 
z
" transform="scale(0.015625)"/>
     </defs>
     <use xlink:href="#DejaVuSans-42"/>
     <use xlink:href="#DejaVuSans-6c" transform="translate(68.603516 0)"/>
     <use xlink:href="#DejaVuSans-61" transform="translate(96.386719 0)"/>
     <use xlink:href="#DejaVuSans-73" transform="translate(157.666016 0)"/>
     <use xlink:href="#DejaVuSans-74" transform="translate(209.765625 0)"/>
     <use xlink:href="#DejaVuSans-6f" transform="translate(248.974609 0)"/>
     <use xlink:href="#DejaVuSans-66" transform="translate(310.15625 0)"/>
     <use xlink:href="#DejaVuSans-66" transform="translate(345.361328 0)"/>
     <use xlink:href="#DejaVuSans-21" transform="translate(380.566406 0)"/>
    </g>
   </g>
   <g id="text_5">
    <g clip-path="url(#p1c71d21740)">
     <!-- ⊗ -->
     <g transform="translate(167.772188 737.075956) scale(0.12 -0.12)">
      <defs>
       <path id="DejaVuSans-2297" d="M 3306 3522 
Q 3016 3644 2681 3644 
Q 2347 3644 2056 3522 
Q 1769 3400 1531 3163 
Q 1291 2922 1172 2634 
Q 1053 2347 1053 2006 
Q 1053 1675 1172 1387 
Q 1291 1100 1531 859 
Q 1769 622 2056 500 
Q 2347 378 2681 378 
Q 3016 378 3306 500 
Q 3594 622 3831 859 
Q 4072 1100 4190 1387 
Q 4309 1675 4309 2006 
Q 4309 2347 4190 2634 
Q 4072 2922 3831 3163 
Q 3594 3400 3306 3522 
z
M 1878 3956 
Q 2250 4113 2681 4113 
Q 3113 4113 3484 3956 
Q 3856 3800 4163 3494 
Q 4472 3184 4625 2813 
Q 4778 2444 4778 2006 
Q 4778 1578 4625 1206 
Q 4472 838 4163 528 
Q 3856 222 3484 65 
Q 3113 -91 2681 -91 
Q 2250 -91 1878 65 
Q 1506 222 1200 528 
Q 891 838 738 1206 
Q 584 1578 584 2006 
Q 584 2444 738 2813 
Q 891 3184 1200 3494 
Q 1506 3800 1878 3956 
z
M 3847 2794 
L 3056 2006 
L 3844 1219 
L 3469 844 
L 2681 1631 
L 1894 841 
L 1516 1219 
L 2306 2006 
L 1519 2794 
L 1894 3169 
L 2681 2381 
L 3469 3172 
L 3847 2794 
z
" transform="scale(0.015625)"/>
      </defs>
      <use xlink:href="#DejaVuSans-2297"/>
     </g>
    </g>
   </g>
   <g id="text_6">
    <g clip-path="url(#p1c71d21740)">
     <!-- ⊗ -->
     <g transform="translate(254.172188 292.370074) scale(0.12 -0.12)">
      <use xlink:href="#DejaVuSans-2297"/>
     </g>
    </g>
   </g>
   <g id="text_7">
    <g clip-path="url(#p1c71d21740)">
     <!-- ⊗ -->
     <g transform="translate(254.172188 336.840662) scale(0.12 -0.12)">
      <use xlink:href="#DejaVuSans-2297"/>
     </g>
    </g>
   </g>
   <g id="text_8">
    <g clip-path="url(#p1c71d21740)">
     <!-- ⊗ -->
     <g transform="translate(167.772188 692.605368) scale(0.12 -0.12)">
      <use xlink:href="#DejaVuSans-2297"/>
     </g>
    </g>
   </g>
   <g id="text_9">
    <g clip-path="url(#p1c71d21740)">
     <!-- *countdown2 -->
     <g transform="translate(219.265313 648.134779) scale(0.12 -0.12)">
      <defs>
       <path id="DejaVuSans-2a" d="M 3009 3897 
L 1888 3291 
L 3009 2681 
L 2828 2375 
L 1778 3009 
L 1778 1831 
L 1422 1831 
L 1422 3009 
L 372 2375 
L 191 2681 
L 1313 3291 
L 191 3897 
L 372 4206 
L 1422 3572 
L 1422 4750 
L 1778 4750 
L 1778 3572 
L 2828 4206 
L 3009 3897 
z
" transform="scale(0.015625)"/>
       <path id="DejaVuSans-63" d="M 3122 3366 
L 3122 2828 
Q 2878 2963 2633 3030 
Q 2388 3097 2138 3097 
Q 1578 3097 1268 2742 
Q 959 2388 959 1747 
Q 959 1106 1268 751 
Q 1578 397 2138 397 
Q 2388 397 2633 464 
Q 2878 531 3122 666 
L 3122 134 
Q 2881 22 2623 -34 
Q 2366 -91 2075 -91 
Q 1284 -91 818 406 
Q 353 903 353 1747 
Q 353 2603 823 3093 
Q 1294 3584 2113 3584 
Q 2378 3584 2631 3529 
Q 2884 3475 3122 3366 
z
" transform="scale(0.015625)"/>
       <path id="DejaVuSans-75" d="M 544 1381 
L 544 3500 
L 1119 3500 
L 1119 1403 
Q 1119 906 1312 657 
Q 1506 409 1894 409 
Q 2359 409 2629 706 
Q 2900 1003 2900 1516 
L 2900 3500 
L 3475 3500 
L 3475 0 
L 2900 0 
L 2900 538 
Q 2691 219 2414 64 
Q 2138 -91 1772 -91 
Q 1169 -91 856 284 
Q 544 659 544 1381 
z
M 1991 3584 
L 1991 3584 
z
" transform="scale(0.015625)"/>
       <path id="DejaVuSans-6e" d="M 3513 2113 
L 3513 0 
L 2938 0 
L 2938 2094 
Q 2938 2591 2744 2837 
Q 2550 3084 2163 3084 
Q 1697 3084 1428 2787 
Q 1159 2491 1159 1978 
L 1159 0 
L 581 0 
L 581 3500 
L 1159 3500 
L 1159 2956 
Q 1366 3272 1645 3428 
Q 1925 3584 2291 3584 
Q 2894 3584 3203 3211 
Q 3513 2838 3513 2113 
z
" transform="scale(0.015625)"/>
       <path id="DejaVuSans-64" d="M 2906 2969 
L 2906 4863 
L 3481 4863 
L 3481 0 
L 2906 0 
L 2906 525 
Q 2725 213 2448 61 
Q 2172 -91 1784 -91 
Q 1150 -91 751 415 
Q 353 922 353 1747 
Q 353 2572 751 3078 
Q 1150 3584 1784 3584 
Q 2172 3584 2448 3432 
Q 2725 3281 2906 2969 
z
M 947 1747 
Q 947 1113 1208 752 
Q 1469 391 1925 391 
Q 2381 391 2643 752 
Q 2906 1113 2906 1747 
Q 2906 2381 2643 2742 
Q 2381 3103 1925 3103 
Q 1469 3103 1208 2742 
Q 947 2381 947 1747 
z
" transform="scale(0.015625)"/>
       <path id="DejaVuSans-77" d="M 269 3500 
L 844 3500 
L 1563 769 
L 2278 3500 
L 2956 3500 
L 3675 769 
L 4391 3500 
L 4966 3500 
L 4050 0 
L 3372 0 
L 2619 2869 
L 1863 0 
L 1184 0 
L 269 3500 
z
" transform="scale(0.015625)"/>
       <path id="DejaVuSans-32" d="M 1228 531 
L 3431 531 
L 3431 0 
L 469 0 
L 469 531 
Q 828 903 1448 1529 
Q 2069 2156 2228 2338 
Q 2531 2678 2651 2914 
Q 2772 3150 2772 3378 
Q 2772 3750 2511 3984 
Q 2250 4219 1831 4219 
Q 1534 4219 1204 4116 
Q 875 4013 500 3803 
L 500 4441 
Q 881 4594 1212 4672 
Q 1544 4750 1819 4750 
Q 2544 4750 2975 4387 
Q 3406 4025 3406 3419 
Q 3406 3131 3298 2873 
Q 3191 2616 2906 2266 
Q 2828 2175 2409 1742 
Q 1991 1309 1228 531 
z
" transform="scale(0.015625)"/>
      </defs>
      <use xlink:href="#DejaVuSans-2a"/>
      <use xlink:href="#DejaVuSans-63" transform="translate(50 0)"/>
      <use xlink:href="#DejaVuSans-6f" transform="translate(104.980469 0)"/>
      <use xlink:href="#DejaVuSans-75" transform="translate(166.162109 0)"/>
      <use xlink:href="#DejaVuSans-6e" transform="translate(229.541016 0)"/>
      <use xlink:href="#DejaVuSans-74" transform="translate(292.919922 0)"/>
      <use xlink:href="#DejaVuSans-64" transform="translate(332.128906 0)"/>
      <use xlink:href="#DejaVuSans-6f" transform="translate(395.605469 0)"/>
      <use xlink:href="#DejaVuSans-77" transform="translate(456.787109 0)"/>
      <use xlink:href="#DejaVuSans-6e" transform="translate(538.574219 0)"/>
      <use xlink:href="#DejaVuSans-32" transform="translate(601.953125 0)"/>
     </g>
    </g>
   </g>
   <g id="text_10">
    <g clip-path="url(#p1c71d21740)">
     <!-- *countdown -->
     <g transform="translate(309.482813 247.899485) scale(0.12 -0.12)">
      <use xlink:href="#DejaVuSans-2a"/>
      <use xlink:href="#DejaVuSans-63" transform="translate(50 0)"/>
      <use xlink:href="#DejaVuSans-6f" transform="translate(104.980469 0)"/>
      <use xlink:href="#DejaVuSans-75" transform="translate(166.162109 0)"/>
      <use xlink:href="#DejaVuSans-6e" transform="translate(229.541016 0)"/>
      <use xlink:href="#DejaVuSans-74" transform="translate(292.919922 0)"/>
      <use xlink:href="#DejaVuSans-64" transform="translate(332.128906 0)"/>
      <use xlink:href="#DejaVuSans-6f" transform="translate(395.605469 0)"/>
      <use xlink:href="#DejaVuSans-77" transform="translate(456.787109 0)"/>
      <use xlink:href="#DejaVuSans-6e" transform="translate(538.574219 0)"/>
     </g>
    </g>
   </g>
  </g>
 </g>
 <defs>
  <clipPath id="p1c71d21740">
   <rect x="0" y="0" width="432" height="756"/>
  </clipPath>
 </defs>
</svg>
