<?xml version="1.0" encoding="utf-8" standalone="no"?>
<!DOCTYPE svg PUBLIC "-//W3C//DTD SVG 1.1//EN"
  "http://www.w3.org/Graphics/SVG/1.1/DTD/svg11.dtd">
<svg xmlns:xlink="http://www.w3.org/1999/xlink" width="902.4pt" height="100.8pt" viewBox="0 0 902.4 100.8" xmlns="http://www.w3.org/2000/svg" version="1.1">
 <metadata>
  <rdf:RDF xmlns:dc="http://purl.org/dc/elements/1.1/" xmlns:cc="http://creativecommons.org/ns#" xmlns:rdf="http://www.w3.org/1999/02/22-rdf-syntax-ns#">
   <cc:Work>
    <dc:type rdf:resource="http://purl.org/dc/dcmitype/StillImage"/>
    <dc:date>2026-01-04T15:49:45.273921</dc:date>
    <dc:format>image/svg+xml</dc:format>
    <dc:creator>
     <cc:Agent>
      <dc:title>Matplotlib v3.10.7, https://matplotlib.org/</dc:title>
     </cc:Agent>
    </dc:creator>
   </cc:Work>
  </rdf:RDF>
 </metadata>
 <defs>
  <style type="text/css">*{stroke-linejoin: round; stroke-linecap: butt}</style>
 </defs>
 <g id="figure_1">
  <g id="patch_1">
   <path d="M 0 100.8 
L 902.4 100.8 
L 902.4 0 
L 0 0 
z
" style="fill: #ffffff"/>
  </g>
  <g id="axes_1">
   <g id="patch_2">
    <path d="M 0 100.8 
L 902.4 100.8 
L 902.4 0 
L 0 0 
z
" clip-path="url(#p488dcd59c7)" style="fill: #ffffff; stroke: #ffffff; stroke-linejoin: miter"/>
   </g>
   <g id="patch_3">
    <path d="M 225.6 37.8 
Q 225.6 63 225.6 63 
" clip-path="url(#p488dcd59c7)" style="fill: none; stroke: #000000; stroke-linejoin: miter"/>
   </g>
   <g id="patch_4">
    <path d="M 676.8 0 
Q 676.8 63 676.8 63 
" clip-path="url(#p488dcd59c7)" style="fill: none; stroke: #000000; stroke-linejoin: miter"/>
   </g>
   <g id="patch_5">
    <path d="M 451.2 88.2 
Q 451.2 100.8 451.2 100.8 
" clip-path="url(#p488dcd59c7)" style="fill: none; stroke: #000000; stroke-linejoin: miter"/>
   </g>
   <g id="patch_6">
    <path d="M 112.8 37.8 
L 112.8 12.6 
L 338.4 12.6 
L 338.4 37.8 
z
" clip-path="url(#p488dcd59c7)" style="fill: #ffffff; stroke: #000000; stroke-linejoin: miter"/>
   </g>
   <g id="patch_7">
    <path d="M 112.8 88.2 
L 112.8 63 
L 789.6 63 
L 789.6 88.2 
z
" clip-path="url(#p488dcd59c7)" style="fill: #ffffff; stroke: #000000; stroke-linejoin: miter"/>
   </g>
   <g id="text_1">
    <!-- IO -->
    <g transform="translate(270.72 54.478125) scale(0.12 -0.12)">
     <defs>
      <path id="DejaVuSans-49" d="M 628 4666 
L 1259 4666 
L 1259 0 
L 628 0 
L 628 4666 
z
" transform="scale(0.015625)"/>
      <path id="DejaVuSans-4f" d="M 2522 4238 
Q 1834 4238 1429 3725 
Q 1025 3213 1025 2328 
Q 1025 1447 1429 934 
Q 1834 422 2522 422 
Q 3209 422 3611 934 
Q 4013 1447 4013 2328 
Q 4013 3213 3611 3725 
Q 3209 4238 2522 4238 
z
M 2522 4750 
Q 3503 4750 4090 4092 
Q 4678 3434 4678 2328 
Q 4678 1225 4090 567 
Q 3503 -91 2522 -91 
Q 1538 -91 948 565 
Q 359 1222 359 2328 
Q 359 3434 948 4092 
Q 1538 4750 2522 4750 
z
" transform="scale(0.015625)"/>
     </defs>
     <use xlink:href="#DejaVuSans-49"/>
     <use xlink:href="#DejaVuSans-4f" transform="translate(29.492188 0)"/>
    </g>
   </g>
   <g id="text_2">
    <!-- Hello world! -->
    <g transform="translate(721.92 16.678125) scale(0.12 -0.12)">
     <defs>
      <path id="DejaVuSans-48" d="M 628 4666 
L 1259 4666 
L 1259 2753 
L 3553 2753 
L 3553 4666 
L 4184 4666 
L 4184 0 
L 3553 0 
L 3553 2222 
L 1259 2222 
L 1259 0 
L 628 0 
L 628 4666 
z
" transform="scale(0.015625)"/>
      <path id="DejaVuSans-65" d="M 3597 1894 
L 3597 1613 
L 953 1613 
Q 991 1019 1311 708 
Q 1631 397 2203 397 
Q 2534 397 2845 478 
Q 3156 559 3463 722 
L 3463 178 
Q 3153 47 2828 -22 
Q 2503 -91 2169 -91 
Q 1331 -91 842 396 
Q 353 884 353 1716 
Q 353 2575 817 3079 
Q 1281 3584 2069 3584 
Q 2775 3584 3186 3129 
Q 3597 2675 3597 1894 
z
M 3022 2063 
Q 3016 2534 2758 2815 
Q 2500 3097 2075 3097 
Q 1594 3097 1305 2825 
Q 1016 2553 972 2059 
L 3022 2063 
z
" transform="scale(0.015625)"/>
      <path id="DejaVuSans-6c" d="M 603 4863 
L 1178 4863 
L 1178 0 
L 603 0 
L 603 4863 
z
" transform="scale(0.015625)"/>
      <path id="DejaVuSans-6f" d="M 1959 3097 
Q 1497 3097 1228 2736 
Q 959 2375 959 1747 
Q 959 1119 1226 758 
Q 1494 397 1959 397 
Q 2419 397 2687 759 
Q 2956 1122 2956 1747 
Q 2956 2369 2687 2733 
Q 2419 3097 1959 3097 
z
M 1959 3584 
Q 2709 3584 3137 3096 
Q 3566 2609 3566 1747 
Q 3566 888 3137 398 
Q 2709 -91 1959 -91 
Q 1206 -91 779 398 
Q 353 888 353 1747 
Q 353 2609 779 3096 
Q 1206 3584 1959 3584 
z
" transform="scale(0.015625)"/>
      <path id="DejaVuSans-20" transform="scale(0.015625)"/>
      <path id="DejaVuSans-77" d="M 269 3500 
L 844 3500 
L 1563 769 
L 2278 3500 
L 2956 3500 
L 3675 769 
L 4391 3500 
L 4966 3500 
L 4050 0 
L 3372 0 
L 2619 2869 
L 1863 0 
L 1184 0 
L 269 3500 
z
" transform="scale(0.015625)"/>
      <path id="DejaVuSans-72" d="M 2631 2963 
Q 2534 3019 2420 3045 
Q 2306 3072 2169 3072 
Q 1681 3072 1420 2755 
Q 1159 2438 1159 1844 
L 1159 0 
L 581 0 
L 581 3500 
L 1159 3500 
L 1159 2956 
Q 1341 3275 1631 3429 
Q 1922 3584 2338 3584 
Q 2397 3584 2469 3576 
Q 2541 3569 2628 3553 
L 2631 2963 
z
" transform="scale(0.015625)"/>
      <path id="DejaVuSans-64" d="M 2906 2969 
L 2906 4863 
L 3481 4863 
L 3481 0 
L 2906 0 
L 2906 525 
Q 2725 213 2448 61 
Q 2172 -91 1784 -91 
Q 1150 -91 751 415 
Q 353 922 353 1747 
Q 353 2572 751 3078 
Q 1150 3584 1784 3584 
Q 2172 3584 2448 3432 
Q 2725 3281 2906 2969 
z
M 947 1747 
Q 947 1113 1208 752 
Q 1469 391 1925 391 
Q 2381 391 2643 752 
Q 2906 1113 2906 1747 
Q 2906 2381 2643 2742 
Q 2381 3103 1925 3103 
Q 1469 3103 1208 2742 
Q 947 2381 947 1747 
z
" transform="scale(0.015625)"/>
      <path id="DejaVuSans-21" d="M 966 794 
L 1600 794 
L 1600 0 
L 966 0 
L 966 794 
z
M 966 4666 
L 1600 4666 
L 1600 2619 
L 1538 1503 
L 1031 1503 
L 966 2619 
L 966 4666 
z
" transform="scale(0.015625)"/>
     </defs>
     <use xlink:href="#DejaVuSans-48"/>
     <use xlink:href="#DejaVuSans-65" transform="translate(75.195312 0)"/>
     <use xlink:href="#DejaVuSans-6c" transform="translate(136.71875 0)"/>
     <use xlink:href="#DejaVuSans-6c" transform="translate(164.501953 0)"/>
     <use xlink:href="#DejaVuSans-6f" transform="translate(192.285156 0)"/>
     <use xlink:href="#DejaVuSans-20" transform="translate(253.466797 0)"/>
     <use xlink:href="#DejaVuSans-77" transform="translate(285.253906 0)"/>
     <use xlink:href="#DejaVuSans-6f" transform="translate(367.041016 0)"/>
     <use xlink:href="#DejaVuSans-72" transform="translate(428.222656 0)"/>
     <use xlink:href="#DejaVuSans-6c" transform="translate(469.335938 0)"/>
     <use xlink:href="#DejaVuSans-64" transform="translate(497.119141 0)"/>
     <use xlink:href="#DejaVuSans-21" transform="translate(560.595703 0)"/>
    </g>
   </g>
   <g id="text_3">
    <!-- (echo &gt;&gt; echo) -->
    <g transform="translate(496.32 104.878125) scale(0.12 -0.12)">
     <defs>
      <path id="DejaVuSans-28" d="M 1984 4856 
Q 1566 4138 1362 3434 
Q 1159 2731 1159 2009 
Q 1159 1288 1364 580 
Q 1569 -128 1984 -844 
L 1484 -844 
Q 1016 -109 783 600 
Q 550 1309 550 2009 
Q 550 2706 781 3412 
Q 1013 4119 1484 4856 
L 1984 4856 
z
" transform="scale(0.015625)"/>
      <path id="DejaVuSans-63" d="M 3122 3366 
L 3122 2828 
Q 2878 2963 2633 3030 
Q 2388 3097 2138 3097 
Q 1578 3097 1268 2742 
Q 959 2388 959 1747 
Q 959 1106 1268 751 
Q 1578 397 2138 397 
Q 2388 397 2633 464 
Q 2878 531 3122 666 
L 3122 134 
Q 2881 22 2623 -34 
Q 2366 -91 2075 -91 
Q 1284 -91 818 406 
Q 353 903 353 1747 
Q 353 2603 823 3093 
Q 1294 3584 2113 3584 
Q 2378 3584 2631 3529 
Q 2884 3475 3122 3366 
z
" transform="scale(0.015625)"/>
      <path id="DejaVuSans-68" d="M 3513 2113 
L 3513 0 
L 2938 0 
L 2938 2094 
Q 2938 2591 2744 2837 
Q 2550 3084 2163 3084 
Q 1697 3084 1428 2787 
Q 1159 2491 1159 1978 
L 1159 0 
L 581 0 
L 581 4863 
L 1159 4863 
L 1159 2956 
Q 1366 3272 1645 3428 
Q 1925 3584 2291 3584 
Q 2894 3584 3203 3211 
Q 3513 2838 3513 2113 
z
" transform="scale(0.015625)"/>
      <path id="DejaVuSans-3e" d="M 678 3150 
L 678 3719 
L 4684 2266 
L 4684 1747 
L 678 294 
L 678 863 
L 3897 2003 
L 678 3150 
z
" transform="scale(0.015625)"/>
      <path id="DejaVuSans-29" d="M 513 4856 
L 1013 4856 
Q 1481 4119 1714 3412 
Q 1947 2706 1947 2009 
Q 1947 1309 1714 600 
Q 1481 -109 1013 -844 
L 513 -844 
Q 928 -128 1133 580 
Q 1338 1288 1338 2009 
Q 1338 2731 1133 3434 
Q 928 4138 513 4856 
z
" transform="scale(0.015625)"/>
     </defs>
     <use xlink:href="#DejaVuSans-28"/>
     <use xlink:href="#DejaVuSans-65" transform="translate(39.013672 0)"/>
     <use xlink:href="#DejaVuSans-63" transform="translate(100.537109 0)"/>
     <use xlink:href="#DejaVuSans-68" transform="translate(155.517578 0)"/>
     <use xlink:href="#DejaVuSans-6f" transform="translate(218.896484 0)"/>
     <use xlink:href="#DejaVuSans-20" transform="translate(280.078125 0)"/>
     <use xlink:href="#DejaVuSans-3e" transform="translate(311.865234 0)"/>
     <use xlink:href="#DejaVuSans-3e" transform="translate(395.654297 0)"/>
     <use xlink:href="#DejaVuSans-20" transform="translate(479.443359 0)"/>
     <use xlink:href="#DejaVuSans-65" transform="translate(511.230469 0)"/>
     <use xlink:href="#DejaVuSans-63" transform="translate(572.753906 0)"/>
     <use xlink:href="#DejaVuSans-68" transform="translate(627.734375 0)"/>
     <use xlink:href="#DejaVuSans-6f" transform="translate(691.113281 0)"/>
     <use xlink:href="#DejaVuSans-29" transform="translate(752.294922 0)"/>
    </g>
   </g>
   <g id="text_4">
    <!-- echo -->
    <g transform="translate(196.670625 31.8225) scale(0.24 -0.24)">
     <use xlink:href="#DejaVuSans-65"/>
     <use xlink:href="#DejaVuSans-63" transform="translate(61.523438 0)"/>
     <use xlink:href="#DejaVuSans-68" transform="translate(116.503906 0)"/>
     <use xlink:href="#DejaVuSans-6f" transform="translate(179.882812 0)"/>
    </g>
   </g>
   <g id="text_5">
    <!-- {}: Hello world! -&gt; (echo &gt;&gt; echo) -->
    <g transform="translate(239.015625 82.2225) scale(0.24 -0.24)">
     <defs>
      <path id="DejaVuSans-7b" d="M 3272 -594 
L 3272 -1044 
L 3078 -1044 
Q 2300 -1044 2036 -812 
Q 1772 -581 1772 109 
L 1772 856 
Q 1772 1328 1603 1509 
Q 1434 1691 991 1691 
L 800 1691 
L 800 2138 
L 991 2138 
Q 1438 2138 1605 2317 
Q 1772 2497 1772 2963 
L 1772 3713 
Q 1772 4403 2036 4633 
Q 2300 4863 3078 4863 
L 3272 4863 
L 3272 4416 
L 3059 4416 
Q 2619 4416 2484 4278 
Q 2350 4141 2350 3700 
L 2350 2925 
Q 2350 2434 2208 2212 
Q 2066 1991 1722 1913 
Q 2069 1828 2209 1606 
Q 2350 1384 2350 897 
L 2350 122 
Q 2350 -319 2484 -456 
Q 2619 -594 3059 -594 
L 3272 -594 
z
" transform="scale(0.015625)"/>
      <path id="DejaVuSans-7d" d="M 800 -594 
L 1019 -594 
Q 1456 -594 1589 -459 
Q 1722 -325 1722 122 
L 1722 897 
Q 1722 1384 1862 1606 
Q 2003 1828 2350 1913 
Q 2003 1991 1862 2212 
Q 1722 2434 1722 2925 
L 1722 3700 
Q 1722 4144 1589 4280 
Q 1456 4416 1019 4416 
L 800 4416 
L 800 4863 
L 997 4863 
Q 1775 4863 2036 4633 
Q 2297 4403 2297 3713 
L 2297 2963 
Q 2297 2497 2465 2317 
Q 2634 2138 3078 2138 
L 3272 2138 
L 3272 1691 
L 3078 1691 
Q 2634 1691 2465 1509 
Q 2297 1328 2297 856 
L 2297 109 
Q 2297 -581 2036 -812 
Q 1775 -1044 997 -1044 
L 800 -1044 
L 800 -594 
z
" transform="scale(0.015625)"/>
      <path id="DejaVuSans-3a" d="M 750 794 
L 1409 794 
L 1409 0 
L 750 0 
L 750 794 
z
M 750 3309 
L 1409 3309 
L 1409 2516 
L 750 2516 
L 750 3309 
z
" transform="scale(0.015625)"/>
      <path id="DejaVuSans-2d" d="M 313 2009 
L 1997 2009 
L 1997 1497 
L 313 1497 
L 313 2009 
z
" transform="scale(0.015625)"/>
     </defs>
     <use xlink:href="#DejaVuSans-7b"/>
     <use xlink:href="#DejaVuSans-7d" transform="translate(63.623047 0)"/>
     <use xlink:href="#DejaVuSans-3a" transform="translate(127.246094 0)"/>
     <use xlink:href="#DejaVuSans-20" transform="translate(160.9375 0)"/>
     <use xlink:href="#DejaVuSans-48" transform="translate(192.724609 0)"/>
     <use xlink:href="#DejaVuSans-65" transform="translate(267.919922 0)"/>
     <use xlink:href="#DejaVuSans-6c" transform="translate(329.443359 0)"/>
     <use xlink:href="#DejaVuSans-6c" transform="translate(357.226562 0)"/>
     <use xlink:href="#DejaVuSans-6f" transform="translate(385.009766 0)"/>
     <use xlink:href="#DejaVuSans-20" transform="translate(446.191406 0)"/>
     <use xlink:href="#DejaVuSans-77" transform="translate(477.978516 0)"/>
     <use xlink:href="#DejaVuSans-6f" transform="translate(559.765625 0)"/>
     <use xlink:href="#DejaVuSans-72" transform="translate(620.947266 0)"/>
     <use xlink:href="#DejaVuSans-6c" transform="translate(662.060547 0)"/>
     <use xlink:href="#DejaVuSans-64" transform="translate(689.84375 0)"/>
     <use xlink:href="#DejaVuSans-21" transform="translate(753.320312 0)"/>
     <use xlink:href="#DejaVuSans-20" transform="translate(793.408203 0)"/>
     <use xlink:href="#DejaVuSans-2d" transform="translate(825.195312 0)"/>
     <use xlink:href="#DejaVuSans-3e" transform="translate(861.279297 0)"/>
     <use xlink:href="#DejaVuSans-20" transform="translate(945.068359 0)"/>
     <use xlink:href="#DejaVuSans-28" transform="translate(976.855469 0)"/>
     <use xlink:href="#DejaVuSans-65" transform="translate(1015.869141 0)"/>
     <use xlink:href="#DejaVuSans-63" transform="translate(1077.392578 0)"/>
     <use xlink:href="#DejaVuSans-68" transform="translate(1132.373047 0)"/>
     <use xlink:href="#DejaVuSans-6f" transform="translate(1195.751953 0)"/>
     <use xlink:href="#DejaVuSans-20" transform="translate(1256.933594 0)"/>
     <use xlink:href="#DejaVuSans-3e" transform="translate(1288.720703 0)"/>
     <use xlink:href="#DejaVuSans-3e" transform="translate(1372.509766 0)"/>
     <use xlink:href="#DejaVuSans-20" transform="translate(1456.298828 0)"/>
     <use xlink:href="#DejaVuSans-65" transform="translate(1488.085938 0)"/>
     <use xlink:href="#DejaVuSans-63" transform="translate(1549.609375 0)"/>
     <use xlink:href="#DejaVuSans-68" transform="translate(1604.589844 0)"/>
     <use xlink:href="#DejaVuSans-6f" transform="translate(1667.96875 0)"/>
     <use xlink:href="#DejaVuSans-29" transform="translate(1729.150391 0)"/>
    </g>
   </g>
  </g>
 </g>
 <defs>
  <clipPath id="p488dcd59c7">
   <rect x="0" y="0" width="902.4" height="100.8"/>
  </clipPath>
 </defs>
</svg>
