<?xml version="1.0" encoding="utf-8" standalone="no"?>
<!DOCTYPE svg PUBLIC "-//W3C//DTD SVG 1.1//EN"
  "http://www.w3.org/Graphics/SVG/1.1/DTD/svg11.dtd">
<svg xmlns:xlink="http://www.w3.org/1999/xlink" width="462.96pt" height="1594.08pt" viewBox="0 0 462.96 1594.08" xmlns="http://www.w3.org/2000/svg" version="1.1">
 <metadata>
  <rdf:RDF xmlns:dc="http://purl.org/dc/elements/1.1/" xmlns:cc="http://creativecommons.org/ns#" xmlns:rdf="http://www.w3.org/1999/02/22-rdf-syntax-ns#">
   <cc:Work>
    <dc:type rdf:resource="http://purl.org/dc/dcmitype/StillImage"/>
    <dc:date>2026-01-03T02:45:34.025503</dc:date>
    <dc:format>image/svg+xml</dc:format>
    <dc:creator>
     <cc:Agent>
      <dc:title>Matplotlib v3.10.7, https://matplotlib.org/</dc:title>
     </cc:Agent>
    </dc:creator>
   </cc:Work>
  </rdf:RDF>
 </metadata>
 <defs>
  <style type="text/css">*{stroke-linejoin: round; stroke-linecap: butt}</style>
 </defs>
 <g id="figure_1">
  <g id="patch_1">
   <path d="M 0 1594.08 
L 462.96 1594.08 
L 462.96 0 
L 0 0 
z
" style="fill: #ffffff"/>
  </g>
  <g id="axes_1">
   <g id="patch_2">
    <path d="M 0 1594.08 
L 462.96 1594.08 
L 462.96 0 
L 0 0 
z
" clip-path="url(#p78460c583d)" style="fill: #ffffff; stroke: #ffffff; stroke-linejoin: miter"/>
   </g>
   <g id="patch_3">
    <path d="M 231.48 72.458182 
Q 231.48 72.458182 231.48 108.687273 
" clip-path="url(#p78460c583d)" style="fill: none; stroke: #000000; stroke-linejoin: miter"/>
   </g>
   <g id="patch_4">
    <path d="M 231.48 0 
Q 231.48 36.229091 231.48 36.229091 
" clip-path="url(#p78460c583d)" style="fill: none; stroke: #000000; stroke-linejoin: miter"/>
   </g>
   <g id="patch_5">
    <path d="M 231.48 36.229091 
Q 231.48 72.458182 231.48 72.458182 
" clip-path="url(#p78460c583d)" style="fill: none; stroke: #000000; stroke-linejoin: miter"/>
   </g>
   <g id="patch_6">
    <path d="M 231.48 108.687273 
Q 231.48 181.145455 231.48 181.145455 
" clip-path="url(#p78460c583d)" style="fill: none; stroke: #000000; stroke-linejoin: miter"/>
   </g>
   <g id="patch_7">
    <path d="M 231.48 253.603636 
Q 231.48 326.061818 231.48 326.061818 
" clip-path="url(#p78460c583d)" style="fill: none; stroke: #000000; stroke-linejoin: miter"/>
   </g>
   <g id="patch_8">
    <path d="M 231.48 362.290909 
Q 77.16 362.290909 77.16 398.52 
" clip-path="url(#p78460c583d)" style="fill: none; stroke: #000000; stroke-linejoin: miter"/>
   </g>
   <g id="patch_9">
    <path d="M 231.48 362.290909 
Q 231.48 362.290909 231.48 398.52 
" clip-path="url(#p78460c583d)" style="fill: none; stroke: #000000; stroke-linejoin: miter"/>
   </g>
   <g id="patch_10">
    <path d="M 231.48 362.290909 
Q 385.8 362.290909 385.8 398.52 
" clip-path="url(#p78460c583d)" style="fill: none; stroke: #000000; stroke-linejoin: miter"/>
   </g>
   <g id="patch_11">
    <path d="M 231.48 326.061818 
Q 231.48 362.290909 231.48 362.290909 
" clip-path="url(#p78460c583d)" style="fill: none; stroke: #000000; stroke-linejoin: miter"/>
   </g>
   <g id="patch_12">
    <path d="M 77.16 398.52 
Q 77.16 470.978182 77.16 470.978182 
" clip-path="url(#p78460c583d)" style="fill: none; stroke: #000000; stroke-linejoin: miter"/>
   </g>
   <g id="patch_13">
    <path d="M 231.48 398.52 
Q 231.48 615.894545 231.48 615.894545 
" clip-path="url(#p78460c583d)" style="fill: none; stroke: #000000; stroke-linejoin: miter"/>
   </g>
   <g id="patch_14">
    <path d="M 385.8 398.52 
Q 385.8 1195.56 385.8 1195.56 
" clip-path="url(#p78460c583d)" style="fill: none; stroke: #000000; stroke-linejoin: miter"/>
   </g>
   <g id="patch_15">
    <path d="M 77.16 543.436364 
Q 77.16 1340.476364 77.16 1340.476364 
" clip-path="url(#p78460c583d)" style="fill: none; stroke: #000000; stroke-linejoin: miter"/>
   </g>
   <g id="patch_16">
    <path d="M 231.48 652.123636 
Q 231.48 652.123636 231.48 688.352727 
" clip-path="url(#p78460c583d)" style="fill: none; stroke: #000000; stroke-linejoin: miter"/>
   </g>
   <g id="patch_17">
    <path d="M 231.48 615.894545 
Q 231.48 652.123636 231.48 652.123636 
" clip-path="url(#p78460c583d)" style="fill: none; stroke: #000000; stroke-linejoin: miter"/>
   </g>
   <g id="patch_18">
    <path d="M 231.48 688.352727 
Q 231.48 760.810909 231.48 760.810909 
" clip-path="url(#p78460c583d)" style="fill: none; stroke: #000000; stroke-linejoin: miter"/>
   </g>
   <g id="patch_19">
    <path d="M 231.48 833.269091 
Q 231.48 905.727273 231.48 905.727273 
" clip-path="url(#p78460c583d)" style="fill: none; stroke: #000000; stroke-linejoin: miter"/>
   </g>
   <g id="patch_20">
    <path d="M 231.48 978.185455 
Q 231.48 1050.643636 231.48 1050.643636 
" clip-path="url(#p78460c583d)" style="fill: none; stroke: #000000; stroke-linejoin: miter"/>
   </g>
   <g id="patch_21">
    <path d="M 231.48 1086.872727 
Q 231.48 1086.872727 231.48 1123.101818 
" clip-path="url(#p78460c583d)" style="fill: none; stroke: #000000; stroke-linejoin: miter"/>
   </g>
   <g id="patch_22">
    <path d="M 231.48 1050.643636 
Q 231.48 1086.872727 231.48 1086.872727 
" clip-path="url(#p78460c583d)" style="fill: none; stroke: #000000; stroke-linejoin: miter"/>
   </g>
   <g id="patch_23">
    <path d="M 231.48 1123.101818 
Q 231.48 1340.476364 231.48 1340.476364 
" clip-path="url(#p78460c583d)" style="fill: none; stroke: #000000; stroke-linejoin: miter"/>
   </g>
   <g id="patch_24">
    <path d="M 385.8 1268.018182 
Q 385.8 1340.476364 385.8 1340.476364 
" clip-path="url(#p78460c583d)" style="fill: none; stroke: #000000; stroke-linejoin: miter"/>
   </g>
   <g id="patch_25">
    <path d="M 231.48 1376.705455 
Q 231.48 1376.705455 231.48 1412.934545 
" clip-path="url(#p78460c583d)" style="fill: none; stroke: #000000; stroke-linejoin: miter"/>
   </g>
   <g id="patch_26">
    <path d="M 77.16 1340.476364 
Q 77.16 1376.705455 231.48 1376.705455 
" clip-path="url(#p78460c583d)" style="fill: none; stroke: #000000; stroke-linejoin: miter"/>
   </g>
   <g id="patch_27">
    <path d="M 231.48 1340.476364 
Q 231.48 1376.705455 231.48 1376.705455 
" clip-path="url(#p78460c583d)" style="fill: none; stroke: #000000; stroke-linejoin: miter"/>
   </g>
   <g id="patch_28">
    <path d="M 385.8 1340.476364 
Q 385.8 1376.705455 231.48 1376.705455 
" clip-path="url(#p78460c583d)" style="fill: none; stroke: #000000; stroke-linejoin: miter"/>
   </g>
   <g id="patch_29">
    <path d="M 231.48 1412.934545 
Q 231.48 1485.392727 231.48 1485.392727 
" clip-path="url(#p78460c583d)" style="fill: none; stroke: #000000; stroke-linejoin: miter"/>
   </g>
   <g id="patch_30">
    <path d="M 231.48 1521.621818 
Q 231.48 1521.621818 231.48 1557.850909 
" clip-path="url(#p78460c583d)" style="fill: none; stroke: #000000; stroke-linejoin: miter"/>
   </g>
   <g id="patch_31">
    <path d="M 231.48 1485.392727 
Q 231.48 1521.621818 231.48 1521.621818 
" clip-path="url(#p78460c583d)" style="fill: none; stroke: #000000; stroke-linejoin: miter"/>
   </g>
   <g id="patch_32">
    <path d="M 231.48 1557.850909 
Q 231.48 1594.08 231.48 1594.08 
" clip-path="url(#p78460c583d)" style="fill: none; stroke: #000000; stroke-linejoin: miter"/>
   </g>
   <g id="patch_33">
    <path d="M 192.9 253.603636 
L 192.9 181.145455 
L 270.06 181.145455 
L 270.06 253.603636 
z
" clip-path="url(#p78460c583d)" style="fill: #ffffff; stroke: #000000; stroke-linejoin: miter"/>
   </g>
   <g id="patch_34">
    <path d="M 38.58 543.436364 
L 38.58 470.978182 
L 115.74 470.978182 
L 115.74 543.436364 
z
" clip-path="url(#p78460c583d)" style="fill: #ffffff; stroke: #000000; stroke-linejoin: miter"/>
   </g>
   <g id="patch_35">
    <path d="M 192.9 833.269091 
L 192.9 760.810909 
L 270.06 760.810909 
L 270.06 833.269091 
z
" clip-path="url(#p78460c583d)" style="fill: #ffffff; stroke: #000000; stroke-linejoin: miter"/>
   </g>
   <g id="patch_36">
    <path d="M 192.9 978.185455 
L 192.9 905.727273 
L 270.06 905.727273 
L 270.06 978.185455 
z
" clip-path="url(#p78460c583d)" style="fill: #ffffff; stroke: #000000; stroke-linejoin: miter"/>
   </g>
   <g id="patch_37">
    <path d="M 347.22 1268.018182 
L 347.22 1195.56 
L 424.38 1195.56 
L 424.38 1268.018182 
z
" clip-path="url(#p78460c583d)" style="fill: #ffffff; stroke: #000000; stroke-linejoin: miter"/>
   </g>
   <g id="PathCollection_1">
    <defs>
     <path id="C0_0_5365b9e4ae" d="M 0 4.759202 
C 1.262155 4.759202 2.472785 4.257742 3.365264 3.365264 
C 4.257742 2.472785 4.759202 1.262155 4.759202 -0 
C 4.759202 -1.262155 4.257742 -2.472785 3.365264 -3.365264 
C 2.472785 -4.257742 1.262155 -4.759202 0 -4.759202 
C -1.262155 -4.759202 -2.472785 -4.257742 -3.365264 -3.365264 
C -4.257742 -2.472785 -4.759202 -1.262155 -4.759202 0 
C -4.759202 1.262155 -4.257742 2.472785 -3.365264 3.365264 
C -2.472785 4.257742 -1.262155 4.759202 0 4.759202 
z
"/>
    </defs>
    <g clip-path="url(#p78460c583d)">
     <use xlink:href="#C0_0_5365b9e4ae" x="231.48" y="1376.705455" style="fill: #d8f8d8; stroke: #d8f8d8"/>
    </g>
    <g clip-path="url(#p78460c583d)">
     <use xlink:href="#C0_0_5365b9e4ae" x="231.48" y="1086.872727" style="fill: #d8f8d8; stroke: #d8f8d8"/>
    </g>
    <g clip-path="url(#p78460c583d)">
     <use xlink:href="#C0_0_5365b9e4ae" x="231.48" y="362.290909" style="fill: #d8f8d8; stroke: #d8f8d8"/>
    </g>
    <g clip-path="url(#p78460c583d)">
     <use xlink:href="#C0_0_5365b9e4ae" x="231.48" y="1521.621818" style="fill: #d8f8d8; stroke: #d8f8d8"/>
    </g>
    <g clip-path="url(#p78460c583d)">
     <use xlink:href="#C0_0_5365b9e4ae" x="231.48" y="72.458182" style="fill: #d8f8d8; stroke: #d8f8d8"/>
    </g>
    <g clip-path="url(#p78460c583d)">
     <use xlink:href="#C0_0_5365b9e4ae" x="231.48" y="652.123636" style="fill: #d8f8d8; stroke: #d8f8d8"/>
    </g>
   </g>
   <g id="text_1">
    <!-- cat examples/shell.yaml -->
    <g transform="translate(114.257409 222.705658) scale(0.1932 -0.1932)">
     <defs>
      <path id="DejaVuSans-63" d="M 3122 3366 
L 3122 2828 
Q 2878 2963 2633 3030 
Q 2388 3097 2138 3097 
Q 1578 3097 1268 2742 
Q 959 2388 959 1747 
Q 959 1106 1268 751 
Q 1578 397 2138 397 
Q 2388 397 2633 464 
Q 2878 531 3122 666 
L 3122 134 
Q 2881 22 2623 -34 
Q 2366 -91 2075 -91 
Q 1284 -91 818 406 
Q 353 903 353 1747 
Q 353 2603 823 3093 
Q 1294 3584 2113 3584 
Q 2378 3584 2631 3529 
Q 2884 3475 3122 3366 
z
" transform="scale(0.015625)"/>
      <path id="DejaVuSans-61" d="M 2194 1759 
Q 1497 1759 1228 1600 
Q 959 1441 959 1056 
Q 959 750 1161 570 
Q 1363 391 1709 391 
Q 2188 391 2477 730 
Q 2766 1069 2766 1631 
L 2766 1759 
L 2194 1759 
z
M 3341 1997 
L 3341 0 
L 2766 0 
L 2766 531 
Q 2569 213 2275 61 
Q 1981 -91 1556 -91 
Q 1019 -91 701 211 
Q 384 513 384 1019 
Q 384 1609 779 1909 
Q 1175 2209 1959 2209 
L 2766 2209 
L 2766 2266 
Q 2766 2663 2505 2880 
Q 2244 3097 1772 3097 
Q 1472 3097 1187 3025 
Q 903 2953 641 2809 
L 641 3341 
Q 956 3463 1253 3523 
Q 1550 3584 1831 3584 
Q 2591 3584 2966 3190 
Q 3341 2797 3341 1997 
z
" transform="scale(0.015625)"/>
      <path id="DejaVuSans-74" d="M 1172 4494 
L 1172 3500 
L 2356 3500 
L 2356 3053 
L 1172 3053 
L 1172 1153 
Q 1172 725 1289 603 
Q 1406 481 1766 481 
L 2356 481 
L 2356 0 
L 1766 0 
Q 1100 0 847 248 
Q 594 497 594 1153 
L 594 3053 
L 172 3053 
L 172 3500 
L 594 3500 
L 594 4494 
L 1172 4494 
z
" transform="scale(0.015625)"/>
      <path id="DejaVuSans-20" transform="scale(0.015625)"/>
      <path id="DejaVuSans-65" d="M 3597 1894 
L 3597 1613 
L 953 1613 
Q 991 1019 1311 708 
Q 1631 397 2203 397 
Q 2534 397 2845 478 
Q 3156 559 3463 722 
L 3463 178 
Q 3153 47 2828 -22 
Q 2503 -91 2169 -91 
Q 1331 -91 842 396 
Q 353 884 353 1716 
Q 353 2575 817 3079 
Q 1281 3584 2069 3584 
Q 2775 3584 3186 3129 
Q 3597 2675 3597 1894 
z
M 3022 2063 
Q 3016 2534 2758 2815 
Q 2500 3097 2075 3097 
Q 1594 3097 1305 2825 
Q 1016 2553 972 2059 
L 3022 2063 
z
" transform="scale(0.015625)"/>
      <path id="DejaVuSans-78" d="M 3513 3500 
L 2247 1797 
L 3578 0 
L 2900 0 
L 1881 1375 
L 863 0 
L 184 0 
L 1544 1831 
L 300 3500 
L 978 3500 
L 1906 2253 
L 2834 3500 
L 3513 3500 
z
" transform="scale(0.015625)"/>
      <path id="DejaVuSans-6d" d="M 3328 2828 
Q 3544 3216 3844 3400 
Q 4144 3584 4550 3584 
Q 5097 3584 5394 3201 
Q 5691 2819 5691 2113 
L 5691 0 
L 5113 0 
L 5113 2094 
Q 5113 2597 4934 2840 
Q 4756 3084 4391 3084 
Q 3944 3084 3684 2787 
Q 3425 2491 3425 1978 
L 3425 0 
L 2847 0 
L 2847 2094 
Q 2847 2600 2669 2842 
Q 2491 3084 2119 3084 
Q 1678 3084 1418 2786 
Q 1159 2488 1159 1978 
L 1159 0 
L 581 0 
L 581 3500 
L 1159 3500 
L 1159 2956 
Q 1356 3278 1631 3431 
Q 1906 3584 2284 3584 
Q 2666 3584 2933 3390 
Q 3200 3197 3328 2828 
z
" transform="scale(0.015625)"/>
      <path id="DejaVuSans-70" d="M 1159 525 
L 1159 -1331 
L 581 -1331 
L 581 3500 
L 1159 3500 
L 1159 2969 
Q 1341 3281 1617 3432 
Q 1894 3584 2278 3584 
Q 2916 3584 3314 3078 
Q 3713 2572 3713 1747 
Q 3713 922 3314 415 
Q 2916 -91 2278 -91 
Q 1894 -91 1617 61 
Q 1341 213 1159 525 
z
M 3116 1747 
Q 3116 2381 2855 2742 
Q 2594 3103 2138 3103 
Q 1681 3103 1420 2742 
Q 1159 2381 1159 1747 
Q 1159 1113 1420 752 
Q 1681 391 2138 391 
Q 2594 391 2855 752 
Q 3116 1113 3116 1747 
z
" transform="scale(0.015625)"/>
      <path id="DejaVuSans-6c" d="M 603 4863 
L 1178 4863 
L 1178 0 
L 603 0 
L 603 4863 
z
" transform="scale(0.015625)"/>
      <path id="DejaVuSans-73" d="M 2834 3397 
L 2834 2853 
Q 2591 2978 2328 3040 
Q 2066 3103 1784 3103 
Q 1356 3103 1142 2972 
Q 928 2841 928 2578 
Q 928 2378 1081 2264 
Q 1234 2150 1697 2047 
L 1894 2003 
Q 2506 1872 2764 1633 
Q 3022 1394 3022 966 
Q 3022 478 2636 193 
Q 2250 -91 1575 -91 
Q 1294 -91 989 -36 
Q 684 19 347 128 
L 347 722 
Q 666 556 975 473 
Q 1284 391 1588 391 
Q 1994 391 2212 530 
Q 2431 669 2431 922 
Q 2431 1156 2273 1281 
Q 2116 1406 1581 1522 
L 1381 1569 
Q 847 1681 609 1914 
Q 372 2147 372 2553 
Q 372 3047 722 3315 
Q 1072 3584 1716 3584 
Q 2034 3584 2315 3537 
Q 2597 3491 2834 3397 
z
" transform="scale(0.015625)"/>
      <path id="DejaVuSans-2f" d="M 1625 4666 
L 2156 4666 
L 531 -594 
L 0 -594 
L 1625 4666 
z
" transform="scale(0.015625)"/>
      <path id="DejaVuSans-68" d="M 3513 2113 
L 3513 0 
L 2938 0 
L 2938 2094 
Q 2938 2591 2744 2837 
Q 2550 3084 2163 3084 
Q 1697 3084 1428 2787 
Q 1159 2491 1159 1978 
L 1159 0 
L 581 0 
L 581 4863 
L 1159 4863 
L 1159 2956 
Q 1366 3272 1645 3428 
Q 1925 3584 2291 3584 
Q 2894 3584 3203 3211 
Q 3513 2838 3513 2113 
z
" transform="scale(0.015625)"/>
      <path id="DejaVuSans-2e" d="M 684 794 
L 1344 794 
L 1344 0 
L 684 0 
L 684 794 
z
" transform="scale(0.015625)"/>
      <path id="DejaVuSans-79" d="M 2059 -325 
Q 1816 -950 1584 -1140 
Q 1353 -1331 966 -1331 
L 506 -1331 
L 506 -850 
L 844 -850 
Q 1081 -850 1212 -737 
Q 1344 -625 1503 -206 
L 1606 56 
L 191 3500 
L 800 3500 
L 1894 763 
L 2988 3500 
L 3597 3500 
L 2059 -325 
z
" transform="scale(0.015625)"/>
     </defs>
     <use xlink:href="#DejaVuSans-63"/>
     <use xlink:href="#DejaVuSans-61" transform="translate(54.980469 0)"/>
     <use xlink:href="#DejaVuSans-74" transform="translate(116.259766 0)"/>
     <use xlink:href="#DejaVuSans-20" transform="translate(155.46875 0)"/>
     <use xlink:href="#DejaVuSans-65" transform="translate(187.255859 0)"/>
     <use xlink:href="#DejaVuSans-78" transform="translate(247.029297 0)"/>
     <use xlink:href="#DejaVuSans-61" transform="translate(306.208984 0)"/>
     <use xlink:href="#DejaVuSans-6d" transform="translate(367.488281 0)"/>
     <use xlink:href="#DejaVuSans-70" transform="translate(464.900391 0)"/>
     <use xlink:href="#DejaVuSans-6c" transform="translate(528.376953 0)"/>
     <use xlink:href="#DejaVuSans-65" transform="translate(556.160156 0)"/>
     <use xlink:href="#DejaVuSans-73" transform="translate(617.683594 0)"/>
     <use xlink:href="#DejaVuSans-2f" transform="translate(669.783203 0)"/>
     <use xlink:href="#DejaVuSans-73" transform="translate(703.474609 0)"/>
     <use xlink:href="#DejaVuSans-68" transform="translate(755.574219 0)"/>
     <use xlink:href="#DejaVuSans-65" transform="translate(818.953125 0)"/>
     <use xlink:href="#DejaVuSans-6c" transform="translate(880.476562 0)"/>
     <use xlink:href="#DejaVuSans-6c" transform="translate(908.259766 0)"/>
     <use xlink:href="#DejaVuSans-2e" transform="translate(936.042969 0)"/>
     <use xlink:href="#DejaVuSans-79" transform="translate(967.830078 0)"/>
     <use xlink:href="#DejaVuSans-61" transform="translate(1027.009766 0)"/>
     <use xlink:href="#DejaVuSans-6d" transform="translate(1088.289062 0)"/>
     <use xlink:href="#DejaVuSans-6c" transform="translate(1185.701172 0)"/>
    </g>
   </g>
   <g id="text_2">
    <!-- wc -c -->
    <g transform="translate(52.081734 512.538385) scale(0.1932 -0.1932)">
     <defs>
      <path id="DejaVuSans-77" d="M 269 3500 
L 844 3500 
L 1563 769 
L 2278 3500 
L 2956 3500 
L 3675 769 
L 4391 3500 
L 4966 3500 
L 4050 0 
L 3372 0 
L 2619 2869 
L 1863 0 
L 1184 0 
L 269 3500 
z
" transform="scale(0.015625)"/>
      <path id="DejaVuSans-2d" d="M 313 2009 
L 1997 2009 
L 1997 1497 
L 313 1497 
L 313 2009 
z
" transform="scale(0.015625)"/>
     </defs>
     <use xlink:href="#DejaVuSans-77"/>
     <use xlink:href="#DejaVuSans-63" transform="translate(81.787109 0)"/>
     <use xlink:href="#DejaVuSans-20" transform="translate(136.767578 0)"/>
     <use xlink:href="#DejaVuSans-2d" transform="translate(168.554688 0)"/>
     <use xlink:href="#DejaVuSans-63" transform="translate(204.638672 0)"/>
    </g>
   </g>
   <g id="text_3">
    <!-- grep grep -->
    <g transform="translate(184.4841 802.371112) scale(0.1932 -0.1932)">
     <defs>
      <path id="DejaVuSans-67" d="M 2906 1791 
Q 2906 2416 2648 2759 
Q 2391 3103 1925 3103 
Q 1463 3103 1205 2759 
Q 947 2416 947 1791 
Q 947 1169 1205 825 
Q 1463 481 1925 481 
Q 2391 481 2648 825 
Q 2906 1169 2906 1791 
z
M 3481 434 
Q 3481 -459 3084 -895 
Q 2688 -1331 1869 -1331 
Q 1566 -1331 1297 -1286 
Q 1028 -1241 775 -1147 
L 775 -588 
Q 1028 -725 1275 -790 
Q 1522 -856 1778 -856 
Q 2344 -856 2625 -561 
Q 2906 -266 2906 331 
L 2906 616 
Q 2728 306 2450 153 
Q 2172 0 1784 0 
Q 1141 0 747 490 
Q 353 981 353 1791 
Q 353 2603 747 3093 
Q 1141 3584 1784 3584 
Q 2172 3584 2450 3431 
Q 2728 3278 2906 2969 
L 2906 3500 
L 3481 3500 
L 3481 434 
z
" transform="scale(0.015625)"/>
      <path id="DejaVuSans-72" d="M 2631 2963 
Q 2534 3019 2420 3045 
Q 2306 3072 2169 3072 
Q 1681 3072 1420 2755 
Q 1159 2438 1159 1844 
L 1159 0 
L 581 0 
L 581 3500 
L 1159 3500 
L 1159 2956 
Q 1341 3275 1631 3429 
Q 1922 3584 2338 3584 
Q 2397 3584 2469 3576 
Q 2541 3569 2628 3553 
L 2631 2963 
z
" transform="scale(0.015625)"/>
     </defs>
     <use xlink:href="#DejaVuSans-67"/>
     <use xlink:href="#DejaVuSans-72" transform="translate(63.476562 0)"/>
     <use xlink:href="#DejaVuSans-65" transform="translate(102.339844 0)"/>
     <use xlink:href="#DejaVuSans-70" transform="translate(163.863281 0)"/>
     <use xlink:href="#DejaVuSans-20" transform="translate(227.339844 0)"/>
     <use xlink:href="#DejaVuSans-67" transform="translate(259.126953 0)"/>
     <use xlink:href="#DejaVuSans-72" transform="translate(322.603516 0)"/>
     <use xlink:href="#DejaVuSans-65" transform="translate(361.466797 0)"/>
     <use xlink:href="#DejaVuSans-70" transform="translate(422.990234 0)"/>
    </g>
   </g>
   <g id="text_4">
    <!-- wc -c -->
    <g transform="translate(206.401734 947.287476) scale(0.1932 -0.1932)">
     <use xlink:href="#DejaVuSans-77"/>
     <use xlink:href="#DejaVuSans-63" transform="translate(81.787109 0)"/>
     <use xlink:href="#DejaVuSans-20" transform="translate(136.767578 0)"/>
     <use xlink:href="#DejaVuSans-2d" transform="translate(168.554688 0)"/>
     <use xlink:href="#DejaVuSans-63" transform="translate(204.638672 0)"/>
    </g>
   </g>
   <g id="text_5">
    <!-- tail -2 -->
    <g transform="translate(358.024481 1237.120203) scale(0.1932 -0.1932)">
     <defs>
      <path id="DejaVuSans-69" d="M 603 3500 
L 1178 3500 
L 1178 0 
L 603 0 
L 603 3500 
z
M 603 4863 
L 1178 4863 
L 1178 4134 
L 603 4134 
L 603 4863 
z
" transform="scale(0.015625)"/>
      <path id="DejaVuSans-32" d="M 1228 531 
L 3431 531 
L 3431 0 
L 469 0 
L 469 531 
Q 828 903 1448 1529 
Q 2069 2156 2228 2338 
Q 2531 2678 2651 2914 
Q 2772 3150 2772 3378 
Q 2772 3750 2511 3984 
Q 2250 4219 1831 4219 
Q 1534 4219 1204 4116 
Q 875 4013 500 3803 
L 500 4441 
Q 881 4594 1212 4672 
Q 1544 4750 1819 4750 
Q 2544 4750 2975 4387 
Q 3406 4025 3406 3419 
Q 3406 3131 3298 2873 
Q 3191 2616 2906 2266 
Q 2828 2175 2409 1742 
Q 1991 1309 1228 531 
z
" transform="scale(0.015625)"/>
     </defs>
     <use xlink:href="#DejaVuSans-74"/>
     <use xlink:href="#DejaVuSans-61" transform="translate(39.208984 0)"/>
     <use xlink:href="#DejaVuSans-69" transform="translate(100.488281 0)"/>
     <use xlink:href="#DejaVuSans-6c" transform="translate(128.271484 0)"/>
     <use xlink:href="#DejaVuSans-20" transform="translate(156.054688 0)"/>
     <use xlink:href="#DejaVuSans-2d" transform="translate(187.841797 0)"/>
     <use xlink:href="#DejaVuSans-32" transform="translate(223.925781 0)"/>
    </g>
   </g>
   <g id="text_6">
    <g clip-path="url(#p78460c583d)">
     <!-- ⊗3 -->
     <g transform="translate(222.634687 1380.016705) scale(0.12 -0.12)">
      <defs>
       <path id="DejaVuSans-2297" d="M 3306 3522 
Q 3016 3644 2681 3644 
Q 2347 3644 2056 3522 
Q 1769 3400 1531 3163 
Q 1291 2922 1172 2634 
Q 1053 2347 1053 2006 
Q 1053 1675 1172 1387 
Q 1291 1100 1531 859 
Q 1769 622 2056 500 
Q 2347 378 2681 378 
Q 3016 378 3306 500 
Q 3594 622 3831 859 
Q 4072 1100 4190 1387 
Q 4309 1675 4309 2006 
Q 4309 2347 4190 2634 
Q 4072 2922 3831 3163 
Q 3594 3400 3306 3522 
z
M 1878 3956 
Q 2250 4113 2681 4113 
Q 3113 4113 3484 3956 
Q 3856 3800 4163 3494 
Q 4472 3184 4625 2813 
Q 4778 2444 4778 2006 
Q 4778 1578 4625 1206 
Q 4472 838 4163 528 
Q 3856 222 3484 65 
Q 3113 -91 2681 -91 
Q 2250 -91 1878 65 
Q 1506 222 1200 528 
Q 891 838 738 1206 
Q 584 1578 584 2006 
Q 584 2444 738 2813 
Q 891 3184 1200 3494 
Q 1506 3800 1878 3956 
z
M 3847 2794 
L 3056 2006 
L 3844 1219 
L 3469 844 
L 2681 1631 
L 1894 841 
L 1516 1219 
L 2306 2006 
L 1519 2794 
L 1894 3169 
L 2681 2381 
L 3469 3172 
L 3847 2794 
z
" transform="scale(0.015625)"/>
       <path id="DejaVuSans-33" d="M 2597 2516 
Q 3050 2419 3304 2112 
Q 3559 1806 3559 1356 
Q 3559 666 3084 287 
Q 2609 -91 1734 -91 
Q 1441 -91 1130 -33 
Q 819 25 488 141 
L 488 750 
Q 750 597 1062 519 
Q 1375 441 1716 441 
Q 2309 441 2620 675 
Q 2931 909 2931 1356 
Q 2931 1769 2642 2001 
Q 2353 2234 1838 2234 
L 1294 2234 
L 1294 2753 
L 1863 2753 
Q 2328 2753 2575 2939 
Q 2822 3125 2822 3475 
Q 2822 3834 2567 4026 
Q 2313 4219 1838 4219 
Q 1578 4219 1281 4162 
Q 984 4106 628 3988 
L 628 4550 
Q 988 4650 1302 4700 
Q 1616 4750 1894 4750 
Q 2613 4750 3031 4423 
Q 3450 4097 3450 3541 
Q 3450 3153 3228 2886 
Q 3006 2619 2597 2516 
z
" transform="scale(0.015625)"/>
      </defs>
      <use xlink:href="#DejaVuSans-2297"/>
      <use xlink:href="#DejaVuSans-33" transform="translate(83.789062 0)"/>
     </g>
    </g>
   </g>
   <g id="text_7">
    <g clip-path="url(#p78460c583d)">
     <!-- ⊗ -->
     <g transform="translate(226.452187 1090.183977) scale(0.12 -0.12)">
      <use xlink:href="#DejaVuSans-2297"/>
     </g>
    </g>
   </g>
   <g id="text_8">
    <g clip-path="url(#p78460c583d)">
     <!-- Δ -->
     <g transform="translate(227.375625 365.602159) scale(0.12 -0.12)">
      <defs>
       <path id="DejaVuSans-394" d="M 2188 4044 
L 906 525 
L 3472 525 
L 2188 4044 
z
M 50 0 
L 1831 4666 
L 2547 4666 
L 4325 0 
L 50 0 
z
" transform="scale(0.015625)"/>
      </defs>
      <use xlink:href="#DejaVuSans-394"/>
     </g>
    </g>
   </g>
   <g id="text_9">
    <g clip-path="url(#p78460c583d)">
     <!-- ⊗ -->
     <g transform="translate(226.452187 1524.933068) scale(0.12 -0.12)">
      <use xlink:href="#DejaVuSans-2297"/>
     </g>
    </g>
   </g>
   <g id="text_10">
    <g clip-path="url(#p78460c583d)">
     <!-- Δ -->
     <g transform="translate(227.375625 75.769432) scale(0.12 -0.12)">
      <use xlink:href="#DejaVuSans-394"/>
     </g>
    </g>
   </g>
   <g id="text_11">
    <g clip-path="url(#p78460c583d)">
     <!-- Δ -->
     <g transform="translate(227.375625 655.434886) scale(0.12 -0.12)">
      <use xlink:href="#DejaVuSans-394"/>
     </g>
    </g>
   </g>
  </g>
 </g>
 <defs>
  <clipPath id="p78460c583d">
   <rect x="0" y="0" width="462.96" height="1594.08"/>
  </clipPath>
 </defs>
</svg>
