<?xml version="1.0" encoding="utf-8" standalone="no"?>
<!DOCTYPE svg PUBLIC "-//W3C//DTD SVG 1.1//EN"
  "http://www.w3.org/Graphics/SVG/1.1/DTD/svg11.dtd">
<svg xmlns:xlink="http://www.w3.org/1999/xlink" width="835.2pt" height="806.4pt" viewBox="0 0 835.2 806.4" xmlns="http://www.w3.org/2000/svg" version="1.1">
 <metadata>
  <rdf:RDF xmlns:dc="http://purl.org/dc/elements/1.1/" xmlns:cc="http://creativecommons.org/ns#" xmlns:rdf="http://www.w3.org/1999/02/22-rdf-syntax-ns#">
   <cc:Work>
    <dc:type rdf:resource="http://purl.org/dc/dcmitype/StillImage"/>
    <dc:date>2026-01-18T22:46:14.100831</dc:date>
    <dc:format>image/svg+xml</dc:format>
    <dc:creator>
     <cc:Agent>
      <dc:title>Matplotlib v3.10.7, https://matplotlib.org/</dc:title>
     </cc:Agent>
    </dc:creator>
   </cc:Work>
  </rdf:RDF>
 </metadata>
 <defs>
  <style type="text/css">*{stroke-linejoin: round; stroke-linecap: butt}</style>
 </defs>
 <g id="figure_1">
  <g id="patch_1">
   <path d="M 0 806.4 
L 835.2 806.4 
L 835.2 0 
L 0 0 
z
" style="fill: #ffffff"/>
  </g>
  <g id="axes_1">
   <g id="patch_2">
    <path d="M 0 806.4 
L 835.2 806.4 
L 835.2 0 
L 0 0 
z
" clip-path="url(#p35751f90d9)" style="fill: #ffffff; stroke: #ffffff; stroke-linejoin: miter"/>
   </g>
   <g id="patch_3">
    <path d="M 55.68 0 
Q 55.68 12.6 55.68 12.6 
" clip-path="url(#p35751f90d9)" style="fill: none; stroke: #000000; stroke-linejoin: miter"/>
   </g>
   <g id="patch_4">
    <path d="M 55.68 37.8 
Q 55.68 718.2 55.68 718.2 
" clip-path="url(#p35751f90d9)" style="fill: none; stroke: #000000; stroke-linejoin: miter"/>
   </g>
   <g id="patch_5">
    <path d="M 167.04 0 
Q 167.04 63 167.04 63 
" clip-path="url(#p35751f90d9)" style="fill: none; stroke: #000000; stroke-linejoin: miter"/>
   </g>
   <g id="patch_6">
    <path d="M 389.76 0 
Q 389.76 214.2 389.76 214.2 
" clip-path="url(#p35751f90d9)" style="fill: none; stroke: #000000; stroke-linejoin: miter"/>
   </g>
   <g id="patch_7">
    <path d="M 501.12 0 
Q 501.12 264.6 501.12 264.6 
" clip-path="url(#p35751f90d9)" style="fill: none; stroke: #000000; stroke-linejoin: miter"/>
   </g>
   <g id="patch_8">
    <path d="M 668.16 0 
Q 668.16 516.6 668.16 516.6 
" clip-path="url(#p35751f90d9)" style="fill: none; stroke: #000000; stroke-linejoin: miter"/>
   </g>
   <g id="patch_9">
    <path d="M 167.04 88.2 
Q 167.04 163.8 167.04 163.8 
" clip-path="url(#p35751f90d9)" style="fill: none; stroke: #000000; stroke-linejoin: miter"/>
   </g>
   <g id="patch_10">
    <path d="M 278.4 138.6 
Q 278.4 163.8 278.4 163.8 
" clip-path="url(#p35751f90d9)" style="fill: none; stroke: #000000; stroke-linejoin: miter"/>
   </g>
   <g id="patch_11">
    <path d="M 222.72 189 
Q 222.72 667.8 222.72 667.8 
" clip-path="url(#p35751f90d9)" style="fill: none; stroke: #000000; stroke-linejoin: miter"/>
   </g>
   <g id="patch_12">
    <path d="M 389.76 239.4 
Q 389.76 315 389.76 315 
" clip-path="url(#p35751f90d9)" style="fill: none; stroke: #000000; stroke-linejoin: miter"/>
   </g>
   <g id="patch_13">
    <path d="M 501.12 289.8 
Q 501.12 315 501.12 315 
" clip-path="url(#p35751f90d9)" style="fill: none; stroke: #000000; stroke-linejoin: miter"/>
   </g>
   <g id="patch_14">
    <path d="M 445.44 340.2 
Q 445.44 365.4 445.44 365.4 
" clip-path="url(#p35751f90d9)" style="fill: none; stroke: #000000; stroke-linejoin: miter"/>
   </g>
   <g id="patch_15">
    <path d="M 445.44 390.6 
Q 445.44 466.2 445.44 466.2 
" clip-path="url(#p35751f90d9)" style="fill: none; stroke: #000000; stroke-linejoin: miter"/>
   </g>
   <g id="patch_16">
    <path d="M 556.8 441 
Q 556.8 466.2 556.8 466.2 
" clip-path="url(#p35751f90d9)" style="fill: none; stroke: #000000; stroke-linejoin: miter"/>
   </g>
   <g id="patch_17">
    <path d="M 501.12 491.4 
Q 501.12 667.8 501.12 667.8 
" clip-path="url(#p35751f90d9)" style="fill: none; stroke: #000000; stroke-linejoin: miter"/>
   </g>
   <g id="patch_18">
    <path d="M 668.16 541.8 
Q 668.16 617.4 668.16 617.4 
" clip-path="url(#p35751f90d9)" style="fill: none; stroke: #000000; stroke-linejoin: miter"/>
   </g>
   <g id="patch_19">
    <path d="M 779.52 592.2 
Q 779.52 617.4 779.52 617.4 
" clip-path="url(#p35751f90d9)" style="fill: none; stroke: #000000; stroke-linejoin: miter"/>
   </g>
   <g id="patch_20">
    <path d="M 723.84 642.6 
Q 723.84 667.8 723.84 667.8 
" clip-path="url(#p35751f90d9)" style="fill: none; stroke: #000000; stroke-linejoin: miter"/>
   </g>
   <g id="patch_21">
    <path d="M 473.28 693 
Q 473.28 718.2 473.28 718.2 
" clip-path="url(#p35751f90d9)" style="fill: none; stroke: #000000; stroke-linejoin: miter"/>
   </g>
   <g id="patch_22">
    <path d="M 264.48 743.4 
Q 264.48 768.6 264.48 768.6 
" clip-path="url(#p35751f90d9)" style="fill: none; stroke: #000000; stroke-linejoin: miter"/>
   </g>
   <g id="patch_23">
    <path d="M 264.48 793.8 
Q 264.48 806.4 264.48 806.4 
" clip-path="url(#p35751f90d9)" style="fill: none; stroke: #000000; stroke-linejoin: miter"/>
   </g>
   <g id="patch_24">
    <path d="M 27.84 37.8 
L 27.84 12.6 
L 83.52 12.6 
L 83.52 37.8 
z
" clip-path="url(#p35751f90d9)" style="fill: #ffffff; stroke: #000000; stroke-linejoin: miter"/>
   </g>
   <g id="patch_25">
    <path d="M 139.2 88.2 
L 139.2 63 
L 194.88 63 
L 194.88 88.2 
z
" clip-path="url(#p35751f90d9)" style="fill: #ffffff; stroke: #000000; stroke-linejoin: miter"/>
   </g>
   <g id="patch_26">
    <path d="M 250.56 138.6 
L 250.56 113.4 
L 306.24 113.4 
L 306.24 138.6 
z
" clip-path="url(#p35751f90d9)" style="fill: #ffffff; stroke: #000000; stroke-linejoin: miter"/>
   </g>
   <g id="patch_27">
    <path d="M 139.2 189 
L 139.2 163.8 
L 306.24 163.8 
L 306.24 189 
z
" clip-path="url(#p35751f90d9)" style="fill: #ffffff; stroke: #000000; stroke-linejoin: miter"/>
   </g>
   <g id="patch_28">
    <path d="M 361.92 239.4 
L 361.92 214.2 
L 417.6 214.2 
L 417.6 239.4 
z
" clip-path="url(#p35751f90d9)" style="fill: #ffffff; stroke: #000000; stroke-linejoin: miter"/>
   </g>
   <g id="patch_29">
    <path d="M 473.28 289.8 
L 473.28 264.6 
L 528.96 264.6 
L 528.96 289.8 
z
" clip-path="url(#p35751f90d9)" style="fill: #ffffff; stroke: #000000; stroke-linejoin: miter"/>
   </g>
   <g id="patch_30">
    <path d="M 361.92 340.2 
L 361.92 315 
L 528.96 315 
L 528.96 340.2 
z
" clip-path="url(#p35751f90d9)" style="fill: #ffffff; stroke: #000000; stroke-linejoin: miter"/>
   </g>
   <g id="patch_31">
    <path d="M 417.6 390.6 
L 417.6 365.4 
L 473.28 365.4 
L 473.28 390.6 
z
" clip-path="url(#p35751f90d9)" style="fill: #ffffff; stroke: #000000; stroke-linejoin: miter"/>
   </g>
   <g id="patch_32">
    <path d="M 528.96 441 
L 528.96 415.8 
L 584.64 415.8 
L 584.64 441 
z
" clip-path="url(#p35751f90d9)" style="fill: #ffffff; stroke: #000000; stroke-linejoin: miter"/>
   </g>
   <g id="patch_33">
    <path d="M 417.6 491.4 
L 417.6 466.2 
L 584.64 466.2 
L 584.64 491.4 
z
" clip-path="url(#p35751f90d9)" style="fill: #ffffff; stroke: #000000; stroke-linejoin: miter"/>
   </g>
   <g id="patch_34">
    <path d="M 640.32 541.8 
L 640.32 516.6 
L 696 516.6 
L 696 541.8 
z
" clip-path="url(#p35751f90d9)" style="fill: #ffffff; stroke: #000000; stroke-linejoin: miter"/>
   </g>
   <g id="patch_35">
    <path d="M 751.68 592.2 
L 751.68 567 
L 807.36 567 
L 807.36 592.2 
z
" clip-path="url(#p35751f90d9)" style="fill: #ffffff; stroke: #000000; stroke-linejoin: miter"/>
   </g>
   <g id="patch_36">
    <path d="M 640.32 642.6 
L 640.32 617.4 
L 807.36 617.4 
L 807.36 642.6 
z
" clip-path="url(#p35751f90d9)" style="fill: #ffffff; stroke: #000000; stroke-linejoin: miter"/>
   </g>
   <g id="patch_37">
    <path d="M 194.88 693 
L 194.88 667.8 
L 751.68 667.8 
L 751.68 693 
z
" clip-path="url(#p35751f90d9)" style="fill: #ffffff; stroke: #000000; stroke-linejoin: miter"/>
   </g>
   <g id="patch_38">
    <path d="M 27.84 743.4 
L 27.84 718.2 
L 501.12 718.2 
L 501.12 743.4 
z
" clip-path="url(#p35751f90d9)" style="fill: #ffffff; stroke: #000000; stroke-linejoin: miter"/>
   </g>
   <g id="patch_39">
    <path d="M 236.64 793.8 
L 236.64 768.6 
L 292.32 768.6 
L 292.32 793.8 
z
" clip-path="url(#p35751f90d9)" style="fill: #ffffff; stroke: #000000; stroke-linejoin: miter"/>
   </g>
   <g id="text_1">
    <!-- examples/shell.yaml -->
    <g transform="translate(66.816 16.678125) scale(0.12 -0.12)">
     <defs>
      <path id="DejaVuSans-65" d="M 3597 1894 
L 3597 1613 
L 953 1613 
Q 991 1019 1311 708 
Q 1631 397 2203 397 
Q 2534 397 2845 478 
Q 3156 559 3463 722 
L 3463 178 
Q 3153 47 2828 -22 
Q 2503 -91 2169 -91 
Q 1331 -91 842 396 
Q 353 884 353 1716 
Q 353 2575 817 3079 
Q 1281 3584 2069 3584 
Q 2775 3584 3186 3129 
Q 3597 2675 3597 1894 
z
M 3022 2063 
Q 3016 2534 2758 2815 
Q 2500 3097 2075 3097 
Q 1594 3097 1305 2825 
Q 1016 2553 972 2059 
L 3022 2063 
z
" transform="scale(0.015625)"/>
      <path id="DejaVuSans-78" d="M 3513 3500 
L 2247 1797 
L 3578 0 
L 2900 0 
L 1881 1375 
L 863 0 
L 184 0 
L 1544 1831 
L 300 3500 
L 978 3500 
L 1906 2253 
L 2834 3500 
L 3513 3500 
z
" transform="scale(0.015625)"/>
      <path id="DejaVuSans-61" d="M 2194 1759 
Q 1497 1759 1228 1600 
Q 959 1441 959 1056 
Q 959 750 1161 570 
Q 1363 391 1709 391 
Q 2188 391 2477 730 
Q 2766 1069 2766 1631 
L 2766 1759 
L 2194 1759 
z
M 3341 1997 
L 3341 0 
L 2766 0 
L 2766 531 
Q 2569 213 2275 61 
Q 1981 -91 1556 -91 
Q 1019 -91 701 211 
Q 384 513 384 1019 
Q 384 1609 779 1909 
Q 1175 2209 1959 2209 
L 2766 2209 
L 2766 2266 
Q 2766 2663 2505 2880 
Q 2244 3097 1772 3097 
Q 1472 3097 1187 3025 
Q 903 2953 641 2809 
L 641 3341 
Q 956 3463 1253 3523 
Q 1550 3584 1831 3584 
Q 2591 3584 2966 3190 
Q 3341 2797 3341 1997 
z
" transform="scale(0.015625)"/>
      <path id="DejaVuSans-6d" d="M 3328 2828 
Q 3544 3216 3844 3400 
Q 4144 3584 4550 3584 
Q 5097 3584 5394 3201 
Q 5691 2819 5691 2113 
L 5691 0 
L 5113 0 
L 5113 2094 
Q 5113 2597 4934 2840 
Q 4756 3084 4391 3084 
Q 3944 3084 3684 2787 
Q 3425 2491 3425 1978 
L 3425 0 
L 2847 0 
L 2847 2094 
Q 2847 2600 2669 2842 
Q 2491 3084 2119 3084 
Q 1678 3084 1418 2786 
Q 1159 2488 1159 1978 
L 1159 0 
L 581 0 
L 581 3500 
L 1159 3500 
L 1159 2956 
Q 1356 3278 1631 3431 
Q 1906 3584 2284 3584 
Q 2666 3584 2933 3390 
Q 3200 3197 3328 2828 
z
" transform="scale(0.015625)"/>
      <path id="DejaVuSans-70" d="M 1159 525 
L 1159 -1331 
L 581 -1331 
L 581 3500 
L 1159 3500 
L 1159 2969 
Q 1341 3281 1617 3432 
Q 1894 3584 2278 3584 
Q 2916 3584 3314 3078 
Q 3713 2572 3713 1747 
Q 3713 922 3314 415 
Q 2916 -91 2278 -91 
Q 1894 -91 1617 61 
Q 1341 213 1159 525 
z
M 3116 1747 
Q 3116 2381 2855 2742 
Q 2594 3103 2138 3103 
Q 1681 3103 1420 2742 
Q 1159 2381 1159 1747 
Q 1159 1113 1420 752 
Q 1681 391 2138 391 
Q 2594 391 2855 752 
Q 3116 1113 3116 1747 
z
" transform="scale(0.015625)"/>
      <path id="DejaVuSans-6c" d="M 603 4863 
L 1178 4863 
L 1178 0 
L 603 0 
L 603 4863 
z
" transform="scale(0.015625)"/>
      <path id="DejaVuSans-73" d="M 2834 3397 
L 2834 2853 
Q 2591 2978 2328 3040 
Q 2066 3103 1784 3103 
Q 1356 3103 1142 2972 
Q 928 2841 928 2578 
Q 928 2378 1081 2264 
Q 1234 2150 1697 2047 
L 1894 2003 
Q 2506 1872 2764 1633 
Q 3022 1394 3022 966 
Q 3022 478 2636 193 
Q 2250 -91 1575 -91 
Q 1294 -91 989 -36 
Q 684 19 347 128 
L 347 722 
Q 666 556 975 473 
Q 1284 391 1588 391 
Q 1994 391 2212 530 
Q 2431 669 2431 922 
Q 2431 1156 2273 1281 
Q 2116 1406 1581 1522 
L 1381 1569 
Q 847 1681 609 1914 
Q 372 2147 372 2553 
Q 372 3047 722 3315 
Q 1072 3584 1716 3584 
Q 2034 3584 2315 3537 
Q 2597 3491 2834 3397 
z
" transform="scale(0.015625)"/>
      <path id="DejaVuSans-2f" d="M 1625 4666 
L 2156 4666 
L 531 -594 
L 0 -594 
L 1625 4666 
z
" transform="scale(0.015625)"/>
      <path id="DejaVuSans-68" d="M 3513 2113 
L 3513 0 
L 2938 0 
L 2938 2094 
Q 2938 2591 2744 2837 
Q 2550 3084 2163 3084 
Q 1697 3084 1428 2787 
Q 1159 2491 1159 1978 
L 1159 0 
L 581 0 
L 581 4863 
L 1159 4863 
L 1159 2956 
Q 1366 3272 1645 3428 
Q 1925 3584 2291 3584 
Q 2894 3584 3203 3211 
Q 3513 2838 3513 2113 
z
" transform="scale(0.015625)"/>
      <path id="DejaVuSans-2e" d="M 684 794 
L 1344 794 
L 1344 0 
L 684 0 
L 684 794 
z
" transform="scale(0.015625)"/>
      <path id="DejaVuSans-79" d="M 2059 -325 
Q 1816 -950 1584 -1140 
Q 1353 -1331 966 -1331 
L 506 -1331 
L 506 -850 
L 844 -850 
Q 1081 -850 1212 -737 
Q 1344 -625 1503 -206 
L 1606 56 
L 191 3500 
L 800 3500 
L 1894 763 
L 2988 3500 
L 3597 3500 
L 2059 -325 
z
" transform="scale(0.015625)"/>
     </defs>
     <use xlink:href="#DejaVuSans-65"/>
     <use xlink:href="#DejaVuSans-78" transform="translate(59.773438 0)"/>
     <use xlink:href="#DejaVuSans-61" transform="translate(118.953125 0)"/>
     <use xlink:href="#DejaVuSans-6d" transform="translate(180.232422 0)"/>
     <use xlink:href="#DejaVuSans-70" transform="translate(277.644531 0)"/>
     <use xlink:href="#DejaVuSans-6c" transform="translate(341.121094 0)"/>
     <use xlink:href="#DejaVuSans-65" transform="translate(368.904297 0)"/>
     <use xlink:href="#DejaVuSans-73" transform="translate(430.427734 0)"/>
     <use xlink:href="#DejaVuSans-2f" transform="translate(482.527344 0)"/>
     <use xlink:href="#DejaVuSans-73" transform="translate(516.21875 0)"/>
     <use xlink:href="#DejaVuSans-68" transform="translate(568.318359 0)"/>
     <use xlink:href="#DejaVuSans-65" transform="translate(631.697266 0)"/>
     <use xlink:href="#DejaVuSans-6c" transform="translate(693.220703 0)"/>
     <use xlink:href="#DejaVuSans-6c" transform="translate(721.003906 0)"/>
     <use xlink:href="#DejaVuSans-2e" transform="translate(748.787109 0)"/>
     <use xlink:href="#DejaVuSans-79" transform="translate(780.574219 0)"/>
     <use xlink:href="#DejaVuSans-61" transform="translate(839.753906 0)"/>
     <use xlink:href="#DejaVuSans-6d" transform="translate(901.033203 0)"/>
     <use xlink:href="#DejaVuSans-6c" transform="translate(998.445312 0)"/>
    </g>
   </g>
   <g id="text_2">
    <!-- (cat &gt;&gt; cat) -->
    <g transform="translate(66.816 54.478125) scale(0.12 -0.12)">
     <defs>
      <path id="DejaVuSans-28" d="M 1984 4856 
Q 1566 4138 1362 3434 
Q 1159 2731 1159 2009 
Q 1159 1288 1364 580 
Q 1569 -128 1984 -844 
L 1484 -844 
Q 1016 -109 783 600 
Q 550 1309 550 2009 
Q 550 2706 781 3412 
Q 1013 4119 1484 4856 
L 1984 4856 
z
" transform="scale(0.015625)"/>
      <path id="DejaVuSans-63" d="M 3122 3366 
L 3122 2828 
Q 2878 2963 2633 3030 
Q 2388 3097 2138 3097 
Q 1578 3097 1268 2742 
Q 959 2388 959 1747 
Q 959 1106 1268 751 
Q 1578 397 2138 397 
Q 2388 397 2633 464 
Q 2878 531 3122 666 
L 3122 134 
Q 2881 22 2623 -34 
Q 2366 -91 2075 -91 
Q 1284 -91 818 406 
Q 353 903 353 1747 
Q 353 2603 823 3093 
Q 1294 3584 2113 3584 
Q 2378 3584 2631 3529 
Q 2884 3475 3122 3366 
z
" transform="scale(0.015625)"/>
      <path id="DejaVuSans-74" d="M 1172 4494 
L 1172 3500 
L 2356 3500 
L 2356 3053 
L 1172 3053 
L 1172 1153 
Q 1172 725 1289 603 
Q 1406 481 1766 481 
L 2356 481 
L 2356 0 
L 1766 0 
Q 1100 0 847 248 
Q 594 497 594 1153 
L 594 3053 
L 172 3053 
L 172 3500 
L 594 3500 
L 594 4494 
L 1172 4494 
z
" transform="scale(0.015625)"/>
      <path id="DejaVuSans-20" transform="scale(0.015625)"/>
      <path id="DejaVuSans-3e" d="M 678 3150 
L 678 3719 
L 4684 2266 
L 4684 1747 
L 678 294 
L 678 863 
L 3897 2003 
L 678 3150 
z
" transform="scale(0.015625)"/>
      <path id="DejaVuSans-29" d="M 513 4856 
L 1013 4856 
Q 1481 4119 1714 3412 
Q 1947 2706 1947 2009 
Q 1947 1309 1714 600 
Q 1481 -109 1013 -844 
L 513 -844 
Q 928 -128 1133 580 
Q 1338 1288 1338 2009 
Q 1338 2731 1133 3434 
Q 928 4138 513 4856 
z
" transform="scale(0.015625)"/>
     </defs>
     <use xlink:href="#DejaVuSans-28"/>
     <use xlink:href="#DejaVuSans-63" transform="translate(39.013672 0)"/>
     <use xlink:href="#DejaVuSans-61" transform="translate(93.994141 0)"/>
     <use xlink:href="#DejaVuSans-74" transform="translate(155.273438 0)"/>
     <use xlink:href="#DejaVuSans-20" transform="translate(194.482422 0)"/>
     <use xlink:href="#DejaVuSans-3e" transform="translate(226.269531 0)"/>
     <use xlink:href="#DejaVuSans-3e" transform="translate(310.058594 0)"/>
     <use xlink:href="#DejaVuSans-20" transform="translate(393.847656 0)"/>
     <use xlink:href="#DejaVuSans-63" transform="translate(425.634766 0)"/>
     <use xlink:href="#DejaVuSans-61" transform="translate(480.615234 0)"/>
     <use xlink:href="#DejaVuSans-74" transform="translate(541.894531 0)"/>
     <use xlink:href="#DejaVuSans-29" transform="translate(581.103516 0)"/>
    </g>
   </g>
   <g id="text_3">
    <!-- -c -->
    <g transform="translate(178.176 16.678125) scale(0.12 -0.12)">
     <defs>
      <path id="DejaVuSans-2d" d="M 313 2009 
L 1997 2009 
L 1997 1497 
L 313 1497 
L 313 2009 
z
" transform="scale(0.015625)"/>
     </defs>
     <use xlink:href="#DejaVuSans-2d"/>
     <use xlink:href="#DejaVuSans-63" transform="translate(36.083984 0)"/>
    </g>
   </g>
   <g id="text_4">
    <!-- grep -->
    <g transform="translate(400.896 16.678125) scale(0.12 -0.12)">
     <defs>
      <path id="DejaVuSans-67" d="M 2906 1791 
Q 2906 2416 2648 2759 
Q 2391 3103 1925 3103 
Q 1463 3103 1205 2759 
Q 947 2416 947 1791 
Q 947 1169 1205 825 
Q 1463 481 1925 481 
Q 2391 481 2648 825 
Q 2906 1169 2906 1791 
z
M 3481 434 
Q 3481 -459 3084 -895 
Q 2688 -1331 1869 -1331 
Q 1566 -1331 1297 -1286 
Q 1028 -1241 775 -1147 
L 775 -588 
Q 1028 -725 1275 -790 
Q 1522 -856 1778 -856 
Q 2344 -856 2625 -561 
Q 2906 -266 2906 331 
L 2906 616 
Q 2728 306 2450 153 
Q 2172 0 1784 0 
Q 1141 0 747 490 
Q 353 981 353 1791 
Q 353 2603 747 3093 
Q 1141 3584 1784 3584 
Q 2172 3584 2450 3431 
Q 2728 3278 2906 2969 
L 2906 3500 
L 3481 3500 
L 3481 434 
z
" transform="scale(0.015625)"/>
      <path id="DejaVuSans-72" d="M 2631 2963 
Q 2534 3019 2420 3045 
Q 2306 3072 2169 3072 
Q 1681 3072 1420 2755 
Q 1159 2438 1159 1844 
L 1159 0 
L 581 0 
L 581 3500 
L 1159 3500 
L 1159 2956 
Q 1341 3275 1631 3429 
Q 1922 3584 2338 3584 
Q 2397 3584 2469 3576 
Q 2541 3569 2628 3553 
L 2631 2963 
z
" transform="scale(0.015625)"/>
     </defs>
     <use xlink:href="#DejaVuSans-67"/>
     <use xlink:href="#DejaVuSans-72" transform="translate(63.476562 0)"/>
     <use xlink:href="#DejaVuSans-65" transform="translate(102.339844 0)"/>
     <use xlink:href="#DejaVuSans-70" transform="translate(163.863281 0)"/>
    </g>
   </g>
   <g id="text_5">
    <!-- -c -->
    <g transform="translate(512.256 16.678125) scale(0.12 -0.12)">
     <use xlink:href="#DejaVuSans-2d"/>
     <use xlink:href="#DejaVuSans-63" transform="translate(36.083984 0)"/>
    </g>
   </g>
   <g id="text_6">
    <!-- -2 -->
    <g transform="translate(679.296 16.678125) scale(0.12 -0.12)">
     <defs>
      <path id="DejaVuSans-32" d="M 1228 531 
L 3431 531 
L 3431 0 
L 469 0 
L 469 531 
Q 828 903 1448 1529 
Q 2069 2156 2228 2338 
Q 2531 2678 2651 2914 
Q 2772 3150 2772 3378 
Q 2772 3750 2511 3984 
Q 2250 4219 1831 4219 
Q 1534 4219 1204 4116 
Q 875 4013 500 3803 
L 500 4441 
Q 881 4594 1212 4672 
Q 1544 4750 1819 4750 
Q 2544 4750 2975 4387 
Q 3406 4025 3406 3419 
Q 3406 3131 3298 2873 
Q 3191 2616 2906 2266 
Q 2828 2175 2409 1742 
Q 1991 1309 1228 531 
z
" transform="scale(0.015625)"/>
     </defs>
     <use xlink:href="#DejaVuSans-2d"/>
     <use xlink:href="#DejaVuSans-32" transform="translate(36.083984 0)"/>
    </g>
   </g>
   <g id="text_7">
    <!-- (wc &gt;&gt; wc) -->
    <g transform="translate(178.176 104.878125) scale(0.12 -0.12)">
     <defs>
      <path id="DejaVuSans-77" d="M 269 3500 
L 844 3500 
L 1563 769 
L 2278 3500 
L 2956 3500 
L 3675 769 
L 4391 3500 
L 4966 3500 
L 4050 0 
L 3372 0 
L 2619 2869 
L 1863 0 
L 1184 0 
L 269 3500 
z
" transform="scale(0.015625)"/>
     </defs>
     <use xlink:href="#DejaVuSans-28"/>
     <use xlink:href="#DejaVuSans-77" transform="translate(39.013672 0)"/>
     <use xlink:href="#DejaVuSans-63" transform="translate(120.800781 0)"/>
     <use xlink:href="#DejaVuSans-20" transform="translate(175.78125 0)"/>
     <use xlink:href="#DejaVuSans-3e" transform="translate(207.568359 0)"/>
     <use xlink:href="#DejaVuSans-3e" transform="translate(291.357422 0)"/>
     <use xlink:href="#DejaVuSans-20" transform="translate(375.146484 0)"/>
     <use xlink:href="#DejaVuSans-77" transform="translate(406.933594 0)"/>
     <use xlink:href="#DejaVuSans-63" transform="translate(488.720703 0)"/>
     <use xlink:href="#DejaVuSans-29" transform="translate(543.701172 0)"/>
    </g>
   </g>
   <g id="text_8">
    <!-- (Ty() &gt;&gt; Ty()) -->
    <g transform="translate(289.536 155.278125) scale(0.12 -0.12)">
     <defs>
      <path id="DejaVuSans-54" d="M -19 4666 
L 3928 4666 
L 3928 4134 
L 2272 4134 
L 2272 0 
L 1638 0 
L 1638 4134 
L -19 4134 
L -19 4666 
z
" transform="scale(0.015625)"/>
     </defs>
     <use xlink:href="#DejaVuSans-28"/>
     <use xlink:href="#DejaVuSans-54" transform="translate(39.013672 0)"/>
     <use xlink:href="#DejaVuSans-79" transform="translate(84.472656 0)"/>
     <use xlink:href="#DejaVuSans-28" transform="translate(143.652344 0)"/>
     <use xlink:href="#DejaVuSans-29" transform="translate(182.666016 0)"/>
     <use xlink:href="#DejaVuSans-20" transform="translate(221.679688 0)"/>
     <use xlink:href="#DejaVuSans-3e" transform="translate(253.466797 0)"/>
     <use xlink:href="#DejaVuSans-3e" transform="translate(337.255859 0)"/>
     <use xlink:href="#DejaVuSans-20" transform="translate(421.044922 0)"/>
     <use xlink:href="#DejaVuSans-54" transform="translate(452.832031 0)"/>
     <use xlink:href="#DejaVuSans-79" transform="translate(498.291016 0)"/>
     <use xlink:href="#DejaVuSans-28" transform="translate(557.470703 0)"/>
     <use xlink:href="#DejaVuSans-29" transform="translate(596.484375 0)"/>
     <use xlink:href="#DejaVuSans-29" transform="translate(635.498047 0)"/>
    </g>
   </g>
   <g id="text_9">
    <!-- (wc &gt;&gt; Ty()) -->
    <g transform="translate(233.856 205.678125) scale(0.12 -0.12)">
     <use xlink:href="#DejaVuSans-28"/>
     <use xlink:href="#DejaVuSans-77" transform="translate(39.013672 0)"/>
     <use xlink:href="#DejaVuSans-63" transform="translate(120.800781 0)"/>
     <use xlink:href="#DejaVuSans-20" transform="translate(175.78125 0)"/>
     <use xlink:href="#DejaVuSans-3e" transform="translate(207.568359 0)"/>
     <use xlink:href="#DejaVuSans-3e" transform="translate(291.357422 0)"/>
     <use xlink:href="#DejaVuSans-20" transform="translate(375.146484 0)"/>
     <use xlink:href="#DejaVuSans-54" transform="translate(406.933594 0)"/>
     <use xlink:href="#DejaVuSans-79" transform="translate(452.392578 0)"/>
     <use xlink:href="#DejaVuSans-28" transform="translate(511.572266 0)"/>
     <use xlink:href="#DejaVuSans-29" transform="translate(550.585938 0)"/>
     <use xlink:href="#DejaVuSans-29" transform="translate(589.599609 0)"/>
    </g>
   </g>
   <g id="text_10">
    <!-- (grep &gt;&gt; grep) -->
    <g transform="translate(400.896 256.078125) scale(0.12 -0.12)">
     <use xlink:href="#DejaVuSans-28"/>
     <use xlink:href="#DejaVuSans-67" transform="translate(39.013672 0)"/>
     <use xlink:href="#DejaVuSans-72" transform="translate(102.490234 0)"/>
     <use xlink:href="#DejaVuSans-65" transform="translate(141.353516 0)"/>
     <use xlink:href="#DejaVuSans-70" transform="translate(202.876953 0)"/>
     <use xlink:href="#DejaVuSans-20" transform="translate(266.353516 0)"/>
     <use xlink:href="#DejaVuSans-3e" transform="translate(298.140625 0)"/>
     <use xlink:href="#DejaVuSans-3e" transform="translate(381.929688 0)"/>
     <use xlink:href="#DejaVuSans-20" transform="translate(465.71875 0)"/>
     <use xlink:href="#DejaVuSans-67" transform="translate(497.505859 0)"/>
     <use xlink:href="#DejaVuSans-72" transform="translate(560.982422 0)"/>
     <use xlink:href="#DejaVuSans-65" transform="translate(599.845703 0)"/>
     <use xlink:href="#DejaVuSans-70" transform="translate(661.369141 0)"/>
     <use xlink:href="#DejaVuSans-29" transform="translate(724.845703 0)"/>
    </g>
   </g>
   <g id="text_11">
    <!-- (wc &gt;&gt; wc) -->
    <g transform="translate(512.256 306.478125) scale(0.12 -0.12)">
     <use xlink:href="#DejaVuSans-28"/>
     <use xlink:href="#DejaVuSans-77" transform="translate(39.013672 0)"/>
     <use xlink:href="#DejaVuSans-63" transform="translate(120.800781 0)"/>
     <use xlink:href="#DejaVuSans-20" transform="translate(175.78125 0)"/>
     <use xlink:href="#DejaVuSans-3e" transform="translate(207.568359 0)"/>
     <use xlink:href="#DejaVuSans-3e" transform="translate(291.357422 0)"/>
     <use xlink:href="#DejaVuSans-20" transform="translate(375.146484 0)"/>
     <use xlink:href="#DejaVuSans-77" transform="translate(406.933594 0)"/>
     <use xlink:href="#DejaVuSans-63" transform="translate(488.720703 0)"/>
     <use xlink:href="#DejaVuSans-29" transform="translate(543.701172 0)"/>
    </g>
   </g>
   <g id="text_12">
    <!-- (grep &gt;&gt; wc) -->
    <g transform="translate(456.576 356.878125) scale(0.12 -0.12)">
     <use xlink:href="#DejaVuSans-28"/>
     <use xlink:href="#DejaVuSans-67" transform="translate(39.013672 0)"/>
     <use xlink:href="#DejaVuSans-72" transform="translate(102.490234 0)"/>
     <use xlink:href="#DejaVuSans-65" transform="translate(141.353516 0)"/>
     <use xlink:href="#DejaVuSans-70" transform="translate(202.876953 0)"/>
     <use xlink:href="#DejaVuSans-20" transform="translate(266.353516 0)"/>
     <use xlink:href="#DejaVuSans-3e" transform="translate(298.140625 0)"/>
     <use xlink:href="#DejaVuSans-3e" transform="translate(381.929688 0)"/>
     <use xlink:href="#DejaVuSans-20" transform="translate(465.71875 0)"/>
     <use xlink:href="#DejaVuSans-77" transform="translate(497.505859 0)"/>
     <use xlink:href="#DejaVuSans-63" transform="translate(579.292969 0)"/>
     <use xlink:href="#DejaVuSans-29" transform="translate(634.273438 0)"/>
    </g>
   </g>
   <g id="text_13">
    <!-- (grep &gt;&gt; wc) -->
    <g transform="translate(456.576 407.278125) scale(0.12 -0.12)">
     <use xlink:href="#DejaVuSans-28"/>
     <use xlink:href="#DejaVuSans-67" transform="translate(39.013672 0)"/>
     <use xlink:href="#DejaVuSans-72" transform="translate(102.490234 0)"/>
     <use xlink:href="#DejaVuSans-65" transform="translate(141.353516 0)"/>
     <use xlink:href="#DejaVuSans-70" transform="translate(202.876953 0)"/>
     <use xlink:href="#DejaVuSans-20" transform="translate(266.353516 0)"/>
     <use xlink:href="#DejaVuSans-3e" transform="translate(298.140625 0)"/>
     <use xlink:href="#DejaVuSans-3e" transform="translate(381.929688 0)"/>
     <use xlink:href="#DejaVuSans-20" transform="translate(465.71875 0)"/>
     <use xlink:href="#DejaVuSans-77" transform="translate(497.505859 0)"/>
     <use xlink:href="#DejaVuSans-63" transform="translate(579.292969 0)"/>
     <use xlink:href="#DejaVuSans-29" transform="translate(634.273438 0)"/>
    </g>
   </g>
   <g id="text_14">
    <!-- (Ty() &gt;&gt; Ty()) -->
    <g transform="translate(567.936 457.678125) scale(0.12 -0.12)">
     <use xlink:href="#DejaVuSans-28"/>
     <use xlink:href="#DejaVuSans-54" transform="translate(39.013672 0)"/>
     <use xlink:href="#DejaVuSans-79" transform="translate(84.472656 0)"/>
     <use xlink:href="#DejaVuSans-28" transform="translate(143.652344 0)"/>
     <use xlink:href="#DejaVuSans-29" transform="translate(182.666016 0)"/>
     <use xlink:href="#DejaVuSans-20" transform="translate(221.679688 0)"/>
     <use xlink:href="#DejaVuSans-3e" transform="translate(253.466797 0)"/>
     <use xlink:href="#DejaVuSans-3e" transform="translate(337.255859 0)"/>
     <use xlink:href="#DejaVuSans-20" transform="translate(421.044922 0)"/>
     <use xlink:href="#DejaVuSans-54" transform="translate(452.832031 0)"/>
     <use xlink:href="#DejaVuSans-79" transform="translate(498.291016 0)"/>
     <use xlink:href="#DejaVuSans-28" transform="translate(557.470703 0)"/>
     <use xlink:href="#DejaVuSans-29" transform="translate(596.484375 0)"/>
     <use xlink:href="#DejaVuSans-29" transform="translate(635.498047 0)"/>
    </g>
   </g>
   <g id="text_15">
    <!-- (grep &gt;&gt; Ty()) -->
    <g transform="translate(512.256 508.078125) scale(0.12 -0.12)">
     <use xlink:href="#DejaVuSans-28"/>
     <use xlink:href="#DejaVuSans-67" transform="translate(39.013672 0)"/>
     <use xlink:href="#DejaVuSans-72" transform="translate(102.490234 0)"/>
     <use xlink:href="#DejaVuSans-65" transform="translate(141.353516 0)"/>
     <use xlink:href="#DejaVuSans-70" transform="translate(202.876953 0)"/>
     <use xlink:href="#DejaVuSans-20" transform="translate(266.353516 0)"/>
     <use xlink:href="#DejaVuSans-3e" transform="translate(298.140625 0)"/>
     <use xlink:href="#DejaVuSans-3e" transform="translate(381.929688 0)"/>
     <use xlink:href="#DejaVuSans-20" transform="translate(465.71875 0)"/>
     <use xlink:href="#DejaVuSans-54" transform="translate(497.505859 0)"/>
     <use xlink:href="#DejaVuSans-79" transform="translate(542.964844 0)"/>
     <use xlink:href="#DejaVuSans-28" transform="translate(602.144531 0)"/>
     <use xlink:href="#DejaVuSans-29" transform="translate(641.158203 0)"/>
     <use xlink:href="#DejaVuSans-29" transform="translate(680.171875 0)"/>
    </g>
   </g>
   <g id="text_16">
    <!-- (tail &gt;&gt; tail) -->
    <g transform="translate(679.296 558.478125) scale(0.12 -0.12)">
     <defs>
      <path id="DejaVuSans-69" d="M 603 3500 
L 1178 3500 
L 1178 0 
L 603 0 
L 603 3500 
z
M 603 4863 
L 1178 4863 
L 1178 4134 
L 603 4134 
L 603 4863 
z
" transform="scale(0.015625)"/>
     </defs>
     <use xlink:href="#DejaVuSans-28"/>
     <use xlink:href="#DejaVuSans-74" transform="translate(39.013672 0)"/>
     <use xlink:href="#DejaVuSans-61" transform="translate(78.222656 0)"/>
     <use xlink:href="#DejaVuSans-69" transform="translate(139.501953 0)"/>
     <use xlink:href="#DejaVuSans-6c" transform="translate(167.285156 0)"/>
     <use xlink:href="#DejaVuSans-20" transform="translate(195.068359 0)"/>
     <use xlink:href="#DejaVuSans-3e" transform="translate(226.855469 0)"/>
     <use xlink:href="#DejaVuSans-3e" transform="translate(310.644531 0)"/>
     <use xlink:href="#DejaVuSans-20" transform="translate(394.433594 0)"/>
     <use xlink:href="#DejaVuSans-74" transform="translate(426.220703 0)"/>
     <use xlink:href="#DejaVuSans-61" transform="translate(465.429688 0)"/>
     <use xlink:href="#DejaVuSans-69" transform="translate(526.708984 0)"/>
     <use xlink:href="#DejaVuSans-6c" transform="translate(554.492188 0)"/>
     <use xlink:href="#DejaVuSans-29" transform="translate(582.275391 0)"/>
    </g>
   </g>
   <g id="text_17">
    <!-- (Ty() &gt;&gt; Ty()) -->
    <g transform="translate(790.656 608.878125) scale(0.12 -0.12)">
     <use xlink:href="#DejaVuSans-28"/>
     <use xlink:href="#DejaVuSans-54" transform="translate(39.013672 0)"/>
     <use xlink:href="#DejaVuSans-79" transform="translate(84.472656 0)"/>
     <use xlink:href="#DejaVuSans-28" transform="translate(143.652344 0)"/>
     <use xlink:href="#DejaVuSans-29" transform="translate(182.666016 0)"/>
     <use xlink:href="#DejaVuSans-20" transform="translate(221.679688 0)"/>
     <use xlink:href="#DejaVuSans-3e" transform="translate(253.466797 0)"/>
     <use xlink:href="#DejaVuSans-3e" transform="translate(337.255859 0)"/>
     <use xlink:href="#DejaVuSans-20" transform="translate(421.044922 0)"/>
     <use xlink:href="#DejaVuSans-54" transform="translate(452.832031 0)"/>
     <use xlink:href="#DejaVuSans-79" transform="translate(498.291016 0)"/>
     <use xlink:href="#DejaVuSans-28" transform="translate(557.470703 0)"/>
     <use xlink:href="#DejaVuSans-29" transform="translate(596.484375 0)"/>
     <use xlink:href="#DejaVuSans-29" transform="translate(635.498047 0)"/>
    </g>
   </g>
   <g id="text_18">
    <!-- (tail &gt;&gt; Ty()) -->
    <g transform="translate(734.976 659.278125) scale(0.12 -0.12)">
     <use xlink:href="#DejaVuSans-28"/>
     <use xlink:href="#DejaVuSans-74" transform="translate(39.013672 0)"/>
     <use xlink:href="#DejaVuSans-61" transform="translate(78.222656 0)"/>
     <use xlink:href="#DejaVuSans-69" transform="translate(139.501953 0)"/>
     <use xlink:href="#DejaVuSans-6c" transform="translate(167.285156 0)"/>
     <use xlink:href="#DejaVuSans-20" transform="translate(195.068359 0)"/>
     <use xlink:href="#DejaVuSans-3e" transform="translate(226.855469 0)"/>
     <use xlink:href="#DejaVuSans-3e" transform="translate(310.644531 0)"/>
     <use xlink:href="#DejaVuSans-20" transform="translate(394.433594 0)"/>
     <use xlink:href="#DejaVuSans-54" transform="translate(426.220703 0)"/>
     <use xlink:href="#DejaVuSans-79" transform="translate(471.679688 0)"/>
     <use xlink:href="#DejaVuSans-28" transform="translate(530.859375 0)"/>
     <use xlink:href="#DejaVuSans-29" transform="translate(569.873047 0)"/>
     <use xlink:href="#DejaVuSans-29" transform="translate(608.886719 0)"/>
    </g>
   </g>
   <g id="text_19">
    <!-- (wc @ grep @ tail &gt;&gt;  @  @ ) -->
    <g transform="translate(484.416 709.678125) scale(0.12 -0.12)">
     <defs>
      <path id="DejaVuSans-40" d="M 2381 1678 
Q 2381 1231 2603 976 
Q 2825 722 3213 722 
Q 3597 722 3817 978 
Q 4038 1234 4038 1678 
Q 4038 2116 3813 2373 
Q 3588 2631 3206 2631 
Q 2828 2631 2604 2375 
Q 2381 2119 2381 1678 
z
M 4084 744 
Q 3897 503 3655 389 
Q 3413 275 3091 275 
Q 2553 275 2217 664 
Q 1881 1053 1881 1678 
Q 1881 2303 2218 2693 
Q 2556 3084 3091 3084 
Q 3413 3084 3656 2967 
Q 3900 2850 4084 2613 
L 4084 3022 
L 4531 3022 
L 4531 722 
Q 4988 791 5245 1139 
Q 5503 1488 5503 2041 
Q 5503 2375 5404 2669 
Q 5306 2963 5106 3213 
Q 4781 3622 4314 3839 
Q 3847 4056 3297 4056 
Q 2913 4056 2559 3954 
Q 2206 3853 1906 3653 
Q 1416 3334 1139 2817 
Q 863 2300 863 1697 
Q 863 1200 1042 765 
Q 1222 331 1563 0 
Q 1891 -325 2322 -495 
Q 2753 -666 3244 -666 
Q 3647 -666 4036 -530 
Q 4425 -394 4750 -141 
L 5031 -488 
Q 4641 -791 4180 -952 
Q 3719 -1113 3244 -1113 
Q 2666 -1113 2153 -908 
Q 1641 -703 1241 -313 
Q 841 78 631 592 
Q 422 1106 422 1697 
Q 422 2266 634 2781 
Q 847 3297 1241 3688 
Q 1644 4084 2172 4295 
Q 2700 4506 3291 4506 
Q 3953 4506 4520 4234 
Q 5088 3963 5472 3463 
Q 5706 3156 5829 2797 
Q 5953 2438 5953 2053 
Q 5953 1231 5456 756 
Q 4959 281 4084 263 
L 4084 744 
z
" transform="scale(0.015625)"/>
     </defs>
     <use xlink:href="#DejaVuSans-28"/>
     <use xlink:href="#DejaVuSans-77" transform="translate(39.013672 0)"/>
     <use xlink:href="#DejaVuSans-63" transform="translate(120.800781 0)"/>
     <use xlink:href="#DejaVuSans-20" transform="translate(175.78125 0)"/>
     <use xlink:href="#DejaVuSans-40" transform="translate(207.568359 0)"/>
     <use xlink:href="#DejaVuSans-20" transform="translate(307.568359 0)"/>
     <use xlink:href="#DejaVuSans-67" transform="translate(339.355469 0)"/>
     <use xlink:href="#DejaVuSans-72" transform="translate(402.832031 0)"/>
     <use xlink:href="#DejaVuSans-65" transform="translate(441.695312 0)"/>
     <use xlink:href="#DejaVuSans-70" transform="translate(503.21875 0)"/>
     <use xlink:href="#DejaVuSans-20" transform="translate(566.695312 0)"/>
     <use xlink:href="#DejaVuSans-40" transform="translate(598.482422 0)"/>
     <use xlink:href="#DejaVuSans-20" transform="translate(698.482422 0)"/>
     <use xlink:href="#DejaVuSans-74" transform="translate(730.269531 0)"/>
     <use xlink:href="#DejaVuSans-61" transform="translate(769.478516 0)"/>
     <use xlink:href="#DejaVuSans-69" transform="translate(830.757812 0)"/>
     <use xlink:href="#DejaVuSans-6c" transform="translate(858.541016 0)"/>
     <use xlink:href="#DejaVuSans-20" transform="translate(886.324219 0)"/>
     <use xlink:href="#DejaVuSans-3e" transform="translate(918.111328 0)"/>
     <use xlink:href="#DejaVuSans-3e" transform="translate(1001.900391 0)"/>
     <use xlink:href="#DejaVuSans-20" transform="translate(1085.689453 0)"/>
     <use xlink:href="#DejaVuSans-20" transform="translate(1117.476562 0)"/>
     <use xlink:href="#DejaVuSans-40" transform="translate(1149.263672 0)"/>
     <use xlink:href="#DejaVuSans-20" transform="translate(1249.263672 0)"/>
     <use xlink:href="#DejaVuSans-20" transform="translate(1281.050781 0)"/>
     <use xlink:href="#DejaVuSans-40" transform="translate(1312.837891 0)"/>
     <use xlink:href="#DejaVuSans-20" transform="translate(1412.837891 0)"/>
     <use xlink:href="#DejaVuSans-29" transform="translate(1444.625 0)"/>
    </g>
   </g>
   <g id="text_20">
    <!-- (cat &gt;&gt;  @  @ ) -->
    <g transform="translate(275.616 760.078125) scale(0.12 -0.12)">
     <use xlink:href="#DejaVuSans-28"/>
     <use xlink:href="#DejaVuSans-63" transform="translate(39.013672 0)"/>
     <use xlink:href="#DejaVuSans-61" transform="translate(93.994141 0)"/>
     <use xlink:href="#DejaVuSans-74" transform="translate(155.273438 0)"/>
     <use xlink:href="#DejaVuSans-20" transform="translate(194.482422 0)"/>
     <use xlink:href="#DejaVuSans-3e" transform="translate(226.269531 0)"/>
     <use xlink:href="#DejaVuSans-3e" transform="translate(310.058594 0)"/>
     <use xlink:href="#DejaVuSans-20" transform="translate(393.847656 0)"/>
     <use xlink:href="#DejaVuSans-20" transform="translate(425.634766 0)"/>
     <use xlink:href="#DejaVuSans-40" transform="translate(457.421875 0)"/>
     <use xlink:href="#DejaVuSans-20" transform="translate(557.421875 0)"/>
     <use xlink:href="#DejaVuSans-20" transform="translate(589.208984 0)"/>
     <use xlink:href="#DejaVuSans-40" transform="translate(620.996094 0)"/>
     <use xlink:href="#DejaVuSans-20" transform="translate(720.996094 0)"/>
     <use xlink:href="#DejaVuSans-29" transform="translate(752.783203 0)"/>
    </g>
   </g>
   <g id="text_21">
    <!-- (cat &gt;&gt;  @  @ ) -->
    <g transform="translate(275.616 810.478125) scale(0.12 -0.12)">
     <use xlink:href="#DejaVuSans-28"/>
     <use xlink:href="#DejaVuSans-63" transform="translate(39.013672 0)"/>
     <use xlink:href="#DejaVuSans-61" transform="translate(93.994141 0)"/>
     <use xlink:href="#DejaVuSans-74" transform="translate(155.273438 0)"/>
     <use xlink:href="#DejaVuSans-20" transform="translate(194.482422 0)"/>
     <use xlink:href="#DejaVuSans-3e" transform="translate(226.269531 0)"/>
     <use xlink:href="#DejaVuSans-3e" transform="translate(310.058594 0)"/>
     <use xlink:href="#DejaVuSans-20" transform="translate(393.847656 0)"/>
     <use xlink:href="#DejaVuSans-20" transform="translate(425.634766 0)"/>
     <use xlink:href="#DejaVuSans-40" transform="translate(457.421875 0)"/>
     <use xlink:href="#DejaVuSans-20" transform="translate(557.421875 0)"/>
     <use xlink:href="#DejaVuSans-20" transform="translate(589.208984 0)"/>
     <use xlink:href="#DejaVuSans-40" transform="translate(620.996094 0)"/>
     <use xlink:href="#DejaVuSans-20" transform="translate(720.996094 0)"/>
     <use xlink:href="#DejaVuSans-29" transform="translate(752.783203 0)"/>
    </g>
   </g>
   <g id="text_22">
    <!-- cat -->
    <g transform="translate(37.02375 31.8225) scale(0.24 -0.24)">
     <use xlink:href="#DejaVuSans-63"/>
     <use xlink:href="#DejaVuSans-61" transform="translate(54.980469 0)"/>
     <use xlink:href="#DejaVuSans-74" transform="translate(116.259766 0)"/>
    </g>
   </g>
   <g id="text_23">
    <!-- wc -->
    <g transform="translate(150.628125 82.2225) scale(0.24 -0.24)">
     <use xlink:href="#DejaVuSans-77"/>
     <use xlink:href="#DejaVuSans-63" transform="translate(81.787109 0)"/>
    </g>
   </g>
   <g id="text_24">
    <!-- ⌜−⌝ -->
    <g transform="translate(257.094375 132.6225) scale(0.24 -0.24)">
     <defs>
      <path id="DejaVuSans-231c" d="M 2581 4413 
L 1000 4413 
L 1000 2722 
L 550 2722 
L 550 4863 
L 2581 4863 
L 2581 4413 
z
" transform="scale(0.015625)"/>
      <path id="DejaVuSans-2212" d="M 678 2272 
L 4684 2272 
L 4684 1741 
L 678 1741 
L 678 2272 
z
" transform="scale(0.015625)"/>
      <path id="DejaVuSans-231d" d="M 419 4413 
L 419 4863 
L 2450 4863 
L 2450 2722 
L 2000 2722 
L 2000 4413 
L 419 4413 
z
" transform="scale(0.015625)"/>
     </defs>
     <use xlink:href="#DejaVuSans-231c"/>
     <use xlink:href="#DejaVuSans-2212" transform="translate(46.875 0)"/>
     <use xlink:href="#DejaVuSans-231d" transform="translate(130.664062 0)"/>
    </g>
   </g>
   <g id="text_25">
    <!-- (;) -->
    <g transform="translate(209.31375 183.0225) scale(0.24 -0.24)">
     <defs>
      <path id="DejaVuSans-3b" d="M 750 3309 
L 1409 3309 
L 1409 2516 
L 750 2516 
L 750 3309 
z
M 750 794 
L 1409 794 
L 1409 256 
L 897 -744 
L 494 -744 
L 750 256 
L 750 794 
z
" transform="scale(0.015625)"/>
     </defs>
     <use xlink:href="#DejaVuSans-28"/>
     <use xlink:href="#DejaVuSans-3b" transform="translate(39.013672 0)"/>
     <use xlink:href="#DejaVuSans-29" transform="translate(72.705078 0)"/>
    </g>
   </g>
   <g id="text_26">
    <!-- grep -->
    <g transform="translate(362.476875 233.4225) scale(0.24 -0.24)">
     <use xlink:href="#DejaVuSans-67"/>
     <use xlink:href="#DejaVuSans-72" transform="translate(63.476562 0)"/>
     <use xlink:href="#DejaVuSans-65" transform="translate(102.339844 0)"/>
     <use xlink:href="#DejaVuSans-70" transform="translate(163.863281 0)"/>
    </g>
   </g>
   <g id="text_27">
    <!-- wc -->
    <g transform="translate(484.708125 283.8225) scale(0.24 -0.24)">
     <use xlink:href="#DejaVuSans-77"/>
     <use xlink:href="#DejaVuSans-63" transform="translate(81.787109 0)"/>
    </g>
   </g>
   <g id="text_28">
    <!-- (;) -->
    <g transform="translate(432.03375 334.2225) scale(0.24 -0.24)">
     <use xlink:href="#DejaVuSans-28"/>
     <use xlink:href="#DejaVuSans-3b" transform="translate(39.013672 0)"/>
     <use xlink:href="#DejaVuSans-29" transform="translate(72.705078 0)"/>
    </g>
   </g>
   <g id="text_29">
    <!-- (||) -->
    <g transform="translate(427.99125 384.34125) scale(0.24 -0.24)">
     <defs>
      <path id="DejaVuSans-7c" d="M 1344 4891 
L 1344 -1509 
L 813 -1509 
L 813 4891 
L 1344 4891 
z
" transform="scale(0.015625)"/>
     </defs>
     <use xlink:href="#DejaVuSans-28"/>
     <use xlink:href="#DejaVuSans-7c" transform="translate(39.013672 0)"/>
     <use xlink:href="#DejaVuSans-7c" transform="translate(72.705078 0)"/>
     <use xlink:href="#DejaVuSans-29" transform="translate(106.396484 0)"/>
    </g>
   </g>
   <g id="text_30">
    <!-- ⌜−⌝ -->
    <g transform="translate(535.494375 435.0225) scale(0.24 -0.24)">
     <use xlink:href="#DejaVuSans-231c"/>
     <use xlink:href="#DejaVuSans-2212" transform="translate(46.875 0)"/>
     <use xlink:href="#DejaVuSans-231d" transform="translate(130.664062 0)"/>
    </g>
   </g>
   <g id="text_31">
    <!-- (;) -->
    <g transform="translate(487.71375 485.4225) scale(0.24 -0.24)">
     <use xlink:href="#DejaVuSans-28"/>
     <use xlink:href="#DejaVuSans-3b" transform="translate(39.013672 0)"/>
     <use xlink:href="#DejaVuSans-29" transform="translate(72.705078 0)"/>
    </g>
   </g>
   <g id="text_32">
    <!-- tail -->
    <g transform="translate(649.434375 535.8225) scale(0.24 -0.24)">
     <use xlink:href="#DejaVuSans-74"/>
     <use xlink:href="#DejaVuSans-61" transform="translate(39.208984 0)"/>
     <use xlink:href="#DejaVuSans-69" transform="translate(100.488281 0)"/>
     <use xlink:href="#DejaVuSans-6c" transform="translate(128.271484 0)"/>
    </g>
   </g>
   <g id="text_33">
    <!-- ⌜−⌝ -->
    <g transform="translate(758.214375 586.2225) scale(0.24 -0.24)">
     <use xlink:href="#DejaVuSans-231c"/>
     <use xlink:href="#DejaVuSans-2212" transform="translate(46.875 0)"/>
     <use xlink:href="#DejaVuSans-231d" transform="translate(130.664062 0)"/>
    </g>
   </g>
   <g id="text_34">
    <!-- (;) -->
    <g transform="translate(710.43375 636.6225) scale(0.24 -0.24)">
     <use xlink:href="#DejaVuSans-28"/>
     <use xlink:href="#DejaVuSans-3b" transform="translate(39.013672 0)"/>
     <use xlink:href="#DejaVuSans-29" transform="translate(72.705078 0)"/>
    </g>
   </g>
   <g id="text_35">
    <!-- (||) -->
    <g transform="translate(455.83125 686.74125) scale(0.24 -0.24)">
     <use xlink:href="#DejaVuSans-28"/>
     <use xlink:href="#DejaVuSans-7c" transform="translate(39.013672 0)"/>
     <use xlink:href="#DejaVuSans-7c" transform="translate(72.705078 0)"/>
     <use xlink:href="#DejaVuSans-29" transform="translate(106.396484 0)"/>
    </g>
   </g>
   <g id="text_36">
    <!-- (;) -->
    <g transform="translate(251.07375 737.4225) scale(0.24 -0.24)">
     <use xlink:href="#DejaVuSans-28"/>
     <use xlink:href="#DejaVuSans-3b" transform="translate(39.013672 0)"/>
     <use xlink:href="#DejaVuSans-29" transform="translate(72.705078 0)"/>
    </g>
   </g>
   <g id="text_37">
    <!-- (||) -->
    <g transform="translate(247.03125 787.54125) scale(0.24 -0.24)">
     <use xlink:href="#DejaVuSans-28"/>
     <use xlink:href="#DejaVuSans-7c" transform="translate(39.013672 0)"/>
     <use xlink:href="#DejaVuSans-7c" transform="translate(72.705078 0)"/>
     <use xlink:href="#DejaVuSans-29" transform="translate(106.396484 0)"/>
    </g>
   </g>
  </g>
 </g>
 <defs>
  <clipPath id="p35751f90d9">
   <rect x="0" y="0" width="835.2" height="806.4"/>
  </clipPath>
 </defs>
</svg>
