<?xml version="1.0" encoding="utf-8" standalone="no"?>
<!DOCTYPE svg PUBLIC "-//W3C//DTD SVG 1.1//EN"
  "http://www.w3.org/Graphics/SVG/1.1/DTD/svg11.dtd">
<svg xmlns:xlink="http://www.w3.org/1999/xlink" width="216pt" height="144pt" viewBox="0 0 216 144" xmlns="http://www.w3.org/2000/svg" version="1.1">
 <metadata>
  <rdf:RDF xmlns:dc="http://purl.org/dc/elements/1.1/" xmlns:cc="http://creativecommons.org/ns#" xmlns:rdf="http://www.w3.org/1999/02/22-rdf-syntax-ns#">
   <cc:Work>
    <dc:type rdf:resource="http://purl.org/dc/dcmitype/StillImage"/>
    <dc:date>2026-01-03T01:47:48.258624</dc:date>
    <dc:format>image/svg+xml</dc:format>
    <dc:creator>
     <cc:Agent>
      <dc:title>Matplotlib v3.10.7, https://matplotlib.org/</dc:title>
     </cc:Agent>
    </dc:creator>
   </cc:Work>
  </rdf:RDF>
 </metadata>
 <defs>
  <style type="text/css">*{stroke-linejoin: round; stroke-linecap: butt}</style>
 </defs>
 <g id="figure_1">
  <g id="patch_1">
   <path d="M 0 144 
L 216 144 
L 216 0 
L 0 0 
z
" style="fill: #ffffff"/>
  </g>
  <g id="axes_1">
   <g id="patch_2">
    <path d="M 0 144 
L 216 144 
L 216 0 
L 0 0 
z
" clip-path="url(#pf6f4dcfa41)" style="fill: #ffffff; stroke: #ffffff; stroke-linejoin: miter"/>
   </g>
   <g id="patch_3">
    <path d="M 108 12 
Q 13.5 12 13.5 24 
" clip-path="url(#pf6f4dcfa41)" style="fill: none; stroke: #000000; stroke-linejoin: miter"/>
   </g>
   <g id="patch_4">
    <path d="M 108 12 
Q 202.5 12 202.5 24 
" clip-path="url(#pf6f4dcfa41)" style="fill: none; stroke: #000000; stroke-linejoin: miter"/>
   </g>
   <g id="patch_5">
    <path d="M 108 0 
Q 108 24 108 24 
" clip-path="url(#pf6f4dcfa41)" style="fill: none; stroke: #000000; stroke-linejoin: miter"/>
   </g>
   <g id="patch_6">
    <path d="M 13.5 24 
Q 13.5 120 13.5 120 
" clip-path="url(#pf6f4dcfa41)" style="fill: none; stroke: #000000; stroke-linejoin: miter"/>
   </g>
   <g id="patch_7">
    <path d="M 108 24 
Q 108 30 108 30 
" clip-path="url(#pf6f4dcfa41)" style="fill: none; stroke: #000000; stroke-linejoin: miter"/>
   </g>
   <g id="patch_8">
    <path d="M 202.5 24 
Q 202.5 120 202.5 120 
" clip-path="url(#pf6f4dcfa41)" style="fill: none; stroke: #000000; stroke-linejoin: miter"/>
   </g>
   <g id="patch_9">
    <path d="M 108 42 
Q 108 54 108 54 
" clip-path="url(#pf6f4dcfa41)" style="fill: none; stroke: #000000; stroke-linejoin: miter"/>
   </g>
   <g id="patch_10">
    <path d="M 54 66 
Q 54 78 54 78 
" clip-path="url(#pf6f4dcfa41)" style="fill: none; stroke: #000000; stroke-linejoin: miter"/>
   </g>
   <g id="patch_11">
    <path d="M 108 66 
Q 108 78 108 78 
" clip-path="url(#pf6f4dcfa41)" style="fill: none; stroke: #000000; stroke-linejoin: miter"/>
   </g>
   <g id="patch_12">
    <path d="M 162 66 
Q 162 78 162 78 
" clip-path="url(#pf6f4dcfa41)" style="fill: none; stroke: #000000; stroke-linejoin: miter"/>
   </g>
   <g id="patch_13">
    <path d="M 108 90 
Q 108 102 108 102 
" clip-path="url(#pf6f4dcfa41)" style="fill: none; stroke: #000000; stroke-linejoin: miter"/>
   </g>
   <g id="patch_14">
    <path d="M 108 114 
Q 108 120 108 120 
" clip-path="url(#pf6f4dcfa41)" style="fill: none; stroke: #000000; stroke-linejoin: miter"/>
   </g>
   <g id="patch_15">
    <path d="M 13.5 120 
Q 13.5 132 108 132 
" clip-path="url(#pf6f4dcfa41)" style="fill: none; stroke: #000000; stroke-linejoin: miter"/>
   </g>
   <g id="patch_16">
    <path d="M 108 120 
Q 108 144 108 144 
" clip-path="url(#pf6f4dcfa41)" style="fill: none; stroke: #000000; stroke-linejoin: miter"/>
   </g>
   <g id="patch_17">
    <path d="M 202.5 120 
Q 202.5 132 108 132 
" clip-path="url(#pf6f4dcfa41)" style="fill: none; stroke: #000000; stroke-linejoin: miter"/>
   </g>
   <g id="patch_18">
    <path d="M 94.5 42 
L 94.5 30 
L 121.5 30 
L 121.5 42 
z
" clip-path="url(#pf6f4dcfa41)" style="fill: #ffffff; stroke: #000000; stroke-linejoin: miter"/>
   </g>
   <g id="patch_19">
    <path d="M 40.5 66 
L 40.5 54 
L 175.5 54 
L 175.5 66 
z
" clip-path="url(#pf6f4dcfa41)" style="fill: #ffffff; stroke: #000000; stroke-linejoin: miter"/>
   </g>
   <g id="patch_20">
    <path d="M 40.5 90 
L 40.5 78 
L 175.5 78 
L 175.5 90 
z
" clip-path="url(#pf6f4dcfa41)" style="fill: #ffffff; stroke: #000000; stroke-linejoin: miter"/>
   </g>
   <g id="patch_21">
    <path d="M 94.5 114 
L 94.5 102 
L 121.5 102 
L 121.5 114 
z
" clip-path="url(#pf6f4dcfa41)" style="fill: #ffffff; stroke: #000000; stroke-linejoin: miter"/>
   </g>
   <g id="text_1">
    <!-- IO -->
    <g transform="translate(113.4 7.27875) scale(0.08 -0.08)">
     <defs>
      <path id="DejaVuSans-49" d="M 628 4666 
L 1259 4666 
L 1259 0 
L 628 0 
L 628 4666 
z
" transform="scale(0.015625)"/>
      <path id="DejaVuSans-4f" d="M 2522 4238 
Q 1834 4238 1429 3725 
Q 1025 3213 1025 2328 
Q 1025 1447 1429 934 
Q 1834 422 2522 422 
Q 3209 422 3611 934 
Q 4013 1447 4013 2328 
Q 4013 3213 3611 3725 
Q 3209 4238 2522 4238 
z
M 2522 4750 
Q 3503 4750 4090 4092 
Q 4678 3434 4678 2328 
Q 4678 1225 4090 567 
Q 3503 -91 2522 -91 
Q 1538 -91 948 565 
Q 359 1222 359 2328 
Q 359 3434 948 4092 
Q 1538 4750 2522 4750 
z
" transform="scale(0.015625)"/>
     </defs>
     <use xlink:href="#DejaVuSans-49"/>
     <use xlink:href="#DejaVuSans-4f" transform="translate(29.492188 0)"/>
    </g>
   </g>
   <g id="text_2">
    <!-- IO -->
    <g transform="translate(113.4 25.27875) scale(0.08 -0.08)">
     <use xlink:href="#DejaVuSans-49"/>
     <use xlink:href="#DejaVuSans-4f" transform="translate(29.492188 0)"/>
    </g>
   </g>
   <g id="text_3">
    <!-- IO -->
    <g transform="translate(113.4 49.27875) scale(0.08 -0.08)">
     <use xlink:href="#DejaVuSans-49"/>
     <use xlink:href="#DejaVuSans-4f" transform="translate(29.492188 0)"/>
    </g>
   </g>
   <g id="text_4">
    <!-- IO -->
    <g transform="translate(59.4 73.27875) scale(0.08 -0.08)">
     <use xlink:href="#DejaVuSans-49"/>
     <use xlink:href="#DejaVuSans-4f" transform="translate(29.492188 0)"/>
    </g>
   </g>
   <g id="text_5">
    <!-- IO -->
    <g transform="translate(113.4 73.27875) scale(0.08 -0.08)">
     <use xlink:href="#DejaVuSans-49"/>
     <use xlink:href="#DejaVuSans-4f" transform="translate(29.492188 0)"/>
    </g>
   </g>
   <g id="text_6">
    <!-- IO -->
    <g transform="translate(167.4 73.27875) scale(0.08 -0.08)">
     <use xlink:href="#DejaVuSans-49"/>
     <use xlink:href="#DejaVuSans-4f" transform="translate(29.492188 0)"/>
    </g>
   </g>
   <g id="text_7">
    <!-- IO -->
    <g transform="translate(113.4 97.27875) scale(0.08 -0.08)">
     <use xlink:href="#DejaVuSans-49"/>
     <use xlink:href="#DejaVuSans-4f" transform="translate(29.492188 0)"/>
    </g>
   </g>
   <g id="text_8">
    <!-- IO -->
    <g transform="translate(113.4 121.27875) scale(0.08 -0.08)">
     <use xlink:href="#DejaVuSans-49"/>
     <use xlink:href="#DejaVuSans-4f" transform="translate(29.492188 0)"/>
    </g>
   </g>
   <g id="text_9">
    <!-- IO -->
    <g transform="translate(113.4 145.27875) scale(0.08 -0.08)">
     <use xlink:href="#DejaVuSans-49"/>
     <use xlink:href="#DejaVuSans-4f" transform="translate(29.492188 0)"/>
    </g>
   </g>
   <g id="text_10">
    <!-- Copy(IO, 1) -->
    <g transform="translate(76.808125 39.035313) scale(0.11 -0.11)">
     <defs>
      <path id="DejaVuSans-43" d="M 4122 4306 
L 4122 3641 
Q 3803 3938 3442 4084 
Q 3081 4231 2675 4231 
Q 1875 4231 1450 3742 
Q 1025 3253 1025 2328 
Q 1025 1406 1450 917 
Q 1875 428 2675 428 
Q 3081 428 3442 575 
Q 3803 722 4122 1019 
L 4122 359 
Q 3791 134 3420 21 
Q 3050 -91 2638 -91 
Q 1578 -91 968 557 
Q 359 1206 359 2328 
Q 359 3453 968 4101 
Q 1578 4750 2638 4750 
Q 3056 4750 3426 4639 
Q 3797 4528 4122 4306 
z
" transform="scale(0.015625)"/>
      <path id="DejaVuSans-6f" d="M 1959 3097 
Q 1497 3097 1228 2736 
Q 959 2375 959 1747 
Q 959 1119 1226 758 
Q 1494 397 1959 397 
Q 2419 397 2687 759 
Q 2956 1122 2956 1747 
Q 2956 2369 2687 2733 
Q 2419 3097 1959 3097 
z
M 1959 3584 
Q 2709 3584 3137 3096 
Q 3566 2609 3566 1747 
Q 3566 888 3137 398 
Q 2709 -91 1959 -91 
Q 1206 -91 779 398 
Q 353 888 353 1747 
Q 353 2609 779 3096 
Q 1206 3584 1959 3584 
z
" transform="scale(0.015625)"/>
      <path id="DejaVuSans-70" d="M 1159 525 
L 1159 -1331 
L 581 -1331 
L 581 3500 
L 1159 3500 
L 1159 2969 
Q 1341 3281 1617 3432 
Q 1894 3584 2278 3584 
Q 2916 3584 3314 3078 
Q 3713 2572 3713 1747 
Q 3713 922 3314 415 
Q 2916 -91 2278 -91 
Q 1894 -91 1617 61 
Q 1341 213 1159 525 
z
M 3116 1747 
Q 3116 2381 2855 2742 
Q 2594 3103 2138 3103 
Q 1681 3103 1420 2742 
Q 1159 2381 1159 1747 
Q 1159 1113 1420 752 
Q 1681 391 2138 391 
Q 2594 391 2855 752 
Q 3116 1113 3116 1747 
z
" transform="scale(0.015625)"/>
      <path id="DejaVuSans-79" d="M 2059 -325 
Q 1816 -950 1584 -1140 
Q 1353 -1331 966 -1331 
L 506 -1331 
L 506 -850 
L 844 -850 
Q 1081 -850 1212 -737 
Q 1344 -625 1503 -206 
L 1606 56 
L 191 3500 
L 800 3500 
L 1894 763 
L 2988 3500 
L 3597 3500 
L 2059 -325 
z
" transform="scale(0.015625)"/>
      <path id="DejaVuSans-28" d="M 1984 4856 
Q 1566 4138 1362 3434 
Q 1159 2731 1159 2009 
Q 1159 1288 1364 580 
Q 1569 -128 1984 -844 
L 1484 -844 
Q 1016 -109 783 600 
Q 550 1309 550 2009 
Q 550 2706 781 3412 
Q 1013 4119 1484 4856 
L 1984 4856 
z
" transform="scale(0.015625)"/>
      <path id="DejaVuSans-2c" d="M 750 794 
L 1409 794 
L 1409 256 
L 897 -744 
L 494 -744 
L 750 256 
L 750 794 
z
" transform="scale(0.015625)"/>
      <path id="DejaVuSans-20" transform="scale(0.015625)"/>
      <path id="DejaVuSans-31" d="M 794 531 
L 1825 531 
L 1825 4091 
L 703 3866 
L 703 4441 
L 1819 4666 
L 2450 4666 
L 2450 531 
L 3481 531 
L 3481 0 
L 794 0 
L 794 531 
z
" transform="scale(0.015625)"/>
      <path id="DejaVuSans-29" d="M 513 4856 
L 1013 4856 
Q 1481 4119 1714 3412 
Q 1947 2706 1947 2009 
Q 1947 1309 1714 600 
Q 1481 -109 1013 -844 
L 513 -844 
Q 928 -128 1133 580 
Q 1338 1288 1338 2009 
Q 1338 2731 1133 3434 
Q 928 4138 513 4856 
z
" transform="scale(0.015625)"/>
     </defs>
     <use xlink:href="#DejaVuSans-43"/>
     <use xlink:href="#DejaVuSans-6f" transform="translate(69.824219 0)"/>
     <use xlink:href="#DejaVuSans-70" transform="translate(131.005859 0)"/>
     <use xlink:href="#DejaVuSans-79" transform="translate(194.482422 0)"/>
     <use xlink:href="#DejaVuSans-28" transform="translate(253.662109 0)"/>
     <use xlink:href="#DejaVuSans-49" transform="translate(292.675781 0)"/>
     <use xlink:href="#DejaVuSans-4f" transform="translate(322.167969 0)"/>
     <use xlink:href="#DejaVuSans-2c" transform="translate(400.878906 0)"/>
     <use xlink:href="#DejaVuSans-20" transform="translate(432.666016 0)"/>
     <use xlink:href="#DejaVuSans-31" transform="translate(464.453125 0)"/>
     <use xlink:href="#DejaVuSans-29" transform="translate(528.076172 0)"/>
    </g>
   </g>
   <g id="text_11">
    <!-- Copy(IO, 3) -->
    <g transform="translate(76.808125 63.035313) scale(0.11 -0.11)">
     <defs>
      <path id="DejaVuSans-33" d="M 2597 2516 
Q 3050 2419 3304 2112 
Q 3559 1806 3559 1356 
Q 3559 666 3084 287 
Q 2609 -91 1734 -91 
Q 1441 -91 1130 -33 
Q 819 25 488 141 
L 488 750 
Q 750 597 1062 519 
Q 1375 441 1716 441 
Q 2309 441 2620 675 
Q 2931 909 2931 1356 
Q 2931 1769 2642 2001 
Q 2353 2234 1838 2234 
L 1294 2234 
L 1294 2753 
L 1863 2753 
Q 2328 2753 2575 2939 
Q 2822 3125 2822 3475 
Q 2822 3834 2567 4026 
Q 2313 4219 1838 4219 
Q 1578 4219 1281 4162 
Q 984 4106 628 3988 
L 628 4550 
Q 988 4650 1302 4700 
Q 1616 4750 1894 4750 
Q 2613 4750 3031 4423 
Q 3450 4097 3450 3541 
Q 3450 3153 3228 2886 
Q 3006 2619 2597 2516 
z
" transform="scale(0.015625)"/>
     </defs>
     <use xlink:href="#DejaVuSans-43"/>
     <use xlink:href="#DejaVuSans-6f" transform="translate(69.824219 0)"/>
     <use xlink:href="#DejaVuSans-70" transform="translate(131.005859 0)"/>
     <use xlink:href="#DejaVuSans-79" transform="translate(194.482422 0)"/>
     <use xlink:href="#DejaVuSans-28" transform="translate(253.662109 0)"/>
     <use xlink:href="#DejaVuSans-49" transform="translate(292.675781 0)"/>
     <use xlink:href="#DejaVuSans-4f" transform="translate(322.167969 0)"/>
     <use xlink:href="#DejaVuSans-2c" transform="translate(400.878906 0)"/>
     <use xlink:href="#DejaVuSans-20" transform="translate(432.666016 0)"/>
     <use xlink:href="#DejaVuSans-33" transform="translate(464.453125 0)"/>
     <use xlink:href="#DejaVuSans-29" transform="translate(528.076172 0)"/>
    </g>
   </g>
   <g id="text_12">
    <!-- Merge(IO, 3) -->
    <g transform="translate(73.590625 87.035313) scale(0.11 -0.11)">
     <defs>
      <path id="DejaVuSans-4d" d="M 628 4666 
L 1569 4666 
L 2759 1491 
L 3956 4666 
L 4897 4666 
L 4897 0 
L 4281 0 
L 4281 4097 
L 3078 897 
L 2444 897 
L 1241 4097 
L 1241 0 
L 628 0 
L 628 4666 
z
" transform="scale(0.015625)"/>
      <path id="DejaVuSans-65" d="M 3597 1894 
L 3597 1613 
L 953 1613 
Q 991 1019 1311 708 
Q 1631 397 2203 397 
Q 2534 397 2845 478 
Q 3156 559 3463 722 
L 3463 178 
Q 3153 47 2828 -22 
Q 2503 -91 2169 -91 
Q 1331 -91 842 396 
Q 353 884 353 1716 
Q 353 2575 817 3079 
Q 1281 3584 2069 3584 
Q 2775 3584 3186 3129 
Q 3597 2675 3597 1894 
z
M 3022 2063 
Q 3016 2534 2758 2815 
Q 2500 3097 2075 3097 
Q 1594 3097 1305 2825 
Q 1016 2553 972 2059 
L 3022 2063 
z
" transform="scale(0.015625)"/>
      <path id="DejaVuSans-72" d="M 2631 2963 
Q 2534 3019 2420 3045 
Q 2306 3072 2169 3072 
Q 1681 3072 1420 2755 
Q 1159 2438 1159 1844 
L 1159 0 
L 581 0 
L 581 3500 
L 1159 3500 
L 1159 2956 
Q 1341 3275 1631 3429 
Q 1922 3584 2338 3584 
Q 2397 3584 2469 3576 
Q 2541 3569 2628 3553 
L 2631 2963 
z
" transform="scale(0.015625)"/>
      <path id="DejaVuSans-67" d="M 2906 1791 
Q 2906 2416 2648 2759 
Q 2391 3103 1925 3103 
Q 1463 3103 1205 2759 
Q 947 2416 947 1791 
Q 947 1169 1205 825 
Q 1463 481 1925 481 
Q 2391 481 2648 825 
Q 2906 1169 2906 1791 
z
M 3481 434 
Q 3481 -459 3084 -895 
Q 2688 -1331 1869 -1331 
Q 1566 -1331 1297 -1286 
Q 1028 -1241 775 -1147 
L 775 -588 
Q 1028 -725 1275 -790 
Q 1522 -856 1778 -856 
Q 2344 -856 2625 -561 
Q 2906 -266 2906 331 
L 2906 616 
Q 2728 306 2450 153 
Q 2172 0 1784 0 
Q 1141 0 747 490 
Q 353 981 353 1791 
Q 353 2603 747 3093 
Q 1141 3584 1784 3584 
Q 2172 3584 2450 3431 
Q 2728 3278 2906 2969 
L 2906 3500 
L 3481 3500 
L 3481 434 
z
" transform="scale(0.015625)"/>
     </defs>
     <use xlink:href="#DejaVuSans-4d"/>
     <use xlink:href="#DejaVuSans-65" transform="translate(86.279297 0)"/>
     <use xlink:href="#DejaVuSans-72" transform="translate(147.802734 0)"/>
     <use xlink:href="#DejaVuSans-67" transform="translate(187.166016 0)"/>
     <use xlink:href="#DejaVuSans-65" transform="translate(250.642578 0)"/>
     <use xlink:href="#DejaVuSans-28" transform="translate(312.166016 0)"/>
     <use xlink:href="#DejaVuSans-49" transform="translate(351.179688 0)"/>
     <use xlink:href="#DejaVuSans-4f" transform="translate(380.671875 0)"/>
     <use xlink:href="#DejaVuSans-2c" transform="translate(459.382812 0)"/>
     <use xlink:href="#DejaVuSans-20" transform="translate(491.169922 0)"/>
     <use xlink:href="#DejaVuSans-33" transform="translate(522.957031 0)"/>
     <use xlink:href="#DejaVuSans-29" transform="translate(586.580078 0)"/>
    </g>
   </g>
   <g id="text_13">
    <!-- Merge(IO, 1) -->
    <g transform="translate(73.590625 111.035313) scale(0.11 -0.11)">
     <use xlink:href="#DejaVuSans-4d"/>
     <use xlink:href="#DejaVuSans-65" transform="translate(86.279297 0)"/>
     <use xlink:href="#DejaVuSans-72" transform="translate(147.802734 0)"/>
     <use xlink:href="#DejaVuSans-67" transform="translate(187.166016 0)"/>
     <use xlink:href="#DejaVuSans-65" transform="translate(250.642578 0)"/>
     <use xlink:href="#DejaVuSans-28" transform="translate(312.166016 0)"/>
     <use xlink:href="#DejaVuSans-49" transform="translate(351.179688 0)"/>
     <use xlink:href="#DejaVuSans-4f" transform="translate(380.671875 0)"/>
     <use xlink:href="#DejaVuSans-2c" transform="translate(459.382812 0)"/>
     <use xlink:href="#DejaVuSans-20" transform="translate(491.169922 0)"/>
     <use xlink:href="#DejaVuSans-31" transform="translate(522.957031 0)"/>
     <use xlink:href="#DejaVuSans-29" transform="translate(586.580078 0)"/>
    </g>
   </g>
  </g>
 </g>
 <defs>
  <clipPath id="pf6f4dcfa41">
   <rect x="0" y="0" width="216" height="144"/>
  </clipPath>
 </defs>
</svg>
