<?xml version="1.0" encoding="utf-8" standalone="no"?>
<!DOCTYPE svg PUBLIC "-//W3C//DTD SVG 1.1//EN"
  "http://www.w3.org/Graphics/SVG/1.1/DTD/svg11.dtd">
<svg xmlns:xlink="http://www.w3.org/1999/xlink" width="3067.2pt" height="1058.4pt" viewBox="0 0 3067.2 1058.4" xmlns="http://www.w3.org/2000/svg" version="1.1">
 <metadata>
  <rdf:RDF xmlns:dc="http://purl.org/dc/elements/1.1/" xmlns:cc="http://creativecommons.org/ns#" xmlns:rdf="http://www.w3.org/1999/02/22-rdf-syntax-ns#">
   <cc:Work>
    <dc:type rdf:resource="http://purl.org/dc/dcmitype/StillImage"/>
    <dc:date>2026-01-04T15:49:53.015647</dc:date>
    <dc:format>image/svg+xml</dc:format>
    <dc:creator>
     <cc:Agent>
      <dc:title>Matplotlib v3.10.7, https://matplotlib.org/</dc:title>
     </cc:Agent>
    </dc:creator>
   </cc:Work>
  </rdf:RDF>
 </metadata>
 <defs>
  <style type="text/css">*{stroke-linejoin: round; stroke-linecap: butt}</style>
 </defs>
 <g id="figure_1">
  <g id="patch_1">
   <path d="M 0 1058.4 
L 3067.2 1058.4 
L 3067.2 0 
L 0 0 
z
" style="fill: #ffffff"/>
  </g>
  <g id="axes_1">
   <g id="patch_2">
    <path d="M 0 1058.4 
L 3067.2 1058.4 
L 3067.2 0 
L 0 0 
z
" clip-path="url(#paff97f60a9)" style="fill: #ffffff; stroke: #ffffff; stroke-linejoin: miter"/>
   </g>
   <g id="patch_3">
    <path d="M 175.268571 37.8 
Q 175.268571 63 175.268571 63 
" clip-path="url(#paff97f60a9)" style="fill: none; stroke: #000000; stroke-linejoin: miter"/>
   </g>
   <g id="patch_4">
    <path d="M 525.805714 0 
Q 525.805714 63 525.805714 63 
" clip-path="url(#paff97f60a9)" style="fill: none; stroke: #000000; stroke-linejoin: miter"/>
   </g>
   <g id="patch_5">
    <path d="M 1051.611429 0 
Q 1051.611429 163.8 1051.611429 163.8 
" clip-path="url(#paff97f60a9)" style="fill: none; stroke: #000000; stroke-linejoin: miter"/>
   </g>
   <g id="patch_6">
    <path d="M 1752.685714 0 
Q 1752.685714 365.4 1752.685714 365.4 
" clip-path="url(#paff97f60a9)" style="fill: none; stroke: #000000; stroke-linejoin: miter"/>
   </g>
   <g id="patch_7">
    <path d="M 2278.491429 0 
Q 2278.491429 466.2 2278.491429 466.2 
" clip-path="url(#paff97f60a9)" style="fill: none; stroke: #000000; stroke-linejoin: miter"/>
   </g>
   <g id="patch_8">
    <path d="M 2716.662857 0 
Q 2716.662857 768.6 2716.662857 768.6 
" clip-path="url(#paff97f60a9)" style="fill: none; stroke: #000000; stroke-linejoin: miter"/>
   </g>
   <g id="patch_9">
    <path d="M 350.537143 88.2 
Q 350.537143 970.2 350.537143 970.2 
" clip-path="url(#paff97f60a9)" style="fill: none; stroke: #000000; stroke-linejoin: miter"/>
   </g>
   <g id="patch_10">
    <path d="M 701.074286 138.6 
Q 701.074286 163.8 701.074286 163.8 
" clip-path="url(#paff97f60a9)" style="fill: none; stroke: #000000; stroke-linejoin: miter"/>
   </g>
   <g id="patch_11">
    <path d="M 876.342857 189 
Q 876.342857 264.6 876.342857 264.6 
" clip-path="url(#paff97f60a9)" style="fill: none; stroke: #000000; stroke-linejoin: miter"/>
   </g>
   <g id="patch_12">
    <path d="M 1226.88 239.4 
Q 1226.88 264.6 1226.88 264.6 
" clip-path="url(#paff97f60a9)" style="fill: none; stroke: #000000; stroke-linejoin: miter"/>
   </g>
   <g id="patch_13">
    <path d="M 1051.611429 289.8 
Q 1051.611429 919.8 1051.611429 919.8 
" clip-path="url(#paff97f60a9)" style="fill: none; stroke: #000000; stroke-linejoin: miter"/>
   </g>
   <g id="patch_14">
    <path d="M 1402.148571 340.2 
Q 1402.148571 365.4 1402.148571 365.4 
" clip-path="url(#paff97f60a9)" style="fill: none; stroke: #000000; stroke-linejoin: miter"/>
   </g>
   <g id="patch_15">
    <path d="M 1577.417143 390.6 
Q 1577.417143 516.6 1577.417143 516.6 
" clip-path="url(#paff97f60a9)" style="fill: none; stroke: #000000; stroke-linejoin: miter"/>
   </g>
   <g id="patch_16">
    <path d="M 1927.954286 441 
Q 1927.954286 466.2 1927.954286 466.2 
" clip-path="url(#paff97f60a9)" style="fill: none; stroke: #000000; stroke-linejoin: miter"/>
   </g>
   <g id="patch_17">
    <path d="M 2103.222857 491.4 
Q 2103.222857 516.6 2103.222857 516.6 
" clip-path="url(#paff97f60a9)" style="fill: none; stroke: #000000; stroke-linejoin: miter"/>
   </g>
   <g id="patch_18">
    <path d="M 1840.32 541.8 
Q 1840.32 567 1840.32 567 
" clip-path="url(#paff97f60a9)" style="fill: none; stroke: #000000; stroke-linejoin: miter"/>
   </g>
   <g id="patch_19">
    <path d="M 1840.32 592.2 
Q 1840.32 667.8 1840.32 667.8 
" clip-path="url(#paff97f60a9)" style="fill: none; stroke: #000000; stroke-linejoin: miter"/>
   </g>
   <g id="patch_20">
    <path d="M 2190.857143 642.6 
Q 2190.857143 667.8 2190.857143 667.8 
" clip-path="url(#paff97f60a9)" style="fill: none; stroke: #000000; stroke-linejoin: miter"/>
   </g>
   <g id="patch_21">
    <path d="M 2015.588571 693 
Q 2015.588571 919.8 2015.588571 919.8 
" clip-path="url(#paff97f60a9)" style="fill: none; stroke: #000000; stroke-linejoin: miter"/>
   </g>
   <g id="patch_22">
    <path d="M 2366.125714 743.4 
Q 2366.125714 768.6 2366.125714 768.6 
" clip-path="url(#paff97f60a9)" style="fill: none; stroke: #000000; stroke-linejoin: miter"/>
   </g>
   <g id="patch_23">
    <path d="M 2541.394286 793.8 
Q 2541.394286 869.4 2541.394286 869.4 
" clip-path="url(#paff97f60a9)" style="fill: none; stroke: #000000; stroke-linejoin: miter"/>
   </g>
   <g id="patch_24">
    <path d="M 2891.931429 844.2 
Q 2891.931429 869.4 2891.931429 869.4 
" clip-path="url(#paff97f60a9)" style="fill: none; stroke: #000000; stroke-linejoin: miter"/>
   </g>
   <g id="patch_25">
    <path d="M 2716.662857 894.6 
Q 2716.662857 919.8 2716.662857 919.8 
" clip-path="url(#paff97f60a9)" style="fill: none; stroke: #000000; stroke-linejoin: miter"/>
   </g>
   <g id="patch_26">
    <path d="M 1884.137143 945 
Q 1884.137143 970.2 1884.137143 970.2 
" clip-path="url(#paff97f60a9)" style="fill: none; stroke: #000000; stroke-linejoin: miter"/>
   </g>
   <g id="patch_27">
    <path d="M 1117.337143 995.4 
Q 1117.337143 1020.6 1117.337143 1020.6 
" clip-path="url(#paff97f60a9)" style="fill: none; stroke: #000000; stroke-linejoin: miter"/>
   </g>
   <g id="patch_28">
    <path d="M 1117.337143 1045.8 
Q 1117.337143 1058.4 1117.337143 1058.4 
" clip-path="url(#paff97f60a9)" style="fill: none; stroke: #000000; stroke-linejoin: miter"/>
   </g>
   <g id="patch_29">
    <path d="M 87.634286 37.8 
L 87.634286 12.6 
L 262.902857 12.6 
L 262.902857 37.8 
z
" clip-path="url(#paff97f60a9)" style="fill: #ffffff; stroke: #000000; stroke-linejoin: miter"/>
   </g>
   <g id="patch_30">
    <path d="M 87.634286 88.2 
L 87.634286 63 
L 613.44 63 
L 613.44 88.2 
z
" clip-path="url(#paff97f60a9)" style="fill: #ffffff; stroke: #000000; stroke-linejoin: miter"/>
   </g>
   <g id="patch_31">
    <path d="M 613.44 138.6 
L 613.44 113.4 
L 788.708571 113.4 
L 788.708571 138.6 
z
" clip-path="url(#paff97f60a9)" style="fill: #ffffff; stroke: #000000; stroke-linejoin: miter"/>
   </g>
   <g id="patch_32">
    <path d="M 613.44 189 
L 613.44 163.8 
L 1139.245714 163.8 
L 1139.245714 189 
z
" clip-path="url(#paff97f60a9)" style="fill: #ffffff; stroke: #000000; stroke-linejoin: miter"/>
   </g>
   <g id="patch_33">
    <path d="M 1139.245714 239.4 
L 1139.245714 214.2 
L 1314.514286 214.2 
L 1314.514286 239.4 
z
" clip-path="url(#paff97f60a9)" style="fill: #ffffff; stroke: #000000; stroke-linejoin: miter"/>
   </g>
   <g id="patch_34">
    <path d="M 788.708571 289.8 
L 788.708571 264.6 
L 1314.514286 264.6 
L 1314.514286 289.8 
z
" clip-path="url(#paff97f60a9)" style="fill: #ffffff; stroke: #000000; stroke-linejoin: miter"/>
   </g>
   <g id="patch_35">
    <path d="M 1314.514286 340.2 
L 1314.514286 315 
L 1489.782857 315 
L 1489.782857 340.2 
z
" clip-path="url(#paff97f60a9)" style="fill: #ffffff; stroke: #000000; stroke-linejoin: miter"/>
   </g>
   <g id="patch_36">
    <path d="M 1314.514286 390.6 
L 1314.514286 365.4 
L 1840.32 365.4 
L 1840.32 390.6 
z
" clip-path="url(#paff97f60a9)" style="fill: #ffffff; stroke: #000000; stroke-linejoin: miter"/>
   </g>
   <g id="patch_37">
    <path d="M 1840.32 441 
L 1840.32 415.8 
L 2015.588571 415.8 
L 2015.588571 441 
z
" clip-path="url(#paff97f60a9)" style="fill: #ffffff; stroke: #000000; stroke-linejoin: miter"/>
   </g>
   <g id="patch_38">
    <path d="M 1840.32 491.4 
L 1840.32 466.2 
L 2366.125714 466.2 
L 2366.125714 491.4 
z
" clip-path="url(#paff97f60a9)" style="fill: #ffffff; stroke: #000000; stroke-linejoin: miter"/>
   </g>
   <g id="patch_39">
    <path d="M 1489.782857 541.8 
L 1489.782857 516.6 
L 2190.857143 516.6 
L 2190.857143 541.8 
z
" clip-path="url(#paff97f60a9)" style="fill: #ffffff; stroke: #000000; stroke-linejoin: miter"/>
   </g>
   <g id="patch_40">
    <path d="M 1752.685714 592.2 
L 1752.685714 567 
L 1927.954286 567 
L 1927.954286 592.2 
z
" clip-path="url(#paff97f60a9)" style="fill: #ffffff; stroke: #000000; stroke-linejoin: miter"/>
   </g>
   <g id="patch_41">
    <path d="M 2103.222857 642.6 
L 2103.222857 617.4 
L 2278.491429 617.4 
L 2278.491429 642.6 
z
" clip-path="url(#paff97f60a9)" style="fill: #ffffff; stroke: #000000; stroke-linejoin: miter"/>
   </g>
   <g id="patch_42">
    <path d="M 1752.685714 693 
L 1752.685714 667.8 
L 2278.491429 667.8 
L 2278.491429 693 
z
" clip-path="url(#paff97f60a9)" style="fill: #ffffff; stroke: #000000; stroke-linejoin: miter"/>
   </g>
   <g id="patch_43">
    <path d="M 2278.491429 743.4 
L 2278.491429 718.2 
L 2453.76 718.2 
L 2453.76 743.4 
z
" clip-path="url(#paff97f60a9)" style="fill: #ffffff; stroke: #000000; stroke-linejoin: miter"/>
   </g>
   <g id="patch_44">
    <path d="M 2278.491429 793.8 
L 2278.491429 768.6 
L 2804.297143 768.6 
L 2804.297143 793.8 
z
" clip-path="url(#paff97f60a9)" style="fill: #ffffff; stroke: #000000; stroke-linejoin: miter"/>
   </g>
   <g id="patch_45">
    <path d="M 2804.297143 844.2 
L 2804.297143 819 
L 2979.565714 819 
L 2979.565714 844.2 
z
" clip-path="url(#paff97f60a9)" style="fill: #ffffff; stroke: #000000; stroke-linejoin: miter"/>
   </g>
   <g id="patch_46">
    <path d="M 2453.76 894.6 
L 2453.76 869.4 
L 2979.565714 869.4 
L 2979.565714 894.6 
z
" clip-path="url(#paff97f60a9)" style="fill: #ffffff; stroke: #000000; stroke-linejoin: miter"/>
   </g>
   <g id="patch_47">
    <path d="M 963.977143 945 
L 963.977143 919.8 
L 2804.297143 919.8 
L 2804.297143 945 
z
" clip-path="url(#paff97f60a9)" style="fill: #ffffff; stroke: #000000; stroke-linejoin: miter"/>
   </g>
   <g id="patch_48">
    <path d="M 262.902857 995.4 
L 262.902857 970.2 
L 1971.771429 970.2 
L 1971.771429 995.4 
z
" clip-path="url(#paff97f60a9)" style="fill: #ffffff; stroke: #000000; stroke-linejoin: miter"/>
   </g>
   <g id="patch_49">
    <path d="M 1029.702857 1045.8 
L 1029.702857 1020.6 
L 1204.971429 1020.6 
L 1204.971429 1045.8 
z
" clip-path="url(#paff97f60a9)" style="fill: #ffffff; stroke: #000000; stroke-linejoin: miter"/>
   </g>
   <g id="text_1">
    <!-- IO -->
    <g transform="translate(210.322286 54.478125) scale(0.12 -0.12)">
     <defs>
      <path id="DejaVuSans-49" d="M 628 4666 
L 1259 4666 
L 1259 0 
L 628 0 
L 628 4666 
z
" transform="scale(0.015625)"/>
      <path id="DejaVuSans-4f" d="M 2522 4238 
Q 1834 4238 1429 3725 
Q 1025 3213 1025 2328 
Q 1025 1447 1429 934 
Q 1834 422 2522 422 
Q 3209 422 3611 934 
Q 4013 1447 4013 2328 
Q 4013 3213 3611 3725 
Q 3209 4238 2522 4238 
z
M 2522 4750 
Q 3503 4750 4090 4092 
Q 4678 3434 4678 2328 
Q 4678 1225 4090 567 
Q 3503 -91 2522 -91 
Q 1538 -91 948 565 
Q 359 1222 359 2328 
Q 359 3434 948 4092 
Q 1538 4750 2522 4750 
z
" transform="scale(0.015625)"/>
     </defs>
     <use xlink:href="#DejaVuSans-49"/>
     <use xlink:href="#DejaVuSans-4f" transform="translate(29.492188 0)"/>
    </g>
   </g>
   <g id="text_2">
    <!-- examples/shell.yaml -->
    <g transform="translate(560.859429 16.678125) scale(0.12 -0.12)">
     <defs>
      <path id="DejaVuSans-65" d="M 3597 1894 
L 3597 1613 
L 953 1613 
Q 991 1019 1311 708 
Q 1631 397 2203 397 
Q 2534 397 2845 478 
Q 3156 559 3463 722 
L 3463 178 
Q 3153 47 2828 -22 
Q 2503 -91 2169 -91 
Q 1331 -91 842 396 
Q 353 884 353 1716 
Q 353 2575 817 3079 
Q 1281 3584 2069 3584 
Q 2775 3584 3186 3129 
Q 3597 2675 3597 1894 
z
M 3022 2063 
Q 3016 2534 2758 2815 
Q 2500 3097 2075 3097 
Q 1594 3097 1305 2825 
Q 1016 2553 972 2059 
L 3022 2063 
z
" transform="scale(0.015625)"/>
      <path id="DejaVuSans-78" d="M 3513 3500 
L 2247 1797 
L 3578 0 
L 2900 0 
L 1881 1375 
L 863 0 
L 184 0 
L 1544 1831 
L 300 3500 
L 978 3500 
L 1906 2253 
L 2834 3500 
L 3513 3500 
z
" transform="scale(0.015625)"/>
      <path id="DejaVuSans-61" d="M 2194 1759 
Q 1497 1759 1228 1600 
Q 959 1441 959 1056 
Q 959 750 1161 570 
Q 1363 391 1709 391 
Q 2188 391 2477 730 
Q 2766 1069 2766 1631 
L 2766 1759 
L 2194 1759 
z
M 3341 1997 
L 3341 0 
L 2766 0 
L 2766 531 
Q 2569 213 2275 61 
Q 1981 -91 1556 -91 
Q 1019 -91 701 211 
Q 384 513 384 1019 
Q 384 1609 779 1909 
Q 1175 2209 1959 2209 
L 2766 2209 
L 2766 2266 
Q 2766 2663 2505 2880 
Q 2244 3097 1772 3097 
Q 1472 3097 1187 3025 
Q 903 2953 641 2809 
L 641 3341 
Q 956 3463 1253 3523 
Q 1550 3584 1831 3584 
Q 2591 3584 2966 3190 
Q 3341 2797 3341 1997 
z
" transform="scale(0.015625)"/>
      <path id="DejaVuSans-6d" d="M 3328 2828 
Q 3544 3216 3844 3400 
Q 4144 3584 4550 3584 
Q 5097 3584 5394 3201 
Q 5691 2819 5691 2113 
L 5691 0 
L 5113 0 
L 5113 2094 
Q 5113 2597 4934 2840 
Q 4756 3084 4391 3084 
Q 3944 3084 3684 2787 
Q 3425 2491 3425 1978 
L 3425 0 
L 2847 0 
L 2847 2094 
Q 2847 2600 2669 2842 
Q 2491 3084 2119 3084 
Q 1678 3084 1418 2786 
Q 1159 2488 1159 1978 
L 1159 0 
L 581 0 
L 581 3500 
L 1159 3500 
L 1159 2956 
Q 1356 3278 1631 3431 
Q 1906 3584 2284 3584 
Q 2666 3584 2933 3390 
Q 3200 3197 3328 2828 
z
" transform="scale(0.015625)"/>
      <path id="DejaVuSans-70" d="M 1159 525 
L 1159 -1331 
L 581 -1331 
L 581 3500 
L 1159 3500 
L 1159 2969 
Q 1341 3281 1617 3432 
Q 1894 3584 2278 3584 
Q 2916 3584 3314 3078 
Q 3713 2572 3713 1747 
Q 3713 922 3314 415 
Q 2916 -91 2278 -91 
Q 1894 -91 1617 61 
Q 1341 213 1159 525 
z
M 3116 1747 
Q 3116 2381 2855 2742 
Q 2594 3103 2138 3103 
Q 1681 3103 1420 2742 
Q 1159 2381 1159 1747 
Q 1159 1113 1420 752 
Q 1681 391 2138 391 
Q 2594 391 2855 752 
Q 3116 1113 3116 1747 
z
" transform="scale(0.015625)"/>
      <path id="DejaVuSans-6c" d="M 603 4863 
L 1178 4863 
L 1178 0 
L 603 0 
L 603 4863 
z
" transform="scale(0.015625)"/>
      <path id="DejaVuSans-73" d="M 2834 3397 
L 2834 2853 
Q 2591 2978 2328 3040 
Q 2066 3103 1784 3103 
Q 1356 3103 1142 2972 
Q 928 2841 928 2578 
Q 928 2378 1081 2264 
Q 1234 2150 1697 2047 
L 1894 2003 
Q 2506 1872 2764 1633 
Q 3022 1394 3022 966 
Q 3022 478 2636 193 
Q 2250 -91 1575 -91 
Q 1294 -91 989 -36 
Q 684 19 347 128 
L 347 722 
Q 666 556 975 473 
Q 1284 391 1588 391 
Q 1994 391 2212 530 
Q 2431 669 2431 922 
Q 2431 1156 2273 1281 
Q 2116 1406 1581 1522 
L 1381 1569 
Q 847 1681 609 1914 
Q 372 2147 372 2553 
Q 372 3047 722 3315 
Q 1072 3584 1716 3584 
Q 2034 3584 2315 3537 
Q 2597 3491 2834 3397 
z
" transform="scale(0.015625)"/>
      <path id="DejaVuSans-2f" d="M 1625 4666 
L 2156 4666 
L 531 -594 
L 0 -594 
L 1625 4666 
z
" transform="scale(0.015625)"/>
      <path id="DejaVuSans-68" d="M 3513 2113 
L 3513 0 
L 2938 0 
L 2938 2094 
Q 2938 2591 2744 2837 
Q 2550 3084 2163 3084 
Q 1697 3084 1428 2787 
Q 1159 2491 1159 1978 
L 1159 0 
L 581 0 
L 581 4863 
L 1159 4863 
L 1159 2956 
Q 1366 3272 1645 3428 
Q 1925 3584 2291 3584 
Q 2894 3584 3203 3211 
Q 3513 2838 3513 2113 
z
" transform="scale(0.015625)"/>
      <path id="DejaVuSans-2e" d="M 684 794 
L 1344 794 
L 1344 0 
L 684 0 
L 684 794 
z
" transform="scale(0.015625)"/>
      <path id="DejaVuSans-79" d="M 2059 -325 
Q 1816 -950 1584 -1140 
Q 1353 -1331 966 -1331 
L 506 -1331 
L 506 -850 
L 844 -850 
Q 1081 -850 1212 -737 
Q 1344 -625 1503 -206 
L 1606 56 
L 191 3500 
L 800 3500 
L 1894 763 
L 2988 3500 
L 3597 3500 
L 2059 -325 
z
" transform="scale(0.015625)"/>
     </defs>
     <use xlink:href="#DejaVuSans-65"/>
     <use xlink:href="#DejaVuSans-78" transform="translate(59.773438 0)"/>
     <use xlink:href="#DejaVuSans-61" transform="translate(118.953125 0)"/>
     <use xlink:href="#DejaVuSans-6d" transform="translate(180.232422 0)"/>
     <use xlink:href="#DejaVuSans-70" transform="translate(277.644531 0)"/>
     <use xlink:href="#DejaVuSans-6c" transform="translate(341.121094 0)"/>
     <use xlink:href="#DejaVuSans-65" transform="translate(368.904297 0)"/>
     <use xlink:href="#DejaVuSans-73" transform="translate(430.427734 0)"/>
     <use xlink:href="#DejaVuSans-2f" transform="translate(482.527344 0)"/>
     <use xlink:href="#DejaVuSans-73" transform="translate(516.21875 0)"/>
     <use xlink:href="#DejaVuSans-68" transform="translate(568.318359 0)"/>
     <use xlink:href="#DejaVuSans-65" transform="translate(631.697266 0)"/>
     <use xlink:href="#DejaVuSans-6c" transform="translate(693.220703 0)"/>
     <use xlink:href="#DejaVuSans-6c" transform="translate(721.003906 0)"/>
     <use xlink:href="#DejaVuSans-2e" transform="translate(748.787109 0)"/>
     <use xlink:href="#DejaVuSans-79" transform="translate(780.574219 0)"/>
     <use xlink:href="#DejaVuSans-61" transform="translate(839.753906 0)"/>
     <use xlink:href="#DejaVuSans-6d" transform="translate(901.033203 0)"/>
     <use xlink:href="#DejaVuSans-6c" transform="translate(998.445312 0)"/>
    </g>
   </g>
   <g id="text_3">
    <!-- -c -->
    <g transform="translate(1086.665143 16.678125) scale(0.12 -0.12)">
     <defs>
      <path id="DejaVuSans-2d" d="M 313 2009 
L 1997 2009 
L 1997 1497 
L 313 1497 
L 313 2009 
z
" transform="scale(0.015625)"/>
      <path id="DejaVuSans-63" d="M 3122 3366 
L 3122 2828 
Q 2878 2963 2633 3030 
Q 2388 3097 2138 3097 
Q 1578 3097 1268 2742 
Q 959 2388 959 1747 
Q 959 1106 1268 751 
Q 1578 397 2138 397 
Q 2388 397 2633 464 
Q 2878 531 3122 666 
L 3122 134 
Q 2881 22 2623 -34 
Q 2366 -91 2075 -91 
Q 1284 -91 818 406 
Q 353 903 353 1747 
Q 353 2603 823 3093 
Q 1294 3584 2113 3584 
Q 2378 3584 2631 3529 
Q 2884 3475 3122 3366 
z
" transform="scale(0.015625)"/>
     </defs>
     <use xlink:href="#DejaVuSans-2d"/>
     <use xlink:href="#DejaVuSans-63" transform="translate(36.083984 0)"/>
    </g>
   </g>
   <g id="text_4">
    <!-- grep -->
    <g transform="translate(1787.739429 16.678125) scale(0.12 -0.12)">
     <defs>
      <path id="DejaVuSans-67" d="M 2906 1791 
Q 2906 2416 2648 2759 
Q 2391 3103 1925 3103 
Q 1463 3103 1205 2759 
Q 947 2416 947 1791 
Q 947 1169 1205 825 
Q 1463 481 1925 481 
Q 2391 481 2648 825 
Q 2906 1169 2906 1791 
z
M 3481 434 
Q 3481 -459 3084 -895 
Q 2688 -1331 1869 -1331 
Q 1566 -1331 1297 -1286 
Q 1028 -1241 775 -1147 
L 775 -588 
Q 1028 -725 1275 -790 
Q 1522 -856 1778 -856 
Q 2344 -856 2625 -561 
Q 2906 -266 2906 331 
L 2906 616 
Q 2728 306 2450 153 
Q 2172 0 1784 0 
Q 1141 0 747 490 
Q 353 981 353 1791 
Q 353 2603 747 3093 
Q 1141 3584 1784 3584 
Q 2172 3584 2450 3431 
Q 2728 3278 2906 2969 
L 2906 3500 
L 3481 3500 
L 3481 434 
z
" transform="scale(0.015625)"/>
      <path id="DejaVuSans-72" d="M 2631 2963 
Q 2534 3019 2420 3045 
Q 2306 3072 2169 3072 
Q 1681 3072 1420 2755 
Q 1159 2438 1159 1844 
L 1159 0 
L 581 0 
L 581 3500 
L 1159 3500 
L 1159 2956 
Q 1341 3275 1631 3429 
Q 1922 3584 2338 3584 
Q 2397 3584 2469 3576 
Q 2541 3569 2628 3553 
L 2631 2963 
z
" transform="scale(0.015625)"/>
     </defs>
     <use xlink:href="#DejaVuSans-67"/>
     <use xlink:href="#DejaVuSans-72" transform="translate(63.476562 0)"/>
     <use xlink:href="#DejaVuSans-65" transform="translate(102.339844 0)"/>
     <use xlink:href="#DejaVuSans-70" transform="translate(163.863281 0)"/>
    </g>
   </g>
   <g id="text_5">
    <!-- -c -->
    <g transform="translate(2313.545143 16.678125) scale(0.12 -0.12)">
     <use xlink:href="#DejaVuSans-2d"/>
     <use xlink:href="#DejaVuSans-63" transform="translate(36.083984 0)"/>
    </g>
   </g>
   <g id="text_6">
    <!-- -2 -->
    <g transform="translate(2751.716571 16.678125) scale(0.12 -0.12)">
     <defs>
      <path id="DejaVuSans-32" d="M 1228 531 
L 3431 531 
L 3431 0 
L 469 0 
L 469 531 
Q 828 903 1448 1529 
Q 2069 2156 2228 2338 
Q 2531 2678 2651 2914 
Q 2772 3150 2772 3378 
Q 2772 3750 2511 3984 
Q 2250 4219 1831 4219 
Q 1534 4219 1204 4116 
Q 875 4013 500 3803 
L 500 4441 
Q 881 4594 1212 4672 
Q 1544 4750 1819 4750 
Q 2544 4750 2975 4387 
Q 3406 4025 3406 3419 
Q 3406 3131 3298 2873 
Q 3191 2616 2906 2266 
Q 2828 2175 2409 1742 
Q 1991 1309 1228 531 
z
" transform="scale(0.015625)"/>
     </defs>
     <use xlink:href="#DejaVuSans-2d"/>
     <use xlink:href="#DejaVuSans-32" transform="translate(36.083984 0)"/>
    </g>
   </g>
   <g id="text_7">
    <!-- (cat &gt;&gt; cat) -->
    <g transform="translate(385.590857 104.878125) scale(0.12 -0.12)">
     <defs>
      <path id="DejaVuSans-28" d="M 1984 4856 
Q 1566 4138 1362 3434 
Q 1159 2731 1159 2009 
Q 1159 1288 1364 580 
Q 1569 -128 1984 -844 
L 1484 -844 
Q 1016 -109 783 600 
Q 550 1309 550 2009 
Q 550 2706 781 3412 
Q 1013 4119 1484 4856 
L 1984 4856 
z
" transform="scale(0.015625)"/>
      <path id="DejaVuSans-74" d="M 1172 4494 
L 1172 3500 
L 2356 3500 
L 2356 3053 
L 1172 3053 
L 1172 1153 
Q 1172 725 1289 603 
Q 1406 481 1766 481 
L 2356 481 
L 2356 0 
L 1766 0 
Q 1100 0 847 248 
Q 594 497 594 1153 
L 594 3053 
L 172 3053 
L 172 3500 
L 594 3500 
L 594 4494 
L 1172 4494 
z
" transform="scale(0.015625)"/>
      <path id="DejaVuSans-20" transform="scale(0.015625)"/>
      <path id="DejaVuSans-3e" d="M 678 3150 
L 678 3719 
L 4684 2266 
L 4684 1747 
L 678 294 
L 678 863 
L 3897 2003 
L 678 3150 
z
" transform="scale(0.015625)"/>
      <path id="DejaVuSans-29" d="M 513 4856 
L 1013 4856 
Q 1481 4119 1714 3412 
Q 1947 2706 1947 2009 
Q 1947 1309 1714 600 
Q 1481 -109 1013 -844 
L 513 -844 
Q 928 -128 1133 580 
Q 1338 1288 1338 2009 
Q 1338 2731 1133 3434 
Q 928 4138 513 4856 
z
" transform="scale(0.015625)"/>
     </defs>
     <use xlink:href="#DejaVuSans-28"/>
     <use xlink:href="#DejaVuSans-63" transform="translate(39.013672 0)"/>
     <use xlink:href="#DejaVuSans-61" transform="translate(93.994141 0)"/>
     <use xlink:href="#DejaVuSans-74" transform="translate(155.273438 0)"/>
     <use xlink:href="#DejaVuSans-20" transform="translate(194.482422 0)"/>
     <use xlink:href="#DejaVuSans-3e" transform="translate(226.269531 0)"/>
     <use xlink:href="#DejaVuSans-3e" transform="translate(310.058594 0)"/>
     <use xlink:href="#DejaVuSans-20" transform="translate(393.847656 0)"/>
     <use xlink:href="#DejaVuSans-63" transform="translate(425.634766 0)"/>
     <use xlink:href="#DejaVuSans-61" transform="translate(480.615234 0)"/>
     <use xlink:href="#DejaVuSans-74" transform="translate(541.894531 0)"/>
     <use xlink:href="#DejaVuSans-29" transform="translate(581.103516 0)"/>
    </g>
   </g>
   <g id="text_8">
    <!-- IO -->
    <g transform="translate(736.128 155.278125) scale(0.12 -0.12)">
     <use xlink:href="#DejaVuSans-49"/>
     <use xlink:href="#DejaVuSans-4f" transform="translate(29.492188 0)"/>
    </g>
   </g>
   <g id="text_9">
    <!-- (wc &gt;&gt; wc) -->
    <g transform="translate(911.396571 205.678125) scale(0.12 -0.12)">
     <defs>
      <path id="DejaVuSans-77" d="M 269 3500 
L 844 3500 
L 1563 769 
L 2278 3500 
L 2956 3500 
L 3675 769 
L 4391 3500 
L 4966 3500 
L 4050 0 
L 3372 0 
L 2619 2869 
L 1863 0 
L 1184 0 
L 269 3500 
z
" transform="scale(0.015625)"/>
     </defs>
     <use xlink:href="#DejaVuSans-28"/>
     <use xlink:href="#DejaVuSans-77" transform="translate(39.013672 0)"/>
     <use xlink:href="#DejaVuSans-63" transform="translate(120.800781 0)"/>
     <use xlink:href="#DejaVuSans-20" transform="translate(175.78125 0)"/>
     <use xlink:href="#DejaVuSans-3e" transform="translate(207.568359 0)"/>
     <use xlink:href="#DejaVuSans-3e" transform="translate(291.357422 0)"/>
     <use xlink:href="#DejaVuSans-20" transform="translate(375.146484 0)"/>
     <use xlink:href="#DejaVuSans-77" transform="translate(406.933594 0)"/>
     <use xlink:href="#DejaVuSans-63" transform="translate(488.720703 0)"/>
     <use xlink:href="#DejaVuSans-29" transform="translate(543.701172 0)"/>
    </g>
   </g>
   <g id="text_10">
    <!-- (Ty() &gt;&gt; Ty()) -->
    <g transform="translate(1261.933714 256.078125) scale(0.12 -0.12)">
     <defs>
      <path id="DejaVuSans-54" d="M -19 4666 
L 3928 4666 
L 3928 4134 
L 2272 4134 
L 2272 0 
L 1638 0 
L 1638 4134 
L -19 4134 
L -19 4666 
z
" transform="scale(0.015625)"/>
     </defs>
     <use xlink:href="#DejaVuSans-28"/>
     <use xlink:href="#DejaVuSans-54" transform="translate(39.013672 0)"/>
     <use xlink:href="#DejaVuSans-79" transform="translate(84.472656 0)"/>
     <use xlink:href="#DejaVuSans-28" transform="translate(143.652344 0)"/>
     <use xlink:href="#DejaVuSans-29" transform="translate(182.666016 0)"/>
     <use xlink:href="#DejaVuSans-20" transform="translate(221.679688 0)"/>
     <use xlink:href="#DejaVuSans-3e" transform="translate(253.466797 0)"/>
     <use xlink:href="#DejaVuSans-3e" transform="translate(337.255859 0)"/>
     <use xlink:href="#DejaVuSans-20" transform="translate(421.044922 0)"/>
     <use xlink:href="#DejaVuSans-54" transform="translate(452.832031 0)"/>
     <use xlink:href="#DejaVuSans-79" transform="translate(498.291016 0)"/>
     <use xlink:href="#DejaVuSans-28" transform="translate(557.470703 0)"/>
     <use xlink:href="#DejaVuSans-29" transform="translate(596.484375 0)"/>
     <use xlink:href="#DejaVuSans-29" transform="translate(635.498047 0)"/>
    </g>
   </g>
   <g id="text_11">
    <!-- (wc &gt;&gt; Ty()) -->
    <g transform="translate(1086.665143 306.478125) scale(0.12 -0.12)">
     <use xlink:href="#DejaVuSans-28"/>
     <use xlink:href="#DejaVuSans-77" transform="translate(39.013672 0)"/>
     <use xlink:href="#DejaVuSans-63" transform="translate(120.800781 0)"/>
     <use xlink:href="#DejaVuSans-20" transform="translate(175.78125 0)"/>
     <use xlink:href="#DejaVuSans-3e" transform="translate(207.568359 0)"/>
     <use xlink:href="#DejaVuSans-3e" transform="translate(291.357422 0)"/>
     <use xlink:href="#DejaVuSans-20" transform="translate(375.146484 0)"/>
     <use xlink:href="#DejaVuSans-54" transform="translate(406.933594 0)"/>
     <use xlink:href="#DejaVuSans-79" transform="translate(452.392578 0)"/>
     <use xlink:href="#DejaVuSans-28" transform="translate(511.572266 0)"/>
     <use xlink:href="#DejaVuSans-29" transform="translate(550.585938 0)"/>
     <use xlink:href="#DejaVuSans-29" transform="translate(589.599609 0)"/>
    </g>
   </g>
   <g id="text_12">
    <!-- IO -->
    <g transform="translate(1437.202286 356.878125) scale(0.12 -0.12)">
     <use xlink:href="#DejaVuSans-49"/>
     <use xlink:href="#DejaVuSans-4f" transform="translate(29.492188 0)"/>
    </g>
   </g>
   <g id="text_13">
    <!-- (grep &gt;&gt; grep) -->
    <g transform="translate(1612.470857 407.278125) scale(0.12 -0.12)">
     <use xlink:href="#DejaVuSans-28"/>
     <use xlink:href="#DejaVuSans-67" transform="translate(39.013672 0)"/>
     <use xlink:href="#DejaVuSans-72" transform="translate(102.490234 0)"/>
     <use xlink:href="#DejaVuSans-65" transform="translate(141.353516 0)"/>
     <use xlink:href="#DejaVuSans-70" transform="translate(202.876953 0)"/>
     <use xlink:href="#DejaVuSans-20" transform="translate(266.353516 0)"/>
     <use xlink:href="#DejaVuSans-3e" transform="translate(298.140625 0)"/>
     <use xlink:href="#DejaVuSans-3e" transform="translate(381.929688 0)"/>
     <use xlink:href="#DejaVuSans-20" transform="translate(465.71875 0)"/>
     <use xlink:href="#DejaVuSans-67" transform="translate(497.505859 0)"/>
     <use xlink:href="#DejaVuSans-72" transform="translate(560.982422 0)"/>
     <use xlink:href="#DejaVuSans-65" transform="translate(599.845703 0)"/>
     <use xlink:href="#DejaVuSans-70" transform="translate(661.369141 0)"/>
     <use xlink:href="#DejaVuSans-29" transform="translate(724.845703 0)"/>
    </g>
   </g>
   <g id="text_14">
    <!-- IO -->
    <g transform="translate(1963.008 457.678125) scale(0.12 -0.12)">
     <use xlink:href="#DejaVuSans-49"/>
     <use xlink:href="#DejaVuSans-4f" transform="translate(29.492188 0)"/>
    </g>
   </g>
   <g id="text_15">
    <!-- (wc &gt;&gt; wc) -->
    <g transform="translate(2138.276571 508.078125) scale(0.12 -0.12)">
     <use xlink:href="#DejaVuSans-28"/>
     <use xlink:href="#DejaVuSans-77" transform="translate(39.013672 0)"/>
     <use xlink:href="#DejaVuSans-63" transform="translate(120.800781 0)"/>
     <use xlink:href="#DejaVuSans-20" transform="translate(175.78125 0)"/>
     <use xlink:href="#DejaVuSans-3e" transform="translate(207.568359 0)"/>
     <use xlink:href="#DejaVuSans-3e" transform="translate(291.357422 0)"/>
     <use xlink:href="#DejaVuSans-20" transform="translate(375.146484 0)"/>
     <use xlink:href="#DejaVuSans-77" transform="translate(406.933594 0)"/>
     <use xlink:href="#DejaVuSans-63" transform="translate(488.720703 0)"/>
     <use xlink:href="#DejaVuSans-29" transform="translate(543.701172 0)"/>
    </g>
   </g>
   <g id="text_16">
    <!-- (grep &gt;&gt; wc) -->
    <g transform="translate(1875.373714 558.478125) scale(0.12 -0.12)">
     <use xlink:href="#DejaVuSans-28"/>
     <use xlink:href="#DejaVuSans-67" transform="translate(39.013672 0)"/>
     <use xlink:href="#DejaVuSans-72" transform="translate(102.490234 0)"/>
     <use xlink:href="#DejaVuSans-65" transform="translate(141.353516 0)"/>
     <use xlink:href="#DejaVuSans-70" transform="translate(202.876953 0)"/>
     <use xlink:href="#DejaVuSans-20" transform="translate(266.353516 0)"/>
     <use xlink:href="#DejaVuSans-3e" transform="translate(298.140625 0)"/>
     <use xlink:href="#DejaVuSans-3e" transform="translate(381.929688 0)"/>
     <use xlink:href="#DejaVuSans-20" transform="translate(465.71875 0)"/>
     <use xlink:href="#DejaVuSans-77" transform="translate(497.505859 0)"/>
     <use xlink:href="#DejaVuSans-63" transform="translate(579.292969 0)"/>
     <use xlink:href="#DejaVuSans-29" transform="translate(634.273438 0)"/>
    </g>
   </g>
   <g id="text_17">
    <!-- (wc &lt;&lt; grep) -->
    <g transform="translate(1875.373714 608.878125) scale(0.12 -0.12)">
     <defs>
      <path id="DejaVuSans-3c" d="M 4684 3150 
L 1459 2003 
L 4684 863 
L 4684 294 
L 678 1747 
L 678 2266 
L 4684 3719 
L 4684 3150 
z
" transform="scale(0.015625)"/>
     </defs>
     <use xlink:href="#DejaVuSans-28"/>
     <use xlink:href="#DejaVuSans-77" transform="translate(39.013672 0)"/>
     <use xlink:href="#DejaVuSans-63" transform="translate(120.800781 0)"/>
     <use xlink:href="#DejaVuSans-20" transform="translate(175.78125 0)"/>
     <use xlink:href="#DejaVuSans-3c" transform="translate(207.568359 0)"/>
     <use xlink:href="#DejaVuSans-3c" transform="translate(291.357422 0)"/>
     <use xlink:href="#DejaVuSans-20" transform="translate(375.146484 0)"/>
     <use xlink:href="#DejaVuSans-67" transform="translate(406.933594 0)"/>
     <use xlink:href="#DejaVuSans-72" transform="translate(470.410156 0)"/>
     <use xlink:href="#DejaVuSans-65" transform="translate(509.273438 0)"/>
     <use xlink:href="#DejaVuSans-70" transform="translate(570.796875 0)"/>
     <use xlink:href="#DejaVuSans-29" transform="translate(634.273438 0)"/>
    </g>
   </g>
   <g id="text_18">
    <!-- (Ty() &gt;&gt; Ty()) -->
    <g transform="translate(2225.910857 659.278125) scale(0.12 -0.12)">
     <use xlink:href="#DejaVuSans-28"/>
     <use xlink:href="#DejaVuSans-54" transform="translate(39.013672 0)"/>
     <use xlink:href="#DejaVuSans-79" transform="translate(84.472656 0)"/>
     <use xlink:href="#DejaVuSans-28" transform="translate(143.652344 0)"/>
     <use xlink:href="#DejaVuSans-29" transform="translate(182.666016 0)"/>
     <use xlink:href="#DejaVuSans-20" transform="translate(221.679688 0)"/>
     <use xlink:href="#DejaVuSans-3e" transform="translate(253.466797 0)"/>
     <use xlink:href="#DejaVuSans-3e" transform="translate(337.255859 0)"/>
     <use xlink:href="#DejaVuSans-20" transform="translate(421.044922 0)"/>
     <use xlink:href="#DejaVuSans-54" transform="translate(452.832031 0)"/>
     <use xlink:href="#DejaVuSans-79" transform="translate(498.291016 0)"/>
     <use xlink:href="#DejaVuSans-28" transform="translate(557.470703 0)"/>
     <use xlink:href="#DejaVuSans-29" transform="translate(596.484375 0)"/>
     <use xlink:href="#DejaVuSans-29" transform="translate(635.498047 0)"/>
    </g>
   </g>
   <g id="text_19">
    <!-- (grep &gt;&gt; Ty()) -->
    <g transform="translate(2050.642286 709.678125) scale(0.12 -0.12)">
     <use xlink:href="#DejaVuSans-28"/>
     <use xlink:href="#DejaVuSans-67" transform="translate(39.013672 0)"/>
     <use xlink:href="#DejaVuSans-72" transform="translate(102.490234 0)"/>
     <use xlink:href="#DejaVuSans-65" transform="translate(141.353516 0)"/>
     <use xlink:href="#DejaVuSans-70" transform="translate(202.876953 0)"/>
     <use xlink:href="#DejaVuSans-20" transform="translate(266.353516 0)"/>
     <use xlink:href="#DejaVuSans-3e" transform="translate(298.140625 0)"/>
     <use xlink:href="#DejaVuSans-3e" transform="translate(381.929688 0)"/>
     <use xlink:href="#DejaVuSans-20" transform="translate(465.71875 0)"/>
     <use xlink:href="#DejaVuSans-54" transform="translate(497.505859 0)"/>
     <use xlink:href="#DejaVuSans-79" transform="translate(542.964844 0)"/>
     <use xlink:href="#DejaVuSans-28" transform="translate(602.144531 0)"/>
     <use xlink:href="#DejaVuSans-29" transform="translate(641.158203 0)"/>
     <use xlink:href="#DejaVuSans-29" transform="translate(680.171875 0)"/>
    </g>
   </g>
   <g id="text_20">
    <!-- IO -->
    <g transform="translate(2401.179429 760.078125) scale(0.12 -0.12)">
     <use xlink:href="#DejaVuSans-49"/>
     <use xlink:href="#DejaVuSans-4f" transform="translate(29.492188 0)"/>
    </g>
   </g>
   <g id="text_21">
    <!-- (tail &gt;&gt; tail) -->
    <g transform="translate(2576.448 810.478125) scale(0.12 -0.12)">
     <defs>
      <path id="DejaVuSans-69" d="M 603 3500 
L 1178 3500 
L 1178 0 
L 603 0 
L 603 3500 
z
M 603 4863 
L 1178 4863 
L 1178 4134 
L 603 4134 
L 603 4863 
z
" transform="scale(0.015625)"/>
     </defs>
     <use xlink:href="#DejaVuSans-28"/>
     <use xlink:href="#DejaVuSans-74" transform="translate(39.013672 0)"/>
     <use xlink:href="#DejaVuSans-61" transform="translate(78.222656 0)"/>
     <use xlink:href="#DejaVuSans-69" transform="translate(139.501953 0)"/>
     <use xlink:href="#DejaVuSans-6c" transform="translate(167.285156 0)"/>
     <use xlink:href="#DejaVuSans-20" transform="translate(195.068359 0)"/>
     <use xlink:href="#DejaVuSans-3e" transform="translate(226.855469 0)"/>
     <use xlink:href="#DejaVuSans-3e" transform="translate(310.644531 0)"/>
     <use xlink:href="#DejaVuSans-20" transform="translate(394.433594 0)"/>
     <use xlink:href="#DejaVuSans-74" transform="translate(426.220703 0)"/>
     <use xlink:href="#DejaVuSans-61" transform="translate(465.429688 0)"/>
     <use xlink:href="#DejaVuSans-69" transform="translate(526.708984 0)"/>
     <use xlink:href="#DejaVuSans-6c" transform="translate(554.492188 0)"/>
     <use xlink:href="#DejaVuSans-29" transform="translate(582.275391 0)"/>
    </g>
   </g>
   <g id="text_22">
    <!-- (Ty() &gt;&gt; Ty()) -->
    <g transform="translate(2926.985143 860.878125) scale(0.12 -0.12)">
     <use xlink:href="#DejaVuSans-28"/>
     <use xlink:href="#DejaVuSans-54" transform="translate(39.013672 0)"/>
     <use xlink:href="#DejaVuSans-79" transform="translate(84.472656 0)"/>
     <use xlink:href="#DejaVuSans-28" transform="translate(143.652344 0)"/>
     <use xlink:href="#DejaVuSans-29" transform="translate(182.666016 0)"/>
     <use xlink:href="#DejaVuSans-20" transform="translate(221.679688 0)"/>
     <use xlink:href="#DejaVuSans-3e" transform="translate(253.466797 0)"/>
     <use xlink:href="#DejaVuSans-3e" transform="translate(337.255859 0)"/>
     <use xlink:href="#DejaVuSans-20" transform="translate(421.044922 0)"/>
     <use xlink:href="#DejaVuSans-54" transform="translate(452.832031 0)"/>
     <use xlink:href="#DejaVuSans-79" transform="translate(498.291016 0)"/>
     <use xlink:href="#DejaVuSans-28" transform="translate(557.470703 0)"/>
     <use xlink:href="#DejaVuSans-29" transform="translate(596.484375 0)"/>
     <use xlink:href="#DejaVuSans-29" transform="translate(635.498047 0)"/>
    </g>
   </g>
   <g id="text_23">
    <!-- (tail &gt;&gt; Ty()) -->
    <g transform="translate(2751.716571 911.278125) scale(0.12 -0.12)">
     <use xlink:href="#DejaVuSans-28"/>
     <use xlink:href="#DejaVuSans-74" transform="translate(39.013672 0)"/>
     <use xlink:href="#DejaVuSans-61" transform="translate(78.222656 0)"/>
     <use xlink:href="#DejaVuSans-69" transform="translate(139.501953 0)"/>
     <use xlink:href="#DejaVuSans-6c" transform="translate(167.285156 0)"/>
     <use xlink:href="#DejaVuSans-20" transform="translate(195.068359 0)"/>
     <use xlink:href="#DejaVuSans-3e" transform="translate(226.855469 0)"/>
     <use xlink:href="#DejaVuSans-3e" transform="translate(310.644531 0)"/>
     <use xlink:href="#DejaVuSans-20" transform="translate(394.433594 0)"/>
     <use xlink:href="#DejaVuSans-54" transform="translate(426.220703 0)"/>
     <use xlink:href="#DejaVuSans-79" transform="translate(471.679688 0)"/>
     <use xlink:href="#DejaVuSans-28" transform="translate(530.859375 0)"/>
     <use xlink:href="#DejaVuSans-29" transform="translate(569.873047 0)"/>
     <use xlink:href="#DejaVuSans-29" transform="translate(608.886719 0)"/>
    </g>
   </g>
   <g id="text_24">
    <!-- ( @  @  &lt;&lt; wc @ grep @ tail) -->
    <g transform="translate(1919.190857 961.678125) scale(0.12 -0.12)">
     <defs>
      <path id="DejaVuSans-40" d="M 2381 1678 
Q 2381 1231 2603 976 
Q 2825 722 3213 722 
Q 3597 722 3817 978 
Q 4038 1234 4038 1678 
Q 4038 2116 3813 2373 
Q 3588 2631 3206 2631 
Q 2828 2631 2604 2375 
Q 2381 2119 2381 1678 
z
M 4084 744 
Q 3897 503 3655 389 
Q 3413 275 3091 275 
Q 2553 275 2217 664 
Q 1881 1053 1881 1678 
Q 1881 2303 2218 2693 
Q 2556 3084 3091 3084 
Q 3413 3084 3656 2967 
Q 3900 2850 4084 2613 
L 4084 3022 
L 4531 3022 
L 4531 722 
Q 4988 791 5245 1139 
Q 5503 1488 5503 2041 
Q 5503 2375 5404 2669 
Q 5306 2963 5106 3213 
Q 4781 3622 4314 3839 
Q 3847 4056 3297 4056 
Q 2913 4056 2559 3954 
Q 2206 3853 1906 3653 
Q 1416 3334 1139 2817 
Q 863 2300 863 1697 
Q 863 1200 1042 765 
Q 1222 331 1563 0 
Q 1891 -325 2322 -495 
Q 2753 -666 3244 -666 
Q 3647 -666 4036 -530 
Q 4425 -394 4750 -141 
L 5031 -488 
Q 4641 -791 4180 -952 
Q 3719 -1113 3244 -1113 
Q 2666 -1113 2153 -908 
Q 1641 -703 1241 -313 
Q 841 78 631 592 
Q 422 1106 422 1697 
Q 422 2266 634 2781 
Q 847 3297 1241 3688 
Q 1644 4084 2172 4295 
Q 2700 4506 3291 4506 
Q 3953 4506 4520 4234 
Q 5088 3963 5472 3463 
Q 5706 3156 5829 2797 
Q 5953 2438 5953 2053 
Q 5953 1231 5456 756 
Q 4959 281 4084 263 
L 4084 744 
z
" transform="scale(0.015625)"/>
     </defs>
     <use xlink:href="#DejaVuSans-28"/>
     <use xlink:href="#DejaVuSans-20" transform="translate(39.013672 0)"/>
     <use xlink:href="#DejaVuSans-40" transform="translate(70.800781 0)"/>
     <use xlink:href="#DejaVuSans-20" transform="translate(170.800781 0)"/>
     <use xlink:href="#DejaVuSans-20" transform="translate(202.587891 0)"/>
     <use xlink:href="#DejaVuSans-40" transform="translate(234.375 0)"/>
     <use xlink:href="#DejaVuSans-20" transform="translate(334.375 0)"/>
     <use xlink:href="#DejaVuSans-20" transform="translate(366.162109 0)"/>
     <use xlink:href="#DejaVuSans-3c" transform="translate(397.949219 0)"/>
     <use xlink:href="#DejaVuSans-3c" transform="translate(481.738281 0)"/>
     <use xlink:href="#DejaVuSans-20" transform="translate(565.527344 0)"/>
     <use xlink:href="#DejaVuSans-77" transform="translate(597.314453 0)"/>
     <use xlink:href="#DejaVuSans-63" transform="translate(679.101562 0)"/>
     <use xlink:href="#DejaVuSans-20" transform="translate(734.082031 0)"/>
     <use xlink:href="#DejaVuSans-40" transform="translate(765.869141 0)"/>
     <use xlink:href="#DejaVuSans-20" transform="translate(865.869141 0)"/>
     <use xlink:href="#DejaVuSans-67" transform="translate(897.65625 0)"/>
     <use xlink:href="#DejaVuSans-72" transform="translate(961.132812 0)"/>
     <use xlink:href="#DejaVuSans-65" transform="translate(999.996094 0)"/>
     <use xlink:href="#DejaVuSans-70" transform="translate(1061.519531 0)"/>
     <use xlink:href="#DejaVuSans-20" transform="translate(1124.996094 0)"/>
     <use xlink:href="#DejaVuSans-40" transform="translate(1156.783203 0)"/>
     <use xlink:href="#DejaVuSans-20" transform="translate(1256.783203 0)"/>
     <use xlink:href="#DejaVuSans-74" transform="translate(1288.570312 0)"/>
     <use xlink:href="#DejaVuSans-61" transform="translate(1327.779297 0)"/>
     <use xlink:href="#DejaVuSans-69" transform="translate(1389.058594 0)"/>
     <use xlink:href="#DejaVuSans-6c" transform="translate(1416.841797 0)"/>
     <use xlink:href="#DejaVuSans-29" transform="translate(1444.625 0)"/>
    </g>
   </g>
   <g id="text_25">
    <!-- (cat &gt;&gt;  @  @ ) -->
    <g transform="translate(1152.390857 1012.078125) scale(0.12 -0.12)">
     <use xlink:href="#DejaVuSans-28"/>
     <use xlink:href="#DejaVuSans-63" transform="translate(39.013672 0)"/>
     <use xlink:href="#DejaVuSans-61" transform="translate(93.994141 0)"/>
     <use xlink:href="#DejaVuSans-74" transform="translate(155.273438 0)"/>
     <use xlink:href="#DejaVuSans-20" transform="translate(194.482422 0)"/>
     <use xlink:href="#DejaVuSans-3e" transform="translate(226.269531 0)"/>
     <use xlink:href="#DejaVuSans-3e" transform="translate(310.058594 0)"/>
     <use xlink:href="#DejaVuSans-20" transform="translate(393.847656 0)"/>
     <use xlink:href="#DejaVuSans-20" transform="translate(425.634766 0)"/>
     <use xlink:href="#DejaVuSans-40" transform="translate(457.421875 0)"/>
     <use xlink:href="#DejaVuSans-20" transform="translate(557.421875 0)"/>
     <use xlink:href="#DejaVuSans-20" transform="translate(589.208984 0)"/>
     <use xlink:href="#DejaVuSans-40" transform="translate(620.996094 0)"/>
     <use xlink:href="#DejaVuSans-20" transform="translate(720.996094 0)"/>
     <use xlink:href="#DejaVuSans-29" transform="translate(752.783203 0)"/>
    </g>
   </g>
   <g id="text_26">
    <!-- ( @  @  &lt;&lt; cat) -->
    <g transform="translate(1152.390857 1062.478125) scale(0.12 -0.12)">
     <use xlink:href="#DejaVuSans-28"/>
     <use xlink:href="#DejaVuSans-20" transform="translate(39.013672 0)"/>
     <use xlink:href="#DejaVuSans-40" transform="translate(70.800781 0)"/>
     <use xlink:href="#DejaVuSans-20" transform="translate(170.800781 0)"/>
     <use xlink:href="#DejaVuSans-20" transform="translate(202.587891 0)"/>
     <use xlink:href="#DejaVuSans-40" transform="translate(234.375 0)"/>
     <use xlink:href="#DejaVuSans-20" transform="translate(334.375 0)"/>
     <use xlink:href="#DejaVuSans-20" transform="translate(366.162109 0)"/>
     <use xlink:href="#DejaVuSans-3c" transform="translate(397.949219 0)"/>
     <use xlink:href="#DejaVuSans-3c" transform="translate(481.738281 0)"/>
     <use xlink:href="#DejaVuSans-20" transform="translate(565.527344 0)"/>
     <use xlink:href="#DejaVuSans-63" transform="translate(597.314453 0)"/>
     <use xlink:href="#DejaVuSans-61" transform="translate(652.294922 0)"/>
     <use xlink:href="#DejaVuSans-74" transform="translate(713.574219 0)"/>
     <use xlink:href="#DejaVuSans-29" transform="translate(752.783203 0)"/>
    </g>
   </g>
   <g id="text_27">
    <!-- cat -->
    <g transform="translate(156.612321 31.8225) scale(0.24 -0.24)">
     <use xlink:href="#DejaVuSans-63"/>
     <use xlink:href="#DejaVuSans-61" transform="translate(54.980469 0)"/>
     <use xlink:href="#DejaVuSans-74" transform="translate(116.259766 0)"/>
    </g>
   </g>
   <g id="text_28">
    <!-- {}: examples/shell.yaml -&gt; (cat &gt;&gt; cat) -->
    <g transform="translate(107.835268 82.2225) scale(0.24 -0.24)">
     <defs>
      <path id="DejaVuSans-7b" d="M 3272 -594 
L 3272 -1044 
L 3078 -1044 
Q 2300 -1044 2036 -812 
Q 1772 -581 1772 109 
L 1772 856 
Q 1772 1328 1603 1509 
Q 1434 1691 991 1691 
L 800 1691 
L 800 2138 
L 991 2138 
Q 1438 2138 1605 2317 
Q 1772 2497 1772 2963 
L 1772 3713 
Q 1772 4403 2036 4633 
Q 2300 4863 3078 4863 
L 3272 4863 
L 3272 4416 
L 3059 4416 
Q 2619 4416 2484 4278 
Q 2350 4141 2350 3700 
L 2350 2925 
Q 2350 2434 2208 2212 
Q 2066 1991 1722 1913 
Q 2069 1828 2209 1606 
Q 2350 1384 2350 897 
L 2350 122 
Q 2350 -319 2484 -456 
Q 2619 -594 3059 -594 
L 3272 -594 
z
" transform="scale(0.015625)"/>
      <path id="DejaVuSans-7d" d="M 800 -594 
L 1019 -594 
Q 1456 -594 1589 -459 
Q 1722 -325 1722 122 
L 1722 897 
Q 1722 1384 1862 1606 
Q 2003 1828 2350 1913 
Q 2003 1991 1862 2212 
Q 1722 2434 1722 2925 
L 1722 3700 
Q 1722 4144 1589 4280 
Q 1456 4416 1019 4416 
L 800 4416 
L 800 4863 
L 997 4863 
Q 1775 4863 2036 4633 
Q 2297 4403 2297 3713 
L 2297 2963 
Q 2297 2497 2465 2317 
Q 2634 2138 3078 2138 
L 3272 2138 
L 3272 1691 
L 3078 1691 
Q 2634 1691 2465 1509 
Q 2297 1328 2297 856 
L 2297 109 
Q 2297 -581 2036 -812 
Q 1775 -1044 997 -1044 
L 800 -1044 
L 800 -594 
z
" transform="scale(0.015625)"/>
      <path id="DejaVuSans-3a" d="M 750 794 
L 1409 794 
L 1409 0 
L 750 0 
L 750 794 
z
M 750 3309 
L 1409 3309 
L 1409 2516 
L 750 2516 
L 750 3309 
z
" transform="scale(0.015625)"/>
     </defs>
     <use xlink:href="#DejaVuSans-7b"/>
     <use xlink:href="#DejaVuSans-7d" transform="translate(63.623047 0)"/>
     <use xlink:href="#DejaVuSans-3a" transform="translate(127.246094 0)"/>
     <use xlink:href="#DejaVuSans-20" transform="translate(160.9375 0)"/>
     <use xlink:href="#DejaVuSans-65" transform="translate(192.724609 0)"/>
     <use xlink:href="#DejaVuSans-78" transform="translate(252.498047 0)"/>
     <use xlink:href="#DejaVuSans-61" transform="translate(311.677734 0)"/>
     <use xlink:href="#DejaVuSans-6d" transform="translate(372.957031 0)"/>
     <use xlink:href="#DejaVuSans-70" transform="translate(470.369141 0)"/>
     <use xlink:href="#DejaVuSans-6c" transform="translate(533.845703 0)"/>
     <use xlink:href="#DejaVuSans-65" transform="translate(561.628906 0)"/>
     <use xlink:href="#DejaVuSans-73" transform="translate(623.152344 0)"/>
     <use xlink:href="#DejaVuSans-2f" transform="translate(675.251953 0)"/>
     <use xlink:href="#DejaVuSans-73" transform="translate(708.943359 0)"/>
     <use xlink:href="#DejaVuSans-68" transform="translate(761.042969 0)"/>
     <use xlink:href="#DejaVuSans-65" transform="translate(824.421875 0)"/>
     <use xlink:href="#DejaVuSans-6c" transform="translate(885.945312 0)"/>
     <use xlink:href="#DejaVuSans-6c" transform="translate(913.728516 0)"/>
     <use xlink:href="#DejaVuSans-2e" transform="translate(941.511719 0)"/>
     <use xlink:href="#DejaVuSans-79" transform="translate(973.298828 0)"/>
     <use xlink:href="#DejaVuSans-61" transform="translate(1032.478516 0)"/>
     <use xlink:href="#DejaVuSans-6d" transform="translate(1093.757812 0)"/>
     <use xlink:href="#DejaVuSans-6c" transform="translate(1191.169922 0)"/>
     <use xlink:href="#DejaVuSans-20" transform="translate(1218.953125 0)"/>
     <use xlink:href="#DejaVuSans-2d" transform="translate(1250.740234 0)"/>
     <use xlink:href="#DejaVuSans-3e" transform="translate(1286.824219 0)"/>
     <use xlink:href="#DejaVuSans-20" transform="translate(1370.613281 0)"/>
     <use xlink:href="#DejaVuSans-28" transform="translate(1402.400391 0)"/>
     <use xlink:href="#DejaVuSans-63" transform="translate(1441.414062 0)"/>
     <use xlink:href="#DejaVuSans-61" transform="translate(1496.394531 0)"/>
     <use xlink:href="#DejaVuSans-74" transform="translate(1557.673828 0)"/>
     <use xlink:href="#DejaVuSans-20" transform="translate(1596.882812 0)"/>
     <use xlink:href="#DejaVuSans-3e" transform="translate(1628.669922 0)"/>
     <use xlink:href="#DejaVuSans-3e" transform="translate(1712.458984 0)"/>
     <use xlink:href="#DejaVuSans-20" transform="translate(1796.248047 0)"/>
     <use xlink:href="#DejaVuSans-63" transform="translate(1828.035156 0)"/>
     <use xlink:href="#DejaVuSans-61" transform="translate(1883.015625 0)"/>
     <use xlink:href="#DejaVuSans-74" transform="translate(1944.294922 0)"/>
     <use xlink:href="#DejaVuSans-29" transform="translate(1983.503906 0)"/>
    </g>
   </g>
   <g id="text_29">
    <!-- wc -->
    <g transform="translate(684.662411 132.6225) scale(0.24 -0.24)">
     <use xlink:href="#DejaVuSans-77"/>
     <use xlink:href="#DejaVuSans-63" transform="translate(81.787109 0)"/>
    </g>
   </g>
   <g id="text_30">
    <!-- {}: -c -&gt; (wc &gt;&gt; wc) -->
    <g transform="translate(750.350357 183.0225) scale(0.24 -0.24)">
     <use xlink:href="#DejaVuSans-7b"/>
     <use xlink:href="#DejaVuSans-7d" transform="translate(63.623047 0)"/>
     <use xlink:href="#DejaVuSans-3a" transform="translate(127.246094 0)"/>
     <use xlink:href="#DejaVuSans-20" transform="translate(160.9375 0)"/>
     <use xlink:href="#DejaVuSans-2d" transform="translate(192.724609 0)"/>
     <use xlink:href="#DejaVuSans-63" transform="translate(228.808594 0)"/>
     <use xlink:href="#DejaVuSans-20" transform="translate(283.789062 0)"/>
     <use xlink:href="#DejaVuSans-2d" transform="translate(315.576172 0)"/>
     <use xlink:href="#DejaVuSans-3e" transform="translate(351.660156 0)"/>
     <use xlink:href="#DejaVuSans-20" transform="translate(435.449219 0)"/>
     <use xlink:href="#DejaVuSans-28" transform="translate(467.236328 0)"/>
     <use xlink:href="#DejaVuSans-77" transform="translate(506.25 0)"/>
     <use xlink:href="#DejaVuSans-63" transform="translate(588.037109 0)"/>
     <use xlink:href="#DejaVuSans-20" transform="translate(643.017578 0)"/>
     <use xlink:href="#DejaVuSans-3e" transform="translate(674.804688 0)"/>
     <use xlink:href="#DejaVuSans-3e" transform="translate(758.59375 0)"/>
     <use xlink:href="#DejaVuSans-20" transform="translate(842.382812 0)"/>
     <use xlink:href="#DejaVuSans-77" transform="translate(874.169922 0)"/>
     <use xlink:href="#DejaVuSans-63" transform="translate(955.957031 0)"/>
     <use xlink:href="#DejaVuSans-29" transform="translate(1010.9375 0)"/>
    </g>
   </g>
   <g id="text_31">
    <!-- - -->
    <g transform="translate(1211.300625 233.4225) scale(0.24 -0.24)">
     <defs>
      <path id="DejaVuSans-231c" d="M 2581 4413 
L 1000 4413 
L 1000 2722 
L 550 2722 
L 550 4863 
L 2581 4863 
L 2581 4413 
z
" transform="scale(0.015625)"/>
      <path id="DejaVuSans-231d" d="M 419 4413 
L 419 4863 
L 2450 4863 
L 2450 2722 
L 2000 2722 
L 2000 4413 
L 419 4413 
z
" transform="scale(0.015625)"/>
     </defs>
     <use xlink:href="#DejaVuSans-231c"/>
     <use xlink:href="#DejaVuSans-2d" transform="translate(46.875 0)"/>
     <use xlink:href="#DejaVuSans-231d" transform="translate(82.958984 0)"/>
    </g>
   </g>
   <g id="text_32">
    <!-- , -->
    <g transform="translate(1018.322679 283.8225) scale(0.24 -0.24)">
     <defs>
      <path id="DejaVuSans-2308" d="M 550 4863 
L 1875 4863 
L 1875 4416 
L 1125 4416 
L 1125 -844 
L 550 -844 
L 550 4863 
z
" transform="scale(0.015625)"/>
      <path id="DejaVuSans-2212" d="M 678 2272 
L 4684 2272 
L 4684 1741 
L 678 1741 
L 678 2272 
z
" transform="scale(0.015625)"/>
      <path id="DejaVuSans-2c" d="M 750 794 
L 1409 794 
L 1409 256 
L 897 -744 
L 494 -744 
L 750 256 
L 750 794 
z
" transform="scale(0.015625)"/>
      <path id="DejaVuSans-2309" d="M 1947 4863 
L 1947 -844 
L 1372 -844 
L 1372 4416 
L 622 4416 
L 622 4863 
L 1947 4863 
z
" transform="scale(0.015625)"/>
     </defs>
     <use xlink:href="#DejaVuSans-2308"/>
     <use xlink:href="#DejaVuSans-2212" transform="translate(39.013672 0)"/>
     <use xlink:href="#DejaVuSans-2c" transform="translate(122.802734 0)"/>
     <use xlink:href="#DejaVuSans-2212" transform="translate(154.589844 0)"/>
     <use xlink:href="#DejaVuSans-2309" transform="translate(238.378906 0)"/>
    </g>
   </g>
   <g id="text_33">
    <!-- grep -->
    <g transform="translate(1374.865446 334.2225) scale(0.24 -0.24)">
     <use xlink:href="#DejaVuSans-67"/>
     <use xlink:href="#DejaVuSans-72" transform="translate(63.476562 0)"/>
     <use xlink:href="#DejaVuSans-65" transform="translate(102.339844 0)"/>
     <use xlink:href="#DejaVuSans-70" transform="translate(163.863281 0)"/>
    </g>
   </g>
   <g id="text_34">
    <!-- {}: grep -&gt; (grep &gt;&gt; grep) -->
    <g transform="translate(1413.326518 384.6225) scale(0.24 -0.24)">
     <use xlink:href="#DejaVuSans-7b"/>
     <use xlink:href="#DejaVuSans-7d" transform="translate(63.623047 0)"/>
     <use xlink:href="#DejaVuSans-3a" transform="translate(127.246094 0)"/>
     <use xlink:href="#DejaVuSans-20" transform="translate(160.9375 0)"/>
     <use xlink:href="#DejaVuSans-67" transform="translate(192.724609 0)"/>
     <use xlink:href="#DejaVuSans-72" transform="translate(256.201172 0)"/>
     <use xlink:href="#DejaVuSans-65" transform="translate(295.064453 0)"/>
     <use xlink:href="#DejaVuSans-70" transform="translate(356.587891 0)"/>
     <use xlink:href="#DejaVuSans-20" transform="translate(420.064453 0)"/>
     <use xlink:href="#DejaVuSans-2d" transform="translate(451.851562 0)"/>
     <use xlink:href="#DejaVuSans-3e" transform="translate(487.935547 0)"/>
     <use xlink:href="#DejaVuSans-20" transform="translate(571.724609 0)"/>
     <use xlink:href="#DejaVuSans-28" transform="translate(603.511719 0)"/>
     <use xlink:href="#DejaVuSans-67" transform="translate(642.525391 0)"/>
     <use xlink:href="#DejaVuSans-72" transform="translate(706.001953 0)"/>
     <use xlink:href="#DejaVuSans-65" transform="translate(744.865234 0)"/>
     <use xlink:href="#DejaVuSans-70" transform="translate(806.388672 0)"/>
     <use xlink:href="#DejaVuSans-20" transform="translate(869.865234 0)"/>
     <use xlink:href="#DejaVuSans-3e" transform="translate(901.652344 0)"/>
     <use xlink:href="#DejaVuSans-3e" transform="translate(985.441406 0)"/>
     <use xlink:href="#DejaVuSans-20" transform="translate(1069.230469 0)"/>
     <use xlink:href="#DejaVuSans-67" transform="translate(1101.017578 0)"/>
     <use xlink:href="#DejaVuSans-72" transform="translate(1164.494141 0)"/>
     <use xlink:href="#DejaVuSans-65" transform="translate(1203.357422 0)"/>
     <use xlink:href="#DejaVuSans-70" transform="translate(1264.880859 0)"/>
     <use xlink:href="#DejaVuSans-29" transform="translate(1328.357422 0)"/>
    </g>
   </g>
   <g id="text_35">
    <!-- wc -->
    <g transform="translate(1911.542411 435.0225) scale(0.24 -0.24)">
     <use xlink:href="#DejaVuSans-77"/>
     <use xlink:href="#DejaVuSans-63" transform="translate(81.787109 0)"/>
    </g>
   </g>
   <g id="text_36">
    <!-- {}: -c -&gt; (wc &gt;&gt; wc) -->
    <g transform="translate(1977.230357 485.4225) scale(0.24 -0.24)">
     <use xlink:href="#DejaVuSans-7b"/>
     <use xlink:href="#DejaVuSans-7d" transform="translate(63.623047 0)"/>
     <use xlink:href="#DejaVuSans-3a" transform="translate(127.246094 0)"/>
     <use xlink:href="#DejaVuSans-20" transform="translate(160.9375 0)"/>
     <use xlink:href="#DejaVuSans-2d" transform="translate(192.724609 0)"/>
     <use xlink:href="#DejaVuSans-63" transform="translate(228.808594 0)"/>
     <use xlink:href="#DejaVuSans-20" transform="translate(283.789062 0)"/>
     <use xlink:href="#DejaVuSans-2d" transform="translate(315.576172 0)"/>
     <use xlink:href="#DejaVuSans-3e" transform="translate(351.660156 0)"/>
     <use xlink:href="#DejaVuSans-20" transform="translate(435.449219 0)"/>
     <use xlink:href="#DejaVuSans-28" transform="translate(467.236328 0)"/>
     <use xlink:href="#DejaVuSans-77" transform="translate(506.25 0)"/>
     <use xlink:href="#DejaVuSans-63" transform="translate(588.037109 0)"/>
     <use xlink:href="#DejaVuSans-20" transform="translate(643.017578 0)"/>
     <use xlink:href="#DejaVuSans-3e" transform="translate(674.804688 0)"/>
     <use xlink:href="#DejaVuSans-3e" transform="translate(758.59375 0)"/>
     <use xlink:href="#DejaVuSans-20" transform="translate(842.382812 0)"/>
     <use xlink:href="#DejaVuSans-77" transform="translate(874.169922 0)"/>
     <use xlink:href="#DejaVuSans-63" transform="translate(955.957031 0)"/>
     <use xlink:href="#DejaVuSans-29" transform="translate(1010.9375 0)"/>
    </g>
   </g>
   <g id="text_37">
    <!-- , -->
    <g transform="translate(1807.03125 535.8225) scale(0.24 -0.24)">
     <use xlink:href="#DejaVuSans-2308"/>
     <use xlink:href="#DejaVuSans-2212" transform="translate(39.013672 0)"/>
     <use xlink:href="#DejaVuSans-2c" transform="translate(122.802734 0)"/>
     <use xlink:href="#DejaVuSans-2212" transform="translate(154.589844 0)"/>
     <use xlink:href="#DejaVuSans-2309" transform="translate(238.378906 0)"/>
    </g>
   </g>
   <g id="text_38">
    <!-- (||) -->
    <g transform="translate(1822.87125 585.94125) scale(0.24 -0.24)">
     <defs>
      <path id="DejaVuSans-7c" d="M 1344 4891 
L 1344 -1509 
L 813 -1509 
L 813 4891 
L 1344 4891 
z
" transform="scale(0.015625)"/>
     </defs>
     <use xlink:href="#DejaVuSans-28"/>
     <use xlink:href="#DejaVuSans-7c" transform="translate(39.013672 0)"/>
     <use xlink:href="#DejaVuSans-7c" transform="translate(72.705078 0)"/>
     <use xlink:href="#DejaVuSans-29" transform="translate(106.396484 0)"/>
    </g>
   </g>
   <g id="text_39">
    <!-- - -->
    <g transform="translate(2175.277768 636.6225) scale(0.24 -0.24)">
     <use xlink:href="#DejaVuSans-231c"/>
     <use xlink:href="#DejaVuSans-2d" transform="translate(46.875 0)"/>
     <use xlink:href="#DejaVuSans-231d" transform="translate(82.958984 0)"/>
    </g>
   </g>
   <g id="text_40">
    <!-- , -->
    <g transform="translate(1982.299821 687.0225) scale(0.24 -0.24)">
     <use xlink:href="#DejaVuSans-2308"/>
     <use xlink:href="#DejaVuSans-2212" transform="translate(39.013672 0)"/>
     <use xlink:href="#DejaVuSans-2c" transform="translate(122.802734 0)"/>
     <use xlink:href="#DejaVuSans-2212" transform="translate(154.589844 0)"/>
     <use xlink:href="#DejaVuSans-2309" transform="translate(238.378906 0)"/>
    </g>
   </g>
   <g id="text_41">
    <!-- tail -->
    <g transform="translate(2347.400089 737.4225) scale(0.24 -0.24)">
     <use xlink:href="#DejaVuSans-74"/>
     <use xlink:href="#DejaVuSans-61" transform="translate(39.208984 0)"/>
     <use xlink:href="#DejaVuSans-69" transform="translate(100.488281 0)"/>
     <use xlink:href="#DejaVuSans-6c" transform="translate(128.271484 0)"/>
    </g>
   </g>
   <g id="text_42">
    <!-- {}: -2 -&gt; (tail &gt;&gt; tail) -->
    <g transform="translate(2409.737411 787.8225) scale(0.24 -0.24)">
     <use xlink:href="#DejaVuSans-7b"/>
     <use xlink:href="#DejaVuSans-7d" transform="translate(63.623047 0)"/>
     <use xlink:href="#DejaVuSans-3a" transform="translate(127.246094 0)"/>
     <use xlink:href="#DejaVuSans-20" transform="translate(160.9375 0)"/>
     <use xlink:href="#DejaVuSans-2d" transform="translate(192.724609 0)"/>
     <use xlink:href="#DejaVuSans-32" transform="translate(228.808594 0)"/>
     <use xlink:href="#DejaVuSans-20" transform="translate(292.431641 0)"/>
     <use xlink:href="#DejaVuSans-2d" transform="translate(324.21875 0)"/>
     <use xlink:href="#DejaVuSans-3e" transform="translate(360.302734 0)"/>
     <use xlink:href="#DejaVuSans-20" transform="translate(444.091797 0)"/>
     <use xlink:href="#DejaVuSans-28" transform="translate(475.878906 0)"/>
     <use xlink:href="#DejaVuSans-74" transform="translate(514.892578 0)"/>
     <use xlink:href="#DejaVuSans-61" transform="translate(554.101562 0)"/>
     <use xlink:href="#DejaVuSans-69" transform="translate(615.380859 0)"/>
     <use xlink:href="#DejaVuSans-6c" transform="translate(643.164062 0)"/>
     <use xlink:href="#DejaVuSans-20" transform="translate(670.947266 0)"/>
     <use xlink:href="#DejaVuSans-3e" transform="translate(702.734375 0)"/>
     <use xlink:href="#DejaVuSans-3e" transform="translate(786.523438 0)"/>
     <use xlink:href="#DejaVuSans-20" transform="translate(870.3125 0)"/>
     <use xlink:href="#DejaVuSans-74" transform="translate(902.099609 0)"/>
     <use xlink:href="#DejaVuSans-61" transform="translate(941.308594 0)"/>
     <use xlink:href="#DejaVuSans-69" transform="translate(1002.587891 0)"/>
     <use xlink:href="#DejaVuSans-6c" transform="translate(1030.371094 0)"/>
     <use xlink:href="#DejaVuSans-29" transform="translate(1058.154297 0)"/>
    </g>
   </g>
   <g id="text_43">
    <!-- - -->
    <g transform="translate(2876.352054 838.2225) scale(0.24 -0.24)">
     <use xlink:href="#DejaVuSans-231c"/>
     <use xlink:href="#DejaVuSans-2d" transform="translate(46.875 0)"/>
     <use xlink:href="#DejaVuSans-231d" transform="translate(82.958984 0)"/>
    </g>
   </g>
   <g id="text_44">
    <!-- , -->
    <g transform="translate(2683.374107 888.6225) scale(0.24 -0.24)">
     <use xlink:href="#DejaVuSans-2308"/>
     <use xlink:href="#DejaVuSans-2212" transform="translate(39.013672 0)"/>
     <use xlink:href="#DejaVuSans-2c" transform="translate(122.802734 0)"/>
     <use xlink:href="#DejaVuSans-2212" transform="translate(154.589844 0)"/>
     <use xlink:href="#DejaVuSans-2309" transform="translate(238.378906 0)"/>
    </g>
   </g>
   <g id="text_45">
    <!-- (||) -->
    <g transform="translate(1866.688393 938.74125) scale(0.24 -0.24)">
     <use xlink:href="#DejaVuSans-28"/>
     <use xlink:href="#DejaVuSans-7c" transform="translate(39.013672 0)"/>
     <use xlink:href="#DejaVuSans-7c" transform="translate(72.705078 0)"/>
     <use xlink:href="#DejaVuSans-29" transform="translate(106.396484 0)"/>
    </g>
   </g>
   <g id="text_46">
    <!-- , -->
    <g transform="translate(1084.048393 989.4225) scale(0.24 -0.24)">
     <use xlink:href="#DejaVuSans-2308"/>
     <use xlink:href="#DejaVuSans-2212" transform="translate(39.013672 0)"/>
     <use xlink:href="#DejaVuSans-2c" transform="translate(122.802734 0)"/>
     <use xlink:href="#DejaVuSans-2212" transform="translate(154.589844 0)"/>
     <use xlink:href="#DejaVuSans-2309" transform="translate(238.378906 0)"/>
    </g>
   </g>
   <g id="text_47">
    <!-- (||) -->
    <g transform="translate(1099.888393 1039.54125) scale(0.24 -0.24)">
     <use xlink:href="#DejaVuSans-28"/>
     <use xlink:href="#DejaVuSans-7c" transform="translate(39.013672 0)"/>
     <use xlink:href="#DejaVuSans-7c" transform="translate(72.705078 0)"/>
     <use xlink:href="#DejaVuSans-29" transform="translate(106.396484 0)"/>
    </g>
   </g>
  </g>
 </g>
 <defs>
  <clipPath id="paff97f60a9">
   <rect x="0" y="0" width="3067.2" height="1058.4"/>
  </clipPath>
 </defs>
</svg>
