<?xml version="1.0" encoding="utf-8" standalone="no"?>
<!DOCTYPE svg PUBLIC "-//W3C//DTD SVG 1.1//EN"
  "http://www.w3.org/Graphics/SVG/1.1/DTD/svg11.dtd">
<svg xmlns:xlink="http://www.w3.org/1999/xlink" width="144pt" height="72pt" viewBox="0 0 144 72" xmlns="http://www.w3.org/2000/svg" version="1.1">
 <metadata>
  <rdf:RDF xmlns:dc="http://purl.org/dc/elements/1.1/" xmlns:cc="http://creativecommons.org/ns#" xmlns:rdf="http://www.w3.org/1999/02/22-rdf-syntax-ns#">
   <cc:Work>
    <dc:type rdf:resource="http://purl.org/dc/dcmitype/StillImage"/>
    <dc:date>2026-03-11T19:54:36.481680</dc:date>
    <dc:format>image/svg+xml</dc:format>
    <dc:creator>
     <cc:Agent>
      <dc:title>Matplotlib v3.10.8, https://matplotlib.org/</dc:title>
     </cc:Agent>
    </dc:creator>
   </cc:Work>
  </rdf:RDF>
 </metadata>
 <defs>
  <style type="text/css">*{stroke-linejoin: round; stroke-linecap: butt}</style>
 </defs>
 <g id="figure_1">
  <g id="patch_1">
   <path d="M 0 72 
L 144 72 
L 144 0 
L 0 0 
z
" style="fill: #ffffff"/>
  </g>
  <g id="axes_1">
   <g id="patch_2">
    <path d="M 0 72 
L 144 72 
L 144 0 
L 0 0 
z
" clip-path="url(#p6e25636b6d)" style="fill: #ffffff; stroke: #ffffff; stroke-linejoin: miter"/>
   </g>
   <g id="patch_3">
    <path d="M 36 0 
Q 36 18 36 18 
" clip-path="url(#p6e25636b6d)" style="fill: none; stroke: #000000; stroke-linejoin: miter"/>
   </g>
   <g id="patch_4">
    <path d="M 108 0 
Q 108 18 108 18 
" clip-path="url(#p6e25636b6d)" style="fill: none; stroke: #000000; stroke-linejoin: miter"/>
   </g>
   <g id="patch_5">
    <path d="M 72 54 
Q 72 72 72 72 
" clip-path="url(#p6e25636b6d)" style="fill: none; stroke: #000000; stroke-linejoin: miter"/>
   </g>
   <g id="patch_6">
    <path d="M 18 54 
L 18 18 
L 126 18 
L 126 54 
z
" clip-path="url(#p6e25636b6d)" style="fill: #ffffff; stroke: #000000; stroke-linejoin: miter"/>
   </g>
   <g id="text_1">
    <!-- X -->
    <g transform="translate(40.5 12.098438) scale(0.1 -0.1)">
     <defs>
      <path id="DejaVuSans-58" d="M 403 4666 
L 1081 4666 
L 2241 2931 
L 3406 4666 
L 4084 4666 
L 2584 2425 
L 4184 0 
L 3506 0 
L 2194 1984 
L 872 0 
L 191 0 
L 1856 2491 
L 403 4666 
z
" transform="scale(0.015625)"/>
     </defs>
     <use xlink:href="#DejaVuSans-58"/>
    </g>
   </g>
   <g id="text_2">
    <!-- A -->
    <g transform="translate(112.5 12.098438) scale(0.1 -0.1)">
     <defs>
      <path id="DejaVuSans-41" d="M 2188 4044 
L 1331 1722 
L 3047 1722 
L 2188 4044 
z
M 1831 4666 
L 2547 4666 
L 4325 0 
L 3669 0 
L 3244 1197 
L 1141 1197 
L 716 0 
L 50 0 
L 1831 4666 
z
" transform="scale(0.015625)"/>
     </defs>
     <use xlink:href="#DejaVuSans-41"/>
    </g>
   </g>
   <g id="text_3">
    <!-- B -->
    <g transform="translate(76.5 66.098438) scale(0.1 -0.1)">
     <defs>
      <path id="DejaVuSans-42" d="M 1259 2228 
L 1259 519 
L 2272 519 
Q 2781 519 3026 730 
Q 3272 941 3272 1375 
Q 3272 1813 3026 2020 
Q 2781 2228 2272 2228 
L 1259 2228 
z
M 1259 4147 
L 1259 2741 
L 2194 2741 
Q 2656 2741 2882 2914 
Q 3109 3088 3109 3444 
Q 3109 3797 2882 3972 
Q 2656 4147 2194 4147 
L 1259 4147 
z
M 628 4666 
L 2241 4666 
Q 2963 4666 3353 4366 
Q 3744 4066 3744 3513 
Q 3744 3084 3544 2831 
Q 3344 2578 2956 2516 
Q 3422 2416 3680 2098 
Q 3938 1781 3938 1306 
Q 3938 681 3513 340 
Q 3088 0 2303 0 
L 628 0 
L 628 4666 
z
" transform="scale(0.015625)"/>
     </defs>
     <use xlink:href="#DejaVuSans-42"/>
    </g>
   </g>
   <g id="text_4">
    <!-- f -->
    <g transform="translate(70.239844 38.759375) scale(0.1 -0.1)">
     <defs>
      <path id="DejaVuSans-66" d="M 2375 4863 
L 2375 4384 
L 1825 4384 
Q 1516 4384 1395 4259 
Q 1275 4134 1275 3809 
L 1275 3500 
L 2222 3500 
L 2222 3053 
L 1275 3053 
L 1275 0 
L 697 0 
L 697 3053 
L 147 3053 
L 147 3500 
L 697 3500 
L 697 3744 
Q 697 4328 969 4595 
Q 1241 4863 1831 4863 
L 2375 4863 
z
" transform="scale(0.015625)"/>
     </defs>
     <use xlink:href="#DejaVuSans-66"/>
    </g>
   </g>
  </g>
 </g>
 <defs>
  <clipPath id="p6e25636b6d">
   <rect x="0" y="0" width="144" height="72"/>
  </clipPath>
 </defs>
</svg>
