<?xml version="1.0" encoding="utf-8" standalone="no"?>
<!DOCTYPE svg PUBLIC "-//W3C//DTD SVG 1.1//EN"
  "http://www.w3.org/Graphics/SVG/1.1/DTD/svg11.dtd">
<svg xmlns:xlink="http://www.w3.org/1999/xlink" width="360pt" height="432pt" viewBox="0 0 360 432" xmlns="http://www.w3.org/2000/svg" version="1.1">
 <metadata>
  <rdf:RDF xmlns:dc="http://purl.org/dc/elements/1.1/" xmlns:cc="http://creativecommons.org/ns#" xmlns:rdf="http://www.w3.org/1999/02/22-rdf-syntax-ns#">
   <cc:Work>
    <dc:type rdf:resource="http://purl.org/dc/dcmitype/StillImage"/>
    <dc:date>2026-03-10T17:48:27.451338</dc:date>
    <dc:format>image/svg+xml</dc:format>
    <dc:creator>
     <cc:Agent>
      <dc:title>Matplotlib v3.10.8, https://matplotlib.org/</dc:title>
     </cc:Agent>
    </dc:creator>
   </cc:Work>
  </rdf:RDF>
 </metadata>
 <defs>
  <style type="text/css">*{stroke-linejoin: round; stroke-linecap: butt}</style>
 </defs>
 <g id="figure_1">
  <g id="patch_1">
   <path d="M 0 432 
L 360 432 
L 360 0 
L 0 0 
z
" style="fill: #ffffff"/>
  </g>
  <g id="axes_1">
   <g id="patch_2">
    <path d="M 0 432 
L 360 432 
L 360 0 
L 0 0 
z
" clip-path="url(#p49c03f696c)" style="fill: #ffffff; stroke: #ffffff; stroke-linejoin: miter"/>
   </g>
   <g id="patch_3">
    <path d="M 180 36 
Q 18 36 18 72 
" clip-path="url(#p49c03f696c)" style="fill: none; stroke: #000000; stroke-linejoin: miter"/>
   </g>
   <g id="patch_4">
    <path d="M 180 36 
Q 342 36 342 72 
" clip-path="url(#p49c03f696c)" style="fill: none; stroke: #000000; stroke-linejoin: miter"/>
   </g>
   <g id="patch_5">
    <path d="M 72 0 
Q 72 72 72 72 
" clip-path="url(#p49c03f696c)" style="fill: none; stroke: #000000; stroke-linejoin: miter"/>
   </g>
   <g id="patch_6">
    <path d="M 144 0 
Q 144 72 144 72 
" clip-path="url(#p49c03f696c)" style="fill: none; stroke: #000000; stroke-linejoin: miter"/>
   </g>
   <g id="patch_7">
    <path d="M 18 72 
Q 18 360 18 360 
" clip-path="url(#p49c03f696c)" style="fill: none; stroke: #000000; stroke-linejoin: miter"/>
   </g>
   <g id="patch_8">
    <path d="M 72 72 
Q 72 306 72 306 
" clip-path="url(#p49c03f696c)" style="fill: none; stroke: #000000; stroke-linejoin: miter"/>
   </g>
   <g id="patch_9">
    <path d="M 144 72 
Q 144 306 144 306 
" clip-path="url(#p49c03f696c)" style="fill: none; stroke: #000000; stroke-linejoin: miter"/>
   </g>
   <g id="patch_10">
    <path d="M 342 72 
Q 342 360 342 360 
" clip-path="url(#p49c03f696c)" style="fill: none; stroke: #000000; stroke-linejoin: miter"/>
   </g>
   <g id="patch_11">
    <path d="M 216 126 
Q 216 234 216 234 
" clip-path="url(#p49c03f696c)" style="fill: none; stroke: #000000; stroke-linejoin: miter"/>
   </g>
   <g id="patch_12">
    <path d="M 288 198 
Q 288 234 288 234 
" clip-path="url(#p49c03f696c)" style="fill: none; stroke: #000000; stroke-linejoin: miter"/>
   </g>
   <g id="patch_13">
    <path d="M 252 270 
Q 252 306 252 306 
" clip-path="url(#p49c03f696c)" style="fill: none; stroke: #000000; stroke-linejoin: miter"/>
   </g>
   <g id="patch_14">
    <path d="M 126 342 
Q 126 360 126 360 
" clip-path="url(#p49c03f696c)" style="fill: none; stroke: #000000; stroke-linejoin: miter"/>
   </g>
   <g id="patch_15">
    <path d="M 198 342 
Q 198 360 198 360 
" clip-path="url(#p49c03f696c)" style="fill: none; stroke: #000000; stroke-linejoin: miter"/>
   </g>
   <g id="patch_16">
    <path d="M 18 360 
Q 18 396 180 396 
" clip-path="url(#p49c03f696c)" style="fill: none; stroke: #000000; stroke-linejoin: miter"/>
   </g>
   <g id="patch_17">
    <path d="M 126 360 
Q 126 432 126 432 
" clip-path="url(#p49c03f696c)" style="fill: none; stroke: #000000; stroke-linejoin: miter"/>
   </g>
   <g id="patch_18">
    <path d="M 198 360 
Q 198 432 198 432 
" clip-path="url(#p49c03f696c)" style="fill: none; stroke: #000000; stroke-linejoin: miter"/>
   </g>
   <g id="patch_19">
    <path d="M 342 360 
Q 342 396 180 396 
" clip-path="url(#p49c03f696c)" style="fill: none; stroke: #000000; stroke-linejoin: miter"/>
   </g>
   <g id="patch_20">
    <path d="M 198 126 
L 198 90 
L 234 90 
L 234 126 
z
" clip-path="url(#p49c03f696c)" style="fill: #ffffff; stroke: #000000; stroke-linejoin: miter"/>
   </g>
   <g id="patch_21">
    <path d="M 270 198 
L 270 162 
L 306 162 
L 306 198 
z
" clip-path="url(#p49c03f696c)" style="fill: #ffffff; stroke: #000000; stroke-linejoin: miter"/>
   </g>
   <g id="patch_22">
    <path d="M 198 270 
L 198 234 
L 306 234 
L 306 270 
z
" clip-path="url(#p49c03f696c)" style="fill: #ffffff; stroke: #000000; stroke-linejoin: miter"/>
   </g>
   <g id="patch_23">
    <path d="M 54 342 
L 54 306 
L 270 306 
L 270 342 
z
" clip-path="url(#p49c03f696c)" style="fill: #ffffff; stroke: #000000; stroke-linejoin: miter"/>
   </g>
   <g id="text_1">
    <!-- A -->
    <g transform="translate(76.5 12.098437) scale(0.1 -0.1)">
     <defs>
      <path id="DejaVuSans-41" d="M 2188 4044 
L 1331 1722 
L 3047 1722 
L 2188 4044 
z
M 1831 4666 
L 2547 4666 
L 4325 0 
L 3669 0 
L 3244 1197 
L 1141 1197 
L 716 0 
L 50 0 
L 1831 4666 
z
" transform="scale(0.015625)"/>
     </defs>
     <use xlink:href="#DejaVuSans-41"/>
    </g>
   </g>
   <g id="text_2">
    <!-- U -->
    <g transform="translate(148.5 12.098437) scale(0.1 -0.1)">
     <defs>
      <path id="DejaVuSans-55" d="M 556 4666 
L 1191 4666 
L 1191 1831 
Q 1191 1081 1462 751 
Q 1734 422 2344 422 
Q 2950 422 3222 751 
Q 3494 1081 3494 1831 
L 3494 4666 
L 4128 4666 
L 4128 1753 
Q 4128 841 3676 375 
Q 3225 -91 2344 -91 
Q 1459 -91 1007 375 
Q 556 841 556 1753 
L 556 4666 
z
" transform="scale(0.015625)"/>
     </defs>
     <use xlink:href="#DejaVuSans-55"/>
    </g>
   </g>
   <g id="text_3">
    <!-- A -->
    <g transform="translate(76.5 66.098437) scale(0.1 -0.1)">
     <use xlink:href="#DejaVuSans-41"/>
    </g>
   </g>
   <g id="text_4">
    <!-- U -->
    <g transform="translate(148.5 66.098437) scale(0.1 -0.1)">
     <use xlink:href="#DejaVuSans-55"/>
    </g>
   </g>
   <g id="text_5">
    <!-- (B &lt;&lt; A) -->
    <g transform="translate(220.5 138.098437) scale(0.1 -0.1)">
     <defs>
      <path id="DejaVuSans-28" d="M 1984 4856 
Q 1566 4138 1362 3434 
Q 1159 2731 1159 2009 
Q 1159 1288 1364 580 
Q 1569 -128 1984 -844 
L 1484 -844 
Q 1016 -109 783 600 
Q 550 1309 550 2009 
Q 550 2706 781 3412 
Q 1013 4119 1484 4856 
L 1984 4856 
z
" transform="scale(0.015625)"/>
      <path id="DejaVuSans-42" d="M 1259 2228 
L 1259 519 
L 2272 519 
Q 2781 519 3026 730 
Q 3272 941 3272 1375 
Q 3272 1813 3026 2020 
Q 2781 2228 2272 2228 
L 1259 2228 
z
M 1259 4147 
L 1259 2741 
L 2194 2741 
Q 2656 2741 2882 2914 
Q 3109 3088 3109 3444 
Q 3109 3797 2882 3972 
Q 2656 4147 2194 4147 
L 1259 4147 
z
M 628 4666 
L 2241 4666 
Q 2963 4666 3353 4366 
Q 3744 4066 3744 3513 
Q 3744 3084 3544 2831 
Q 3344 2578 2956 2516 
Q 3422 2416 3680 2098 
Q 3938 1781 3938 1306 
Q 3938 681 3513 340 
Q 3088 0 2303 0 
L 628 0 
L 628 4666 
z
" transform="scale(0.015625)"/>
      <path id="DejaVuSans-20" transform="scale(0.015625)"/>
      <path id="DejaVuSans-3c" d="M 4684 3150 
L 1459 2003 
L 4684 863 
L 4684 294 
L 678 1747 
L 678 2266 
L 4684 3719 
L 4684 3150 
z
" transform="scale(0.015625)"/>
      <path id="DejaVuSans-29" d="M 513 4856 
L 1013 4856 
Q 1481 4119 1714 3412 
Q 1947 2706 1947 2009 
Q 1947 1309 1714 600 
Q 1481 -109 1013 -844 
L 513 -844 
Q 928 -128 1133 580 
Q 1338 1288 1338 2009 
Q 1338 2731 1133 3434 
Q 928 4138 513 4856 
z
" transform="scale(0.015625)"/>
     </defs>
     <use xlink:href="#DejaVuSans-28"/>
     <use xlink:href="#DejaVuSans-42" transform="translate(39.013672 0)"/>
     <use xlink:href="#DejaVuSans-20" transform="translate(107.617188 0)"/>
     <use xlink:href="#DejaVuSans-3c" transform="translate(139.404297 0)"/>
     <use xlink:href="#DejaVuSans-3c" transform="translate(223.193359 0)"/>
     <use xlink:href="#DejaVuSans-20" transform="translate(306.982422 0)"/>
     <use xlink:href="#DejaVuSans-41" transform="translate(338.769531 0)"/>
     <use xlink:href="#DejaVuSans-29" transform="translate(407.177734 0)"/>
    </g>
   </g>
   <g id="text_6">
    <!-- (V &lt;&lt; U) -->
    <g transform="translate(292.5 210.098437) scale(0.1 -0.1)">
     <defs>
      <path id="DejaVuSans-56" d="M 1831 0 
L 50 4666 
L 709 4666 
L 2188 738 
L 3669 4666 
L 4325 4666 
L 2547 0 
L 1831 0 
z
" transform="scale(0.015625)"/>
     </defs>
     <use xlink:href="#DejaVuSans-28"/>
     <use xlink:href="#DejaVuSans-56" transform="translate(39.013672 0)"/>
     <use xlink:href="#DejaVuSans-20" transform="translate(107.421875 0)"/>
     <use xlink:href="#DejaVuSans-3c" transform="translate(139.208984 0)"/>
     <use xlink:href="#DejaVuSans-3c" transform="translate(222.998047 0)"/>
     <use xlink:href="#DejaVuSans-20" transform="translate(306.787109 0)"/>
     <use xlink:href="#DejaVuSans-55" transform="translate(338.574219 0)"/>
     <use xlink:href="#DejaVuSans-29" transform="translate(411.767578 0)"/>
    </g>
   </g>
   <g id="text_7">
    <!-- (A @ U &gt;&gt; B @ V) -->
    <g transform="translate(256.5 282.098437) scale(0.1 -0.1)">
     <defs>
      <path id="DejaVuSans-40" d="M 2381 1678 
Q 2381 1231 2603 976 
Q 2825 722 3213 722 
Q 3597 722 3817 978 
Q 4038 1234 4038 1678 
Q 4038 2116 3813 2373 
Q 3588 2631 3206 2631 
Q 2828 2631 2604 2375 
Q 2381 2119 2381 1678 
z
M 4084 744 
Q 3897 503 3655 389 
Q 3413 275 3091 275 
Q 2553 275 2217 664 
Q 1881 1053 1881 1678 
Q 1881 2303 2218 2693 
Q 2556 3084 3091 3084 
Q 3413 3084 3656 2967 
Q 3900 2850 4084 2613 
L 4084 3022 
L 4531 3022 
L 4531 722 
Q 4988 791 5245 1139 
Q 5503 1488 5503 2041 
Q 5503 2375 5404 2669 
Q 5306 2963 5106 3213 
Q 4781 3622 4314 3839 
Q 3847 4056 3297 4056 
Q 2913 4056 2559 3954 
Q 2206 3853 1906 3653 
Q 1416 3334 1139 2817 
Q 863 2300 863 1697 
Q 863 1200 1042 765 
Q 1222 331 1563 0 
Q 1891 -325 2322 -495 
Q 2753 -666 3244 -666 
Q 3647 -666 4036 -530 
Q 4425 -394 4750 -141 
L 5031 -488 
Q 4641 -791 4180 -952 
Q 3719 -1113 3244 -1113 
Q 2666 -1113 2153 -908 
Q 1641 -703 1241 -313 
Q 841 78 631 592 
Q 422 1106 422 1697 
Q 422 2266 634 2781 
Q 847 3297 1241 3688 
Q 1644 4084 2172 4295 
Q 2700 4506 3291 4506 
Q 3953 4506 4520 4234 
Q 5088 3963 5472 3463 
Q 5706 3156 5829 2797 
Q 5953 2438 5953 2053 
Q 5953 1231 5456 756 
Q 4959 281 4084 263 
L 4084 744 
z
" transform="scale(0.015625)"/>
      <path id="DejaVuSans-3e" d="M 678 3150 
L 678 3719 
L 4684 2266 
L 4684 1747 
L 678 294 
L 678 863 
L 3897 2003 
L 678 3150 
z
" transform="scale(0.015625)"/>
     </defs>
     <use xlink:href="#DejaVuSans-28"/>
     <use xlink:href="#DejaVuSans-41" transform="translate(39.013672 0)"/>
     <use xlink:href="#DejaVuSans-20" transform="translate(107.421875 0)"/>
     <use xlink:href="#DejaVuSans-40" transform="translate(139.208984 0)"/>
     <use xlink:href="#DejaVuSans-20" transform="translate(239.208984 0)"/>
     <use xlink:href="#DejaVuSans-55" transform="translate(270.996094 0)"/>
     <use xlink:href="#DejaVuSans-20" transform="translate(344.189453 0)"/>
     <use xlink:href="#DejaVuSans-3e" transform="translate(375.976562 0)"/>
     <use xlink:href="#DejaVuSans-3e" transform="translate(459.765625 0)"/>
     <use xlink:href="#DejaVuSans-20" transform="translate(543.554688 0)"/>
     <use xlink:href="#DejaVuSans-42" transform="translate(575.341797 0)"/>
     <use xlink:href="#DejaVuSans-20" transform="translate(643.945312 0)"/>
     <use xlink:href="#DejaVuSans-40" transform="translate(675.732422 0)"/>
     <use xlink:href="#DejaVuSans-20" transform="translate(775.732422 0)"/>
     <use xlink:href="#DejaVuSans-56" transform="translate(807.519531 0)"/>
     <use xlink:href="#DejaVuSans-29" transform="translate(875.927734 0)"/>
    </g>
   </g>
   <g id="text_8">
    <!-- B -->
    <g transform="translate(130.5 354.098437) scale(0.1 -0.1)">
     <use xlink:href="#DejaVuSans-42"/>
    </g>
   </g>
   <g id="text_9">
    <!-- V -->
    <g transform="translate(202.5 354.098437) scale(0.1 -0.1)">
     <use xlink:href="#DejaVuSans-56"/>
    </g>
   </g>
   <g id="text_10">
    <!-- B -->
    <g transform="translate(130.5 426.098437) scale(0.1 -0.1)">
     <use xlink:href="#DejaVuSans-42"/>
    </g>
   </g>
   <g id="text_11">
    <!-- V -->
    <g transform="translate(202.5 426.098437) scale(0.1 -0.1)">
     <use xlink:href="#DejaVuSans-56"/>
    </g>
   </g>
   <g id="text_12">
    <!-- F -->
    <g transform="translate(213.124219 110.759375) scale(0.1 -0.1)">
     <defs>
      <path id="DejaVuSans-46" d="M 628 4666 
L 3309 4666 
L 3309 4134 
L 1259 4134 
L 1259 2759 
L 3109 2759 
L 3109 2228 
L 1259 2228 
L 1259 0 
L 628 0 
L 628 4666 
z
" transform="scale(0.015625)"/>
     </defs>
     <use xlink:href="#DejaVuSans-46"/>
    </g>
   </g>
   <g id="text_13">
    <!-- G -->
    <g transform="translate(284.125781 182.759375) scale(0.1 -0.1)">
     <defs>
      <path id="DejaVuSans-47" d="M 3809 666 
L 3809 1919 
L 2778 1919 
L 2778 2438 
L 4434 2438 
L 4434 434 
Q 4069 175 3628 42 
Q 3188 -91 2688 -91 
Q 1594 -91 976 548 
Q 359 1188 359 2328 
Q 359 3472 976 4111 
Q 1594 4750 2688 4750 
Q 3144 4750 3555 4637 
Q 3966 4525 4313 4306 
L 4313 3634 
Q 3963 3931 3569 4081 
Q 3175 4231 2741 4231 
Q 1884 4231 1454 3753 
Q 1025 3275 1025 2328 
Q 1025 1384 1454 906 
Q 1884 428 2741 428 
Q 3075 428 3337 486 
Q 3600 544 3809 666 
z
" transform="scale(0.015625)"/>
     </defs>
     <use xlink:href="#DejaVuSans-47"/>
    </g>
   </g>
   <g id="text_14">
    <!-- (||) -->
    <g transform="translate(244.729688 254.642188) scale(0.1 -0.1)">
     <defs>
      <path id="DejaVuSans-7c" d="M 1344 4891 
L 1344 -1509 
L 813 -1509 
L 813 4891 
L 1344 4891 
z
" transform="scale(0.015625)"/>
     </defs>
     <use xlink:href="#DejaVuSans-28"/>
     <use xlink:href="#DejaVuSans-7c" transform="translate(39.013672 0)"/>
     <use xlink:href="#DejaVuSans-7c" transform="translate(72.705078 0)"/>
     <use xlink:href="#DejaVuSans-29" transform="translate(106.396484 0)"/>
    </g>
   </g>
   <g id="text_15">
    <!-- Eval(A @ U &gt;&gt; B @ V) -->
    <g transform="translate(105.682031 326.759375) scale(0.1 -0.1)">
     <defs>
      <path id="DejaVuSans-45" d="M 628 4666 
L 3578 4666 
L 3578 4134 
L 1259 4134 
L 1259 2753 
L 3481 2753 
L 3481 2222 
L 1259 2222 
L 1259 531 
L 3634 531 
L 3634 0 
L 628 0 
L 628 4666 
z
" transform="scale(0.015625)"/>
      <path id="DejaVuSans-76" d="M 191 3500 
L 800 3500 
L 1894 563 
L 2988 3500 
L 3597 3500 
L 2284 0 
L 1503 0 
L 191 3500 
z
" transform="scale(0.015625)"/>
      <path id="DejaVuSans-61" d="M 2194 1759 
Q 1497 1759 1228 1600 
Q 959 1441 959 1056 
Q 959 750 1161 570 
Q 1363 391 1709 391 
Q 2188 391 2477 730 
Q 2766 1069 2766 1631 
L 2766 1759 
L 2194 1759 
z
M 3341 1997 
L 3341 0 
L 2766 0 
L 2766 531 
Q 2569 213 2275 61 
Q 1981 -91 1556 -91 
Q 1019 -91 701 211 
Q 384 513 384 1019 
Q 384 1609 779 1909 
Q 1175 2209 1959 2209 
L 2766 2209 
L 2766 2266 
Q 2766 2663 2505 2880 
Q 2244 3097 1772 3097 
Q 1472 3097 1187 3025 
Q 903 2953 641 2809 
L 641 3341 
Q 956 3463 1253 3523 
Q 1550 3584 1831 3584 
Q 2591 3584 2966 3190 
Q 3341 2797 3341 1997 
z
" transform="scale(0.015625)"/>
      <path id="DejaVuSans-6c" d="M 603 4863 
L 1178 4863 
L 1178 0 
L 603 0 
L 603 4863 
z
" transform="scale(0.015625)"/>
     </defs>
     <use xlink:href="#DejaVuSans-45"/>
     <use xlink:href="#DejaVuSans-76" transform="translate(63.183594 0)"/>
     <use xlink:href="#DejaVuSans-61" transform="translate(122.363281 0)"/>
     <use xlink:href="#DejaVuSans-6c" transform="translate(183.642578 0)"/>
     <use xlink:href="#DejaVuSans-28" transform="translate(211.425781 0)"/>
     <use xlink:href="#DejaVuSans-41" transform="translate(250.439453 0)"/>
     <use xlink:href="#DejaVuSans-20" transform="translate(318.847656 0)"/>
     <use xlink:href="#DejaVuSans-40" transform="translate(350.634766 0)"/>
     <use xlink:href="#DejaVuSans-20" transform="translate(450.634766 0)"/>
     <use xlink:href="#DejaVuSans-55" transform="translate(482.421875 0)"/>
     <use xlink:href="#DejaVuSans-20" transform="translate(555.615234 0)"/>
     <use xlink:href="#DejaVuSans-3e" transform="translate(587.402344 0)"/>
     <use xlink:href="#DejaVuSans-3e" transform="translate(671.191406 0)"/>
     <use xlink:href="#DejaVuSans-20" transform="translate(754.980469 0)"/>
     <use xlink:href="#DejaVuSans-42" transform="translate(786.767578 0)"/>
     <use xlink:href="#DejaVuSans-20" transform="translate(855.371094 0)"/>
     <use xlink:href="#DejaVuSans-40" transform="translate(887.158203 0)"/>
     <use xlink:href="#DejaVuSans-20" transform="translate(987.158203 0)"/>
     <use xlink:href="#DejaVuSans-56" transform="translate(1018.945312 0)"/>
     <use xlink:href="#DejaVuSans-29" transform="translate(1087.353516 0)"/>
    </g>
   </g>
  </g>
 </g>
 <defs>
  <clipPath id="p49c03f696c">
   <rect x="0" y="0" width="360" height="432"/>
  </clipPath>
 </defs>
</svg>
